<svg xmlns="http://www.w3.org/2000/svg" width="1968" height="616" viewBox="0 0 1968 616">
  <g id="AI_info_header_graphic" transform="translate(-936 -256)">
    <rect id="bounding_box" width="1968" height="616" transform="translate(936 256)" fill="none"/>
    <g id="icon_artenvielfalt">
      <path id="Pfad_755" data-name="Pfad 755" d="M2377.174,724.543l-.007-.01-.02-.008Z" fill="#d1de5f"/>
      <path id="Pfad_756" data-name="Pfad 756" d="M2291.865,739.028a23.183,23.183,0,0,0-3.227,2.7c-2.46,2.407-4.316,5.1-4.825,8.433a34.5,34.5,0,0,0-.393,5.812,15.776,15.776,0,0,0,5.411,11.866c.835.758,1.708,1.487,2.6,2.188a21.489,21.489,0,0,1,3.255,2.89,6.877,6.877,0,0,0,4.566,2.38,13.405,13.405,0,0,1,7.252,3.321c2.29,1.969,4.531,3.986,6.857,5.919a45.817,45.817,0,0,0,17.647,9.3,15.925,15.925,0,0,0,8.14.181,17.373,17.373,0,0,1,3.139-.548,58.031,58.031,0,0,1,13.1.772c5.586.918,11.075,2.223,16.6,3.369a121.543,121.543,0,0,0,17.288,2.534,68.656,68.656,0,0,0,22.02-2.205c4.582-1.225,9.158-2.5,13.078-5.149a8.706,8.706,0,0,1,1.8-.826,67.963,67.963,0,0,1,7-2.19c7.521-1.94,15.219-2.1,22.932-1.726a90.426,90.426,0,0,0,18-.689,66.458,66.458,0,0,0,23.253-7.788,33.719,33.719,0,0,0,11.394-9.874c5.286-7.658,5.786-17.009-2.1-24.886-.3-.3-.721-.8-1.284-1.361s-1.409-1.228-1.409-1.228c-1.345-.874-2.756-2.019-4.122-2.8-.713-.411-4.565-2.139-4.65-2.174a49.111,49.111,0,0,0-15.264-3.574.9.9,0,0,1-.905-.738c-.243-.787-.531-1.563-.84-2.331a44.021,44.021,0,0,0-4.572-8.362c-.293-.427-.62-.757-.133-1.333,2.689-3.179,2.9-6.765,1.913-10.505a24.739,24.739,0,0,0-8.009-12.224c-1.5-1.319-2.307-2.521-2.227-4.539.128-3.216-1.537-6.033-3.507-8.636a26,26,0,0,0-9.914-7.923c-.539-.251-1.058-.411-1.121-1.161a12.333,12.333,0,0,0-3.213-6.809,28.07,28.07,0,0,0-9.386-7.126c-.549-.27-1.044-.494-1.171-1.172a12.221,12.221,0,0,0-3.251-5.813,33.287,33.287,0,0,0-11.307-7.864c-.49-.223-1.065-.312-1.392-.8-1.529-2.3-3.96-3.588-6.521-4.688a55.856,55.856,0,0,0-14.173-3.8c-2.021-.291-2.012-.265-2.021-2.16a31.509,31.509,0,0,0-.116-4.6,4.08,4.08,0,0,0-3.445-3.568,7.849,7.849,0,0,0-1.807-.118,3.544,3.544,0,0,0-1.311.345c-1.969.74-3.037,2.019-3,4.014.026,1.483-.055,2.968-.02,4.451.018.795-.216,1.257-1.181,1.317-.781.05-1.556.2-2.33.33a53.819,53.819,0,0,0-14.945,4.592,21.3,21.3,0,0,0-7.1,5.1,5.3,5.3,0,0,1-1.588,1.116,36.316,36.316,0,0,0-6.815,4.755c-2.83,2.538-5.374,5.253-6.272,8.912a1.317,1.317,0,0,1-.832.89,17.457,17.457,0,0,0-3.922,2.643c-3.38,2.93-6.261,6.172-7.422,10.406-.178.651-.689.87-1.2,1.171a29.85,29.85,0,0,0-11.4,11.269,13.028,13.028,0,0,0-1.8,5.864,2.986,2.986,0,0,1-1.271,2.454c-4.958,4.07-8.269,9.014-9.128,15.13a10.91,10.91,0,0,0,1.961,8.653,1.049,1.049,0,0,1,.019,1.485,32.845,32.845,0,0,0-5.536,12.264c-.117.573-.329.915-1.067.916a8.936,8.936,0,0,0-3.23.8,30.364,30.364,0,0,0-11.1,7.329,17.813,17.813,0,0,0-3.93,6.208c-2.415,6.614.179,12.539,6.933,15.839a28.773,28.773,0,0,0,7.29,2.329,43,43,0,0,1,13.534,4.918,35.3,35.3,0,0,0,10.765,3.884,26.465,26.465,0,0,0,6.62.61,2.767,2.767,0,0,0-1.557-.8c-7.186-2.59-13.823-5.95-19.125-11.2a6.583,6.583,0,0,0-3.357-1.663c-1.967-.422-3.945-.806-5.905-1.254-2.632-.6-5.205-1.355-7.234-3.107a7.714,7.714,0,0,1-2.807-5.58c.269.15.387.181.443.252,3.277,4.145,7.946,6.373,13.135,7.887a5.383,5.383,0,0,0,.811.2c.341.045.675.033.8-.365s.032-.684-.461-.817q-1.048-.285-2.08-.625c-5.223-1.724-9.143-4.739-11.3-9.477-.585-1.285-.475-1.7.636-2.78a11.693,11.693,0,0,0,3.486,5.187,25.172,25.172,0,0,0,9.471,5.156,10.418,10.418,0,0,0,1.142.269c.419.084.77.063.9-.425.114-.442.151-.8-.444-.971-.7-.2-1.4-.389-2.075-.636-5.294-1.936-8.906-5.237-10.249-10.4a1.728,1.728,0,0,1,.995-2.136c.694,3.453,2.9,5.888,5.856,7.816a23.267,23.267,0,0,0,7.784,3.206,14.272,14.272,0,0,0,2.158.329c.4.025.662-.089.692-.476.025-.313.008-.63-.411-.736-.486-.123-.979-.227-1.469-.34a19.156,19.156,0,0,1-5.731-2.166,12.134,12.134,0,0,1-6.11-8.458c-.089-.515-.358-1.1.332-1.543,1.7,5.887,6.1,9.134,12.327,10.618.651.155,1.292.347,1.943.5a46.416,46.416,0,0,1,9.091,3.62,60.845,60.845,0,0,0,18.564,5.274c.609.077,1.087.1,1.174-.668.072-.637.086-1.123-.779-1.216q-.5-.055-1-.143c-6.2-1.084-12.283-2.479-17.874-5.275a44.273,44.273,0,0,0-8.254-3.062c-1.022-.278-2.055-.541-3.042-.9-5.15-1.889-8.34-5.251-9.223-10.3-.3-1.726.279-2.4,2.33-2.758,0,1.18-.015,2.354,0,3.528a7.44,7.44,0,0,0,3.442,6.2,22,22,0,0,0,7.146,3.006,41.446,41.446,0,0,1,7.272,2.406,59.061,59.061,0,0,0,13.809,4.363,243.879,243.879,0,0,0,34.038,4.232c6.065.4,12.147.522,18.226.569,6.362.05,12.721-.16,19.071-.523,8.25-.471,16.46-1.281,24.642-2.376a252.874,252.874,0,0,0,25.41-4.691,58.256,58.256,0,0,0,14.869-5.67c3.851-2.143,5.781-5.026,5.194-9.185a5.348,5.348,0,0,1,0-2.333,53.765,53.765,0,0,1,10.7,3.22,16.893,16.893,0,0,0-5.42,3.777,4.66,4.66,0,0,0-1.473,2.373c-.1.8-.616,1.075-1.307,1.379a112.91,112.91,0,0,1-17.484,6.4c-1.061.272-.98.32-.722,1.614.17.858.756.6,1.258.51,7.208-1.243,13.779-4,20.222-7.055.585-.277,1.051-.679.9-1.331a2.564,2.564,0,0,1,.842-2.235,13.807,13.807,0,0,1,3.319-2.816c2.453-1.6,2.451-1.6,4.964.043.123.081.138.161-.007.276a27,27,0,0,0-3.372,1.577c-1.7,1.028-3.381,2.107-4.216,3.865a2.844,2.844,0,0,1-1.478,1.351,92.9,92.9,0,0,1-11.519,5.076c-.937.321-1.071.734-.727,1.676.3.81.888.341,1.386.3a1.019,1.019,0,0,0,.166-.027,74.963,74.963,0,0,0,13.812-5.648c.493-.241,1.1-.6,1.045-1.122-.126-1.186.8-1.733,1.535-2.392a20.71,20.71,0,0,1,3.633-2.489c1.722-.981,1.721-.982,3.145.357a.581.581,0,0,1,.083.131c-.284.438-.833.5-1.265.722a18.846,18.846,0,0,0-5.434,3.839,7.076,7.076,0,0,1-2.386,2.105c-.235.1-.472.263-.429.588a1.18,1.18,0,0,0,1.8.86,13.68,13.68,0,0,0,3.164-2.278,23.541,23.541,0,0,1,5-3.621c1.041-.549,1.117-.542,1.79.3,3.291,4.128,4.309,8.59,2.328,13.474a20.066,20.066,0,0,1-6.688,8.341c-8.225,6.281-17.859,9.3-28.48,9.876-4.837.263-9.683,0-14.524-.024a116.332,116.332,0,0,0-12.816.449,81.193,81.193,0,0,0-21.227,5.245,98.38,98.38,0,0,1-10.1,3.429,63.7,63.7,0,0,1-24.188,1.924c-5.467-.631-10.835-1.763-16.21-2.844a130.714,130.714,0,0,0-28.07-3.005,33.86,33.86,0,0,1-16.548-4.125,48.743,48.743,0,0,1-7.425-5.045,31.773,31.773,0,0,0-13.4-6.159,42.047,42.047,0,0,1-9.584-2.833c-7.171-3.42-10.112-9.759-7.76-16.811,1.4-4.213,4.3-7.481,7.959-10.253a51.463,51.463,0,0,1,7.19-4.56,4.011,4.011,0,0,0,2.012-1.515c-.5-.371-.919-.158-1.332-.052a33.6,33.6,0,0,0-6.081,2.237c-.239.113-1.6.9-2.646,1.5S2292.082,738.881,2291.865,739.028Zm170.552-38.266c3.088,2.869,5.563,5.941,6.333,9.967a3.805,3.805,0,0,1-1.854,4.248,37.319,37.319,0,0,1-11.432,5.126c-5.5,1.47-11.139,2.426-16.77,3.382-6.8,1.153-13.647,2.017-20.518,2.7-4.7.466-9.407.785-14.126,1.035-7.652.407-15.3.382-22.961.256-2.519-.042-5.036-.2-7.589-.307.629-1.359.5-1.621-.955-1.829a3.306,3.306,0,0,1-1.14-.493c.6-.441.614-.443,2.015-.54a40.338,40.338,0,0,1-1.31-4.335,19.761,19.761,0,0,1,.8-8.614c.162-.576.509-.717,1.09-.673,1,.075,2,.123,3.216.2-1.916,4.611-3.057,9.156-.048,13.655a2.763,2.763,0,0,0,.617.185c.554.041,1.219.173,1.565-.309.371-.518-.336-.775-.582-1.125a7.985,7.985,0,0,1-1.435-3.726,18.716,18.716,0,0,1,.829-7.586c.255-.844.677-1.114,1.638-1.1,4.165.06,8.332.027,12.5.061,6.083.05,12.16-.167,18.229-.452,5.837-.274,11.672-.662,17.472-1.375a1.953,1.953,0,0,1,.476.059c.138.286-.032.511-.115.734-1.5,4.017,1.615,7.558,5.609,8.286a9.564,9.564,0,0,0,6.217-.812c3.721-1.915,4.729-5.7,2.357-8.933-.215-.293-.449-.573-.76-.968a24.843,24.843,0,0,1,4.091-.859c2.69-.53,5.371-1.078,8-1.832A23.51,23.51,0,0,0,2462.417,700.762Zm-95.674,18.857a19.255,19.255,0,0,1,.753-8.335c.173-.633.531-.815,1.188-.786.78.035,1.563.008,2.4.008a2.642,2.642,0,0,1-.3,1.57,16.992,16.992,0,0,0,.108,12.03c.107.271.144.575.466.724-.269.836.5,1.4.683,2.14-.485.268-.965-.051-1.44,0a1.42,1.42,0,0,1-1.74-1.054,1.345,1.345,0,0,0-1.494-.964,3.893,3.893,0,0,1-.991-.176c-.213-.056-.4-.178-.4-.424,0-.289.246-.3.457-.329a3.405,3.405,0,0,0,1.407-.158C2367.589,722.441,2366.983,721.07,2366.743,719.619Zm81.847-37.764a.925.925,0,0,1,1.41-.165c3.808,2.6,6.9,5.733,8.552,9.852,1.075,2.677.462,4.08-2.222,5.529a37.71,37.71,0,0,1-9.312,3.075,190.836,190.836,0,0,1-22.175,3.781,235.98,235.98,0,0,1-30.636,1.664,219.178,219.178,0,0,1-50.126-6.357,63.4,63.4,0,0,1-6.69-1.952l.123-.3c2.022.387,4.041.783,6.065,1.158q12.382,2.29,24.9,3.876a227.419,227.419,0,0,0,39.4,1.424,214.684,214.684,0,0,0,45.308-6.668c.592-.158,1.176-.341,1.76-.521.155-.047.3-.128.575-.249a1.672,1.672,0,0,0-1.129.011q-11.66,2.46-23.521,3.913a295.456,295.456,0,0,1-37.373,1.949q-7.764-.042-15.521-.509c-2.693-.163-5.379-.411-8.067-.629a.7.7,0,0,1-.663-.3,8.8,8.8,0,0,1-1.136-8.468.65.65,0,0,0-.1-.724c-1.659,3.043-2.125,6.024-.515,9.14a3.1,3.1,0,0,1-.537.071c-1.859-.1-2.209-.309-2.654-1.908a14.609,14.609,0,0,1,.487-8.325.646.646,0,0,1,.684-.546,52.23,52.23,0,0,1,7.525.375,7.693,7.693,0,0,0-1.48,5.2c.01.152.054.361-.033.451-.994,1.029-.145,1.8.465,2.548a7.288,7.288,0,0,0,5.5,2.583,9.126,9.126,0,0,0,6.935-2.2,6.147,6.147,0,0,0,1.6-7.353c-.13-.282-.288-.553-.431-.827.361-.529.922-.314,1.385-.321,3.771-.058,7.544-.041,11.313-.141q10.374-.276,20.712-1.143c5.43-.459,10.834-1.065,16.2-1.92a53.849,53.849,0,0,0,7.044-1.5A13.639,13.639,0,0,0,2448.59,681.855Zm-96.855,38.667a31.5,31.5,0,0,1,.337-10.072c.075-.393.055-.885.458-1.109a1.5,1.5,0,0,1,1.292.057c.373.17.175.543.1.825a29.72,29.72,0,0,0-.008,13.833,3.608,3.608,0,0,1,.106.6c.011.276.21.677-.275.74-.417.054-1.068.1-1.049-.464.06-1.764-1.321-1.655-2.579-1.749a4.071,4.071,0,0,1-.668-.07c-.365-.092-.852-.137-.763-.631.078-.432.514-.268.82-.283a4.27,4.27,0,0,1,.5.032C2351.974,722.344,2351.972,722.345,2351.735,720.522Zm2.32,2.457a5.406,5.406,0,0,1,3.353.222c.08.191.169.434-.009.545-.613.383-1.285.016-1.934.046A1.258,1.258,0,0,1,2354.055,722.979Zm3.374.218c-.211-1.817-.716-3.594-.841-5.427a24.338,24.338,0,0,1,.685-7.291,1.318,1.318,0,0,1,1.936-.665c.368.217.266.531.181.82a29.2,29.2,0,0,0-.694,3.3,22.136,22.136,0,0,0,.561,9.106c.168.7.354,1.389.489,2.09.059.308.321.745-.294.854-.526.092-1.029.038-1.209-.54-.168-.537-.312-1.08-.476-1.619C2357.7,723.6,2357.671,723.346,2357.429,723.2Zm2.365.628c.01-.25.191-.336.435-.358a10.019,10.019,0,0,0,2.3-.108c-.293-1.332-.629-2.658-.871-4a20.652,20.652,0,0,1,.607-8.672.717.717,0,0,1,.931-.637c.651.113,1.31.188,2.124.3-2.023,5.438-1.583,10.753.439,16.011-1.741.306-1.782.32-2.305-.922a1.414,1.414,0,0,0-1.491-.981,12.24,12.24,0,0,1-1.843-.152A.446.446,0,0,1,2359.794,723.825ZM2347.3,719.2c.1,1.479.407,2.93.649,4.39.044.264.213.653-.263.756a.6.6,0,0,1-.8-.565c-.07-.991-.732-1.274-1.7-1.27a3.585,3.585,0,0,1-.653-.141c-.388-.073-.845-.11-.715-.626.139-.552.589-.281.941-.236a4.373,4.373,0,0,0,1.673.018,42.832,42.832,0,0,1-.2-8.443,28.84,28.84,0,0,1,.64-3.773c.128-.557.354-.829,1.015-.657.684.179.441.634.339.992A27.854,27.854,0,0,0,2347.3,719.2Zm-6.093,1.98c0,.392-.054.688-.283.639a7.035,7.035,0,0,1-2.249-.446.461.461,0,0,1-.164-.394c.015-.124.171-.338.253-.333a7.067,7.067,0,0,1,2.132.234A.5.5,0,0,1,2341.211,721.184Zm12.427-22.468c-1.07.131-1.118-.45-1.154-1.036a24.887,24.887,0,0,1,.351-5.178c.151-1.007.4-2,.646-3,.084-.345.249-.708.782-.618s.576.428.457.812A25.274,25.274,0,0,0,2353.638,698.716Zm4.165-2.059c.037.852.171,1.7.269,2.626-.8.048-1.43.109-1.541-.783a23.227,23.227,0,0,1,.776-8.8c.194-.746.772-.635,1.312-.508.717.168.338.622.231.984A19.656,19.656,0,0,0,2357.8,696.657Zm4.6,2.354c.068.311.32.771-.3.836-.523.055-1.134.155-1.357-.551a11.634,11.634,0,0,1-.537-3.155,20.286,20.286,0,0,1,.681-5.442c.327-1.341.378-1.36,1.892-1.264a7.855,7.855,0,0,1,.81.151c-.322,1.085-.606,2.008-.869,2.935A13.106,13.106,0,0,0,2362.407,699.011Zm29.9-61.415h.009c0-1.584,0-3.168,0-4.752,0-.51.095-.9.816-.9.757,0,.755.443.753.927-.013,3.168-.016,6.336-.038,9.5,0,.379.122.848-.534.964s-.986-.121-1-.841C2392.29,640.866,2392.308,639.231,2392.308,637.6Zm-6.594,5.774c.422-.325.465-.834.84-1.075.391-.252.655-.723,1.361-.741a7.421,7.421,0,0,1-.55,1.834c-.326,1.056-.054,1.645,1.058,2.089a7.617,7.617,0,0,0,1.616.407,18.171,18.171,0,0,0,6.2-.01c2.911-.539,3.5-1.347,2.909-3.964,1.329.738,2.831.5,4.234.768a37.75,37.75,0,0,1,9.065,2.794,10.008,10.008,0,0,1,2.375,1.448c1.177,1.025,1.017,1.872-.463,2.452a21.218,21.218,0,0,1-4.062.994,117.281,117.281,0,0,1-28.357,1.871,28.483,28.483,0,0,1-8.068-1.459c-.646-.24-1.369-.411-1.7-1.149,12.2,1.91,24.217,1.125,36.162-1.2a16.371,16.371,0,0,0-3.977.31c-1.231.091-2.45.3-3.678.426-.654.065-1.313.2-1.518-.735-.128-.582-.778-.971-1.436-1.461-.065.934.938,1.361.851,2.187a8.053,8.053,0,0,1-3.107.276c-.2-.5.07-.94.056-1.389-.017-.565-.26-.872-.909-.843-.626.028-.888.31-.838.9.039.447.258.9-.04,1.443l-2.111.1.89-2.047c-1.645-.7-1.645-.7-2.193.807-.539,1.481-.539,1.481-2.45,1.28.479-1.033,1.712-1.454,2.417-2.511a5.385,5.385,0,0,1-2.149-.486c-1.1-.44-2.232-1.028-1.981-2.315C2386.279,643.778,2385.281,643.7,2385.714,643.37Zm-15.627,19.264a12.325,12.325,0,0,1,2.585-4.922,1.418,1.418,0,0,1,1.912-.509,10.933,10.933,0,0,0-4.126,6.047C2369.907,663.137,2370.027,662.869,2370.087,662.634Zm-.565-4.751c-.094.069-.167.029-.222-.16.257-.366.4-.893,1.249-.869A3.14,3.14,0,0,1,2369.522,657.883Zm18.161-9.979c-1.688,1.831-1.688,1.831-2.971,1.809A10.587,10.587,0,0,1,2387.683,647.9Zm-19.446.753a7.225,7.225,0,0,1,2.194-1.863,34.306,34.306,0,0,1,6.556-3.046.486.486,0,0,1,.509.067c-1.706,1.064-3.409,2.113-5.1,3.183a21.14,21.14,0,0,0-2.612,1.911c-.893.78-1.554,1.62-1.132,2.871C2367.5,650.621,2367.418,649.829,2368.237,648.657Zm42.08,7.245c.4-.036,1.189-.217,1.61-.27a21.358,21.358,0,0,0,5.354-1.3,6.876,6.876,0,0,0,2.837-1.879c.442-.537.851-.476,1.424-.2a25.07,25.07,0,0,1,8.062,5.966c2.2,2.535,1.741,3.842-1.634,4.732a82.323,82.323,0,0,1-8.925,1.587c-4.994.741-10.01,1.36-15.049,1.763a144.644,144.644,0,0,1-23.94.185,112.273,112.273,0,0,1-14.321-1.951,7.419,7.419,0,0,1-2.946-1.08c4.926.325,9.819.863,14.74,1.066,5.007.207,10.017.371,15.026.19,4.946-.178,9.9-.356,14.821-.837a84.7,84.7,0,0,0,14.713-2.373c-2.115.224-4.237.405-6.344.683-3.01.4-6.043.583-9.069.779q-12.639.818-25.314.616c-1.407-.022-2.812-.119-4.219-.147-.67-.014-.865-.29-.819-.861a10.852,10.852,0,0,1,.772-3.133,7.27,7.27,0,0,0,.478-1.451,7.6,7.6,0,0,0-2.944,3.862,4.343,4.343,0,0,0-.244.892c-.055.416-.211.7-.734.6-.615-.112-.386-.552-.331-.861a10.72,10.72,0,0,1,2.4-4.848c.5-.619,1.156-.522,1.819-.52q6,.021,11.992.049a175.291,175.291,0,0,0,18.35-1C2409.024,656.056,2409.915,655.938,2410.317,655.9Zm-51.2,22.1a20.553,20.553,0,0,1,3.067-6.557.852.852,0,0,1,1.32-.307,20.18,20.18,0,0,0-4.116,7.9A.835.835,0,0,1,2359.112,678Zm-1-3.77c-.171.651-.737.577-1.2.388-.509-.207-.276-.588-.075-.9.47-.737,1.193-1.339,1.312-2.265.037-.283.2-.27,1.9-.06A4.784,4.784,0,0,0,2358.117,674.233Zm4.593,3.963a17.7,17.7,0,0,1,2.716-6.526c.458-.756,1.016-.6,1.858-.335a14.989,14.989,0,0,0-3.638,7.171,1.78,1.78,0,0,1-.163.587.552.552,0,0,1-.4.2c-.229.007-.454-.1-.461-.339A4.415,4.415,0,0,1,2362.71,678.2Zm-9.558-16.082a9.38,9.38,0,0,1,1.853-3.245,28.175,28.175,0,0,1,6.286-5.518c.929-.615.95-.6,1.547.365.16.26.431.481.405.864-1.466,1.06-2.959,2.139-4.45,3.22a34.592,34.592,0,0,0-3.471,2.908c-1.089,1.031-1.916,2.144-1.2,3.822C2353,663.647,2352.83,663.2,2353.152,662.114ZM2392.8,681.79c13.784-.124,27.46-1.15,40.882-4.206a402.633,402.633,0,0,1-59.593,2.388c.635-1.288-.389-2.26-.244-3.379a20.622,20.622,0,0,1,.835-3.356,5.378,5.378,0,0,0-1.76,6.572,14.738,14.738,0,0,1-2.756.039,11.356,11.356,0,0,1,1.663-7.838c-.651-.347-.878.068-1.086.31a9.915,9.915,0,0,0-2.839,6.413c0,.451.131.94-.7.921s-.874-.447-.846-1.019a14.033,14.033,0,0,1,2.349-6.808,1.089,1.089,0,0,1,1.081-.556c1.012.038,2.028.014,3.039.066,9.449.481,18.906.347,28.356.146q9.356-.2,18.673-1.187a72.425,72.425,0,0,0,9.287-1.457,14.03,14.03,0,0,0,5.582-2.41,1.112,1.112,0,0,1,1.477-.059,22.735,22.735,0,0,1,7.23,6.556c.088.13.165.267.244.4,1.384,2.4.923,3.795-1.727,4.994a33.086,33.086,0,0,1-8.229,2.156c-7.241,1.224-14.542,2.091-21.868,2.746a222.388,222.388,0,0,1-27.643.93,150.162,150.162,0,0,1-25.583-2.716,32.621,32.621,0,0,1-5.291-1.515,3.416,3.416,0,0,1-1.916-1.334A231.977,231.977,0,0,0,2392.8,681.79Zm-42.25,6.989c.151.026.315.11.266.311s-.083.4-.14.6a28.576,28.576,0,0,0-1.179,7.724.645.645,0,0,1-.355.711c-.494-.276-.4-.664-.4-1.008a27.693,27.693,0,0,1,.966-7.442,2.9,2.9,0,0,1,.393-.836C2350.149,688.761,2350.4,688.754,2350.55,688.779Zm-9.492-12.308a6.577,6.577,0,0,1,.856-2.312,21.82,21.82,0,0,1,5.591-6.465c1.242-.972,1.146-.817,2.007.006.266.253.558.485.891.773a5.014,5.014,0,0,1-1.268,1.225,43.5,43.5,0,0,0-4.894,4.854c-1.471,1.784-2.615,3.624-1.12,5.932A3.985,3.985,0,0,1,2341.058,676.471Zm-23.977,36.011a15.726,15.726,0,0,1,3.225-8.436,19.01,19.01,0,0,1,3.394-3.847l3.391,2.4c-.837.9-1.651,1.727-2.412,2.6a27.2,27.2,0,0,0-4.908,7.466c-.157.382-.273.778-.411,1.167-.278.777-.217,1.395.825,1.643.623.149.994.473.616,1.168l-1.508-.438c-.408,1.72.769,2.873,1.578,4.177a3.8,3.8,0,0,1-1.963-1.5A9.14,9.14,0,0,1,2317.081,712.482Zm8.571,5.48c-.085.361-.381.324-.65.227-.519-.188-1.037-.385-1.534-.616-.242-.112-.172-.367-.107-.553a.328.328,0,0,1,.4-.2q.792.261,1.584.522A.454.454,0,0,1,2325.652,717.962Zm1.572,31.25a19.991,19.991,0,0,1-8.792-.8c-4.3-1.508-6.8-4.286-7.028-8.5-.277-5.159,1.593-9.732,5.054-13.783a11.135,11.135,0,0,1,1.577-1.377c.532-.424.933-.045,1.308.254.484.387.03.625-.217.866a19.854,19.854,0,0,0-5.776,11.672c-.7,4.679,1.483,8.1,6.331,9.77a23.966,23.966,0,0,0,8.448,1.109c.392-.009.783,0,1.479,0A3.763,3.763,0,0,1,2327.224,749.212Zm3.413-29.834c-.029.158-.131.4-.383.34a7.148,7.148,0,0,1-2.044-.591c-.218-.125-.187-.357-.125-.549a.3.3,0,0,1,.358-.236c.639.158,1.277.323,1.908.5C2330.59,718.914,2330.67,719.1,2330.637,719.378Zm-.509-21.213c.194.247.38.5.56.755.018.025-.029.087-.046.132-3.243-1.842-4.473-4.579-3.267-7.659,1.67-4.262,4.8-7.528,8.59-10.232.229.073.3.075.326.107.519.778,1.448,1.567,1.431,2.339-.017.8-1.249,1.334-1.929,2a45.424,45.424,0,0,0-4.69,5.216,13.134,13.134,0,0,0-1.595,2.691A4.312,4.312,0,0,0,2330.128,698.165Zm3.1,21.674c.117-.321.4-.284.842-.169.321.046.818.1,1.3.2a.536.536,0,0,1,.475.676c-.082.456-.394.361-.73.279-.48-.117-.968-.2-1.449-.317C2333.3,720.416,2333.1,720.2,2333.232,719.839Zm17.741,32.265a17.989,17.989,0,0,0-.322,3.334c0,.252-.061.522-.432.535-.437.016-.573-.256-.585-.587-.018-.456-.005-.914-.005-1.371l-.054-.005c.092-.705.168-1.412.28-2.113a.529.529,0,0,1,.691-.478C2350.993,751.494,2351.03,751.787,2350.973,752.1Zm.358-1.772a.625.625,0,0,1-.848.51c-.481-.112-.362-.422-.3-.725a29.343,29.343,0,0,1,2.274-6.561c.2-.416.415-.824.795-1.574a15.556,15.556,0,0,1-6.236,1.182c-.757-.045-.919.383-1.094.909-.681,2.051-1.471,4.074-1.99,6.168-.045.182-.017.4-.387.5a3.58,3.58,0,0,1-.172-2.215,15.949,15.949,0,0,1,1.168-4.615c.239-.561.251-.931-.583-1.074a11.078,11.078,0,0,1-4.432-1.779c-.7-.484-1.01-.281-1.411.333a33.667,33.667,0,0,0-2.922,5.09.834.834,0,0,1-.325-1.029,9.819,9.819,0,0,1,2.291-4.879,1,1,0,0,0,.023-1.561,6.558,6.558,0,0,1-1.391-6.091,4.531,4.531,0,0,1,.46-1.147c.276-.464.76-.354,1.189-.207a.5.5,0,0,1,.309.755,5.531,5.531,0,0,0-.488,2.4,5.921,5.921,0,0,0,2.209,4.336c3.631,3.143,10.547,3.488,14.538.714a6.3,6.3,0,0,0,2.421-3.24c.4-1.18.422-1.174,1.942-.971a12.176,12.176,0,0,1-1.849,3.87,33.142,33.142,0,0,0-5.045,10.31C2351.419,749.931,2351.382,750.133,2351.331,750.332Zm4.769,5.744c-.02.323-.07.606-.541.585-.367-.016-.663-.129-.7-.5-.045-.5-.055-1.006-.084-1.587.039-.478.08-1.031.13-1.584.042-.464.24-.75.841-.677.527.064.594.347.562.745C2356.23,754.063,2356.166,755.07,2356.1,756.076Zm.562-5.021c-.127.515-.475.609-1.007.5s-.6-.382-.511-.785a37.594,37.594,0,0,1,1.144-4.311,43.528,43.528,0,0,1,4.671-9.311c.85-1.319.856-1.316,2.739-.9-.343.543-.661,1.071-1,1.585a40.176,40.176,0,0,0-5.965,12.923C2356.707,750.855,2356.687,750.956,2356.662,751.055Zm4.914,6.285c-.564-.013-1.136.006-1.145-.754-.01-.91-.084-1.82-.124-2.73-.023-.505.216-.743.805-.683.514.051,1.017.046.963.731-.041.5-.008,1.011-.008,1.868,0,0,.029.358.031.711C2362.1,756.852,2362.338,757.358,2361.576,757.34Zm-.415-5.251c-.609-.052-.772-.319-.695-.8.122-.757.223-1.519.4-2.267a36.406,36.406,0,0,1,5.475-11.945c.6-.9,1.227-.945,2.9-.327-.008.554-.468.908-.762,1.32a32.8,32.8,0,0,0-6.043,13.174C2362.3,751.971,2361.907,752.152,2361.161,752.089Zm6.49,5.814c-.548.017-1.275.276-1.5-.543a9.693,9.693,0,0,1-.254-3.706c.417.042.636.082.855.083.805.005,1.2.281,1.138,1.094a14.507,14.507,0,0,0,.132,2.265C2368.056,757.441,2368.244,757.884,2367.651,757.9Zm-1.483-5.521c-.47-.215-.324-.611-.284-.938a25.263,25.263,0,0,1,1.089-4.951,38.1,38.1,0,0,1,4.386-8.76,1.853,1.853,0,0,1,2.186-.94,19.532,19.532,0,0,0,1.952.2c-.523.708-.888,1.212-1.264,1.709a29.992,29.992,0,0,0-6.09,12.826A1.294,1.294,0,0,1,2366.168,752.382Zm5.355,3.769c-.016-.1-.046-.2-.061-.3-.265-1.818-.279-1.7,1.758-1.635.741.021.933.41.962.984a10.069,10.069,0,0,0,.689,3.2C2371.908,758.542,2371.909,758.542,2371.523,756.151Zm2.8-4.4c-.046.789-.442,1.108-1.29.993a3.15,3.15,0,0,0-.337-.009c-1.429-.034-1.465-.051-1.322-1.278a23.067,23.067,0,0,1,1.033-4.793,41.211,41.211,0,0,1,4.345-8.761,1.808,1.808,0,0,1,1.892-.922c1,.072,2.013.016,3.446.016-.655.836-1.073,1.362-1.482,1.894a32.1,32.1,0,0,0-5.683,10.17A11.886,11.886,0,0,0,2374.318,751.747Zm7.2,2.993c13.718.45,27.405.219,41-1.781,1.495-.22,2.979-.5,4.468-.757.367-.063.763-.072,1.01-.4a1.457,1.457,0,0,0-.991-.075,220.777,220.777,0,0,1-25.022,1.606c-7.088.091-13.554.079-20.633-.225l-1.69-.119c-.447-.04-.9-.013-1.351-.021-1.626-.03-1.66-.072-1.494-1.6.534-4.948,2.719-9.348,5.42-13.582a1.5,1.5,0,0,1,1.529-.691c5.8.277,11.594.049,17.387-.13,6.181-.191,12.348-.606,18.509-1.149a254.059,254.059,0,0,0,25.31-3.455c2.472-.471,4.934-1,7.366-1.612.874-.221,1.189-.033,1.5.668a28.2,28.2,0,0,1,2.4,8.115,30.367,30.367,0,0,1-.548,11.284,2.083,2.083,0,0,1-1.865,1.638,223.992,223.992,0,0,1-22.478,3.967c-8.694,1.108-17.422,1.814-26.192,2.192-6.583.284-13.164.292-19.75.254-.389,0-.779-.031-1.177-.047l-1.54-.052a28.483,28.483,0,0,1-4.141-.079.975.975,0,0,1-.924-.751,9.064,9.064,0,0,1-.653-3.245,3.3,3.3,0,0,1,1.71-.164Zm90.519-10.277a56.182,56.182,0,0,1-12.523,4.88,17.3,17.3,0,0,0,.468-3.009c-.033-1.145.664-1.44,1.665-1.681a32.334,32.334,0,0,0,5.361-1.817c4.1-1.795,3.344-1.658,3.21-4.688a29.866,29.866,0,0,0-2.892-11.131c-.154-.337-.681-.741-.214-1.089a7.091,7.091,0,0,1,1.757-.867c.306-.115.474.227.615.43,3.095,4.445,5.123,9.2,5.083,14.55A4.786,4.786,0,0,1,2472.041,744.463Z" fill="#d1de5f"/>
      <path id="Pfad_757" data-name="Pfad 757" d="M2346.271,583.01a6.572,6.572,0,0,0-1.173,3.155c-.057,1.662,1.277,2.827,3.2,2.875a4.79,4.79,0,0,0,3.906-1.975,39.448,39.448,0,0,1,15.282-10.345,68.006,68.006,0,0,1,31.042-4.684,51.452,51.452,0,0,1,22.689,6.975,33.889,33.889,0,0,1,7.086,5.508,4.245,4.245,0,0,0,3.463,1.487c2.34-.084,3.693-1.64,3.091-3.592a7.975,7.975,0,0,0-1.3-2.336,25.691,25.691,0,0,0-5.3-5.2c-10.863-8.145-23.6-11.943-38.018-11.746a66.85,66.85,0,0,0-14.636,1.992c-8.715,2.08-16.583,5.521-23.131,11.008A28.677,28.677,0,0,0,2346.271,583.01Z" fill="#d1de5f"/>
      <path id="Pfad_758" data-name="Pfad 758" d="M2423.315,596.272c1.121-.935,1.158-2.034.05-3.561a17.094,17.094,0,0,0-3.254-3.3c-8.283-6.576-18.053-9.816-29.4-9.5a46.179,46.179,0,0,0-8.206.933,51.321,51.321,0,0,0-16.412,5.935,25.554,25.554,0,0,0-7.534,6.419,6.232,6.232,0,0,0-1.284,2.511c-.411,2.081,1.107,3.6,3.555,3.634a5.2,5.2,0,0,0,3.964-1.917,33.659,33.659,0,0,1,12.216-7.886,42.581,42.581,0,0,1,11.23-2.505,44.033,44.033,0,0,1,10.262.02,33.469,33.469,0,0,1,18.488,8.458,7.592,7.592,0,0,0,1.482,1.168A4.581,4.581,0,0,0,2423.315,596.272Z" fill="#d1de5f"/>
      <path id="Pfad_759" data-name="Pfad 759" d="M2415.269,605.393a3.738,3.738,0,0,0-1.111-2.416,11.546,11.546,0,0,0-2.945-2.349c-8.5-4.89-17.647-6.93-27.814-4.414a31.728,31.728,0,0,0-10.83,4.6,12.365,12.365,0,0,0-3.992,4.094,3.354,3.354,0,0,0,1.033,4.481,4.289,4.289,0,0,0,5.095-.319,31.437,31.437,0,0,1,12.757-5.386c6.326-1.324,12.272-.782,17.749,2.333q1.542.878,3.057,1.785a7.878,7.878,0,0,0,1.745.854C2412.7,609.479,2415.331,607.9,2415.269,605.393Z" fill="#d1de5f"/>
      <path id="Pfad_760" data-name="Pfad 760" d="M2404.926,616.875a7.148,7.148,0,0,0-3.036-3.194,20.988,20.988,0,0,0-12.294-2.942,14.319,14.319,0,0,0-7.35,2.488,5.785,5.785,0,0,0-2.25,2.5,3.273,3.273,0,0,0,1.352,4.025,4.177,4.177,0,0,0,4.532.051,14.436,14.436,0,0,0,1.333-.9,7.741,7.741,0,0,1,6.191-1.139,10.435,10.435,0,0,1,4.025,1.718c.571.387,1.108.813,1.7,1.179a4.108,4.108,0,0,0,3.8.453A3.075,3.075,0,0,0,2404.926,616.875Z" fill="#d1de5f"/>
      <path id="Pfad_761" data-name="Pfad 761" d="M2431.052,763.8c-2.287.435-2.477.658-2.269,2.6q.3,2.736.587,5.473a5.4,5.4,0,0,0,.449,2.289,2.609,2.609,0,0,0,2.5-2.347,17.212,17.212,0,0,1,3.154-7.971c.134-.17.225-.335.047-.536a.576.576,0,0,0-.6-.169,3.329,3.329,0,0,0-1.9,1.433c-.54.81-1,1.663-1.587,2.649C2430.955,766.018,2431.365,764.868,2431.052,763.8Z" fill="#d1de5f"/>
      <path id="Pfad_762" data-name="Pfad 762" d="M2421.312,764.592c-.708.463-.4,1.01-.27,1.511.871,3.318,1.778,6.629,2.684,9.94a7.228,7.228,0,0,0,.405.913c1.712-.719,1.713-.719,1.543-2.064a7.362,7.362,0,0,0-.108-.758c-.691-2.938-1.374-5.878-2.093-8.81C2423.093,763.774,2422.7,763.682,2421.312,764.592Z" fill="#d1de5f"/>
      <path id="Pfad_763" data-name="Pfad 763" d="M2415.407,764.927c-1.416.83-1.412.831-.713,2.269a33.353,33.353,0,0,0,4.321,6.7c1.407,1.7,1.075,2.012,3.18.066a57.216,57.216,0,0,1-6.055-9.4C2415.793,764.733,2415.591,764.818,2415.407,764.927Z" fill="#d1de5f"/>
      <path id="Pfad_764" data-name="Pfad 764" d="M2465.144,767.23c.116,2.4.239,4.8.434,7.192.078.961.731,1.215,1.646.749a3.276,3.276,0,0,0,1.436-1.646c.836-1.723,1.5-3.538,2.987-4.936.207-.2.332-.41.076-.66a.675.675,0,0,0-.77-.12,4.946,4.946,0,0,0-2.291,1.971,29.055,29.055,0,0,0-1.732,3.375c0-.967-.006-1.934,0-2.9.008-1.125.037-2.249.036-3.373,0-.292.01-.628-.475-.662C2465.793,766.172,2465.115,766.628,2465.144,767.23Z" fill="#d1de5f"/>
      <path id="Pfad_765" data-name="Pfad 765" d="M2427.227,762.287c-2.151.551-2.148.55-1.777,2.277.431,2,.846,4.007,1.283,6.008.294,1.351.613,2.7.923,4.046.059.258.164.523.5.537.433.018.552-.3.576-.609a9.516,9.516,0,0,0,.035-1.528c-.124-1.527-.224-3.059-.45-4.574C2428.008,766.389,2427.6,764.348,2427.227,762.287Z" fill="#d1de5f"/>
      <path id="Pfad_766" data-name="Pfad 766" d="M2460.756,767.718a38.781,38.781,0,0,1,2.43,7.146c.1.492.4.559.844.417.526-.166.881-.446.8-1.017a30.254,30.254,0,0,0-2.562-7.73.519.519,0,0,0-.36-.247C2461.268,766.236,2460.521,767.146,2460.756,767.718Z" fill="#d1de5f"/>
      <path id="Pfad_767" data-name="Pfad 767" d="M2380.245,775c.506.227,1.784-.411,1.793-.947.032-2.027.013-4.055.013-6.091-1.786.161-2.182.3-2.22,1.036a42.86,42.86,0,0,0,.122,5.491A.545.545,0,0,0,2380.245,775Z" fill="#d1de5f"/>
      <path id="Pfad_768" data-name="Pfad 768" d="M2384.815,774.833c.286-2.108.608-4.213.726-6.491-1.615.308-1.693.3-1.857,1.173a36.769,36.769,0,0,0-.6,5.144c-.024.518.187.751.757.754C2384.319,775.415,2384.738,775.4,2384.815,774.833Z" fill="#d1de5f"/>
      <path id="Pfad_769" data-name="Pfad 769" d="M2457.166,769.715a45.451,45.451,0,0,0,3.008,5.28.587.587,0,0,0,.844.227c.285-.158.6-.294.684-.631a2.067,2.067,0,0,0-.1-.286q-1.4-2.688-2.808-5.374a.524.524,0,0,0-.825-.2C2457.593,768.981,2456.878,769.131,2457.166,769.715Z" fill="#d1de5f"/>
      <path id="Pfad_770" data-name="Pfad 770" d="M2406.572,784.726a1.069,1.069,0,0,0,.942-.151,1.52,1.52,0,0,0,.692-1,9.376,9.376,0,0,0,.222-2.708c-.023-.367-.038-1.027-.116-1.68-.07-.587-.415-.692-1.057-.544-.691.16-.857.468-.83,1.062a20.983,20.983,0,0,1-.062,4.251C2406.316,784.258,2406.136,784.547,2406.572,784.726Z" fill="#d1de5f"/>
      <path id="Pfad_771" data-name="Pfad 771" d="M2404.082,785.167c.518.034.665-.275.721-.668.328-2.331.2-4.67.308-7.021-1.68.154-1.72.155-1.7,1.342.035,1.89.126,3.78.2,5.67C2403.627,784.786,2403.6,785.135,2404.082,785.167Z" fill="#d1de5f"/>
      <path id="Pfad_772" data-name="Pfad 772" d="M2328.911,764.307c-1.147.66-1.569,1.06-1.781,2a11.78,11.78,0,0,0-.255,4.687c.067.378.006.892.677.849a.765.765,0,0,0,.808-.925,27.81,27.81,0,0,1,.33-4.4C2328.761,765.819,2329.162,765.152,2328.911,764.307Z" fill="#d1de5f"/>
      <path id="Pfad_773" data-name="Pfad 773" d="M2398.755,784.5c.535-.185,1.274-.271,1.178-1.112a30.866,30.866,0,0,0-1.657-4.277.433.433,0,0,0-.352-.289c-.657-.089-1.565.876-1.342,1.483.444,1.207.932,2.4,1.4,3.6C2398.115,784.242,2398.241,784.675,2398.755,784.5Z" fill="#d1de5f"/>
      <path id="Pfad_774" data-name="Pfad 774" d="M2320.7,764.727a47.1,47.1,0,0,0,2.163,4.778c.164.294.375.511.782.349.31-.123.613-.259.634-.662-.035-.115-.069-.264-.126-.405-.61-1.523-1.225-3.045-1.834-4.568-.147-.366-.342-.686-.841-.464C2321.045,763.947,2320.443,764.118,2320.7,764.727Z" fill="#d1de5f"/>
      <path id="Pfad_775" data-name="Pfad 775" d="M2387.067,769.59a36.651,36.651,0,0,0-.879,5.282c-.033.322-.13.771.481.8a.715.715,0,0,0,.786-.646c.453-2.189.9-4.378,1.39-6.755C2387.8,768.505,2387.256,768.84,2387.067,769.59Z" fill="#d1de5f"/>
      <path id="Pfad_776" data-name="Pfad 776" d="M2358.705,776.192a.757.757,0,0,0,1.026.684c.657-.132.434-.6.459-1.05-.257-1.486-.53-3.038-.791-4.592-.08-.472-.359-.56-.83-.453-.75.17-.985.6-.834,1.248C2358.059,773.417,2358.407,774.8,2358.705,776.192Z" fill="#d1de5f"/>
      <path id="Pfad_777" data-name="Pfad 777" d="M2355.565,772.367a1.183,1.183,0,0,0-1.027,1.588c.372.846.8,1.672,1.226,2.5.134.26.249.566.7.521.914-.091,1.483-.831,1.144-1.6-.4-.892-.856-1.761-1.3-2.634A.613.613,0,0,0,2355.565,772.367Z" fill="#d1de5f"/>
      <path id="Pfad_778" data-name="Pfad 778" d="M2325.16,770.236a.71.71,0,0,0,.778.472c.484-.065.39-.439.366-.717-.158-1.823-.336-3.644-.529-5.684-.781.286-1.408.475-1.456,1.136A10.942,10.942,0,0,0,2325.16,770.236Z" fill="#d1de5f"/>
      <path id="Pfad_779" data-name="Pfad 779" d="M2401.839,778.549c-.059-.437-.241-.811-.859-.675-.551.122-1.154.225-1.016.948.258,1.355.523,2.71.806,4.061.076.364.394.451.771.415.328-.031.529-.2.542-.482.027-.56.008-1.12.008-1.681l.043,0C2402.037,780.271,2401.955,779.408,2401.839,778.549Z" fill="#d1de5f"/>
      <path id="Pfad_780" data-name="Pfad 780" d="M2388.026,775.62c.75.012,1.025-.536,1.289-1.015.775-1.4,1.5-2.832,2.243-4.252.093-.179.226-.368-.016-.539a.644.644,0,0,0-.627-.017,2.485,2.485,0,0,0-1.283,1.155,21.815,21.815,0,0,0-1.748,3.945A.622.622,0,0,0,2388.026,775.62Z" fill="#d1de5f"/>
      <path id="Pfad_781" data-name="Pfad 781" d="M2482.123,762.778c.066.754.244,1.5.306,2.255.047.583.332.795.957.756s.69-.391.7-.832a17.451,17.451,0,0,0-.366-3.877C2481.924,761.282,2481.983,761.186,2482.123,762.778Z" fill="#d1de5f"/>
      <path id="Pfad_782" data-name="Pfad 782" d="M2329.053,771.685a.634.634,0,0,0,.777-.418c.069-.139.152-.274.209-.417.553-1.392,1.112-2.782,1.641-4.181.1-.256.349-.617-.075-.8s-.922-.2-1.16.275a21.147,21.147,0,0,0-1.746,4.684C2328.733,771.212,2328.595,771.57,2329.053,771.685Z" fill="#d1de5f"/>
      <path id="Pfad_783" data-name="Pfad 783" d="M2478.447,763.978c.136.49.3.974.479,1.454a.5.5,0,0,0,.435.4c.781.094,1.747-.829,1.529-1.533a8.24,8.24,0,0,0-1.08-2.611C2478.03,762.452,2478.023,762.453,2478.447,763.978Z" fill="#d1de5f"/>
      <path id="Pfad_784" data-name="Pfad 784" d="M2476.11,762.847c-.5.189-.911.407-.638,1.012.466,1.033.9,2.079,1.373,3.108.119.256.251.633.708.466.409-.15.839-.322.825-.862a3.381,3.381,0,0,0-.111-.419c-.376-.955-.77-1.9-1.135-2.864A.687.687,0,0,0,2476.11,762.847Z" fill="#d1de5f"/>
      <path id="Pfad_785" data-name="Pfad 785" d="M2362.093,776.875c.495,0,.706-.217.713-.642a33.092,33.092,0,0,0,0-4.442c-1.845.168-1.672.426-1.621,1.507.046.958.2,1.912.293,2.868C2361.512,776.53,2361.526,776.877,2362.093,776.875Z" fill="#d1de5f"/>
      <path id="Pfad_786" data-name="Pfad 786" d="M2485.138,762.706c.095.754.249,1.5.349,2.255.055.42.231.647.739.611s.892-.159.852-.7a27.728,27.728,0,0,0-.346-3.851C2484.993,761.444,2484.981,761.445,2485.138,762.706Z" fill="#d1de5f"/>
      <path id="Pfad_787" data-name="Pfad 787" d="M2365.284,776.5a8.781,8.781,0,0,0,.173-2.854c-1.626.113-1.631.113-1.76,1.278-.05.455-.087.912-.106,1.369-.017.395-.131.869.575.869C2364.69,777.162,2365.19,777.121,2365.284,776.5Z" fill="#d1de5f"/>
      <path id="Pfad_788" data-name="Pfad 788" d="M2487.755,763.1c-.034.351-.007.708-.007,1.061h.009c0,.3,0,.607,0,.91.007.428.247.642.72.66s.733-.2.768-.614c.054-.655.108-1.311.119-1.968.007-.439-.3-.606-.768-.589C2488.173,762.572,2487.8,762.64,2487.755,763.1Z" fill="#d1de5f"/>
      <path id="Pfad_789" data-name="Pfad 789" d="M2418.687,722.848c-.724.037-1.449.077-2.168.156a.452.452,0,0,0-.446.538.478.478,0,0,0,.568.433c.221-.026.438-.075.744-.129.41-.045.912-.083,1.405-.162a.383.383,0,0,0,.328-.457A.4.4,0,0,0,2418.687,722.848Z" fill="#d1de5f"/>
      <path id="Pfad_790" data-name="Pfad 790" d="M2460.139,714.948c.595-.228,1.369-.5,2.122-.824a.415.415,0,0,0,.182-.536.387.387,0,0,0-.5-.278c-.778.262-1.549.547-2.307.856-.215.087-.238.314-.172.53C2459.538,714.93,2459.7,715.02,2460.139,714.948Z" fill="#d1de5f"/>
      <path id="Pfad_791" data-name="Pfad 791" d="M2453.518,716.666a1.728,1.728,0,0,0,.367.323c.845-.3,1.68-.583,2.5-.9.256-.1.154-.345.087-.533-.054-.148-.18-.317-.343-.267-.843.262-1.681.541-2.5.849C2453.384,716.225,2453.408,716.481,2453.518,716.666Z" fill="#d1de5f"/>
      <path id="Pfad_792" data-name="Pfad 792" d="M2450.31,717.087a9.283,9.283,0,0,0-2.493.735c-.091.042-.1.26-.115.4-.015.181.147.261.305.3a5.656,5.656,0,0,0,2.623-.757.849.849,0,0,0,.079-.3C2450.64,717.292,2450.584,717.045,2450.31,717.087Z" fill="#d1de5f"/>
      <path id="Pfad_793" data-name="Pfad 793" d="M2444.451,718.6a9.627,9.627,0,0,0-2.382.563c-.221.082-.213.319-.156.527a.413.413,0,0,0,.466.322c.742-.19,1.488-.37,2.225-.575a.4.4,0,0,0,.279-.483A.374.374,0,0,0,2444.451,718.6Z" fill="#d1de5f"/>
      <path id="Pfad_794" data-name="Pfad 794" d="M2438.136,719.859c-.539.092-1.075.205-1.606.335-.316.077-.672.175-.523.6.106.3.375.324.679.311.535-.112,1.068-.23,1.6-.333.39-.074.815-.122.66-.633C2438.829,719.733,2438.451,719.806,2438.136,719.859Z" fill="#d1de5f"/>
      <path id="Pfad_795" data-name="Pfad 795" d="M2465.775,712.782c.6-.26,1.209-.492,1.8-.77.518-.247.482-.615.118-1.074-.772.339-1.567.673-2.344,1.037-.246.116-.424.306-.242.609A.463.463,0,0,0,2465.775,712.782Z" fill="#d1de5f"/>
      <path id="Pfad_796" data-name="Pfad 796" d="M2425.926,721.97q-.9.095-1.794.246c-.294.049-.732-.015-.716.428.017.479.4.531.93.479.494-.082,1.091-.175,1.686-.283a.42.42,0,0,0,.367-.558A.388.388,0,0,0,2425.926,721.97Z" fill="#d1de5f"/>
      <path id="Pfad_797" data-name="Pfad 797" d="M2411.311,723.553c-.719.074-1.436.173-2.151.274a.392.392,0,0,0-.356.435.377.377,0,0,0,.381.407c.221.018.445,0,.668,0a5.678,5.678,0,0,0,1.642-.274.4.4,0,0,0,.263-.494A.388.388,0,0,0,2411.311,723.553Z" fill="#d1de5f"/>
      <path id="Pfad_798" data-name="Pfad 798" d="M2403.971,724.219c-.67.06-1.339.139-2,.232a.379.379,0,0,0-.333.451.4.4,0,0,0,.417.388c.223.014.449,0,.7,0,.421-.044.871-.073,1.313-.144.278-.045.566-.161.5-.491A.525.525,0,0,0,2403.971,724.219Z" fill="#d1de5f"/>
      <path id="Pfad_799" data-name="Pfad 799" d="M2432.01,721.024c-.6.1-1.2.219-1.8.32-.3.051-.533.16-.5.478.048.421.385.427.8.389l1.741-.307c.307-.054.514-.211.489-.508C2432.706,720.962,2432.348,720.971,2432.01,721.024Z" fill="#d1de5f"/>
      <path id="Pfad_800" data-name="Pfad 800" d="M2396.561,724.8c-.724.006-1.449.045-2.171.106a.369.369,0,0,0-.335.452.464.464,0,0,0,.443.393c.165.015.333,0,.155,0,.847-.058,1.35-.089,1.852-.128.253-.02.4-.144.405-.387C2396.913,725.011,2396.81,724.795,2396.561,724.8Z" fill="#d1de5f"/>
      <path id="Pfad_801" data-name="Pfad 801" d="M2389.937,725.036a5.838,5.838,0,0,0-.662-.006v0c-.277,0-.554-.01-.83,0s-.575.051-.539.4c.031.3.286.414.581.419.5.007.995,0,1.491-.025a.421.421,0,0,0,.45-.5C2390.4,725.048,2390.14,725.06,2389.937,725.036Z" fill="#d1de5f"/>
      <path id="Pfad_802" data-name="Pfad 802" d="M2377.107,724.837c-.385.038-1.075.025-1.04.533.041.588.551.52.979.52a2.666,2.666,0,0,0,.543-.1A.665.665,0,0,0,2377.107,724.837Z" fill="#d1de5f"/>
      <path id="Pfad_803" data-name="Pfad 803" d="M2382.978,725.025c-.3.032-.763-.1-.793.3-.044.618.537.506.957.526.342.015.749-.018.731-.417C2383.851,724.915,2383.337,725.063,2382.978,725.025Z" fill="#d1de5f"/>
      <g id="Gruppe_134" data-name="Gruppe 134">
        <path id="Pfad_804" data-name="Pfad 804" d="M2321.611,645.336a3.621,3.621,0,0,0-1.4.4.306.306,0,0,1-.47-.12,5.441,5.441,0,0,0-2.237-1.794.531.531,0,0,1-.34-.629,65.806,65.806,0,0,0-.072-9.411,13.866,13.866,0,0,0-.359-2.434,3.212,3.212,0,0,0-.361-.916,1.218,1.218,0,0,0-1.746-.481,2.593,2.593,0,0,0-1.234,1.366,5.225,5.225,0,0,0-.378,1.612,20.41,20.41,0,0,0,.984,7.772c.228.742.488,1.475.749,2.257-.229-.023-.436-.047-.639-.067a.755.755,0,0,1-.434-.541,66.27,66.27,0,0,0-2.073-9.2,14.082,14.082,0,0,0-.87-2.313,3.264,3.264,0,0,0-.548-.826,1.225,1.225,0,0,0-1.811-.129,2.53,2.53,0,0,0-.918,1.578,5.18,5.18,0,0,0-.027,1.653,20.656,20.656,0,0,0,2.617,7.416c.382.681.792,1.347,1.214,2.063a.466.466,0,0,1,.031.395c-.6.116-1.414.293-1.414.293a20.156,20.156,0,0,0-3.845,1.834,18.85,18.85,0,0,0-3.41,3.346,11.574,11.574,0,0,0-1.86,4.051,13.007,13.007,0,0,0-.324,3.176.923.923,0,0,0,.758,1.042c.269.062.523.181.792.245a15.319,15.319,0,0,0,5.092.313,3.735,3.735,0,0,1,.961-.023c-.325.319-.576.589-.853.831a1.325,1.325,0,0,0-.494,1.2c.034.346-.006.7.007,1.046a.486.486,0,0,1-.284.495,7.744,7.744,0,0,0-2.058,1.832,1.87,1.87,0,0,0-.275.412c-.071.157.05.234.194.222a.581.581,0,0,0,.284-.123c.922-.7,1.837-1.41,2.759-2.111a.694.694,0,0,0,.275-.7c-.046-.346-.065-.7-.117-1.041a.75.75,0,0,1,.254-.715c.487-.46.951-.944,1.424-1.418a.619.619,0,0,1,.314-.2c.848-.19,1.695-.388,2.573-.59a1.562,1.562,0,0,1-.391,1.478,9.278,9.278,0,0,0-1.92,3.242c-.055.138-.1.3.044.393.192.119.311-.035.419-.167a1.152,1.152,0,0,0,.074-.1,21.735,21.735,0,0,1,2.618-3.416.941.941,0,0,0,.257-.607c.03-.388-.162-.874.081-1.135.257-.276.757-.341,1.148-.5.521-.219,1.04-.443,1.6-.681,0,.575-.005,1.086,0,1.6a.533.533,0,0,1-.237.41,7.29,7.29,0,0,0-1.748,2.623c-.083.2-.259.461.013.6.244.125.359-.158.47-.315a19.7,19.7,0,0,1,2.247-2.684,1.072,1.072,0,0,0,.329-.709,6.338,6.338,0,0,0-.055-1.719c-.085-.465.3-.521.546-.719a.51.51,0,0,1,.683-.009c.834.538,1.679,1.059,2.531,1.57a.521.521,0,0,1,.281.615c-.055.3-.044.615-.091.918a.679.679,0,0,0,.37.772,8.96,8.96,0,0,1,1.358,1.029c.143.123.285.248.433.366.205.164.422.313.681.1s.123-.449-.051-.641c-.253-.278-.53-.536-.787-.81-.284-.3-.838-.373-.94-.773a3.815,3.815,0,0,1,.03-1.285.9.9,0,0,0-.509-.96c-.923-.555-1.853-1.1-2.9-1.615.25-.177.433-.317.627-.443.313-.2.6-.452,1.044-.276a.561.561,0,0,0,.541-.134.7.7,0,0,1,.819-.058,4.978,4.978,0,0,0,2.133.331,2.531,2.531,0,0,0,2.613-2.29.49.49,0,0,1,.251-.393,4.154,4.154,0,0,1,1.843-.654,5.435,5.435,0,0,1,3.48,1.026,6.463,6.463,0,0,0,.649.391.561.561,0,0,0,.688-.178.515.515,0,0,0,.038-.683,1.53,1.53,0,0,0-.367-.339,7.336,7.336,0,0,0-1.541-.875,5.89,5.89,0,0,0-5.127.1c-.073.037-.143.094-.236.023-.176-.342-.333-.7-.541-1.035a.55.55,0,0,1,0-.668,9.683,9.683,0,0,1,5.535-4.423,4.132,4.132,0,0,0,.534-.205.48.48,0,0,0,.29-.506.568.568,0,0,0-.408-.5.887.887,0,0,0-.623.04,10.477,10.477,0,0,0-4.742,2.81,14.847,14.847,0,0,0-1.6,2.1,6.972,6.972,0,0,0-.9-.639,3.8,3.8,0,0,0-1.107-.4A5.629,5.629,0,0,0,2321.611,645.336Zm.158,1.441a1.586,1.586,0,0,1,1.654,1.591,1.548,1.548,0,0,1-1.639,1.53,1.618,1.618,0,0,1-1.717-1.541A1.67,1.67,0,0,1,2321.769,646.777Zm-6.062-13.691a.988.988,0,0,1,.441-.745,54.052,54.052,0,0,1,.156,10.969.388.388,0,0,1-.332-.388,42.042,42.042,0,0,1-.639-6.667A11.892,11.892,0,0,1,2315.707,633.086Zm-.81,11.618a3.081,3.081,0,0,0,.628.559c-.052-.449-.4-.749-.486-1.25a7.152,7.152,0,0,1,1.3,1.559,10.762,10.762,0,0,1,1.685,5.728c0,.082,0,.164,0,.246-.014.2.018.443-.305.435s-.2-.257-.219-.416a5.212,5.212,0,0,0-1.724-3.336c-.009-.008-.036,0-.111.01a18.13,18.13,0,0,1,1.218,3.324,2.1,2.1,0,0,1-.518-.77c-.48-.939-.942-1.885-1.422-2.823a12.854,12.854,0,0,0-2.333-3.295,1.238,1.238,0,0,1-.137-.2,1.056,1.056,0,0,1-.473-.382.663.663,0,0,1,.518.335,3.809,3.809,0,0,1,.9.681,2.591,2.591,0,0,0,.665.454,1.967,1.967,0,0,0-.47-.918c-.2-.256-.433-.491-.618-.77a17.368,17.368,0,0,1,1.9,1.462c-.044-.477-.458-.7-.622-1.152A2.18,2.18,0,0,1,2314.9,644.7Zm-5.01-9.019a11.878,11.878,0,0,1-.447-3.16.969.969,0,0,1,.236-.827,54.5,54.5,0,0,1,2.957,10.6.4.4,0,0,1-.422-.3A42.683,42.683,0,0,1,2309.887,635.685Zm-3.58,11.6c.342.168.675.352,1.008.537.305.169.6.348.907.523a7.075,7.075,0,0,0-2.093-2.117,18.728,18.728,0,0,1,2.325.99,6.662,6.662,0,0,0-1.475-1.451c.182-.154.3-.009.42.039a10.56,10.56,0,0,1,5.973,6.25,3.871,3.871,0,0,1,.28,1.568c-.007.218.057.446-.32.469-.512.031-.513.058-.621-.346a5.817,5.817,0,0,0-1.8-2.99.546.546,0,0,0-.38-.194c.374.7.733,1.381,1.093,2.058l-.126.09a16.019,16.019,0,0,0-6.112-5.777A2.6,2.6,0,0,1,2306.307,647.28Zm-1.317,3.76a3.588,3.588,0,0,0-.839-.9c-.326-.261-.663-.51-1.024-.788.155-.271.349-.252.615-.138a11.007,11.007,0,0,1,2.484,1.5,12.024,12.024,0,0,1,2.765,3.279c.115.19.12.311-.095.448s-.285,0-.391-.131a2.282,2.282,0,0,0-1.562-.9c.331.46.606.842.882,1.223a2.7,2.7,0,0,1,.183.249c.052.1-.038.143-.1.192-.1.072-.153.022-.2-.06a3.749,3.749,0,0,0-.677-.964,2.97,2.97,0,0,0-1.375-.862c.155.488.508.757.611,1.151a20.783,20.783,0,0,0-3.322-3.084,5.339,5.339,0,0,1,1.6.732,2.669,2.669,0,0,0-.857-1.02,7.751,7.751,0,0,1-1.2-.882A8.748,8.748,0,0,1,2304.99,651.04Z" fill="#d1de5f"/>
        <path id="Pfad_805" data-name="Pfad 805" d="M2321.883,648.828a.6.6,0,0,0,.594-.524.561.561,0,0,0-.579-.53.509.509,0,0,0-.545.542A.551.551,0,0,0,2321.883,648.828Z" fill="#d1de5f"/>
      </g>
      <g id="Gruppe_135" data-name="Gruppe 135">
        <path id="Pfad_806" data-name="Pfad 806" d="M2502.709,703.076a2.634,2.634,0,0,0-.8.152,4.914,4.914,0,0,0-.691.336,10.011,10.011,0,0,0-.841-1.6,7.1,7.1,0,0,0-2.9-2.429.607.607,0,0,0-.42-.1.4.4,0,0,0-.337.3.328.328,0,0,0,.138.376,2.651,2.651,0,0,0,.339.2,6.559,6.559,0,0,1,3.246,3.614.382.382,0,0,1-.08.455c-.181.2-.331.432-.491.646-.071.038-.113-.009-.157-.041a4.052,4.052,0,0,0-3.48-.624,5.107,5.107,0,0,0-1.153.429,1.088,1.088,0,0,0-.29.19.358.358,0,0,0-.055.47.384.384,0,0,0,.447.2,4.593,4.593,0,0,0,.489-.2,3.785,3.785,0,0,1,2.491-.32,2.81,2.81,0,0,1,1.177.646.331.331,0,0,1,.124.3,1.718,1.718,0,0,0,1.509,1.843,3.455,3.455,0,0,0,1.491.007c.212-.044.394-.069.551.128a.379.379,0,0,0,.352.15c.32-.072.489.13.679.3.117.106.225.222.374.37-.772.239-1.469.507-2.163.784a.635.635,0,0,0-.46.6,2.651,2.651,0,0,1-.132.878c-.116.261-.5.249-.731.424-.208.158-.427.3-.632.465-.141.112-.267.247-.11.431s.316.1.475.009c.114-.064.226-.134.338-.2a6.3,6.3,0,0,1,1.046-.553.474.474,0,0,0,.343-.485c0-.212.049-.423.047-.635a.365.365,0,0,1,.264-.388c.64-.256,1.278-.519,1.909-.794a.35.35,0,0,1,.464.081c.143.161.4.241.287.549a4.386,4.386,0,0,0-.241,1.164.734.734,0,0,0,.14.518,13.25,13.25,0,0,1,1.212,2.072c.058.12.1.324.283.266.2-.065.113-.263.08-.407a4.938,4.938,0,0,0-.88-1.976.363.363,0,0,1-.113-.3c.066-.347.123-.7.191-1.087.351.223.678.432,1.007.638.247.153.58.252.722.468s-.054.514-.079.781a.646.646,0,0,0,.1.442,14.757,14.757,0,0,1,1.379,2.61.56.56,0,0,0,.038.077c.058.1.121.22.266.159.111-.046.1-.162.076-.263a6.3,6.3,0,0,0-.924-2.415,1.068,1.068,0,0,1-.091-1.049c.574.233,1.127.459,1.682.681a.42.42,0,0,1,.19.168c.266.375.525.754.8,1.121a.514.514,0,0,1,.088.514c-.077.23-.131.465-.2.7a.473.473,0,0,0,.1.51c.545.578,1.084,1.16,1.628,1.738a.412.412,0,0,0,.18.115c.1.023.188-.016.157-.13a1.239,1.239,0,0,0-.138-.311,5.213,5.213,0,0,0-1.184-1.471.33.33,0,0,1-.135-.368c.05-.236.065-.48.129-.712a.905.905,0,0,0-.2-.87c-.16-.2-.3-.407-.483-.659a2.567,2.567,0,0,1,.652.12,10.581,10.581,0,0,0,3.5.341c.191-.014.378-.068.568-.08.415-.027.571-.269.64-.628a9,9,0,0,0,.155-2.2,7.887,7.887,0,0,0-.788-2.96,12.733,12.733,0,0,0-1.926-2.649,13.62,13.62,0,0,0-2.4-1.667s-.535-.21-.928-.354a.325.325,0,0,1,.068-.265c.371-.441.73-.851,1.07-1.273a14.471,14.471,0,0,0,2.659-4.764,3.586,3.586,0,0,0,.177-1.129,1.718,1.718,0,0,0-.438-1.174.846.846,0,0,0-1.249-.109,2.29,2.29,0,0,0-.47.5,9.827,9.827,0,0,0-.866,1.48,46.083,46.083,0,0,0-2.5,6.037.533.533,0,0,1-.36.321c-.14-.009-.284-.015-.443-.024.27-.5.534-.975.777-1.455a14.211,14.211,0,0,0,1.589-5.185,3.573,3.573,0,0,0-.067-1.139,1.753,1.753,0,0,0-.678-1.064.846.846,0,0,0-1.246.138,2.235,2.235,0,0,0-.354.585,9.544,9.544,0,0,0-.532,1.618,45.525,45.525,0,0,0-1.162,6.4.374.374,0,0,1-.306.392,3.816,3.816,0,0,0-1.736.978.213.213,0,0,1-.334.03,2.467,2.467,0,0,0-.908-.424A3.87,3.87,0,0,0,2502.709,703.076Zm1.313,2.294a1.134,1.134,0,0,1-1.351.863,1.05,1.05,0,0,1-.935-1.22,1.113,1.113,0,0,1,1.315-.9A1.133,1.133,0,0,1,2504.022,705.37Zm4.655-7.724a29.138,29.138,0,0,1-1.224,4.47.271.271,0,0,1-.272.228,37.455,37.455,0,0,1,1.4-7.452.674.674,0,0,1,.212.555A8.2,8.2,0,0,1,2508.677,697.646Zm-.213,5.513c-.165.291-.473.4-.559.717a12.356,12.356,0,0,1,1.47-.788c-.159.17-.344.3-.512.457a1.386,1.386,0,0,0-.429.574,1.813,1.813,0,0,0,.507-.236,2.654,2.654,0,0,1,.691-.367.458.458,0,0,1,.391-.171.741.741,0,0,1-.366.208.859.859,0,0,1-.118.122,9.083,9.083,0,0,0-1.978,1.99c-.438.587-.864,1.181-1.3,1.768a1.506,1.506,0,0,1-.443.468,12.705,12.705,0,0,1,1.221-2.131c-.049-.013-.067-.023-.074-.019a3.664,3.664,0,0,0-1.568,2.084c-.03.106.021.289-.2.259s-.171-.191-.157-.329c.006-.057.016-.112.026-.168a7.534,7.534,0,0,1,1.825-3.717,5.036,5.036,0,0,1,1.068-.92c-.121.331-.39.5-.478.8a2.179,2.179,0,0,0,.494-.312A1.549,1.549,0,0,1,2508.464,703.159Zm1.659-1.264a.28.28,0,0,1-.322.158,38.108,38.108,0,0,1,3.267-6.894.668.668,0,0,1,.063.588,8.309,8.309,0,0,1-.678,2.1A29.9,29.9,0,0,1,2510.123,701.9Zm4.064,4.1a11.277,11.277,0,0,0-4.845,3.268l-.074-.075c.324-.422.649-.844.987-1.282a.388.388,0,0,0-.282.09,4.1,4.1,0,0,0-1.579,1.841c-.121.263-.119.245-.464.167-.253-.056-.183-.205-.162-.354a2.709,2.709,0,0,1,.376-1.037,7.433,7.433,0,0,1,4.806-3.606c.085-.019.185-.1.29.02a4.687,4.687,0,0,0-1.175.827,13.112,13.112,0,0,1,1.7-.421,4.993,4.993,0,0,0-1.676,1.214c.227-.087.452-.176.68-.258.249-.089.5-.179.75-.256A1.8,1.8,0,0,1,2514.187,706Zm1.6,2.469a5.484,5.484,0,0,1-.923.47,1.873,1.873,0,0,0-.7.6,3.743,3.743,0,0,1,1.178-.324,14.7,14.7,0,0,0-2.627,1.738c.117-.257.389-.4.553-.717a2.088,2.088,0,0,0-1.038.437,2.655,2.655,0,0,0-.576.583c-.038.052-.082.079-.139.02-.039-.04-.095-.082-.048-.142a1.675,1.675,0,0,1,.154-.15l.745-.737a1.6,1.6,0,0,0-1.17.441c-.087.074-.145.168-.281.046s-.113-.2-.012-.315a8.448,8.448,0,0,1,2.271-1.932,7.689,7.689,0,0,1,1.868-.752c.2-.049.329-.041.4.161-.279.149-.538.282-.791.425a2.537,2.537,0,0,0-.677.519A6.114,6.114,0,0,1,2515.785,708.465Z" fill="#d1de5f"/>
        <path id="Pfad_807" data-name="Pfad 807" d="M2502.73,705.494a.4.4,0,0,1-.342-.422.393.393,0,0,1,.457-.3.346.346,0,0,1,.307.428A.388.388,0,0,1,2502.73,705.494Z" fill="#d1de5f"/>
      </g>
      <g id="Gruppe_136" data-name="Gruppe 136">
        <path id="Pfad_808" data-name="Pfad 808" d="M2437.246,626.953a.452.452,0,0,0,.622-.175,2.8,2.8,0,0,0,.222-.493c1.069-3.075,3.327-5.187,6.217-7.037-.081.54-.173.917-.189,1.3a2.548,2.548,0,0,0,2,2.642,4.02,4.02,0,0,0,1.508.14,2.168,2.168,0,0,1,.855-.039,3.233,3.233,0,0,1-.207,1.621c-.187.376-.783.2-1.154.4a1.09,1.09,0,0,1-.151.054,2.065,2.065,0,0,0-1.514,1.808,6.527,6.527,0,0,0-.092.687c-.011.379-.124.606-.578.67a2.386,2.386,0,0,0-1.131.556c-.154.124-.39.238-.25.5.157.289.386.195.613.084a2.948,2.948,0,0,1,1.162-.5c.786-.01.968-.477,1.06-1.073.032-.2.076-.4.121-.605a1.867,1.867,0,0,1,2.177-1.533c-.016.141-.13.216-.223.306-.577.554-.583.558-.182,1.24.289.491.581.983.9,1.455.218.321.218.51-.167.725a5.656,5.656,0,0,0-1.907,1.838,4.618,4.618,0,0,0-.241.4.274.274,0,0,0,.055.352.262.262,0,0,0,.361-.009c.124-.1.246-.2.36-.3a18.6,18.6,0,0,1,2.535-2.007c.525-.342.534-.363.209-.92-.366-.627-.747-1.247-1.162-1.844a.394.394,0,0,1,.087-.639,5.779,5.779,0,0,0,.86-.806,1.586,1.586,0,0,1,2.254-.442c.451.243.487.191.248.668a2.681,2.681,0,0,1-.182.342,1.016,1.016,0,0,0,.035,1.343c.439.579.818,1.2,1.221,1.8-1.957,1.5-3.151,3.038-3.219,4.134.385-.167.39-.163.6-.417a15.1,15.1,0,0,1,3.49-3.155c.495-.316.509-.383.19-.863-.431-.649-.878-1.29-1.352-1.91a.571.571,0,0,1-.073-.761c.117-.171.207-.358.307-.539a.287.287,0,0,1,.325-.16q.872.138,1.743.269c.212.032.3.2.405.344.643.852,1.274,1.714,1.941,2.548.236.3.179.45-.079.691a9.763,9.763,0,0,0-2.226,3.348c-.1.236-.268.491-.115.776.37-.038.452-.318.593-.516a29.771,29.771,0,0,1,2.835-3.435c.481-.5.478-.5.072-1.092-.118-.171-.235-.344-.366-.506-.573-.705-1.152-1.407-1.783-2.177l2.193-.371a.814.814,0,0,1,.536.114,8.246,8.246,0,0,0,.85.428.971.971,0,0,1,.607.751c.136.548.311,1.088.448,1.636a1.151,1.151,0,0,0,.743.835c.808.335,1.6.7,2.4,1.055a1.988,1.988,0,0,0,.368.146.441.441,0,0,0,.529-.245.378.378,0,0,0-.095-.49,3.566,3.566,0,0,0-.452-.315,7.95,7.95,0,0,0-1.888-.829.679.679,0,0,1-.544-.64,16.061,16.061,0,0,0-.392-1.569,1.6,1.6,0,0,0-.815-1.005.985.985,0,0,1-.463-.346c.24-.1.475-.2.711-.3a10.617,10.617,0,0,0,2.865-1.68c1.762-1.525,1.746-1.341.523-3.341a18.049,18.049,0,0,0-1.267-1.627c.312-.118.557-.212.8-.3a32.544,32.544,0,0,0,3.943-1.711,10.513,10.513,0,0,0,2.591-1.8,2.109,2.109,0,0,0,.7-1.66c-.12-1.821-.948-2.476-2.633-2.278a14.321,14.321,0,0,0-3.526.986c-.176.069-.34.255-.585.119.452-.347.906-.666,1.326-1.022a10.855,10.855,0,0,0,2.882-3.365,1.721,1.721,0,0,0-.4-2.177,2.22,2.22,0,0,0-2.217-.527,11.555,11.555,0,0,0-3.874,1.8,23.07,23.07,0,0,0-6.944,7.754,1.169,1.169,0,0,1-1.166.7,9.237,9.237,0,0,0-4.256.934c-.714.355-1.423.022-2.115.186-.379-.313-.242-.811-.458-1.184a3.841,3.841,0,0,1-.174-.43c-1.138-2.661-4.4-2.648-6.158-1.409-.27.191-.415.44-.227.725s.5.238.774.071a4.21,4.21,0,0,1,1.541-.625,2.775,2.775,0,0,1,2.692.811,4.5,4.5,0,0,1,.921,2.026c.038.169.033.3-.151.382a5.715,5.715,0,0,0-2.052,1.687,1.677,1.677,0,0,1-.532.336,21.592,21.592,0,0,0-2.919,1.9,12.7,12.7,0,0,0-4.412,5.925,2.533,2.533,0,0,0-.129.363A.42.42,0,0,0,2437.246,626.953Zm11.517-1.161a16.5,16.5,0,0,0,.444-1.868,5.207,5.207,0,0,1,1.088.572Zm8.656-2.951c-.226.574-.5,1.133-.78,1.684-.3.589-.317.583-.98.515-.183-.019-.366-.05-.645-.089a5.111,5.111,0,0,0,1.132-5.143,17.484,17.484,0,0,0,1.884-.065A8.138,8.138,0,0,1,2457.419,622.841Zm4.13.471c-.1.384-.241.691-.787.593a5.028,5.028,0,0,0,.237-2.331,6.565,6.565,0,0,0-1-2.24l2.21-.65a1.535,1.535,0,0,1,.066.869A22.155,22.155,0,0,1,2461.549,623.312Zm5.09-10.558a2.243,2.243,0,0,1,.924.218c.323.152.332.37.015.555-1.095.64-2.2,1.263-3.357,1.8a25.988,25.988,0,0,1-3.184,1.254c-.168.052-.369.056-.513.3a1.863,1.863,0,0,0,1.294.023,15.022,15.022,0,0,0,4.939-2.132,3.78,3.78,0,0,1,.66-.362,2.572,2.572,0,0,1-.814.9,12.841,12.841,0,0,1-2.941,1.7,40.1,40.1,0,0,1-7.546,2.279c-.172.037-.378.123-.5-.09-.092-.165.049-.284.13-.413a3.119,3.119,0,0,1,.634-.689,28.044,28.044,0,0,1,7.77-4.824A6.32,6.32,0,0,1,2466.639,612.754Zm-4.537-3.635a5.914,5.914,0,0,1,1.82-.955,1.568,1.568,0,0,1,1.246,0,39.46,39.46,0,0,1-5.537,5.357,1.07,1.07,0,0,0,1.041-.234,13.857,13.857,0,0,0,3.557-3.076c.352-.414.683-.845,1.082-1.341a.658.658,0,0,1-.036.536,7.658,7.658,0,0,1-3.231,3.7c-1.809.995-3.588,2.039-5.386,3.05a2.751,2.751,0,0,1-1.176.426A28.377,28.377,0,0,1,2462.1,609.119Zm-7.279,6.58a1.963,1.963,0,0,0,.381,1.847c.238.294-.182.567-.111,1.022-.373-.417-.445-.819-.793-1.13-.011.529.26.992.154,1.5-.312-.133-.191-.525-.566-.667-.147,1.349-.2,2.727-1.489,3.781.9-2.179,1.058-4.119-1.207-5.631A8.558,8.558,0,0,1,2454.823,615.7Zm-5.952,2.138a1.829,1.829,0,0,1,1.494,2.124,2.034,2.034,0,0,1-2.4,1.639,1.746,1.746,0,0,1-1.56-2.053A2.2,2.2,0,0,1,2448.871,617.837Z" fill="#d1de5f"/>
        <path id="Pfad_809" data-name="Pfad 809" d="M2447.771,620.492a.618.618,0,0,0,.749-.513.609.609,0,0,0-.537-.721.643.643,0,0,0-.785.473A.615.615,0,0,0,2447.771,620.492Z" fill="#d1de5f"/>
      </g>
    </g>
    <g id="icon_klima">
      <path id="Pfad_810" data-name="Pfad 810" d="M1839.312,774.8c-10.055-3.292-19.5-7.22-28.013-12.952-7.6-5.116-14.191-11.123-18.556-19.16-7.96-14.657-.389-26.856,9.953-32.8,8.728-5.02,18.514-7.285,28.259-9.593,2.539-.6,5.113-1.067,7.683-1.536,3.588-.656,7.126-.937,9.02-4.938,1.053-2.226,3.81-3.427,6.462-3.925,1.663-.312,1.975-1.111,1.931-2.59a136.954,136.954,0,0,1,1.264-22.91,3.674,3.674,0,0,0-1.21-3.358c-5.212-5.356-9.858-11.222-16.056-15.676-2.412-1.732-2.337-4.426.134-6.082a4.028,4.028,0,0,0,1.869-3.025c1.034-5.943,4.62-10.106,10.073-12.76a3.388,3.388,0,0,0,2.256-3.284,32.486,32.486,0,0,1,3.748-12.931c4.4-8.222,12.009-11.788,21.8-10.26,8.092,1.262,14.026,7.313,15.513,15.809.156.892-.123,1.927,1.012,2.678,2.123-5.962,5.634-10.678,12.263-12.437,8.328-2.211,15.223.59,21.276,5.9,5.708,5.008,6.782,11.3,4.741,18.139-.573,1.92-.186,2.617,1.512,3.61,9.015,5.275,15.015,13.315,20.717,21.542a93.866,93.866,0,0,1,15.522,37.687c.055.31.261.65.183.918-1.35,4.649,1.642,4.746,5.244,5.273,15,2.192,29.845,5.105,44.059,10.4A50.368,50.368,0,0,1,2034.9,713.2c8.9,6.7,11.584,16.408,7.205,26.373-3.777,8.6-10.4,14.93-18.041,20.355-14.219,10.1-30.585,15.465-47.477,19.645-9.075,2.246-18.271,3.9-27.525,5.411,14.866.073,29.679-.959,44.536-1.527-3.517,1.636-7.375,1.806-11.1,2.271-28.236,3.519-56.566,4.921-84.988,2.574-18.509-1.527-36.775-4.455-54.5-10a46.556,46.556,0,0,1-4.5-1.84c-.447-.193-1.16-.428-.875-1.005C1837.792,775.139,1838.531,775.086,1839.312,774.8Zm13.559-141.559c2.765.82,5.562,1.551,8.288,2.475,9.661,3.274,19.176,6.956,29.1,9.465,13.247,3.348,26.489,5.776,39.636-.4.194-.091.419-.119.623-.191,2.6-.918,4.209.438,5.437,2.322a3.882,3.882,0,0,1-.791,5.624,21.039,21.039,0,0,1-8.276,4.285,84.253,84.253,0,0,1-37.936,1.5c-13.133-2.355-25.476-7.182-37.861-11.821-1.029-.385-1.979-1.23-3.6-.7,9.169,7.623,13.018,20.476,26.885,22.9-4.265.861-7.78-.893-11.53-2.122a6.974,6.974,0,0,0-.073,1.363,95.281,95.281,0,0,0,11.905,34.045c4.946,8.36,11.515,14.929,21.1,18.422,8.021,2.922,16.235,2.623,24.559,2.007,2.527-.187,3.445-.969,4.052-3.336,2.269-8.847,4.873-17.628,10.321-25.277.986-1.384-.141-1.6-.758-2.139a24.866,24.866,0,0,1-7.915-12.425c-.608-2.219-1.248-4.534-.18-6.943a45.763,45.763,0,0,0,19.157,20.287c-6.367.409-7.041,5.764-8.848,10.058-2.365,5.622-4.423,11.365-6.559,17.075-2.485,6.64-7.338,10.365-14.583,11.552-2.571.422-5.327.307-7.888,1.548a2.971,2.971,0,0,0,3.192,1.44q3.594-.234,7.185-.53c5.4-.444,10.063.92,13.014,5.537,1.6,2.5,3.489,2.809,6.065,1.755-1.074-2.359-3.8-4.129-2.935-7.371a57.131,57.131,0,0,1,12.3,5.228c2.333,1.392,3.819,1.071,5.6-.777-2.118-1.174-4.111-2.227-6.051-3.364-7.382-4.33-7.69-5.249-3.837-12.731q8.2-15.919,16.545-31.767a4.1,4.1,0,0,0-.647-5.352,222.184,222.184,0,0,0-19.132-19.424c-1.305-1.142-2.866-2.153-3.667-4.673,7.317,2.716,12.961,7.019,19.6,10.5a48.745,48.745,0,0,1-1.227-13.794c.047-2.122-.259-3.958-3.042-4.284-1.463-.171-1.668-1.532-2.12-2.559a35.244,35.244,0,0,0-12.332-15.153,11.765,11.765,0,0,0-8.841-2.211,32.445,32.445,0,0,1-16.323-2.251c-1.832-.709-1.781-3.288-3.274-3.02-3.2.575-4.573-1.6-6.206-3.18a8.449,8.449,0,0,0-5.452-2.5c-8.183-.636-16.381-.962-24.492.574a33.632,33.632,0,0,0-13.5,5.247c1.876-.206,3.692-.666,5.509.046.476.186,1.173.39,1.3.744.282.768-.553,1.023-1.094,1.3A33.494,33.494,0,0,1,1852.871,633.244Zm186.869,93.389c-2.762,5.018-6.564,7.825-10.558,10.413a117.521,117.521,0,0,1-35.58,15.49,276.089,276.089,0,0,1-55.953,7.727c-28.757,1.179-57.487,1.006-85.805-4.7-21.979-4.428-43.176-10.667-57.968-28.495-1.627,5.618,1.987,9.452,6,13a77.773,77.773,0,0,0,18.573,11.669,5.434,5.434,0,0,1,3.273,3.492,22.858,22.858,0,0,0,7.606,10.568c-1.365-3.777-3.723-7.157-4.531-11.464a123.416,123.416,0,0,0,18.066,5.5,3.746,3.746,0,0,1,3.428,3.423c1,4.948,3.869,8.91,7.606,12.363-1.3-4.081-3.692-7.74-4.632-11.926-.176-.786-.864-1.864.072-2.239,1.213-.486,1.572.771,1.927,1.632.84,2.035,1.078,4.331,3.107,6.586a29.25,29.25,0,0,0-.6-4.659c-.8-2.581.389-2.812,2.57-2.395a234.241,234.241,0,0,0,33.166,3.539c2.039.095,2.826.87,3.274,2.6.743,2.861,1.178,5.844,3.352,9.073-.693-3.635-1.264-6.5-1.772-9.366-.162-.913-.408-1.972,1.153-2.065,1.185-.07,2.218.033,2.369,1.478.077.73.15,1.462.267,2.187.407,2.529.832,5.056,1.25,7.584a41.514,41.514,0,0,0,.484-8.906c-.072-1.652.475-2.284,2.212-2.19,2.4.129,4.807.175,7.209.12,1.7-.039,2.45.386,2.655,2.229a18.863,18.863,0,0,0,2.921,9.065c-.245-3.054-.44-5.859-.7-8.658-.153-1.623.212-2.511,2.237-2.521,5.462-.027,10.926-.183,16.382-.428,1.722-.077,2.238.539,2.493,2.059.259,1.547-.448,3.362,1.353,4.992a30.543,30.543,0,0,0,.489-4.324c-.068-2.1.695-2.885,2.992-2.918,3.814-.055,7.625-.472,11.433-.793a231.381,231.381,0,0,0,25.94-3.368c2.027-.4,2.807-.054,2.031,2.175-.528,1.516-1.337,3.093-1.045,5.166,1.818-2.064,2.433-4.329,3.52-6.349.445-.828.712-1.847,1.831-2.069,7.437-1.48,14.667-3.7,22.23-5.966l-.9,6.236a6.445,6.445,0,0,0,2.756-4.406c.612-2.433,2.031-3.535,4.383-4.419a71.889,71.889,0,0,0,12.7-6.475c4.494-2.805,8.958-5.679,12.363-9.737C2039.445,733.691,2040.934,730.963,2039.74,726.633ZM1966.878,706.2a29.61,29.61,0,0,0-12.339,6.35c-4.6,4.135-7.409,9.543-11.183,14.262-1.1,1.376-.4,2.291.947,3.014a5.967,5.967,0,0,0,4.133.445,129.025,129.025,0,0,0,28.675-9.311c5.523-2.537,7.858-7,8.841-12.371.685-3.746-.081-4.9-3.773-6.164a42.631,42.631,0,0,0-18.035-1.982c-5.224.491-5.325.65-6.929,6.232C1960.249,706.674,1963.147,705.173,1966.878,706.2Zm-126.717,25.253a6.369,6.369,0,0,0,7.417,1.6c5.39-2.055,10.319-4.979,15.558-7.308,6.969-3.1,9.563-2.358,13.576,3.77.62.947.87,2.726,2.748,1.921,1.776-.762.17-2,.239-3.016a30.171,30.171,0,0,0-.2-3.136c-.124-3.277-.994-6.16-4.022-8.16a4.358,4.358,0,0,1-1.947-4.448c.818-3.47-1.226-5.729-2.938-8.213a67.345,67.345,0,0,1-7.749-15.19c-.306-.836-.2-1.882-1.325-2.5-.033.614-.075,1.116-.084,1.618-.135,8.071.1,16.149-.651,24.208-.308,3.319-1.849,5.572-5.392,6.141a80.769,80.769,0,0,1-8.425,1.012,145.184,145.184,0,0,0-25.251,3.283c-.778.182-2.17-.149-1.83,1.5.285,1.384.873,2.007,2.456,1.62,1.791-.438,3.633-.687,5.453-1.012a89.894,89.894,0,0,1,22.506-.921c1.182.087,2.716.175,3.044,1.41.421,1.584-1.381,1.683-2.354,2.051C1847.466,729.019,1843.868,730.181,1840.161,731.455Zm69.48-74.89c2.942-.147,5.9-.141,8.822-.476A56.254,56.254,0,0,0,1932.09,653c1.016-.385,1.738-.962,1.346-2.122a1.883,1.883,0,0,0-2.524-1.338c-.838.225-1.672.469-2.492.745a58,58,0,0,1-18.951,2.8c-14.23-.059-27.413-4.145-40.437-9.082-6.158-2.335-12.023-5.4-18.557-6.824-1.76-.382-3.363-.626-4.079,1.306-.834,2.248,1.4,2.293,2.622,2.718,8.489,2.949,16.993,5.867,25.548,8.635C1885.945,653.515,1897.426,656.8,1909.641,656.565Zm17.832-32.906c-5.842,4.124-11.318,3.62-15.02-1.211-1.968-2.569-1.785-5.264-.416-7.982a10.144,10.144,0,0,1,6.751-5.114,10.384,10.384,0,0,0-6.222.743c-4.427,1.671-6.8,4.984-6.8,9.371,0,4.512,2.228,7.775,6.641,9.476a20.685,20.685,0,0,0,8.278,1.435C1926.231,630.171,1927.114,629.38,1927.473,623.659ZM1855.3,711.971c.5-.284,2.838,1.232,2.631-1.462-.319-4.166-.795-8.321-1.119-12.487-.122-1.581-.752-1.645-2.093-1.092-3.926,1.62-5.352,4.057-4.489,8.154.365,1.733.915,3.43,1.391,5.141C1852.038,711.733,1852.9,712.629,1855.3,711.971Zm10.038-98.283c-.341,4.316-.347,4.283,3.786,3.592,2.04-.341,4.1-.605,6.164-.781,6.641-.569,6.845-.746,7.268-7.182.238-3.617-1.832-5.658-5.787-5.706,2.7,4.818,2.309,7.71-1.431,10.514C1871.667,616.876,1868.9,616.755,1865.336,613.688Zm-26.38,124.867c1.091-.051,2.38.222,2.89-.957s-.516-1.913-1.335-2.574a17,17,0,0,0-8.287-3.249c-.768-.122-1.833-.458-2.293.54a2.263,2.263,0,0,0,.535,2.324C1832.56,737.445,1835.755,738.019,1838.956,738.555Zm41.922-.6a15.352,15.352,0,0,0,6.573-1.4c.755-.4,1.531-.911,1.425-1.9-.129-1.2-1.2-1.426-2.132-1.541a18.992,18.992,0,0,0-8.56,1.3c-.9.311-1.908.79-1.731,1.963.167,1.108,1.177,1.424,2.159,1.558A16.952,16.952,0,0,0,1880.878,737.951ZM1812.21,722.31c-1.578,0-2.843.43-2.921,2.213-.1,2.233,3.012,4.506,6.2,4.493,1.31-.006,2.7-.028,2.648-1.927C1818.068,724.564,1815.257,722.257,1812.21,722.31Zm126.268,21.381a10.027,10.027,0,0,0-3.514.492c-1.292.5-2.483,1.1-2.254,2.63s1.593,1.86,2.943,1.929a11.6,11.6,0,0,0,5.13-.512c1.212-.5,2.658-.867,2.479-2.445-.191-1.687-1.681-1.981-3.156-2.08C1939.566,743.669,1939.021,743.7,1938.478,743.691Zm-12.152-128.8c-.076-1.762-.816-2.857-2.737-2.777a2.577,2.577,0,0,0-2.76,2.794c.008,1.587.7,2.872,2.619,2.9C1925.5,617.836,1926.241,616.6,1926.326,614.889Zm-22.541,121.868c1.083-.111,1.991.2,2.406-.6.467-.9-.229-1.565-.814-2.151a4.843,4.843,0,0,0-3.046-1.6c-1.405-.1-3.119-.182-3.493,1.436-.354,1.534,1.25,1.965,2.468,2.352C1902.217,736.481,1903.179,736.623,1903.785,736.757Zm49.918,5.807c1.89-.119,3.769-.148,5.139-1.605a.733.733,0,0,0-.158-1.113c-1.69-1.14-3.565-.693-5.32-.291-1.116.255-2.613.956-2.422,2.173C1951.146,743.028,1952.772,742.294,1953.7,742.564Zm-69.464-133.483c.141,2.451.231,4.088.332,5.723.057.935.622,1.262,1.517,1.061,1.009-.227.547-.9.421-1.453A13.055,13.055,0,0,0,1884.239,609.081Z" fill="#f5a845"/>
      <path id="Pfad_811" data-name="Pfad 811" d="M1965.484,793.843a116.418,116.418,0,0,1-20.586,4.607c-21.086,2.979-42.247,2.046-63.4.853-15.685-.885-31.34-2.126-46.743-5.264a127.263,127.263,0,0,1-33.991-11.75c-.942-.494-1.863-1.025-3.1-1.708,2.007-1.192,3.607-.363,5.118.089a325.059,325.059,0,0,0,35.1,8.668c24.8,4.51,49.745,7.636,75.063,7.29,8.537-.117,16.923-1.652,25.4-2.239C1947.369,793.764,1956.4,793.142,1965.484,793.843Z" fill="#f5a845"/>
      <path id="Pfad_812" data-name="Pfad 812" d="M1809.319,773.541c9.666,4.639,19.494,8.7,30.088,10.784C1828.373,783.317,1817.794,781.113,1809.319,773.541Z" fill="#f5a845"/>
      <path id="Pfad_813" data-name="Pfad 813" d="M1874.877,685.759c12.771,3.347,25.875,1.928,38.825,2.529C1906.812,693.6,1881.558,692.015,1874.877,685.759Z" fill="#f5a845"/>
      <path id="Pfad_814" data-name="Pfad 814" d="M1889.562,696.183c4.632,0,9.268.107,13.9-.026,6.859-.2,13.711-.588,20.569-.827.98-.034,2.512-.447,2.726.932.179,1.15-1.27,1.226-2.149,1.464-11.742,3.184-23.4,2.343-35.012-.425Z" fill="#f5a845"/>
      <path id="Pfad_815" data-name="Pfad 815" d="M1909.877,720.772a36.219,36.219,0,0,1-21.744-6.315c-1.052-.706-2.6-1.69-1.761-2.969.977-1.5,2.359-.076,3.322.522C1895.952,715.9,1902.446,719.246,1909.877,720.772Z" fill="#f5a845"/>
      <path id="Pfad_816" data-name="Pfad 816" d="M1947.308,656.149c-2.586,2.058-5,2.129-6.371.081-1.441-2.151-.306-3.746,1.455-5.1a3.424,3.424,0,0,1,3.381-.543c1.327.486,1.5,1.676,1.5,2.862.005.939-.047,1.878-.074,2.818Z" fill="#f5a845"/>
      <path id="Pfad_817" data-name="Pfad 817" d="M1892.824,628.5c-.2,1.519-1.334,2.189-2.817,2.363-.952.112-1.748-.3-1.693-1.359a2.646,2.646,0,0,1,2.551-2.683A1.686,1.686,0,0,1,1892.824,628.5Z" fill="#f5a845"/>
      <path id="Pfad_818" data-name="Pfad 818" d="M1947.2,656.263c1.457-.751,3.034-1.755,3.946.523a2.138,2.138,0,0,1-.5,2.611c-.7.552-1.449.225-2.162-.04-1.687-.626-1.236-1.987-1.182-3.209Z" fill="#f5a845"/>
      <path id="Pfad_819" data-name="Pfad 819" d="M1947.126,662.312c-.308.979-.6,1.974-1.8,1.921a1.785,1.785,0,0,1-1.818-1.792,1.837,1.837,0,0,1,1.971-1.659C1946.433,660.752,1946.919,661.5,1947.126,662.312Z" fill="#f5a845"/>
      <g id="Gruppe_137" data-name="Gruppe 137">
        <path id="Pfad_820" data-name="Pfad 820" d="M2023.082,712.859c-1.836-1.418-5.023-2.222-5.566-3.909-.571-1.773,1.39-4.238,2.051-6.454.675-2.263,1.255-4.586.451-7.05-.9.431-.846,1.136-1,1.7-.943,3.407-1.836,6.827-2.781,10.234-.1.38-.117,1.1-.823.87-.61-.2-.376-.74-.206-1.2.463-1.256.958-2.505,1.333-3.786,3.439-11.761,4.715-23.828,5.459-35.965.193-3.155.238-6.317.358-9.679,10.5,5.456,20.677,4.063,30.61-.463,8.417-3.835,19.311-16.993,19.274-22.759-5.448,1.42-10.79,3.1-16.567,5.094a16.463,16.463,0,0,0,2.736-8.685c.308-5.178-1.337-10.1-2.12-15.129-.213-1.366-1.1-1.04-2-.782-5.243,1.5-10.02,3.768-13.821,7.672-.34.349-.486,1.075-1.409.774-.867-4.8-4.507-8.411-6.616-12.8a27.852,27.852,0,0,0-8.119,9.578c-1.153,2.272-1.92,2.227-3.565.518a22.659,22.659,0,0,0-4.073-3c-5.409-3.518-5.45-3.517-8.346,2.077-.469.906-.789.958-1.564.41-2.435-1.721-4.97-3.319-7.329-5.128-1.2-.921-1.534-.718-1.874.588-1.56,5.986-2.577,11.973-.118,18.64-6.76-4.634-14.936-6.2-19.292-13.226-.322,11.282,3.238,20.892,12.116,28.359a35.545,35.545,0,0,0,25.378,8.751c1.589-.078,2.013.285,1.718,1.8-.361,1.843-.468,3.731-.709,5.6-1.66,12.837-3.637,25.609-7.83,37.972-.6,1.76-1.233,2.028-3.06,1.559m-6.823-86.949c2.511,1.814,4.49,3.317,6.549,4.712,2.107,1.429.308,2.906.33,4.447-1.074-.2-1.162-1.456-2.341-1.433.378,1.422,2.044,2.37,1.582,4.058-1.291.173-1.017-1.737-2.45-1.6.39,2.339,1.564,4.524,1.454,7.219-1.611-1.833-1.644-4.125-3.4-6.356l1.175,6.44-.616.083A34.809,34.809,0,0,1,1998.955,618.077Zm-9.187,19.253c-3.041-1.573-4.118-3.841-5.1-6.479,8.214,5.154,16.576,9.894,23.633,16.423-.8.573-1.248-.128-1.759-.363C2000.646,644.2,1995.481,640.287,1989.768,637.33Zm11.78,12.224c5.626.833,10.487,4.122,16.222,4.6A22.31,22.31,0,0,1,2001.548,649.554Zm23.791-4.131a14.581,14.581,0,0,0-3.655-10.266c.358,2.668,1.241,5.246,1.286,8.644l-7.533-9.154c.075,2.827,2.012,4.915,3.148,7.924-2.64-2.3-3.518-5.143-5.671-7.082.648,3.827,2.9,6.932,4.872,10.177-3.412-1.923-4.446-5.566-6.867-8.664.215,3.339,2.235,5.6,3.4,8.2a12.293,12.293,0,0,1-5.176-8.161,30.719,30.719,0,0,1,2.271-16.341c.629-1.5,1.2-1.927,2.748-.753,5.544,4.2,10.488,8.78,12.156,15.709A12.9,12.9,0,0,1,2025.339,645.423Zm4.042-12.51a18.024,18.024,0,0,0-3.5-6.9,2.757,2.757,0,0,1-.247-3.9,73.528,73.528,0,0,1,5.149-6.562c.485-.577.967-.947,1.452-.081,4.224,7.544,7.266,15.269,3.789,23.938-.053.131-.223.22-.471.454-.078-2.1.465-4.111-.691-6.164l-1.62,6.929c-.186-2.579-.955-5.022-1.368-8.15-1.283,2.72-.3,5.139-1.247,7.645C2029.922,637.512,2030.041,635.161,2029.381,632.913Zm10.357-5.228a4.365,4.365,0,0,1,1.161-2.776c3.318-4.554,8.009-7.2,13.582-9.083.064,5.691,1.239,11.179.648,16.74-.477,4.49-2.251,7.963-7.167,9.633-4.667,1.585-9.123,3.744-14.077,5.82C2037.575,641.373,2040.13,634.911,2039.738,627.685Zm25.879,11.5c-1.025,7.877-12.953,17.361-22.859,18.118,5.387-2.718,10.948-4.613,15.06-8.811-4.607,1.945-8.857,4.694-13.97,5.346,4-1.6,8.069-3.053,11.423-5.855-3.779,1.227-7.409,2.874-11.4,3.414,3.577-1.295,7.143-2.59,10.076-5.164l-16.206,3.614C2047.107,646.349,2056.233,642.578,2065.617,639.189Z" fill="#f5a845"/>
      </g>
    </g>
    <g id="icon_mobilitaet">
      <g id="Gruppe_138" data-name="Gruppe 138">
        <path id="Pfad_821" data-name="Pfad 821" d="M1367.65,607.712c1.252,1.465,2.147,2.861,4.73,2.048,1.821-.573,3.829.6,5.041,2.177.921,1.2,1.71,1.064,2.945.583,11.875-4.627,24.3-5.393,36.92-4.894a77.756,77.756,0,0,1,20.584,3.109,3.067,3.067,0,0,0,3.18-.67,4.588,4.588,0,0,1,5.021-.972c1.347.61,2.159.128,2.987-.839,5.032-5.87,10.048-11.753,15.169-17.55,1.083-1.227.662-2.148.2-3.377-1.9-5.064-.749-9.494,3.071-12.547a11.2,11.2,0,0,1,8.353-2.225c1.346.116,1.718.844,1.68,2.013-.039,1.205-.5,1.879-1.87,1.749a9.717,9.717,0,0,0-1.937,0,6.763,6.763,0,0,0-5.9,4.2,6.329,6.329,0,0,0,1.425,7.294,6.517,6.517,0,0,0,7.084,1.752c1.954-.626,3.821-1.469,5.984-.986-1.657,4.037-6.136,5.966-10.8,4.707a6.759,6.759,0,0,1-1.8-.667c-1.168-.728-1.879-.2-2.612.651q-7.811,9.081-15.653,18.138c-.413.478-1.056,1.018-.776,1.609,1.07,2.255.537,4.895,3.181,6.856,5.088,3.774,8.406,9.107,11.055,14.728.873,1.853,1.7,2.465,4.029,2.108,5.162-.789,10.214,3.729,10.468,9.267a4.959,4.959,0,0,0,2.927,4.64c10.216,5.868,20.449,11.72,30.063,18.5a25.7,25.7,0,0,1,2.773,2.044,12.179,12.179,0,0,0,9.205,3.539c7.564-.131,13.363,7.077,12.2,14.3a9.623,9.623,0,0,1-.6,2.552c-.663,1.415-.324,2.132,1.1,2.956,7.422,4.3,11.968,10.876,15.044,18.5,1.375,3.409,1.284,3.451-1.714,5.489a20.9,20.9,0,0,1-7.239,3.465c-2.838.622-3.7.4-5.177-1.964-1.669-2.669-3.088-5.483-4.723-8.173a32.483,32.483,0,0,0-5.594-7.432c-1.9,2.671-2.626,5.136-.865,8.026,1.357,2.227,1.176,3.972-.386,5.433a5.137,5.137,0,0,1-5.7,1.115c-3.556-1.327-5.842-5.4-5.3-9.911a15.167,15.167,0,0,1,1.945-6.431c1.079-1.712.9-2.573-1.123-3.656a13.026,13.026,0,0,1-6.532-15.694c.558-1.723,1.772-3.02,2.732-4.477-.8-1.607-2.344-2.384-3.666-3.338-9.648-6.958-20.134-12.662-30.265-18.9-2.216-1.365-3.328.289-4.854.86-1.913.714-1.106,2.319-.918,3.568a226.579,226.579,0,0,1,2.4,34.757,75.847,75.847,0,0,1-4.922,27.921,46.309,46.309,0,0,1-21.721,24.516c-.445.24-.864.524-1.54.936.818,2.055,1.652,4.1,2.448,6.159a69.4,69.4,0,0,1,3.236,11.167c.22,1.079.382,2.271,2.119,2.016,3.191-.468,4.415,1.61,5.08,4.045a65.329,65.329,0,0,1,2.539,15.507c.055,2.13.389,3.593,2.477,4.873,3.586,2.2,5,6.023,5.979,9.78.727,2.8,1.947,4.51,4.974,5.246a15.424,15.424,0,0,1,7.355,3.985c2.418,2.419,2.454,4.809.076,7.251a18.149,18.149,0,0,1-6.551,3.9,82.587,82.587,0,0,1-17.933,4.5,286.37,286.37,0,0,1-53.708,2.883c-14.839-.506-29.652-1.572-44.14-5.078a46.971,46.971,0,0,1-10.905-3.751,17.927,17.927,0,0,1-3.512-2.307c-2.763-2.424-2.769-5.3-.077-7.8a19.739,19.739,0,0,1,6.683-3.7c1.441-.542,2.912-1.008,4.374-1.5a2.958,2.958,0,0,0,2.217-1.838,14.164,14.164,0,0,1,7.02-7.691c1.491-.814,1.672-1.785,1.573-3.35a67.634,67.634,0,0,1,1.241-16.786c.523-2.781,1.422-5.462,5-5.847,1.422-.152,1.545-1.065,1.619-2.108a76.819,76.819,0,0,1,2.815-16.23c.459-1.567-.372-1.994-1.482-2.49a53.882,53.882,0,0,1-12.285-7.763c-8.83-7.275-12.79-17.022-15.2-27.585a103.938,103.938,0,0,1-2.583-20.807,214.827,214.827,0,0,1,1.566-32.555,8.934,8.934,0,0,0,.175-2.235,1.814,1.814,0,0,0-2.9-1.106,7.257,7.257,0,0,0-1.075,1.078q-8.623,9.4-17.25,18.79c-.924,1-1.384,1.735-.4,3.173,4.6,6.71,3,14.688-3.713,19.49-.494.354-1.226.475-1.414,1.432.687.837,1.54,1.75,2.245,2.76,2.5,3.585,3.606,7.427,2.163,11.714a8.751,8.751,0,0,1-1.9,3.229c-2.083,2.232-4.392,2.812-6.517,1.655a5.432,5.432,0,0,1-2.789-6.623c.749-2.448.71-4.639-1.546-6.731a40.835,40.835,0,0,0-4.619,7.751,87.724,87.724,0,0,0-4.3,10.428c-1.157,3.106-2.171,3.841-5.451,3.5a26.647,26.647,0,0,1-12.8-4.928,3.354,3.354,0,0,1-1.5-3.565,30.95,30.95,0,0,1,2.924-8.893,41.771,41.771,0,0,1,11.578-14.84c1.412-1.132,2.024-1.949,1.333-3.967-3.2-9.336,3.314-18.24,13.447-17.876,4.608.166,7.237-1.377,9.9-4.663a192.473,192.473,0,0,1,15.535-16.736c1.6-1.556,2.225-2.879,1.746-5.2-1.364-6.6,3.924-12.181,10.919-11.613,1.8.147,2.491-.315,3.141-1.772a41.351,41.351,0,0,1,9.269-13.275,2.013,2.013,0,0,0,.475-2.915,4.224,4.224,0,0,1,.12-4.665c1.256-1.7.312-2.664-.732-3.872m45.912,22.592v.069c-6.584,0-13.17-.092-19.753.02-12.16.207-19.67,5.59-21.26,17.8-.564,4.329-.85,8.693-1.211,13.046a17.285,17.285,0,0,0,3.995,12.585,28.283,28.283,0,0,0,19.373,10.533c13.408,1.572,26.831.574,40.155-.908,10.333-1.149,17.505-8.207,19.459-18.173a46.23,46.23,0,0,0-.694-20.784c-1.808-6.917-6.46-11.216-13.452-13.146a27.888,27.888,0,0,0-7.634-1.054C1423.585,633.4,1417.259,633.364,1410.933,633.364Zm4.043,166.561v.012c5.941,0,11.891-.183,17.82.08,2.811.125,4.682-.374,5.734-3.054a4.951,4.951,0,0,1,1.944-2.283c2.212-1.316,2.1-3.112,1.64-5.178-.945-4.271-1.8-8.559-2.672-12.845-.824-4.07-.491-4.481,3.174-5.335,1.529-.356,2.108-1.051,1.711-2.665a92.367,92.367,0,0,0-4.507-14.3c-.681-1.6-1.614-1.988-3.287-1.515-12.228,3.456-24.765,3.123-37.287,2.615a78.1,78.1,0,0,1-9.556-1.385c-1.567-.261-2.306.165-2.689,1.762a92.136,92.136,0,0,0-2.188,13.68c-.074.871-.192,1.9,1.016,2.1,4.192.723,4.241,3.9,4.261,6.9a48.427,48.427,0,0,1-1.3,12.273c-.794,3.112-.43,5.136,2.55,7.129,1.913,1.28,3.452,2.129,5.813,2.064C1403.09,799.816,1409.035,799.925,1414.976,799.925Zm-19.335,1.983c-.041,2.29,1.027,3.8,1.361,5.493.7,3.519-.507,5.813-3.912,7.191a17.181,17.181,0,0,1-2.942.92,64.306,64.306,0,0,1-22.718.706c-3.246-.487-6.271-1.548-7.852-4.769-1.46-2.974-1.51-2.99-4.69-1.831a28.694,28.694,0,0,0-4.219,1.848c-1.647.923-3.759,1.782-3.66,3.961.095,2.084,2.089,3.036,3.77,3.958a43.385,43.385,0,0,0,10.872,3.8c15.9,3.823,32.142,4.68,48.409,5.116a287.239,287.239,0,0,0,43.3-2.237,95.776,95.776,0,0,0,21.438-4.788,17.412,17.412,0,0,0,6.324-3.533c1.742-1.691,1.779-2.875.048-4.475-2.107-1.948-4.813-2.85-7.516-3.712a1.724,1.724,0,0,0-1.786.345c-3.826,3.409-8.847,3.842-13.56,4.885-5.749,1.272-11.591,1.336-17.157-.837-5.77-2.253-6.392-5.017-5.532-8.894.6-2.721.4-2.811-2.7-2.885-5.169-.124-10.339-.225-15.51-.256C1410.189,801.876,1402.962,801.908,1395.641,801.908Zm71.948-130.285c-1-8.757-2.311-17.356-5.68-25.529-4.52-10.962-14.02-19.941-30.352-19.633-9.561.18-19.126.14-28.689.174-.954,0-2,.25-3.015-.439,2.523-5.076,6.117-9.3,9.188-14.061-3.364-.77-5.589-.109-7.18,2.637-1.891,3.264-4.088,6.361-6.1,9.561-1.986,3.157-1.957,3.174-6.479,2.476,2.028-5.047,5.5-9.247,8.334-14.184-1.671.191-2.93.287-4.171.49-1.269.207-2.533.47-3.777.791-15.4,3.979-26.414,12.663-31.6,27.578-.7,2.01-1.392,4.028-1.935,6.08-3.976,15.022-4.58,30.361-4.386,45.751a82.739,82.739,0,0,0,1.143,13.059c.178,1.026.18,1.987,1.68,1.977,3.137-.022,3.343-.056,2.851-3.147a103.186,103.186,0,0,1-1.194-21.293c.257-5.214.3-5.244,5.451-5.433,1.274-.047,1.9-.3,1.716-1.72-.262-1.979-.384-3.981-.459-5.977-.341-9.188.391-18.245,4.111-26.837,3.638-8.4,10.332-12.937,19.655-13.585,14.838-1.032,29.71-.523,44.567-.551a34.05,34.05,0,0,1,7.268.983c10.327,2.265,16.318,9.059,19.861,18.231,2.227,5.765,3.1,11.845,3.968,17.9C1462.9,670.65,1463.012,670.845,1467.589,671.623Zm-152.279,8.151c-5.732.009-10.437,4.1-10.352,8.989.091,5.294,4.884,9.34,11,9.285a9.246,9.246,0,0,0,9.536-9.638C1325.444,683.54,1320.993,679.764,1315.31,679.774Zm95.916,29.932v-.017q-27.315,0-54.632.038c-1.086,0-3.063-.795-3.044,1.133.018,1.8,1.934,1.216,3.1,1.217q54.438.04,108.877.018a14.279,14.279,0,0,0,2.315-.121,1.021,1.021,0,0,0,.794-1.124.907.907,0,0,0-.846-1.031c-1.156-.091-2.32-.109-3.481-.109Q1437.768,709.7,1411.226,709.706ZM1523.1,679.051c-5.214.049-9.532,3.943-9.381,8.46a8.883,8.883,0,0,0,8.952,8.495c5.219-.075,9.514-4.189,9.385-8.991C1531.937,682.57,1527.929,679.005,1523.1,679.051Zm-155.447,6.072a5.846,5.846,0,0,0-3.534,1.124c-4.617,2.973-4.211,10.743.67,13.335a6.265,6.265,0,0,0,7.929-1.751,7.976,7.976,0,0,0,1.071-8.164A6.94,6.94,0,0,0,1367.653,685.123Zm96.368,7.513c.035-3.825-3.083-7.354-6.615-7.491-3.772-.146-7.018,3.224-7.108,7.38-.092,4.2,2.975,7.678,6.738,7.649S1463.985,696.694,1464.021,692.636Zm-159.588,5.936c-1.9,0-2.943,1.124-4,2.1A39.8,39.8,0,0,0,1289.1,718.19c-1.268,4.046-1.168,4.22,3.41,6.1C1295.275,715.23,1298.681,706.441,1304.433,698.572Zm134.225,41.159c-10.6-1.677-47.156-1.922-51.721-.454C1404.169,740.676,1421.41,741.252,1438.658,739.731Zm-4.51-14.541c-8.562-1.362-41.277-1.653-46.1-.483C1392.442,726.673,1429.237,727.2,1434.148,725.19Zm-61.408,73.089c-4.154,1.2-6.891,3.061-8.816,5.978-1.254,1.9-1.673,4.015-.465,6.038,1.242,2.079,3.5,2.331,5.751,2.443,1.127.057,1.686-.338,1.634-1.477C1370.65,807.032,1370.734,802.828,1372.74,798.279Zm4.892-23.132c-3.847-.092-3.916-.036-4.326,3.313-.031.247-.037.5-.085.741-.347,1.774.485,2.506,2.272,2.544,2.827.06,5.652.191,8.478.292.654.023,1.441.025,1.608-.675a8.5,8.5,0,0,0,.1-4.423c-.436-1.461-1.9-.967-2.953-1.148A23.266,23.266,0,0,0,1377.632,775.147Zm-4.912,17.091a25.78,25.78,0,0,1,9.371-.479c2.176.226,2.469-.217,2.817-3.027.232-1.867-.473-2.443-2.3-2.376a44.736,44.736,0,0,1-5.016-.182c-5.213-.394-5.214-.41-5.1,4.547A14.775,14.775,0,0,0,1372.72,792.238Zm83.939-13.687c-.285-1.31-.513-2.514-.815-3.7a1.486,1.486,0,0,0-2.014-1.153c-2.74.611-5.486,1.194-8.227,1.8-1.176.26-1.794.81-1.288,2.1a20.344,20.344,0,0,1,.465,2.18,1.254,1.254,0,0,0,1.7,1C1449.813,780.029,1453.318,779.984,1456.659,778.551Zm1.569,11.159c-.176-1.856-.311-3.33-.456-4.8-.078-.8-.31-1.555-1.348-1.376a86.469,86.469,0,0,0-9.02,1.74c-2.122.6-.472,2.318-.495,3.518-.023,1.146.761,1.515,1.822,1.162C1451.73,788.955,1454.78,789.527,1458.228,789.71Zm-73.043,8.584a27.55,27.55,0,0,1,3.292,12.319c.032.67.248,1.191,1.09,1.205,2.054.036,4.02-1.645,3.622-3.427A13.368,13.368,0,0,0,1385.185,798.294Zm-68.075-94.722c4,4.814,4.3,6.3,2.467,12.654a1.563,1.563,0,0,0,.591,1.949,1.609,1.609,0,0,0,2.107-.228,5.967,5.967,0,0,0,2-3.535c.707-3.541-2-9.221-5.256-10.974C1318.426,703.119,1317.689,702.793,1317.11,703.572Zm143.385,91.692c2.76,4.836,2.8,9.477,2.7,14.177,5.431-1.326,5.46-1.335,3.9-5.969a32.091,32.091,0,0,0-1.869-4.455A6.806,6.806,0,0,0,1460.495,795.264Zm63.38-78.828c-4.94-6.449-3.288-11.56,2.433-16.154-4.6.006-7.184,3.152-7.757,8.783C1518.135,713.163,1519.632,715.547,1523.875,716.436Zm-52.769-64.479a4.559,4.559,0,0,0,2.73-3.863c.393-2.689-1.235-5.356-3.478-5.853-1.231-.273-2.108-.063-1.689,1.429C1469.433,646.386,1470.258,649.086,1471.106,651.957Zm-120.666.267c.786-2.955,1.511-5.666,2.229-8.379.35-1.323-.494-1.589-1.5-1.351a4.353,4.353,0,0,0-3.6,3.469C1347.07,648.493,1347.693,650.586,1350.44,652.224Zm-46.594,59.538a51.8,51.8,0,0,0-7.289,12.859c-.3.7-.433,1.479.673,1.738a1.289,1.289,0,0,0,1.716-.99c1.036-2.941,2.125-5.865,3.208-8.791C1302.742,714.99,1303.823,713.568,1303.846,711.762Zm92.033-17.729c-1.916,0-3.265,1-3.256,2.4.009,1.432,1.3,2.357,3.3,2.359,1.9,0,3.322-1.032,3.285-2.381S1397.74,694.031,1395.879,694.033Zm12.9,0c-1.941.041-3.16,1.05-3.052,2.525.1,1.429,1.394,2.287,3.365,2.239s3.183-1.046,3.057-2.511C1412.027,694.859,1410.734,693.994,1408.781,694.036Zm14.116,0c-1.949-.032-3.211.873-3.249,2.329s1.2,2.387,3.169,2.414,3.264-.883,3.268-2.3S1424.8,694.066,1422.9,694.035Z" fill="#76bbe3"/>
        <path id="Pfad_822" data-name="Pfad 822" d="M1446.5,568.542c-.123.167-.211.39-.378.492-1.545.946-3.013,2.387-4.682,2.66-1.707.279-2.659-1.81-3.945-2.838-10.926-8.74-23.386-11.964-37.424-10.309a46.432,46.432,0,0,0-25.542,11.047c-1.295,1.116-2.273,1.29-3.6.229-.826-.662-1.8-1.15-2.683-1.747a4.01,4.01,0,0,1-.635-.677C1385.229,547.167,1426.33,544.465,1446.5,568.542Z" fill="#76bbe3"/>
        <path id="Pfad_823" data-name="Pfad 823" d="M1435.8,575.738a11.484,11.484,0,0,1-.9.8c-3.976,2.907-3.928,2.829-8.147.2-13.7-8.54-27.556-8.15-41.488-.516a9.407,9.407,0,0,0-1.614,1.036,1.923,1.923,0,0,1-2.841-.046c-.4-.346-.88-.6-1.3-.921-1.925-1.448-1.887-1.418-.173-2.945a37.047,37.047,0,0,1,21.123-9.232c12.881-1.417,24.346,1.716,34.127,10.115a11.059,11.059,0,0,1,.934.862A2.461,2.461,0,0,1,1435.8,575.738Z" fill="#76bbe3"/>
        <path id="Pfad_824" data-name="Pfad 824" d="M1388.32,582.761c12.432-10.44,28.006-8.971,36.926.577-.329.234-.678.466-1.007.72-2.805,2.162-2.732,2.032-6,.362a24.2,24.2,0,0,0-22.635-.231C1391.733,586.071,1391.781,586.162,1388.32,582.761Z" fill="#76bbe3"/>
        <path id="Pfad_825" data-name="Pfad 825" d="M1398.612,589.84c4.932-4.22,10.7-4.282,16.308-.188-1.726,2.157-1.734,2.18-4.073,1.454a13.231,13.231,0,0,0-8.494-.006C1400.7,591.679,1399.431,591.452,1398.612,589.84Z" fill="#76bbe3"/>
        <path id="Pfad_826" data-name="Pfad 826" d="M1376.833,646.368c1.34.882.982,2.246.973,3.419-.03,3.619-.184,7.237-.3,10.855-.066,2.121-.244,4.244-.2,6.361.105,4.513,2.346,7.777,6.414,9.963a28.586,28.586,0,0,0,9.171,2.8c7.813,1.244,15.7,1.1,23.564.674,4.631-.254,9.242-.843,13.864-1.257a17.619,17.619,0,0,0,6.949-2.11c4.762-2.6,7.489-6.46,7.348-11.855-.117-4.489-.515-8.97-.691-13.458-.051-1.283-.347-2.7.73-3.982a6.488,6.488,0,0,1,1.525,3.49,73.863,73.863,0,0,1,1.619,14.49c.07,5.935-2.831,10.193-7.82,13.355-3.916,2.481-8.381,3.159-12.87,3.607a202.565,202.565,0,0,1-27.847.86,45.419,45.419,0,0,1-13.648-2.361c-7.761-2.775-12.232-7.8-11.537-16.529.4-4.971.293-9.987,1.374-14.9C1375.726,648.581,1375.791,647.307,1376.833,646.368Z" fill="#76bbe3"/>
        <path id="Pfad_827" data-name="Pfad 827" d="M1370.087,693.159c-.046,2.014-1.224,3.574-2.658,3.52-1.472-.056-2.745-1.916-2.713-3.967.029-1.9,1.308-3.6,2.672-3.545C1368.833,689.226,1370.134,691.15,1370.087,693.159Z" fill="#76bbe3"/>
        <path id="Pfad_828" data-name="Pfad 828" d="M1454.208,692.317c.231-1.562.5-3.009,2.229-3.292,1.548-.254,2.313.884,2.85,2.052a4.763,4.763,0,0,1,.521,2.157c-.083,1.41-.5,2.8-2.237,3.065-1.767.263-2.524-.931-3-2.315A12.982,12.982,0,0,1,1454.208,692.317Z" fill="#76bbe3"/>
        <path id="Pfad_829" data-name="Pfad 829" d="M1368.319,608.573c-5.031-5.87-10.048-11.753-15.168-17.55-1.083-1.226-.662-2.148-.2-3.377,1.9-5.064.75-9.494-3.07-12.546a11.206,11.206,0,0,0-8.353-2.226c-1.347.117-1.718.844-1.68,2.014.039,1.2.5,1.879,1.87,1.748a9.8,9.8,0,0,1,1.937,0,6.763,6.763,0,0,1,5.9,4.2,6.331,6.331,0,0,1-1.425,7.294,6.516,6.516,0,0,1-7.084,1.753c-1.954-.627-3.821-1.47-5.984-.987,1.657,4.037,6.136,5.967,10.8,4.708a6.741,6.741,0,0,0,1.8-.668c1.168-.727,1.879-.2,2.613.651q7.811,9.082,15.653,18.138" fill="#76bbe3"/>
      </g>
      <path id="Pfad_830" data-name="Pfad 830" d="M1416.492,657.846c1.057-1.488,5.673-6.447,6.58-7.617,1.361-1.759,3.767-3.1,5.739-1.5a3.1,3.1,0,0,1,.715,3.578,3.383,3.383,0,0,1-5.269.312s-6.654,7.681-8.415,9.689c-1.306-3.1-2.338-6.418-3.678-9.6-.245,2.872-.436,5.932-.588,8.086-.159,2.274-1.226,2.757-3.224,1.649-1.313-.728-2.654-1.408-4.2-2.224-1.55,2.45-4.235,5.923-5.666,8.19-1.378,2.182-3.958,3.035-5.988,1.243a3.065,3.065,0,0,1-.746-3.353,3.267,3.267,0,0,1,2.758-1.994,3.023,3.023,0,0,1,2.951,1.172c.839-1.268,3.256-4.443,3.957-5.847,1.274-2.551,2.892-2.621,5.026-1.025a23.012,23.012,0,0,0,2.723,1.476l1.149-13.457,1.406-.255" fill="#76bbe3"/>
    </g>
  </g>
</svg>
