<?xml version="1.0" encoding="UTF-8"?><svg xmlns="http://www.w3.org/2000/svg" viewBox="0 0 400 400"><defs><style>.cls-1{fill:#fff;}</style></defs><g id="hg"><rect y="0" width="400" height="400"/></g><g id="grf"><path class="cls-1" d="m80.59,193.23l24-111.89h56.93l24.49,111.89h-37.95l-3.08-17.46h-24.82l-2.6,17.46h-36.98Z"/><polygon class="cls-1" points="320.16 209.43 272.47 209.43 257.11 240 255.23 240 239.87 209.43 239.74 209.43 239.58 209.43 192.18 209.43 222.53 265.64 192.18 321.43 239.82 321.43 255.18 290.86 257.06 290.86 272.42 321.43 318.25 321.43 289.38 265.64 320.16 209.43"/><path class="cls-1" d="m173.08,222.64c-8.76-8.68-23.11-13.02-43.05-13.02h-48.93v111.8h50.65c19.48,0,33.42-4.76,41.84-14.27,8.41-9.51,12.62-23.8,12.62-42.88s-4.38-32.96-13.14-41.63Zm-24.44,48.89c0,18.93-13.5,18.1-30.4,18.47v-48.96c16.9.38,30.4.21,30.4,18.47v12.01Z"/><rect x="226.27" y="135.68" width="3.05" height="59.09"/><rect x="254.18" y="165.44" width="3.05" height="47.19" transform="translate(444.74 -66.67) rotate(90)"/><rect x="282.78" y="135.68" width="3.05" height="59.09"/><path class="cls-1" d="m271.79,81.33l-15.18,30.21h-1.88l-15.18-30.21h-48.35v111.89h34.42v-57.49c0-.09.08-.17.17-.17h5.05l23.27,46.32h3.12l23.27-46.32h5.05c.09,0,.17.08.17.17v57.49h34.42v-111.89h-48.35Z"/><polygon points="127.19 119.57 121.85 153.42 143.28 153.42 138.22 119.57 127.19 119.57"/></g></svg>