<svg xmlns="http://www.w3.org/2000/svg" width="380" height="280" viewBox="0 0 380 280">
  <g id="group_check_in_waiting_icon" transform="translate(-476 -1176)">
    <rect id="bounding_box" width="380" height="280" transform="translate(476 1176)" fill="none"/>
    <g id="group_icon">
      <g id="Gruppe_6" data-name="Gruppe 6">
        <path id="Pfad_4" data-name="Pfad 4" d="M626.89,1213.763a20.085,20.085,0,1,1-.005,0h.005" fill="#27292b"/>
        <path id="Pfad_5" data-name="Pfad 5" d="M651.193,1343.707A26.048,26.048,0,0,1,638.3,1321.14a26.433,26.433,0,0,1,22.812-26.037v-.992a34.026,34.026,0,0,0-33.974-33.974,33.144,33.144,0,0,0-24.551,10.663,26.258,26.258,0,0,1,.747,45.63,40.4,40.4,0,0,1,26.783,37.941v6.446c0-.243.243-.243.243-.5a42.094,42.094,0,0,1,20.83-16.615" fill="#27292b"/>
        <path id="Pfad_6" data-name="Pfad 6" d="M701.782,1213.763a20.084,20.084,0,1,1-.005,0h.005" fill="#27292b"/>
        <path id="Pfad_7" data-name="Pfad 7" d="M725.587,1316.43a26.259,26.259,0,0,1,.745-45.63,33.86,33.86,0,0,0-58.525,23.311v.744a26.216,26.216,0,0,1,10.167,48.606,39.027,39.027,0,0,1,20.583,16.614v-5.951a40.206,40.206,0,0,1,27.03-37.694" fill="#27292b"/>
        <path id="Pfad_8" data-name="Pfad 8" d="M664.584,1301.054a20.088,20.088,0,1,1-20.087,20.087h0a20.086,20.086,0,0,1,20.082-20.087h.005" fill="#27292b"/>
        <path id="Pfad_9" data-name="Pfad 9" d="M664.583,1347.675a34.026,34.026,0,0,0-33.974,33.974v10.664c7.936,4.96,20.584,7.687,33.974,7.687s26.038-2.976,33.975-7.687v-10.664a34.026,34.026,0,0,0-33.975-33.974" fill="#27292b"/>
        <path id="Pfad_10" data-name="Pfad 10" d="M589.693,1273.775a20.084,20.084,0,1,1-.005,0h.005" fill="#27292b"/>
        <path id="Pfad_11" data-name="Pfad 11" d="M589.692,1320.4a34.027,34.027,0,0,0-33.974,33.974v10.664c7.936,4.96,20.584,7.687,33.974,7.687s26.038-2.976,33.975-7.687v-10.664a33.713,33.713,0,0,0-33.449-33.974h-.526" fill="#27292b"/>
        <path id="Pfad_12" data-name="Pfad 12" d="M738.98,1273.775a20.087,20.087,0,1,1-20.087,20.087h0a20.087,20.087,0,0,1,20.087-20.087" fill="#27292b"/>
        <path id="Pfad_13" data-name="Pfad 13" d="M738.979,1320.4a34.027,34.027,0,0,0-33.974,33.974v10.664c7.935,4.96,20.584,7.687,33.974,7.687s26.038-2.976,33.973-7.687v-10.664a34.026,34.026,0,0,0-33.973-33.974" fill="#27292b"/>
      </g>
    </g>
  </g>
</svg>
