<svg xmlns="http://www.w3.org/2000/svg" xmlns:xlink="http://www.w3.org/1999/xlink" width="768" height="1128" viewBox="0 0 768 1128">
  <defs>
    <filter id="card_shadow" x="35" y="35" width="698" height="1050" filterUnits="userSpaceOnUse">
      <feOffset input="SourceAlpha"/>
      <feGaussianBlur stdDeviation="15" result="blur"/>
      <feFlood flood-opacity="0.6"/>
      <feComposite operator="in" in2="blur"/>
      <feComposite in="SourceGraphic"/>
    </filter>
    <clipPath id="clip-path">
      <path id="Pfad_1436" data-name="Pfad 1436" d="M475.276,560A19.26,19.26,0,0,0,456,579.247v889.506A19.262,19.262,0,0,0,475.276,1488h537.448A19.262,19.262,0,0,0,1032,1468.753V579.247A19.26,19.26,0,0,0,1012.724,560Z" fill="none"/>
    </clipPath>
    <clipPath id="clip-path-2">
      <rect id="Rechteck_40" data-name="Rechteck 40" width="616.818" height="968.755" transform="translate(435.591 539.623)" fill="none"/>
    </clipPath>
    <clipPath id="clip-path-3">
      <path id="Pfad_1425" data-name="Pfad 1425" d="M1049.506,556.194,435.591,592.615v656.062l616.818-36.593v-607.1Z" fill="none"/>
    </clipPath>
  </defs>
  <g id="_01_A_mobilitaet_flora_power" data-name="01_A_mobilitaet_flora_power" transform="translate(-360 -464)">
    <g id="heroes_card_bg">
      <rect id="bounding_box" width="768" height="1128" transform="translate(360 464)" fill="none"/>
      <g transform="matrix(1, 0, 0, 1, 360, 464)" filter="url(#card_shadow)">
        <rect id="card_shadow-2" data-name="card_shadow" width="608" height="960" rx="24" transform="translate(80 80)" fill="#191a1c"/>
      </g>
    </g>
    <g id="_01_A_mobilitaet_flora_power-2" data-name="01_A_mobilitaet_flora_power">
      <g id="Gruppe_304" data-name="Gruppe 304" clip-path="url(#clip-path)">
        <rect id="Rechteck_38" data-name="Rechteck 38" width="616.818" height="968.757" transform="translate(435.591 539.62)" fill="#d1de5f"/>
        <g id="Gruppe_299" data-name="Gruppe 299">
          <g id="Gruppe_298" data-name="Gruppe 298" clip-path="url(#clip-path-2)">
            <rect id="Rechteck_39" data-name="Rechteck 39" width="704.862" height="340.739" transform="translate(378.635 1222.641) rotate(-3.004)" fill="#121314"/>
          </g>
        </g>
        <path id="Pfad_1366" data-name="Pfad 1366" d="M435.591,1219.606v288.772h616.818V1187.327Z" fill="#121314"/>
        <g id="Gruppe_301" data-name="Gruppe 301">
          <g id="Gruppe_300" data-name="Gruppe 300" clip-path="url(#clip-path-3)">
            <path id="Pfad_1367" data-name="Pfad 1367" d="M607.339,1017.857c-2.79-3.732-7.21-4.771-11.669-2.72a40.231,40.231,0,0,0-8.534,5.269c-1.466,1.184-2.468,1.335-4.184.152a98.757,98.757,0,0,0-19.428-10.545,12.478,12.478,0,0,0-5.047-1.225c-1.524.048-2.974.292-3.691,1.693-.743,1.46.553,2.307,1.44,3.153,2.468,2.356,5.719,3.712,8.62,5.516.714.443,1.818.495,2.081,1.514q-14.322-1.45-28.578-2.893c-4.386-.439-7.5.43-7.517,2.354-.029,3.311,3.262,3.816,5.735,4.744,3.026,1.132,6.347,1.356,10.422,1.985-4.762,1.566-8.8,2.623-12.541,4.355a25.813,25.813,0,0,0-7.628,4.918c-1.226,1.226-2.13,2.627-1.491,4.413.646,1.808,2.328,2.367,4.08,2.646,3.9.625,7.65-.389,11.308-1.435,11.374-3.25,22.705-6.62,34.046-9.968a4.158,4.158,0,0,1,2.631-.253c-1.754,1.245-3.4,2.37-5,3.553a14.4,14.4,0,0,0-4.9,6.876c-.417,1.136-.778,2.435.811,2.9,1.539.446,1.907-.969,2.217-1.894,2.314-6.851,9.008-9.237,15.252-13.191-.521,2.587-2.067,3.56-3.454,4.615-2.7,2.06-4.975,4.37-5.626,7.691-.235,1.213-.854,2.872.737,3.234,1.378.31,1.7-1.381,2.026-2.465.88-2.981,2.834-5.219,5.69-7.3,1.409,3.54,3.175,6.659,3.25,10.289.02.8-.22,1.944,1.19,1.894,1.3-.047,1.217-1.077,1.2-1.948a20.5,20.5,0,0,0-1.963-8.033,7.6,7.6,0,0,1-.179-6.871c.372-.756.266-1.836,1.424-1.985,1.049-.136,1.664.688,2.228,1.347a44.836,44.836,0,0,1,8.022,13.978c-.377-5.853-3.475-10.613-7.526-15.363,3.985-.661,7.8-.643,11.368-1.951,4.81-1.761,6.088-5.14,3.173-9.045m-71.234,3.171,36.028,3.916c-12.328,1.367-24.357.466-36.028-3.916m-7.036,17.394c7-5.557,15.361-8.345,24.466-9.5-8.309,2.757-16.313,6.163-24.466,9.5m3.624,1.98c6.92-5.221,35.455-13.037,43.7-11.844-15.277,3.554-29.02,9.144-43.7,11.844m25.434-29.094c8.326,1.81,14.983,6.538,22.094,10.474-9.3-.1-15.185-6.186-22.094-10.474" fill="#121314"/>
            <path id="Pfad_1368" data-name="Pfad 1368" d="M909.126,651.169c-.875,3.341-2.16,6.437-2.5,9.707-.036.378-.27.761-.229,1.12.166,1.481-.961,3.857,1.43,4.025,1.812.126,1.406-2.139,1.63-3.479a87.682,87.682,0,0,1,3.33-12.788,6.248,6.248,0,0,1,.83-1.523,1.174,1.174,0,0,1,1.316-.554c.619.212.34.785.318,1.233-.143,2.666-.342,5.335-.4,8a14.768,14.768,0,0,0,.41,3.4c.152.7.363,1.664,1.5,1.439.97-.19.716-1.059.666-1.681-.369-4.486.236-8.961.308-13.44.021-1.181-.059-2.442,1.664-2.609,1.947-.19,1.986,1.236,2.233,2.458.356,1.749-.406,3.4-.551,5.1-.07.853-.286,1.7-.313,2.551-.034,1.034-.2,2.516,1.122,2.65,1.462.147.977-1.467,1.154-2.236a41.828,41.828,0,0,0,1.038-7.066c.077-1.489.553-1.521,1.845-1.148,2.872.831,5.225,2.185,6.7,4.694.347.587.676,1.675,1.743,1.232,1.118-.467.73-1.528.379-2.252a11.1,11.1,0,0,0-7.718-6.05c-1.013-.258-3.42-.2-2.625-1.711a4.308,4.308,0,0,1,5.13-2.164,10.547,10.547,0,0,1,4.5,3.377,7.743,7.743,0,0,0,2.485,2.1c.811.4,1.641.489,2.192-.312.516-.747-.116-1.27-.7-1.657-1.986-1.313-3.142-3.474-5.474-4.429-2.548-1.048-1.732-2.216.081-3.112,5.318-2.63,10.08-6.039,15.047-9.153a84.352,84.352,0,0,0,12.958-9.424,22.282,22.282,0,0,0,2.407-2.632c.667-.863,1.263-1.82.479-2.9a3.335,3.335,0,0,0-3.457-1.39,18.063,18.063,0,0,0-6.5,2.612c-.512.3-.961,1.109-2.2.518,1.492-1.917,2.929-3.637,4.205-5.452.744-1.059,1.127-2.284.191-3.468-.907-1.14-2.167-1.262-3.6-1.1-4.4.5-7.868,2.8-11.37,4.993-1.867,1.168-3.556,2.587-5.4,3.947-.825-1.213.566-3.132-1.415-3.734s-3.386.634-4.626,1.774c-7.716,7.107-14.52,14.809-18.081,24.478-.551,1.493-1.26,1.9-2.881,1.794a10.125,10.125,0,0,0-8.058,3.088c-2.727,2.706-3.266,6.887-1.321,9.521,1.879,2.54,5.607,3.212,10.127,1.657m50.88-37.577c-7.009,6.812-15.556,11.723-24.2,16.587a63.1,63.1,0,0,1,24.2-16.587m-20.162-.052a42.629,42.629,0,0,1,10.284-6.84c.682-.3,1.833-1.046,2.563-.163.762.917-.36,1.577-.918,2.143a67.918,67.918,0,0,1-5.453,5.12c-6.4,5.162-12.957,10.164-19.3,15.383-1.521,1.252-2.714,2.517-5.27,1.6a189.833,189.833,0,0,1,18.1-17.244m-8.11-1.32c-2.933,7.908-9.94,13.109-15.733,19.122,2.246-5.662,11.7-16.961,15.733-19.122" fill="#121314"/>
            <path id="Pfad_1369" data-name="Pfad 1369" d="M528.045,660.144c8.8,1.786,17.558,3.977,26.731,3.665.564-.018,1.292-.383,1.514.448a1.212,1.212,0,0,1-.687,1.457c-1.881,1-3.778,1.976-5.66,2.977-.9.475-1.79.955-2.645,1.491a1.117,1.117,0,0,0-.444,1.523,1.1,1.1,0,0,0,1.568.444c3.18-1.594,6.746-2.506,9.579-4.7a4.508,4.508,0,0,0,1.578-2.7.931.931,0,0,1,1.2-.643c.707.163.889.566.7,1.279a8.456,8.456,0,0,1-3.72,5.094c-2,1.313-4.089,2.551-4.658,5.088-.263,1.168-.451,2.252.834,2.626,1.435.42,2.065-.867,2.262-1.843.218-1.068.333-1.964,1.483-2.6,3.581-1.985,6.287-4.594,6.523-9.336a7.751,7.751,0,0,1-1.047,7.686c-1.19,1.795-2.586,3.481-3.255,5.534-.317.977-.515,1.985.732,2.435,1.274.46,1.594-.622,1.918-1.378a27.267,27.267,0,0,1,3.372-5.48,10.98,10.98,0,0,0,1.859-7.1c1.829,0,1.963,1.392,2.362,2.333,1.38,3.266,2.55,6.609,3.917,9.884.328.785.322,2.408,1.5,2.087,1.373-.376.587-1.775.365-2.764a41.537,41.537,0,0,0-2.983-8.365c-.306-.656-1-1.251-.655-2.333,2.507-.057,4.782.754,7.185,0,3.4-1.071,5.952-3.85,5.907-6.876-.043-2.872-2.375-5.129-6.106-5.891a4.806,4.806,0,0,0-1.821-.258c-4.637,1-8.325-.84-12.4-2.562a74.229,74.229,0,0,0-32.071-5.627c-2.124.086-5.207-.113-5.59,2.451-.355,2.4,2.55,3.194,4.5,4.115a21.633,21.633,0,0,0,4.429,1.156c.625.145,1.3.27,1.249.992-.059.857-.9.627-1.435.629-2.38.023-4.767-.145-7.136,0-2.037.127-4.859.269-5.224,2.286-.4,2.234,2.532,2.426,4.277,2.781m6.134-9.345c-1.218-.889-2.714-1.272-4.153-2.417a11.172,11.172,0,0,1,6.208-.7c1.245.14,1.8.452,1.5,1.788-.655,2.976-.961,3.218-3.558,1.328m18.287,10.719a135.168,135.168,0,0,1-22.78-3.6c8-1.659,15.592-1.152,22.78,3.6" fill="#121314"/>
            <path id="Pfad_1370" data-name="Pfad 1370" d="M843.907,659.11c1.517-2.945,1.372-6.07,1.367-9.18a105.676,105.676,0,0,0-1.575-18.217c-.125-.706.007-1.867-1.041-1.815-1.267.056-.936,1.27-.85,2.05a142.808,142.808,0,0,1,1.075,25.4,1.663,1.663,0,0,0,1.024,1.765" fill="#121314"/>
            <path id="Pfad_1371" data-name="Pfad 1371" d="M520.61,760.623c-.324-7.209-14.556-24.444-21.4-25.666a90.683,90.683,0,0,1,21.4,25.666" fill="#121314"/>
            <path id="Pfad_1372" data-name="Pfad 1372" d="M858.184,638.848c-4.318,6.348-7.965,13-9.783,20.439,2.36-1.656,10.229-17.988,9.783-20.439" fill="#121314"/>
            <path id="Pfad_1373" data-name="Pfad 1373" d="M835.654,655.988a7.688,7.688,0,0,0,.957,1.682c1.423-2.725.737-4.991.512-7.209a38.179,38.179,0,0,0-2.813-11.11c-.281-.665-.662-1.344-1.528-1.107-.684.188-.67.915-.482,1.467,1.831,5.321,2.4,10.827,3.354,16.277" fill="#121314"/>
            <path id="Pfad_1374" data-name="Pfad 1374" d="M510.46,759.559c-2.951-10.461-16.447-17.031-28.057-13.414,13.324-2.461,21.289,4.429,28.057,13.414" fill="#121314"/>
            <path id="Pfad_1375" data-name="Pfad 1375" d="M514.492,739.556c-1.489-5.678-2.031-11.094-.675-16.574.136-.547.222-1.233-.558-1.462a1.14,1.14,0,0,0-1.466.9c-1.465,5.681-2.179,11.317,1.482,16.588.127.183.512.24,1.217.552" fill="#121314"/>
            <path id="Pfad_1376" data-name="Pfad 1376" d="M976.45,789.27c-3.371,2.539-10.005,15.911-9.309,18.548,4.345-5.921,6.217-12.5,9.309-18.548" fill="#121314"/>
            <path id="Pfad_1377" data-name="Pfad 1377" d="M981.559,796.1c-4.4,1.356-9.719,7.465-9.642,11.6,3.171-4.527,6.8-7.775,9.642-11.6" fill="#121314"/>
            <path id="Pfad_1378" data-name="Pfad 1378" d="M947.708,1022.27a15.082,15.082,0,0,0-2.351.414c-1.169.387-1.081,1.2-.233,1.829a7.033,7.033,0,0,0,2.01.776c1.4.466,2.811.8,4.06-.353.483-.439.818-1.05.349-1.675-1-1.321-2.482-.7-3.835-.991" fill="#121314"/>
            <path id="Pfad_1379" data-name="Pfad 1379" d="M830.18,659.132c.079.157.292.256.449.385.832-.072.961-.588.843-1.213a12.969,12.969,0,0,0-2.317-5.009,1,1,0,0,0-1.317-.43.711.711,0,0,0-.249,1.017c.839,1.758,1.711,3.508,2.591,5.25" fill="#121314"/>
            <path id="Pfad_1380" data-name="Pfad 1380" d="M963.247,802c4.456-3.791,3.837-7.63,2.112-11.477.417,3.838-1.194,7.643-2.112,11.477" fill="#121314"/>
            <path id="Pfad_1381" data-name="Pfad 1381" d="M976.365,804.772c2.788-.342,4.536-2.1,6.247-3.913a8.77,8.77,0,0,0-6.247,3.913" fill="#121314"/>
            <path id="Pfad_1382" data-name="Pfad 1382" d="M964.658,941.755a3.5,3.5,0,0,0,2.7,2.259c.943-.106,1.246-.643,1.113-1.3a2.6,2.6,0,0,0-2.723-2.139c-.7-.021-1.328.48-1.09,1.181" fill="#121314"/>
            <path id="Pfad_1383" data-name="Pfad 1383" d="M969.036,718.2c.376,1.67,1.7,1.65,2.636,1.937.936-.016,1.759-.317,1.646-1.417-.222-2.193-1.793-1.808-2.931-2.007a1.135,1.135,0,0,0-1.351,1.487" fill="#121314"/>
            <path id="Pfad_1384" data-name="Pfad 1384" d="M963.032,714.109a1.362,1.362,0,0,0-1.486,1.65c.2,2.191,1.505,1.573,2.2,1.842,1.083-.111,2.144-.3,1.87-1.865-.315-1.81-1.607-1.6-2.589-1.627" fill="#121314"/>
            <path id="Pfad_1385" data-name="Pfad 1385" d="M951.056,768.392a1.266,1.266,0,0,0-1.482,1.363,3.125,3.125,0,0,0,2.647,2.069c1.032.1,1.34-.691,1.17-1.5a2.418,2.418,0,0,0-2.335-1.931" fill="#121314"/>
            <path id="Pfad_1386" data-name="Pfad 1386" d="M961.452,946.393c.789.064,1.183-.416,1.061-1.043a2.769,2.769,0,0,0-2.29-2.345,1.22,1.22,0,0,0-1.584,1.037,3.1,3.1,0,0,0,2.813,2.351" fill="#121314"/>
            <path id="Pfad_1387" data-name="Pfad 1387" d="M960.563,938.587c1.4-.217,1.383-1.023,1.183-1.69-.247-.829-.482-1.723-2.346-1.757-1.663.4-1.45,1.22-1.355,1.956.115.907.573,1.792,2.518,1.491" fill="#121314"/>
            <path id="Pfad_1388" data-name="Pfad 1388" d="M725.074,876.631a31.172,31.172,0,0,1,6.487,18.726c.4,14.012.734,28.031,1.1,42.045.015.57.031,1.145.1,1.713.677,5.468,1.824,6.231,7.826,5.591,4.019-.428,8.058-.677,12.088-1,6.213-.505,7.63-2.358,6.009-7.82-1.958-6.592-3.88-13.2-5.85-19.783q-3.937-13.158-7.92-26.3c-.306.05-.612.1-.918.154.708,4.278,1.408,8.56,2.127,12.839,1.89,11.211,5.177,22.111,8.273,33.056,1.09,3.852,1.011,3.9-3.364,4.185-3.622.233-7.274.282-10.853.792-2.423.344-3.069-.358-3.223-2.42-.639-8.562-.648-17.149-.834-25.729-.188-8.761.156-17.576-1.743-26.206-1.48-6.74-5.98-12-10.554-17.167-.584-.661-1.269-1.277-2.361-.523a1.468,1.468,0,0,0-.4,2.437c1.356,1.791,2.632,3.633,4.008,5.41" fill="#121314"/>
            <path id="Pfad_1389" data-name="Pfad 1389" d="M701.288,870.137c3.921-.369,7.865-.738,11.719-1.478,4.438-.853,5.9-2.476,5.6-5.316-.322-2.977-3.762-5.826-7.3-5.9-1.65-.036-3.312.174-4.966.271-15.344,1.85-28.973,7.155-40.057,17.441-1.074,1-2.557,2.085-1.46,3.669a4.2,4.2,0,0,0,4.869,1.673,23.346,23.346,0,0,0,5-2.289c8.113-4.881,17.093-7.179,26.6-8.068" fill="#121314"/>
            <path id="Pfad_1390" data-name="Pfad 1390" d="M795.106,857.917c-9.185-3.391-18.671-5.541-28.719-4.6-4.449.414-7.992,3.665-7.833,6.238.3,3.3,1.983,4.689,4.735,5.2,4.7.874,9.484.686,14.228.756,8.253.12,16.236,1.191,23.779,4.359a17.241,17.241,0,0,0,5.318,1.444c1.487.118,3.03.03,3.84-1.344.856-1.453-.141-2.562-1.2-3.515a43.759,43.759,0,0,0-14.146-8.537" fill="#121314"/>
            <path id="Pfad_1391" data-name="Pfad 1391" d="M720.139,910.844c-1.816.36-2.623-.858-3.119-2.3-1.378-3.99-4.674-7.2-9.035-7.025a12.035,12.035,0,0,0-10.4,6.892c-.7,1.466-1.861,3.476-3.326,3.519-4.864.152-9.1-.806-14.275-1.127-1.65.093-4.264-.238-4.212,1.806.039,1.516,2.618,1.322,4.21,1.448,8.384.675,16.9,1.768,25.277,1.49a113.351,113.351,0,0,0,15.908-2.4c1.115-.083,3.194-.64,3.187-1.353-.014-1.494-3.919-1.005-4.216-.946" fill="#121314"/>
            <path id="Pfad_1392" data-name="Pfad 1392" d="M803.694,905.511a49.376,49.376,0,0,0-5.451.2c-1.718.1-2.614-.652-3.194-2.261-1.793-4.954-6.1-7.31-11.233-6.337-4.4.83-6.685,3.755-7.786,7.439-.549,1.84-1.188,3.019-3.142,3.056-3.262.058-10.275-.347-10.3.866-.349.944,2.049,1.028,2.976,1.091a156.409,156.409,0,0,0,18.451.528,100.575,100.575,0,0,0,19.654-2.146c.914-.077,2.113-.133,2.126-1.227s-1.183-1.163-2.1-1.2" fill="#121314"/>
            <path id="Pfad_1393" data-name="Pfad 1393" d="M638.911,893.733a16.943,16.943,0,0,0-5.51-2.519c-6.4-1.681-10.708,1.256-10.753,7.415-.05,6.142,1.346,12.117,2.581,18.1.64,3.08,1.44,6.133,2.145,9.2a2.977,2.977,0,0,0,1.26,2.184c-.039-6.21-1.09-11.995-1.906-17.8a90.974,90.974,0,0,1-.957-11.393c-.063-4.52,2.5-6.3,7.219-5.016,6.834,1.868,11.03,6.358,13.9,12.132,2.418,4.866,3.6,10.083,5.1,15.209.129.432.034.973.975,1.3-1.449-11.106-3.838-21.576-14.058-28.812" fill="#121314"/>
            <path id="Pfad_1394" data-name="Pfad 1394" d="M765.846,960.224c-2.117-1.5-3.071,1.03-4.182,2.2a27.278,27.278,0,0,1-8.627,6.659,34.361,34.361,0,0,1-4.78,1.156,34.011,34.011,0,0,1-4.887-.584,27.277,27.277,0,0,1-9.357-5.59c-1.24-1.03-2.489-3.431-4.411-1.689-1.875,1.7.288,3.307,1.548,4.575a25.8,25.8,0,0,0,9.407,5.977,3.223,3.223,0,0,0,1.738.756c.955.158,1.909.287,2.779.4.376.056.753.1,1.127.14.51.061.97.113,1.335.163.319-.013.641-.045.963-.075.32-.009.644-.015.963-.04.359-.091.805-.2,1.3-.319.369-.08.736-.17,1.1-.272.852-.21,1.783-.453,2.711-.722a3.226,3.226,0,0,0,1.638-.957,25.782,25.782,0,0,0,8.632-7.046c1.1-1.408,3.055-3.261.995-4.726" fill="#121314"/>
            <path id="Pfad_1395" data-name="Pfad 1395" d="M837.928,898.932c-.791.579-.734.871-.249,1.564.439.629.555,1.1,1.469.4,2.518-1.93,5.614-2.082,8.651-1.966.449.018,1.981.556,1.986,1.74a1.726,1.726,0,0,0,.578,1.254c4.318,4.52,4.162,10.051,3.881,15.569-.152,2.931-1.157,5.808-.934,9.413,5.748-9.759,6.441-19.887-.44-26.892-4.579-4.663-9.629-4.982-14.942-1.082" fill="#121314"/>
            <path id="Pfad_1396" data-name="Pfad 1396" d="M644.391,912.248c-.928-1.424-2.149-2.755-4.1-2.66a4.429,4.429,0,0,0-3.636,2.848c-3.185,6.425-1.591,12.522,1.36,18.509.61-2.918-.15-5.772-.306-8.648a16.973,16.973,0,0,1,1.215-8.139c.36-.8.764-1.781,1.772-1.842,1.231-.077,1.687,1.036,2.036,1.885a24.324,24.324,0,0,1,1.673,7.8c.2,3.134.376,6.269.591,9.879,1.938-1.449,1.331-3.006,1.455-4.255.436-4.382.506-8.775-.992-13.027a11.015,11.015,0,0,0-1.072-2.354" fill="#121314"/>
            <path id="Pfad_1397" data-name="Pfad 1397" d="M798.5,885.843c-8.206-6.036-17.535-7.276-25.715-3.209-8.7,4.321-13.2,11.844-12.284,20.754,1.145-.783.934-1.874,1.107-2.788,1.586-8.438,6.278-14.777,15.1-17.984,11-4,24.2,2.548,28.206,13.813a34.554,34.554,0,0,1,1.886,9.444c2.137-6.31-2.539-15.795-8.3-20.03" fill="#121314"/>
            <path id="Pfad_1398" data-name="Pfad 1398" d="M701.236,882.41c-10.891-1.381-22.43,10.121-22.12,23.6,4.069-14.209,11.08-22.074,21.406-21.628,10.611.459,17.612,8.768,20.219,24.522,1.152-12.165-8.9-25.145-19.505-26.489" fill="#121314"/>
            <path id="Pfad_1399" data-name="Pfad 1399" d="M830.446,912.163c.243.783,1.394,2.727-1.237,2.931a4.806,4.806,0,0,0-.168,1.63c.091,2.654.156,5.312.369,7.96.1,1.233-.219,3.159,1.775,3.071,2.052-.091,1.451-1.933,1.412-3.182-.14-4.3-.356-8.6-.462-12.908-.011-.457.5-.932.868-1.561-2.047-.111-3.221-.077-2.557,2.059" fill="#121314"/>
            <path id="Pfad_1400" data-name="Pfad 1400" d="M836.068,919.747c-.283,2.938-.446,5.887-.616,8.836-.043.729-.227,1.7.916,1.824,1.283.141,1.509-.8,1.518-1.711.023-2.095-.027-4.193-.018-6.292a22.309,22.309,0,0,1,.757-6.443,4.406,4.406,0,0,0-2.557,3.786" fill="#121314"/>
            <path id="Pfad_1401" data-name="Pfad 1401" d="M844.347,920.1c-.471-.428-.866-1.046-2-.736-.959.258-.606.725-.515,1.2.535,2.808,1.009,5.628,1.5,8.444.088.489.267.966,1.208.932,1.144-.043,1.437-.608,1.425-1.21-.015-1.143-.12-2.282-.188-3.422-.172-1.777.268-3.665-1.428-5.206" fill="#121314"/>
            <path id="Pfad_1402" data-name="Pfad 1402" d="M841.228,763.361c.288-.937-2.042-4.058-3.47-4.115-4.4-.17-8.859-1.392-13.177.525-.131.059-.2.242-.294.367a10,10,0,0,0,9.746.226c-1.035,2.75-4.673,2.3-5.485,4.83,2.181.459,4.187.654,5.785-1.385.748.335,1.119,1.308,2.169,1.537,1.682.362,4.325-.7,4.726-1.985" fill="#121314"/>
            <path id="Pfad_1403" data-name="Pfad 1403" d="M837.474,756.65c.506-1.326-.977-1.258-1.673-1.469-2.282-.706-4.63-1.24-6.958-1.826a5.411,5.411,0,0,0-3.035.106,22.94,22.94,0,0,0,8.985,4.771,2.167,2.167,0,0,0,2.681-1.582" fill="#121314"/>
            <path id="Pfad_1404" data-name="Pfad 1404" d="M828,747.231a15.877,15.877,0,0,0,7.5,7.283,1.753,1.753,0,0,0,1.688-.1c.572-.415.059-.836-.176-1.189-2.1-3.143-5.628-4.454-9.01-6" fill="#121314"/>
            <path id="Pfad_1405" data-name="Pfad 1405" d="M842.892,737.122c-2.4,3.454-2.11,8.485.3,9.947.467.281.836.759,1.528.571.77-.213.528-.792.512-1.218-.1-3.128-.431-6.217-2.344-9.3" fill="#121314"/>
            <path id="Pfad_1406" data-name="Pfad 1406" d="M846.712,749.749c.709.043.986-.418,1.249-.828,1.87-2.9,1.8-5.916.852-9.024-2.364,2.843-2.5,6.075-2.813,9.273-.034.355.3.554.712.579" fill="#121314"/>
            <path id="Pfad_1407" data-name="Pfad 1407" d="M837.037,745.666c.066.547.39,1.349,1.67,1.147.936-.145,1.884-.754,1.83-1.362a8.379,8.379,0,0,0-3.527-6.29c-.982,2.512-.213,4.506.027,6.505" fill="#121314"/>
            <path id="Pfad_1408" data-name="Pfad 1408" d="M831.4,769.575c.159.641.771.7,1.34.525a9.4,9.4,0,0,0,3.987-2.374c1.033-1.048.229-1.521-.755-1.781-1.074-.281-4.649,2.546-4.572,3.63" fill="#121314"/>
            <path id="Pfad_1409" data-name="Pfad 1409" d="M593.873,902.629c-.154-.054-.321-.169-.464-.149-4.731.659-7.7,4-11.243,6.43-1.154.792-1.222,4.6-.419,5.224,1.1.862,3.93.36,5.1-.817.739-.738.465-1.739.882-2.406,2.548.858,4.1-.349,5.628-1.867-2.183-1.673-4.937.595-7.439-1.146a9.417,9.417,0,0,0,7.951-5.269" fill="#121314"/>
            <path id="Pfad_1410" data-name="Pfad 1410" d="M581.354,904.519c-.446.538-1.722,1.254-.508,2.091.973.672,2.224.966,3.169-.086a20.44,20.44,0,0,0,4.6-8.639,5.093,5.093,0,0,0-2.58,1.492c-1.58,1.7-3.209,3.365-4.683,5.142" fill="#121314"/>
            <path id="Pfad_1411" data-name="Pfad 1411" d="M579.184,903.532c.016.414-.159,1.032.562,1.075a1.668,1.668,0,0,0,1.46-.8c1.981-3.081,2.28-6.444,1.863-9.952-1.882,3.044-4.028,5.971-3.885,9.673" fill="#121314"/>
            <path id="Pfad_1412" data-name="Pfad 1412" d="M569.345,902.968c.574-.141.54-.7.685-1.139.752-2.265-2.011-6.59-5.649-8.435a21.677,21.677,0,0,0,3.906,8.779c.24.36.419.951,1.058.8" fill="#121314"/>
            <path id="Pfad_1413" data-name="Pfad 1413" d="M567.34,905.765c.435.22.909.475,1.4.109a.542.542,0,0,0,.177-.815c-2.124-2.517-4.134-5.147-7.539-6.41a12.268,12.268,0,0,0,5.962,7.116" fill="#121314"/>
            <path id="Pfad_1414" data-name="Pfad 1414" d="M573.429,899.373c.836-.312.551-1.1.27-1.589-1.027-1.765-1.757-3.723-3.772-5.464a10.1,10.1,0,0,0,1.684,6.6,1.6,1.6,0,0,0,1.818.457" fill="#121314"/>
            <path id="Pfad_1415" data-name="Pfad 1415" d="M587.657,913.654c-.646.984-1.011,2.089.48,2.575a7.294,7.294,0,0,0,4.731-.045,1.137,1.137,0,0,0,.775-1.539c-.6-1.3-5.281-2.066-5.986-.991" fill="#121314"/>
            <path id="Pfad_1416" data-name="Pfad 1416" d="M711.48,740.982c-4.355-.51-8.4-3.436-13.263-1.026a44.172,44.172,0,0,0,8.283,4.466c2.645,1.254,5.456,2.861,6.795-1.408.154-.491,1.02-.769,1.5-1.193,2.407-2.118,4.506-4.4,4.98-7.6.09-.616.013-1.071-.68-1.166-.381-.052-1.023-.018-.88.609.884,3.888-3.169,5.027-4.735,7.935-1.274-2.148.313-3.517.46-5.14-1.759,1.172-1.935,3-2.463,4.527" fill="#121314"/>
            <path id="Pfad_1417" data-name="Pfad 1417" d="M844.608,750.136c-2.272-3.295-3.262-3.514-6.655-1.464-1.12-2.965-3.319-5.223-5.694-7.435.383,2.823,1.09,5.6,3.071,7.682a9.213,9.213,0,0,1,2.5,3.687c.832,2.865,3.246,2.56,5.608,2.36,2.421-1.4,2.711-2.593,1.17-4.83" fill="#121314"/>
            <path id="Pfad_1418" data-name="Pfad 1418" d="M991.757,891.936a65.343,65.343,0,0,0-14.528-.926c-1.067.055-2.212.543-3.438-.312,2.423-1.747,4.8-3.375,7.065-5.117a30.032,30.032,0,0,0,7.172-7.17c.963-1.478,2.137-3.241.544-4.717-1.471-1.365-3.312-.328-4.876.43-5.084,2.458-9.513,5.83-14.212,8.847-.866-.785.046-1.247.3-1.736A65.675,65.675,0,0,0,975.74,862.9c.263-1.4.413-3.078-1.278-3.8-1.913-.821-3.173.611-4.119,1.813-4.95,6.288-7.908,13.408-10.209,20.793a14.423,14.423,0,0,1-2.031,4.986c-1.194-6.991-2.278-13.435-4.338-19.682a18.923,18.923,0,0,0-2.663-5.732c-.782-1.03-1.63-2.087-3.192-1.908-1.641.19-2.09,1.539-2.414,2.713a39.12,39.12,0,0,0-1.008,13.016c.394,6.351,2.239,12.405,3.855,18.51a1.979,1.979,0,0,1-.875,2.412c-9.547,7.7-14.051,14.877-24.412,21.639-2.461,1.607-3.354,1.324-4.1-1.3-.537-1.885-1.288-3.465-3.826-3.338A1.738,1.738,0,0,1,913.3,911.8c-.27-.575-.437-1.4-1.383-1.317a1.583,1.583,0,0,0-1.36,1.4c-.664,2.924-1.72,2.315-2.994.353-.319-.489-.689-1.036-1.451-.683a1.07,1.07,0,0,0-.5,1.5c1.233,2.121-.687,2.56-1.922,3.669-4.338,3.893-10.173,5.016-15.284,7.462a38.221,38.221,0,0,0-12.02,8.524c-.929,1.025-1.4,1.478-2.3-.116-2.77-4.891-3.133-10.132-4.862-15.41l-2.672-11.883c1.765-1.063,3.585-2.177,5.458-3.225,5.156-2.885,10.569-5.334,15.9-7.926.968-.468,1.353-.33,1.845.512a20.207,20.207,0,0,0,7.557,6.966,9.818,9.818,0,0,0,4.545,1.455c1.888.091,2.763-.821,2.538-2.539-.31-2.352-1.883-3.958-3.7-5.391a28.366,28.366,0,0,0-6.729-3.911c2.436-1.05,4.59-1.971,6.734-2.908a.97.97,0,0,1,1.3.19c2.956,3.132,6.975,4.723,11.041,6.16a11.4,11.4,0,0,0,6.789.618c2.187-.575,2.883-2.607,1.394-4.148a7.789,7.789,0,0,0-3.3-1.874c-3.4-1.112-6.775-2.259-10.508-3.506,2-.758,3.869-.2,5.449-.928,5.771-2.662,11.034-5.783,12.947-12,.565-1.831.2-4.035-1.056-4.975-1.743-1.308-3.294-.246-4.624.591a45.446,45.446,0,0,0-12.623,12,2.863,2.863,0,0,0-.63,1.614c.075,2.091-1.766,2.005-3.094,2.684.238-1.741.5-3.275.65-4.821a22.4,22.4,0,0,0-1.047-10.2,3.476,3.476,0,0,0-3.493-2.385c-1.858.031-2.511,1.242-2.795,2.716a22.555,22.555,0,0,0,2.09,15.424c.338.627.535.926-.319,1.274-2.564,1.048-5.1,2.159-7.78,3.3a24.711,24.711,0,0,0-.564-8.228c-.893-3.286-1.825-6.57-4.547-9.093a1.811,1.811,0,0,0-2.477-.27c-2.068,1.279-2.07,3.262-1.737,5.09a37.728,37.728,0,0,0,4.656,12.944c.748,1.234.429,1.578-.73,2.137-6,2.9-11.97,5.864-17.943,8.815-.618.3-1.237.607-1.851.915l-1.825-8.1c-1.925-6.923-4.941-14.926-6.075-21.983a1.682,1.682,0,0,1,1.016-2.071c9.508-5.348,18.5-11.407,27.642-17.262a2.73,2.73,0,0,1,3.545-.027,22.921,22.921,0,0,0,8.917,3.8c1.564.289,3.012.09,3.8-1.252.859-1.471-.592-2.284-1.535-3.049-2.187-1.785-5.025-2.512-8.173-3.659,4.769-2.906,9.166-5.543,13.5-8.268,1-.627,1.516.027,2.208.33a22.109,22.109,0,0,0,8.976,1.951c1.768,0,3.509-.5,3.878-2.258.4-1.89-1.4-2.7-2.926-3.171a35.582,35.582,0,0,0-5.381-.815c.906-1.77,2.708-2.669,3.905-4.024.957-1.087,1.884.115,2.67.525a47.342,47.342,0,0,0,22.309,5.081,25.55,25.55,0,0,0,7.319-1.247,3.118,3.118,0,0,0,2.117-2.286c.4-1.252-.741-1.566-1.557-2.107-4.06-2.718-9.044-2.641-14.307-3.85,3.125-1.028,5.707-1.847,8.264-2.725a25.093,25.093,0,0,0,8.087-4.047c2.088-1.733,1.571-3.861-1.131-4.515-2.967-.72-5.975-.192-8.935.167a89.881,89.881,0,0,0-13.246,2.583,80.422,80.422,0,0,0,10.021-10.855c1.389-1.86,4.143-4.148,1.758-6.246-2.087-1.843-4.624.4-6.6,1.663-2.453,1.564-4.706,3.395-7.181,5.208.258-2.091.544-4.058.725-6.032a7.491,7.491,0,0,0-.836-3.895c-1.347-2.822-3.774-3.243-6.073-.919a20.54,20.54,0,0,0-5.539,11.376c-.975,5.927-1.993,11.911.09,17.816.37,1.046-.217,1.611-1.011,2.15-3.669,2.485-7.339,4.975-11.251,7.627.313-2.2.671-4.06.811-5.932.093-1.247-.07-2.716-1.709-2.98-1.682-.277-2.248,1.2-2.7,2.306-.979,2.4-1.911,4.83-1.677,7.46a2.928,2.928,0,0,1-1.412,2.974c-12.932,8.335-26.153,16.293-38.855,25.237-1.118-6.952-2.163-13.7-3.3-20.432-.46-2.719-.737-5.557-1.813-8.076-1.646-3.861.412-6.122,3.291-8.281.879-.661,2.151-1.087,2.665-1.917,2.228-3.608,5.123-3.719,8.673-1.926a7.6,7.6,0,0,0,2.706.471c1.791.14,3.346-.383,4.15-1.945.9-1.733-.94-2.277-1.877-3.157-1.332-1.261-3.189-1.684-5.018-2.408,1.988-3.3,5.039-5.778,7.4-8.732.941-1.183,1.868-.647,2.992-.353,3.688.967,7.392,1.736,11.154.007,1.612-.742,2.979-1.722,2.915-3.379-.056-1.487-1.657-2.021-3-2.562-2.52-1.016-5.2-.973-8.1-.908,4.64-6.106,9.18-12.025,13.643-17.995,1.036-1.383,2.33-.969,3.613-.77a28.418,28.418,0,0,0,11.111-.269,9.7,9.7,0,0,0,3.106-1.265c1.16-.756,2.121-1.7,1.736-3.092-.376-1.365-1.68-1.819-3.062-2.062-3.822-.67-7.6.1-11.6.568.244-1.636,1.466-2.512,2.178-3.6a243.823,243.823,0,0,0,15.617-27.148c.528-1.086.61-2.358,2.731-1.482,12.487,5.146,25.632,5.465,39,3.772a62.936,62.936,0,0,0,14.854-3.591,19.184,19.184,0,0,0,3.4-1.687c1.313-.835,2.534-1.905,2.074-3.578-.446-1.632-1.935-2.412-3.656-2.709a90.513,90.513,0,0,0-16.347-1.347c-9.957.107-19.856.765-29.795,3.572.682-2.021,2.08-3.214,3.128-4.583,7.208-9.427,12.727-19.523,14.951-30.951a7.486,7.486,0,0,0,.242-1.122c.079-1.92-.5-3.823-2.389-4.572-1.593-.634-3.291.29-4.715,1.378-6.244,4.76-10.227,11.009-13.792,17.527-3,5.486-5.531,11.135-6.535,17.495-1.786-1.1-1.958-2.707-2.487-4.051-4.1-10.456-9.556-20.139-17.922-28.3-1.335-1.3-2.852-2.27-4.429-1.851-1.925.507-2.061,2.453-1.884,4.139a51.01,51.01,0,0,0,19.031,35.366c2.659,2.182,2.931,3.542,1.038,6.385-5.653,8.492-10.444,17.459-16.433,25.781-.6.838-.893,1.922-2.2,2.5a21.215,21.215,0,0,0-1.791-10.378c-.367-.869-.8-1.93-2.069-1.84-1.34.1-1.839,1.1-2.079,2.2-1.065,4.921.034,9.669,1.222,14.4.251,1.005.73,1.874-.127,2.949-5.4,6.8-10.726,13.654-16.08,20.485a16.54,16.54,0,0,1-1.235,1.188c.61-3.972,1.367-7.521.966-11.081-.223-1.978.219-5.009-2.433-5.2-2.187-.161-2.667,2.711-3.1,4.592-1.145,4.99-1.913,10.029-.9,15.1.406,2.026-.188,3.395-1.706,5-5.211,5.506-11.1,10.485-15.575,17.284a72.408,72.408,0,0,0-4.959-11.649c-2.269-4.234-4.669-8.082-12.129-16.347a62.944,62.944,0,0,0-8.776-7.773c9.495-6.355,16.125-14.906,21.624-24.332.321-.552.453-1.7,1.316-1.388,1.2.435.266,1.363-.092,1.924-1.535,2.422-2,5.047-2.235,8.1,3.062-2.073,3.821-5.278,5.947-7.661-1.337,3.542-2.908,6.955-1.2,10.906,2.591-3.012,2.4-6.568,3.053-10.218.716,1.7.807,1.727.617,2.338-.83,2.659.29,5.044,1.074,7.482.138.439.2.985.9.867.478-.082.517-.53.673-.894a7.154,7.154,0,0,0-.143-5.993,6.96,6.96,0,0,1-.879-3.7c2.366,1.924,2.285,4.277,2.33,6.493.054,2.616,1.56,4.542,3.085,7.206.8-2.329-.138-3.965.1-5.907,1.644,2.058,2.271,4.531,4.667,6.2.58-2.574-1.106-4.3-1.643-6.29-.56-2.087-3.745-2.759-3.269-5.683a19,19,0,0,0,5.395,4.115c.172.086.623-.016.476.538-.766,2.852.991,5.742,4.368,7.18-.154-2.368-1.818-3.979-2.983-5.8-.492-.765-1.213-1.607.621-1.573a4.984,4.984,0,0,0,5.3-3.873c.646-2.263-.712-3.994-2.534-5.407-.447-.344-.909-.674-1.657-1.231,1.516-.029,2.708-.018,3.9-.077,3.337-.17,6.424-3.135,6.458-6.172.02-2.019-1.968-3.6-4.683-3.614a14.294,14.294,0,0,0-9.976,3.972c-.263-1.25.755-1.564,1.44-2.006a45.877,45.877,0,0,0,6.686-5.024,8.338,8.338,0,0,0,2.383-4.785,2.477,2.477,0,0,0-2.247-3c-2.158-.276-4.5-.543-6.593.761a48.885,48.885,0,0,0-5.9,4.438,7.9,7.9,0,0,1-4.272,1.969c1.418-1.331,2.9-2.612,4.238-4a10.448,10.448,0,0,0,2.956-5.273c-2.262.563-3.246,2.252-5.1,3.316.653-2.268,1.791-4.111,2.161-6.865-3.842,3-6.123,6.457-8.72,9.716,1.795-3.243,3.42-6.445,3.76-10.157-1.711.122-2.137,1.274-2.706,2.161-1.034,1.6-1.907,3.293-2.845,4.95-.31.554-.476,1.471-.929,1.616-3.638,1.163-2.049,3.112-1.134,5.063a2.122,2.122,0,0,1-.705,2.519c.123-2.318-1.67-2.544-3.5-2.721l.012-.009c.029-.015.049-.031.077-.047a7.744,7.744,0,0,1-1.3.645c-1.628.457-3,1.242-2.208,2.96.748,1.621,2.439,2.021,4.264,1.512a9.16,9.16,0,0,0,1.736-.907c-.574,1.351-.821,2.978-1.818,3.963-.759.751-2,1.147-2.86,2.091-1.209,1.335-1.755,2.607-1.025,4.4a4.7,4.7,0,0,0,2.1-2.68c.2-.45-.143-1.168.745-1.227a.865.865,0,0,1,.6.358c.358.507-.093.876-.377,1.238-3.812,4.875-6.922,10.173-10.88,14.962a146.044,146.044,0,0,1-10.66,11.072,144.754,144.754,0,0,0-13.133-8.267,152.629,152.629,0,0,0-19.52-8.986c-1.422-.547-1.34-1.192-.884-2.152,1.251-2.623,2.59-5.215,3.767-7.867.6-1.351,1.607-1.2,2.792-1.057a11.022,11.022,0,0,0,9.606-3.051c.9-.905,1.8-1.937.989-3.316a3.381,3.381,0,0,0-3.79-1.824c-1.82.319-3.638.645-6.041,1.073,4.459-9.542,13.43-27.922,17.716-37.091,15.162,8.184,35.308-1.969,38.613-16.757.388-1.729.3-3.232-1.3-4.384-1.678-1.2-3.312-.618-4.921.2-5.123,2.591-9.479,6.221-14.738,9.431.2-1.524,1.129-2.282,1.75-3.133,4.152-5.7,7.357-11.764,8.77-18.531a12.6,12.6,0,0,0,.233-2.553,2.3,2.3,0,0,0-1.569-2.25,2.192,2.192,0,0,0-2.7.864,58.6,58.6,0,0,0-3.6,4.692c-4.574,6.632-8.184,13.743-12.271,21.221-.533-1.729.3-2.764.625-3.809,2.46-7.945,3.872-15.918,1.222-24.059a8.951,8.951,0,0,0-.521-1.261,3.021,3.021,0,0,0-2.591-2.077,3.108,3.108,0,0,0-3.08,2.027c-2.68,5.19-3.527,10.751-3.951,16.384-.313,4.169-.56,8.341-1.265,12.593-.8-3.076-1.523-6.176-2.43-9.225-1.281-4.3-2.346-8.682-4.728-12.62-.687-1.141-1.333-2.576-3.092-2.44-1.84.141-2.446,1.621-2.953,2.99-1.845,4.959-.81,9.854.618,14.632a35.013,35.013,0,0,0,9.3,15.529c.92.884.809,1.5.29,2.485-2.541,4.8-9.7,18.891-12.31,23.963-1.965-2.489-3.8-4.979-6.585-6.595-.909-.525-1.845-1.426-3.08-.627s-1.136,2.01-.848,3.133c.914,3.578,3.407,6.255,6.245,8.62,1.416,1.177,1.525,2.139.777,3.68-2.144,4.423-4.114,8.918-6.4,13.376a25.22,25.22,0,0,0-3.434-9.247c-.646-1.032-1.4-1.99-2.874-1.763-1.63.246-2.072,1.459-2.239,2.754-.653,4.979,1.271,9.341,3.792,13.543.435.725,1.478,1.413.838,2.255-.693.914-1.686.14-2.52-.118-5.277-1.634-5.971-1.489-16.821-2.942a85.966,85.966,0,0,0-12.045-.215c5.136-7.419,8.344-15.694,11.605-23.939.984-2.492-.637-4.382-2.557-5.654-2.21-1.469-3.114.817-4.277,1.924-4.109,3.9-5.945,8.8-6.99,14.012-.653,3.239-1.263,6.482-2.015,10.357-5.238-17.676-7.29-61.57-3.656-78.758.133-.631-.374-12.708.165-13.179,12.63-11,23.943-23.135,35.5-35.051a86.213,86.213,0,0,0,13.307-17.011c.644-1.125,1.358-2.379.182-3.486-1.292-1.215-2.616-.158-3.722.408a34.684,34.684,0,0,0-12.734,11.137c-8.332,12.07-20.158,21.6-28.4,33.694-.048.068-.354-.011-.726-.03a17.5,17.5,0,0,1,1.952-5.253c4.49-9.354,10.6-17.988,14.432-27.634a126.015,126.015,0,0,0,6.489-20.743c.2-.98.8-2.4-.342-2.893-1.444-.622-1.7,1.019-2.224,1.809-2.264,3.372-4.61,6.712-6.6,10.223-6.907,12.19-10.658,25.46-15.182,38.464-.381,1.093-.413,2.352-1.913,3.452a152.284,152.284,0,0,1,2.169-20.361c1.861-11.5,3.241-23.044,4.071-34.653.242-3.447.564-6.937-.925-10.257-.365-.81-.764-1.856-2.112-1.783-1.224.065-1.675.837-2.061,1.794a28.961,28.961,0,0,0-2.085,8.816c-1.174,17.133-.293,34.35-1.965,51.474-.431,4.413.183,8.906-.742,13.842a21.9,21.9,0,0,1-2.423-7.931c-2.609-17.764-7.883-34.931-14.307-51.838-.43-1.132-.623-2.777-2.425-2.612-1.913.175-1.444,1.931-1.589,3.04a41.7,41.7,0,0,0,2.448,19.546c2.514,7.093,5.685,13.962,8.693,20.887,1.663,3.841,3.223,7.72,4.83,11.582a3.54,3.54,0,0,1-2.292-1.182,217.775,217.775,0,0,0-14.676-16.633c-6.508-6.9-12.2-14.448-19.918-20.365a12.778,12.778,0,0,0-5.378-2.636c-1.777-.335-3.947-.1-2.933,2.315,1.557,3.7,3.082,7.512,5.961,10.567,10.309,10.936,22.311,20.268,34.034,29.86,2.049,1.674,4.114,3.336,6.174,5-3.91-1.981-8.006-3.377-11.838-5.235-9.142-4.439-18.553-8.277-29.025-9.094-1.863-.145-4.656-1.023-5.374.588-.9,2.019,2.144,2.469,3.554,3.535.444.338.92.632,1.389.935,13.106,8.56,26.2,15.777,43.359,14.859-4.123,15.27-.313,68.984,3.582,83.841.927,3.53,2.087,7.011,3.141,10.517-16.816.876-38.461,3.128-43.468,4.33-3.814.914-3.094-1.811-4.091-3.155-.9-1.218-1.331-2.209.938-3.187,4.461-1.919,8.324-10.522,7.163-15a3.234,3.234,0,0,0-2.133-2.614c-1.435-.43-2.337.462-3.2,1.31-3.2,3.146-5.087,6.971-6.644,10.959-.648,0-.832-.457-1.025-.844-3.5-7.073-6.976-14.164-10.51-21.227-.782-1.564-.553-2.363,1.031-3.694a17.994,17.994,0,0,0,6.506-13.507,3.05,3.05,0,0,0-2.319-3.332c-1.725-.523-2.439.7-3.273,1.634a31.891,31.891,0,0,0-5.717,9.092,139.959,139.959,0,0,1-7.094-15.755c-.359-.932.176-1.315.938-1.82,6.2-4.11,9.1-10.071,10.7-16.635.476-1.944.361-4.094-2.087-5.2-2.337-1.048-3.754.579-5.112,1.783-3.567,3.173-5.963,7.089-8.031,11.828-1.84-5.359-5.247-16.517-6.847-21.4-.41-1.254,1.1-1.143,1.775-1.523a32.126,32.126,0,0,0,16.036-21.18,10.66,10.66,0,0,0-1.287-7.763c-2.09-3.831-4.289-3.994-7.018-.509a44.784,44.784,0,0,0-5.286,8.816,10.577,10.577,0,0,1-.818-5.3,21.161,21.161,0,0,0-1.616-7.491c-.281-.8-.675-1.761-1.725-1.82-1.077-.056-1.494.91-1.906,1.673a23.219,23.219,0,0,0-2.1,7.433c-.349,2.057-.621,4.123-1.172,6.226-.6-3.889-.945-7.784-3.35-11.213-1.267-1.808-2.274-4.725-4.5-4.361-2.018.328-1.521,3.447-1.623,5.341-.281,5.206,1,10.212,2.76,15.115.189.52.356,1.05.635,1.876a8.983,8.983,0,0,1-2.883-3.2,62.436,62.436,0,0,0-12.814-13.054c-1-.774-2.16-2.069-3.52-1.091a2.461,2.461,0,0,0-.97,2.512c.705,3.372,2.627,6.219,4.581,9a107.7,107.7,0,0,0,11.236,14.166c-6.58-2.743-13.355-5.022-19.346-8.775-.757-.475-1.516-.946-2.287-1.4-1.739-1.039-3.7-2.483-5.637-1.012-2.083,1.582-1.188,3.97-.356,5.846,1.455,3.282,4.3,5.606,7.6,7.256a53.171,53.171,0,0,0,29.608,5.419c1.292-.129,3.681,6.359,4.03,7.453,1.478,4.626,2.94,9.261,4.524,14.265-2.82-.462-5.272-1.079-7.8-.88-1.766.138-3.77.145-4.341,2.1-.562,1.916,1.029,3.028,2.55,3.831a17.8,17.8,0,0,0,9.241,1.944c2.165-.1,3.076.648,3.738,2.481,1.26,3.492,2.856,6.878,4.511,10.773a36.017,36.017,0,0,0-9.287-2.734c-2.262-.265-4.587-.428-5.46,2.048-.857,2.424,1.367,3.334,3.135,4.23a38.081,38.081,0,0,0,12.58,3.762,3.91,3.91,0,0,1,3.59,2.526c2.126,4.827,4.481,9.569,6.911,14.686-3.774-.916-7.249-1.917-10.8-2.569-2.266-.416-5.351-1.853-6.544,1.175-1.147,2.918,2.176,3.75,4.148,4.8a30.093,30.093,0,0,0,14.881,3.309c1.344-.027,2.065.238,2.611,1.387,2.625,5.554,5.331,11.075,8.133,16.857-6.954.523-13.194,2.4-19.706,4.595a34.18,34.18,0,0,0,.8-4.409c.1-2.2-.33-4.454-3.125-4.893-2.532-.4-3.237,1.7-3.867,3.415-.619,1.691-.995,3.451-1.58,5.545-3.624-3.289-7.058-6.385-10.465-9.508-.569-.523-.417-1.234-.272-1.9,1.054-4.88-1.127-8.947-3.743-12.883-.453-.686-.983-1.643-2.144-1.258-.995.328-1.212,1.233-1.262,2.123-.127,2.191-.243,4.379-.383,6.948l-9.269-7.951c-.9-.772.05-1.412.263-2.055,1.326-3.952,2.491-7.906,1.154-12.041-.451-1.4-1.011-2.924-2.833-3-2.074-.084-2.272,1.77-2.7,3.048a29.55,29.55,0,0,0-1.256,9.617c-4.775-3.718-9.123-7.095-13.457-10.483-1.149-.9-.235-1.392.467-2.012,7.215-6.372,10.47-14.3,11-23.3a14.515,14.515,0,0,0-.893-5.333c-.945-2.881-3.1-3.207-5.123-.842-2.888,3.37-4.171,7.451-5.8,11.371a26.7,26.7,0,0,1-1.448,3.239,62.317,62.317,0,0,0-2.888-12.274,31.938,31.938,0,0,0-4.914-9.461c-.764-.966-1.6-2.292-3.178-1.785s-1.82,1.971-1.843,3.356c-.095,6.063,1.145,11.953,2.58,17.817a33.239,33.239,0,0,1,.9,4.984c-2.711-4.154-5.279-8.354-8.317-12.279-1.557-2.01-3.08-4.042-4.728-5.986-.725-.853-1.6-2.089-3.024-1.367-1.2.613-1.192,1.971-1.063,3.112a32.986,32.986,0,0,0,4.386,12.686c.456.8,1.338,1.462,1.1,2.838-3.776-2.1-7.28-4.368-11.208-5.923-1.209-.48-2.646-1.519-3.725-.492-1.228,1.171-.009,2.542.733,3.617,2.615,3.78,6.512,6.3,10.5,8.7a22.306,22.306,0,0,1,3.371,2.324,94.856,94.856,0,0,0-19.278,1.464c-3.194.525-4.015,2.121-2.111,4.565a10.748,10.748,0,0,0,7.09,3.723c10.432,1.691,20.836,1.678,31.052-1.358a3.318,3.318,0,0,1,3.572.618c4.016,3.407,8.049,6.792,12.219,10.307-1.858.385-3.842.654-5.725,1.216-3.672,1.1-6.079,3.542-5.556,5.4.517,1.829,4.005,3.038,7.65,2.327,3.21-.625,6.635-.754,9.414-2.684a1.362,1.362,0,0,1,1.9.142c3.514,3.13,7,6.285,10.939,9.828-3.191.482-5.673.638-7.856,1.81-1.235.666-2.31,1.537-2.23,2.89.086,1.4,1.4,2.026,2.688,2.474,4.1,1.421,8.01.136,11.816-1.061a2.994,2.994,0,0,1,3.724.982,80.778,80.778,0,0,0,6.662,6.285c1.466,1.254,1.564,1.969-.168,2.94a110.547,110.547,0,0,0-14.767,10.115,76.675,76.675,0,0,0-16.56,18.314q-6.243-3.717-12.279-7.745c-2.387-1.6-3.087-3.27-2.552-6.2,2.368-12.944-.687-25.082-7.127-36.561a82.946,82.946,0,0,0-6.568-10.434c-.676-.876-1.084-2.071-2.587-2.331,1.329,16.026,9.137,30.486,11.68,46.236-3.193-6.316-6.79-12.493-9.49-18.991a79.9,79.9,0,0,0-18.7-26.892,4.827,4.827,0,0,0-3.225-1.947c5.163,15.719,13.468,29.731,21.218,44.08-2.715-3.393-5.5-6.74-8.124-10.2s-5.254-6.955-7.6-10.59c-6.129-9.49-13.2-18.212-22.85-24.948a36.886,36.886,0,0,0-7.31-4.2,145.557,145.557,0,0,0,35,42.552c-14.581-11.007-30.656-19.741-46.7-28.785-.655,1.766.657,2.445,1.281,3.3,8.355,11.4,19.729,19.6,32.755,26.071,7.183,3.569,14.969,6.145,21.493,10.814,1.031.738,2.42,1.075,3.3,2.691a111.723,111.723,0,0,1-15.356-4.076c-11.075-3.918-22.119-7.926-33.5-11.075a21.009,21.009,0,0,0-9.375-.187c-1.058.19-2.43.344-2.77,1.511-.394,1.361,1.107,1.6,1.959,2.162,12.36,8.1,26.366,12.031,41.344,13.616,6.206.658,12.369,1.643,19.23,2.569-16.229,4.01-31.18,9.96-47.151,12.955,13.339,6.325,26.386,3.637,39.494-1.272-7.067,6.857-13.092,14.351-19.255,21.738-.51.609-1.7,1.148-1.154,2.028.6.976,1.811.512,2.791.372,7.749-1.107,13.733-5.093,18.994-10.147,6.789-6.518,12.637-13.632,15.971-22.667,4.937,3.7,10.085,6.7,15.092,9.848C615,844.559,614.4,875.027,614.4,875.027a120.263,120.263,0,0,0-.768,12.539c-1.759-.639-3.529-1.254-5.295-1.879-13.165-4.66-26.32-9.343-39.528-13.892-2.548-.878-3.3-1.516-2.054-4.269a78.988,78.988,0,0,0,6.474-28.089c.235-3.893-.261-8.017-4.88-10.16-2.063-.96-3.589-.588-5.085,1.17-5.038,5.928-6.16,13-7.205,20.053-.837,5.64-.247,11.275.875,17.262-5.864-1.718-11.415-3.4-17.012-4.954-1.861-.514-1.527-1.18-.979-2.572,4.266-10.832,3.987-21.727.512-32.616-.954-2.99-2.615-5.348-6.489-4.956a7.282,7.282,0,0,0-6.675,5.828c-1.755,7.174-1.211,14.371.353,21.494.7,3.178,1.625,6.308,2.552,9.868-2.933-1.084-6.738-.448-7.1-4.819a6.005,6.005,0,0,0-1.711-3.2c-8.265-8.953-13.725-12.849-25.1-18.246-2.98-1.415-6.467-3.244-9.769-.089-2.376,2.27-2.591,6.949-.966,10.617,5.526,12.462,13.1,14.058,25.772,18.165,3.466,1.128,7.211-.5,11.569.582-7.455,3.522-14.205,6.747-20.994,9.9a16.382,16.382,0,0,0-6.394,4.719c-2.718,3.574-.761,7.632,3.933,8.286,5.057.709,9.71-.862,13.969-2.965,8.106-4,16.08-8.308,21.445-15.56a2.039,2.039,0,0,1,2.657-.715c4.694,1.421,9.4,2.8,14.733,4.384a59.545,59.545,0,0,0-13.036,9.807c-3.415,3.433-6.289,7.168-6.348,12.133-.044,3.635,2.008,5.308,5.911,4.656a20.613,20.613,0,0,0,9.1-4.155c5.95-4.516,11.075-9.685,13.992-16.371.816-1.867,1.585-2.256,3.711-1.518,11.734,4.071,23.6,7.83,35.054,12.556,4.708,1.942,9.309,4.088,13.729,6.061a60.771,60.771,0,0,1-.97,7.72,25.875,25.875,0,0,0-.417,6.08c.163,4.861.056,12.823-.1,17.689l-.078,2.46c-3.842-.789-7.665-1.629-11.408-2.8-6.149-1.91-11.9-4.685-17.974-6.742-.454-.154-1.047-.222-1.054-.831a.758.758,0,0,1,.281-.606c.773-.412.918.36,1.353.629a5.2,5.2,0,0,0,3.343,1.129c-.469-1.867-1.682-2.639-3.484-3.116-1.273-.335-2.545-.018-3.622-.242-1.416-.3-2.6-1.519-3.878-2.341a9.72,9.72,0,0,0,1.983-.153c1.818-.528,2.981-1.741,2.634-3.477-.371-1.84-1.981-1.772-3.606-1.306a7.847,7.847,0,0,1-1.469.143c2.081-1.064,4.264-2.069,3.244-4.88a8.66,8.66,0,0,1-.134-4.361c.394-2.761-.675-5.432-2.045-7.974-.648,3.072-1.122,6.093-.281,9.137-4.037.068-4.728.765-4.644,4.683.061,2.693,1.034,3.526,3.96,3.4l.013,0c-1.414,1.1-2.767,2.227-1.28,4.085a2.325,2.325,0,0,1-2.09-1.722c-.406-2.1-.252-4.54-3.967-3.61-.464.115-1.149-.559-1.74-.856-1.766-.885-3.5-1.833-5.32-2.623-1-.437-2.043-1.17-3.536-.382,2.5,2.9,5.766,4.709,9.193,6.466-4.1-1.347-8.065-3.031-13.042-3.517,1.954,2.093,4,3.03,5.895,4.571-2.169.082-4-.8-6.21-.095a11.711,11.711,0,0,0,5.608,2.836c1.944.453,3.937.745,5.909,1.109a8.181,8.181,0,0,1-4.719.6,52.607,52.607,0,0,0-7.555-.6c-2.509.009-4.3,1.451-5.923,2.807a2.343,2.343,0,0,0-.068,3.662A9.326,9.326,0,0,0,551,923.767a50.106,50.106,0,0,0,8.552.686c.83.006,1.866-.263,2.394.914a14.593,14.593,0,0,0-10.654,1.9c-2.241,1.424-2.946,3.773-1.72,5.437,1.843,2.5,6.179,3.354,9.046,1.756,1.023-.57,2-1.2,3.278-1.971-.288.855-.472,1.369-.635,1.887-.668,2.121-.759,4.267,1.131,5.808a5.3,5.3,0,0,0,6.712.448c1.5-.985,1.407.091,1.457.982.123,2.121-.294,4.323.995,6.367,1.941-2.954,1.673-6.267-.671-8.234-.455-.382-.018-.532.073-.7a16.982,16.982,0,0,0,2.015-6.226c2.142,2.179-.095,4.4.687,6.419.743,1.932.378,4.243,2.4,6.074.993-2.63.036-5.011.168-7.573,1.355,1.492,1.555,3.339,3.608,4.853-.324-3.006-.226-5.389-1.745-7.587-1.29-1.862-2.768-3.773-1.952-6.6a7.059,7.059,0,0,1,1.478,3.526,7.588,7.588,0,0,0,3.468,5.045c.349.222.648.573,1.093.39.653-.265.374-.752.231-1.189-.809-2.428-1.31-4.992-3.586-6.765-.526-.409-.465-.475-.888-2.261,2.726,2.689,4.694,5.738,8.647,6.888-.95-4.169-4.293-6.184-7.523-8.424,3.191.869,5.737,3.13,9.517,3.257a18.616,18.616,0,0,0-6.7-5.559c-.632-.279-1.965-.559-1.226-1.546.53-.708,1.324.172,1.922.462,9.214,4.477,18.766,7.881,29.134,8.731l-.3,9.635a49.707,49.707,0,0,1-.553,6.134c-1.451,9.286-2.092,18.685-3.117,28.035-.369,3.393-.312,3.309-3.8,1.888q-9.2-3.745-18.494-7.279c-1.516-.579-2.081-1.166-1.992-2.89a20.579,20.579,0,0,0-3.67-13.336c-.787-1.1-1.675-2.394-3.373-2.091-1.727.306-1.917,1.845-2.232,3.137-.81,3.318-.381,6.641.058,9.934-1.257.538-1.8-.415-2.529-.779-9.611-4.823-19.047-9.913-28.182-15.474a3.456,3.456,0,0,1-1.518-4.187c4.068-10.8,1.741-20.716-5.456-29.678-.943-1.177-2.081-2.685-4-2.209-2.137.527-2.539,2.417-2.777,4.13-.85,6.066.3,11.977,1.669,17.853a8.115,8.115,0,0,1,.394,3.433c-1.847-2.668-3.459-5.144-5.227-7.521a71.3,71.3,0,0,0-12.85-13.808,20.763,20.763,0,0,0-1.67-1.267c-1.111-.707-2.33-1.515-3.695-.752-1.287.718-.993,2.062-.791,3.148,1.127,6.127,4.327,11.421,7.9,16.545,1.032,1.485,2.256,2.852,3.255,4.427-4.794-2.15-9.159-4.959-14.06-6.842-1.235-.473-2.432-1.048-3.7-1.421-1.116-.326-2.4-1.091-3.4.185a2.786,2.786,0,0,0,.072,3.259c2.031,3.7,5.4,6.161,9.135,8.282,1.122.636,2.443,1.025,3.509,2.381-1.39.084-2.555.124-3.713.228a33.7,33.7,0,0,0-4.327.492c-2.138.473-4.765,1.093-4.874,3.376-.113,2.322,2.453,2.961,4.574,3.547,3.854,1.064,7.771.878,11.708.473a13.324,13.324,0,0,1,4.465.192c-2.031,1.114-4.075,2.2-6.086,3.348a22.861,22.861,0,0,0-6.245,4.719c-1.854,2.161-1.146,3.938,1.71,4.721,2.259.622,4.3-.125,6.344-.817,4.193-1.417,7.856-3.737,11.929-5.783-1.151,2.066-2.346,4.115-3.443,6.2a44.038,44.038,0,0,0-2.62,5.5c-.483,1.356-.542,2.931.834,3.981a4.476,4.476,0,0,0,4.422.417,15.628,15.628,0,0,0,7.288-5.659,37.121,37.121,0,0,0,6.729-18.264c.177-1.612.442-2.592,2.238-1.166a108.451,108.451,0,0,0,13.894,9.189c-1.874.582-3.323,1-4.737,1.48-1.331.455-2.532,1.186-2.446,2.637.082,1.417,1.308,2.125,2.657,2.462a14.73,14.73,0,0,0,9.975-1.025,4.931,4.931,0,0,1,4.878.19c3.573,1.849,7.215,3.576,11.463,5.665-4.273.951-7.643,2.266-10.468,4.525-1.233.986-2.779,1.966-2.182,3.788.652,2,2.593,2.334,4.481,2.381,5.675.143,10.238-2.4,14.117-5.837,1.881-1.668,3.243-1.591,5.439-.593a156.7,156.7,0,0,0,15.559,6.1c2.6.862,3.37,2.01,3.094,4.449-.841,7.431-.945,14.845,1.14,22.163,3.1,10.877,11.181,16.415,22.864,17.472,17,1.535,34.052,2.5,51.17.758,12.548-1.281,16.982-2.512,28.8-8.292.556.088.52.52.549.873,1.09,13.892,2.083,27.793,3.327,41.672.252,2.811-.9,3.888-3.547,4.7-9.565,2.931-19.346,5.124-29.054,7.537-23.483,5.839-39.837,20.754-47.446,41.183-4.4,11.789-6.575,24.058-8.441,36.33-2.822,18.6-7.564,48.724-10.191,67.351l12.483-.74c-2.228-1.32-5.155-1.763-7.009-4.889,5.309,1.629,9.89,3.037,14.468,4.445l32.337-1.917c.557-12.806.727-37.174,3.953-49.894,1.376,12.708-.751,36.939-.225,49.672l203.95-12.1c.027-1.041.132-2.085.068-3.121-.789-12.806.646-37.089-.136-49.9a3.824,3.824,0,0,1,.6-3.094c.487,3.948.893,7.257,1.35,10.959,9.879-6.5,19.233-12.665,29.032-19.118-.068,2.207-1.34,2.728-2.251,3.438a204.613,204.613,0,0,1-23.1,15.148c-2.969,1.734-3.345,3.379-2.955,6.211,1.276,9.239.687,29.92,1.126,39.252l6.218-.369c1.235-1.906,3.656-1.974,5.481-2.96,9.347-5.052,19.89-22.658,26.261-31.157,1.4,2.479,1.7,4.475-1.321,6.571-1.492,1.032-7.365,11.751-8.732,13.677a59.682,59.682,0,0,1-12.985,13.353l31.089-1.845c-3.232-10.4-4.474-32.19-8.25-42.432a306.575,306.575,0,0,0-16.116-36.042c-9.7-18.525-25.088-31.813-44.613-41.31-14.731-7.165-30.6-11.328-46.863-14.424-4.352-.828-8.661-1.838-12.993-2.754-1.645-.349-2.468-1.195-2.287-2.841.968-8.822-.469-17.506-1.518-26.215a263.645,263.645,0,0,1-2.238-32.9c11.8,2.56,23.7,3.782,35.644,4.819a215.957,215.957,0,0,0,30.423.543,49.409,49.409,0,0,0,14.264-2.99c6.811-2.467,12.653-6.294,16.621-12.115,1.825-2.675,3.82-.711,5.728-.512,1.934.2,1.254,1.442,1.111,2.6-.576,4.642,6.718,11.88,11.85,11.868,2.19,0,3.421-1.484,2.752-3.485a17.579,17.579,0,0,0-2.852-4.712c-1.126-1.521-2.547-2.89-3.284-4.814,8.94.926,17.644,1.865,26.359,2.7,1.757.167,2.285.575,1.843,2.306-2.3,9.022-.689,17.812,1.908,26.5.436,1.455,1.131,3.046,3.115,3.157,2.176.123,3.01-1.548,3.642-3.042,2-4.707,1.476-9.58.911-14.414-.265-2.266-.82-4.5-1.332-7.223a97.111,97.111,0,0,0,17.587,12.016,44.95,44.95,0,0,0,9.567,3.979c1.873.525,3.99.955,5.356-.93,1.419-1.958.005-3.508-1.348-4.8-4.7-4.5-10.554-7.589-16.112-11.04-.895-.557-2.117-.8-2.577-2.019a59.472,59.472,0,0,0,20.953-1.867,20.993,20.993,0,0,0,5.66-2.336c1.229-.772,2.337-1.7,1.979-3.293-.345-1.534-1.682-2.127-3.124-2.417a16.937,16.937,0,0,0-3.386-.206c-8.307.036-16.578.681-25.094,1.285,2.55-1.8,5.084-3.623,7.652-5.4a52.834,52.834,0,0,0,10.76-9.146c1.253-1.5,2.278-3.1.825-4.938-1.387-1.754-3.23-1.3-5.059-.659-8.346,2.924-15.006,8.109-21.418,13.623-.36.31-.689.654-1.627,1.555a59.48,59.48,0,0,0,.108-10.7,21.869,21.869,0,0,0-1.908-8.32,2.952,2.952,0,0,0-2.512-1.9c-1.448-.084-1.915,1.023-2.391,1.946a20.635,20.635,0,0,0-1.995,7.46,59.2,59.2,0,0,0,.617,18.321c-7.26-1.231-14.273-2-21.277-2.833-6.247-.74-12.51-1.4-18.659-2.7-.85-.179-1.832.156-1.51-1.388a36.268,36.268,0,0,0-3.3-23.857c-2.69-5.411-2.867-9.983.791-15.08a20.643,20.643,0,0,0,4.223,2.5c1.906.709,3.8,1.234,5.528-.2,1.743-1.45,1.023-3.066-.127-4.519,1.218-.752,1.644.1,2.229.541.673.509.9,2.059,2.3.891,1.263-1.048-.161-1.6-.551-2.367-.335-.654-1.163-1.163-.723-2.2.927-.83,2.1,1.725,2.96.043.608-1.181-1.131-1.321-1.663-2.17,3.08-1.458,5.5-3.225,6.564-6.269.487-1.4,4.307-1.205,5.667.269a35.146,35.146,0,0,0,10.567,7.79c2.217,1.075,5.075,2.607,6.943-.09,1.817-2.624-.739-4.4-2.732-5.894a34.042,34.042,0,0,0-11.56-5.887c13.024-8.928,20.083-17.83,30.788-29.425a33.707,33.707,0,0,0,2.317,16.973,21.175,21.175,0,0,0,4.4,7.127c2.364,2.4,5.32,3.306,7.4,1.994,2.67-1.693,2.539-4.183,1.727-6.7a57.566,57.566,0,0,0-5.431-11.781c-.378-.634-.691-1.3-1.462-2.772a48.413,48.413,0,0,0,12.145,5.739,34.523,34.523,0,0,0,8.149,1.648c2.221.081,4.764.163,5.426-2.286.6-2.232-1.8-2.96-3.468-3.761-3.518-1.691-7.128-3.223-11.467-5.163,3.2-.559,5.5-.02,7.782.036a65.991,65.991,0,0,0,15.773-1.061c1.748-.381,3.652-.89,3.57-2.977-.074-2.027-1.976-2.555-3.712-2.858M846.429,878.3c1.6-13.236-3.1-25.188-6.108-37.36,6.779,16.78,9.311,32.926,6.108,37.36m-16.215,16.705c.36-8.345,1.174-16.637.127-24.991s-3.582-16.438-4.883-24.736c5.617,16.217,8.763,32.673,4.756,49.727m-36.353-61.168c-.945,5.4-4.3,11.186-6.814,12.043,10.042-15.467,6.408-29.343-5.172-42.4,8.953,8.433,14.114,18.176,11.986,30.359m-33.778,6.686c5.354-11.857,2.308-22.252-6-31.828,10.551,7.987,12.711,24.294,6,31.828m-20.049-.131c2.981-7.609,5.166-15.307,4.074-23.443-1.125-8.379-5.091-15.515-10.867-21.972,13.668,11.1,16.087,33.1,6.793,45.415m-27.485-25.159c4.6,7.182,1.546,20.856-5.463,26.139,5.642-7.826,8.407-16.135,5.463-26.139M699.382,837.7c6.163-14.277,4.189-27.173-7-38.589,12.125,9.336,14.945,26.344,7,38.589m-13.709-26.574c4.966,4.882,6.524,21.237.567,27.264,4.524-9.535,3.472-18.4-.567-27.264m-15.737,30.444c6.437-16.416,4.732-32.227-3.192-47.667,9.087,9.094,11,35.318,3.192,47.667m-10.892-14.476q-.4.744-.793,1.482c-.082-.036-.159-.074-.238-.113.358-.45.707-.9,1.031-1.369m-3.391,4.481c.263.125.529.247.791.371q-1.144,2.149-2.3,4.294a7.987,7.987,0,0,1,1.505-4.665m-2.858,6.208c.254-.595.043-1.618,1.279-1.394-1.127,3.438-2.453,6.831-3.337,10.316-3.112,12.283-2.224,24.548.039,36.8.652,3.553,1.131,7.131,1.69,10.7-2.336-6.256-3.22-12.743-4.163-19.218a67.854,67.854,0,0,1,4.492-37.2m-19.3,23.661a66.487,66.487,0,0,0,3.08-24.245,64.752,64.752,0,0,0-3.205-16.949,10.932,10.932,0,0,1,.857,1.462c4.209,10.587,4.715,21.435,2.328,32.482-1.183,5.482-3.692,10.81-2.527,16.572.426,2.1.933,4.185,1.4,6.279a19.352,19.352,0,0,1-1.936-15.6m-6.465,103.936a54.025,54.025,0,0,1-3.536,12.116c-4.052,10.176-5.034,20.419-1.262,30.778,1.423,3.913,2.953,7.793,4.651,12.258a8.61,8.61,0,0,1-1.2-1.263c-6.144-11.97-9.284-24.274-4.671-37.491,2.115-6.052,4.817-11.955,6.041-18.3a13.356,13.356,0,0,1-.019,1.9m14.219,11.14c-1.693,7.854-3.359,15.7-1.385,23.708.381,1.537,1.281,2.976.556,4.726-.13-.324-.25-.65-.39-.966-3.661-8.413-2.611-17.005-.517-25.514a68.819,68.819,0,0,0,1.122-29.136c-.342-1.874-.975-3.7-1.471-5.552a1.17,1.17,0,0,1,.777.63,9.947,9.947,0,0,1,.513,1.333,61.331,61.331,0,0,1,.8,30.771m17.721,38.942c-5.875-12.95-6.494-26.362-3.355-40.03,1.884-8.207,2.548-16.405.612-24.636-.6-2.569-1.432-5.093-2.155-7.639l.365-.115c.346.815.725,1.623,1.036,2.449,3.959,10.567,3.386,21.3,1.146,32.12A60.985,60.985,0,0,0,659.1,1011.9c1.6,4.316,4.223,8.132,6.365,12.2a24.529,24.529,0,0,1-6.5-8.642m12.5-27.535a59.283,59.283,0,0,0,3.994,27.354c-4.889-8.63-5.8-17.819-3.994-27.354m-2.38,189.883c-.326,1.322-1.455,1.41-2.7,1.184-5.744-1.037-11.644-.919-17.392-2.155-5.993-1.288-12.156-1.926-18.233-2.9-1.666-.27-3.414-.55-4.352-2.209,1.156-.663,2.2-.3,3.175-.254a182.676,182.676,0,0,1,25.387,2.908c4.037.772,8.239.548,12.215,1.628.934.256,2.224.464,1.9,1.8m200.593-6.878c-16.1,4.248-32.656,5.393-49.212,6.423-8.357.52-16.786.224-25.091,1.1-22.146,2.333-44.33,3.931-66.563,5.151-14.369.79-28.739.855-43.1,1.444a12.225,12.225,0,0,1-8.312-2.92c1.963.1,3.924.342,5.88.283,12.639-.376,25.289-.387,37.919-1.242,7.036-.478,14.09-.707,21.13-1.139,11.075-.681,22.166-1.224,33.211-2.236,10.078-.926,20.078-2.469,30.251-2.485a271.693,271.693,0,0,0,28.231-1.664c11.821-1.256,23.685-2.36,35.272-5.187,1.566-.383,4.51-1.412,4.864.215.338,1.559-2.765,1.806-4.479,2.259m22.442-57.187c.964-.416,2.371-1.731,3.244-.253.773,1.31-1.106,1.586-1.9,2.127a34.76,34.76,0,0,1-4.287,2.3c-12.924,6.362-26.656,10.762-40.657,14.553a257.194,257.194,0,0,1-31.248,6.251c-15.035,2.139-30.036,4.432-45.166,5.987-10.789,1.106-21.533,2.738-32.349,3.591a268.238,268.238,0,0,1-38.769-.133c-12.782-.847-25.641-1.209-38.307-3.207-8.7-1.372-17.743-1.007-26.119-4.076-1.113-.41-2.436-.5-3.073-1.951a5.381,5.381,0,0,1,2.955-.215c11.273,1.337,22.554,2.625,33.812,4.065,13.736,1.758,27.615,2.292,41.478,2.86,8.18.338,16.356.43,24.527.023,12.091-.6,24.072-2.272,36.088-3.648,24.879-2.854,49.83-5.211,74.158-11.274,12.4-3.089,24.646-6.588,35.961-12.418,3.16-1.625,6.378-3.162,9.649-4.584M848.882,1089.4l16.44-1.578c.243,1.342-1.457,1.127-2.3,1.32-5.12,1.172-10.309,2.086-15.413,3.315-8.908,2.144-17.694,4.85-26.761,6.285-13.776,2.178-27.553,4.325-41.468,5.806-16.642,1.772-33.32,2.824-50.007,3.775-5.581.33-11.168.953-16.746.937-15.11-.043-30.226.1-45.322-.695-6.481-.346-13.009.077-19.489-.514-1.474-.136-3.8.208-3.783-1.491.018-1.913,2.489-1.3,3.792-1.315,6.8-.095,13.625-.22,20.4.149q18.156.994,36.337.96c20.647-.039,41.21-1.465,61.76-3.452,27.857-2.7,55.542-6.172,82.554-13.5m-133.13-76.513c.9.428,9.919,1.58,16.784,2.035a104.692,104.692,0,0,0,18.374-.591,134.111,134.111,0,0,0,18.707-4.536,89.15,89.15,0,0,0,18.278-8.632c.018,4.223-.17,8.017.088,11.783.864,12.559,1.934,25.1,2.82,37.659.213,3.03-.646,6.26.177,9.1,1.224,4.232-.7,7.009-3.575,9.678a29.967,29.967,0,0,1-9.977,5.748c-8.861,3.363-18.154,3.848-27.506,3.545-8.174-.265-16.01-1.949-22.9-6.157-4.767-2.91-9.173-5.789-8.212-12.473.719-4.983-2.754-41.968-3.062-47.155m121.47-17.439a52.448,52.448,0,0,0,.692-13.616c-.3-4.641-1.834-9.073-2.469-13.643,3.622,8.9,4.583,17.994,1.777,27.259m10.08-5.837c3.495-6.742,5.173-13.661,3.9-21.041-1.262-7.3-4.653-13.79-8.889-19.967,9.891,10.042,14.606,28.293,4.993,41.008M836.01,940.8a32.577,32.577,0,0,1-9.885-3.194c-.893-.482-1.714-1.113-2.095.652-1.958,9.1-4.266,18.009-8.355,26.684A81.866,81.866,0,0,1,801.5,985.885c-10.959,11.83-25.278,18.8-41.249,23.09-12.323,3.309-24.675,3.972-37.03.425-1.12-.321-8.008-2.258-9.339-2.8a93.641,93.641,0,0,1-11.934-5.414c-19.06-10.934-29.484-27.34-34.845-46.936-1.385-5.054-2.539-10.162-3.86-15.232-.241-.921-.51-2.557-1.988-1.779-3.139,1.659-6.508,1.8-9.912,2.406-11.481,2.03-22.764-1.842-28.767-10.968a38.7,38.7,0,0,1-5.471-31.636c2.056-8.27,9.683-12.64,18.24-10.884a21.09,21.09,0,0,1,8.457,4.013c5.27,3.958,8.536,9.177,11.022,14.885.578,1.322,1.02,2.692,1.592,4.016.342.789.741,1.665,1.967,1.428,1.392-.27,1.317-1.313,1.258-2.27a7.1,7.1,0,0,0-.32-1.689,128.032,128.032,0,0,1-3.914-17.606c-2.038-12.362-3.622-24.753-1.249-37.285a75.064,75.064,0,0,1,7.38-21.3c.431,4.307.254,7.833,1.385,11.2,1.469,4.37,4.2,6.471,9.117,6.878,4.306.355,8.454-.631,12.607-1.464,5.428-1.091,10.494-2.651,10.717-9.427a3.8,3.8,0,0,1,1.192,2.585c1.052,5.384,3.316,7.027,9.379,6.787,1.14-.047,2.281-.124,3.414-.244,12.725-1.349,18.444-6.172,21.025-17.717.914-4.1.912-8.268,1.256-12.419a42.149,42.149,0,0,1,1.22,11.048,101.456,101.456,0,0,1-1.836,12.753c-.991,5.554,1.138,7.655,7.194,7.46a125.772,125.772,0,0,0,15.488-1.442c7.4-1.159,13.131-4.053,15.035-11.414a31.507,31.507,0,0,0,1.2-9.333c-.164-3.689-.409-7.372-.941-11.041a44.181,44.181,0,0,1,3.654,18.675c-.039,2.861.047,5.73.283,8.58a5.869,5.869,0,0,0,4.767,5.665,71.692,71.692,0,0,0,16.451,2.594c7.836.142,13.448-5.027,13.387-12.224a53.062,53.062,0,0,0-.9-8.873A60.991,60.991,0,0,1,819.279,847.4c6.544,14.779,8.074,30.189,6.1,46.017-.3,2.367-.49,4.75-.606,7.129a2.067,2.067,0,0,0,1.546,2.238,2.441,2.441,0,0,0,2.448-.939c.63-.636,1.2-1.328,1.8-1.985,2.988-3.25,6.272-6.163,10.615-7.847,8.473-3.279,16.356-.7,19.747,7.044,5.046,11.524,3.64,22.936-3.373,33.458-4.8,7.211-12.4,9.915-21.546,8.288m27.51,59.511c7.607-12.4,13.525-24.885,5.089-38.911,9.574,10.941,4.046,28.262-5.089,38.911m39.6-66.683c-2.157,1.774-3.232.421-4.472-.912a17.353,17.353,0,0,0-5.066-3.683c-3.753-1.858-7.058-.93-9.6,2.678.825.258,1.394-.261,1.965-.6,2.979-1.756,5.667-1.265,8.264.665a22.191,22.191,0,0,1,3.994,3.918c1.292,1.6.6,2.78-.53,4.07-1.281,1.462-2.478.876-3.776.09a43.011,43.011,0,0,0-4.228-2.351,5.365,5.365,0,0,0-6.3,1.038c5.544-.835,8.729,2.4,12.394,4.534a1.959,1.959,0,0,1,.882,2.5c-.572.885-1.682.323-2.544.065a13.274,13.274,0,0,1-5.165-3.026c-1.465-1.33-2.51-1.016-3.312.571-.875,1.724-1.684,3.476-2.686,5.558-1.816-3.347-3.4-6.529-5.24-9.578-1.088-1.8-.764-3.191.6-4.658a40.918,40.918,0,0,1,14.114-9.691,13.066,13.066,0,0,1,6.365-.955,8.051,8.051,0,0,1,6.646,4.035c1.623,2.739-.349,4.126-2.3,5.729m10.157-9.667a19.419,19.419,0,0,0-2.441,1.759c-1.473,1.387-2.613,1.063-3.806-.3a15.442,15.442,0,0,0-6.21-4.006,37.534,37.534,0,0,1,11.419-6.181c1.573-.437,3.4-.982,4.06,1.15,1.421,4.578,1.378,4.587-3.022,7.577" fill="#121314"/>
            <path id="Pfad_1419" data-name="Pfad 1419" d="M843.437,754.965l0,0,.007,0Z" fill="#121314"/>
            <path id="Pfad_1420" data-name="Pfad 1420" d="M695.566,933.84a9.11,9.11,0,1,0,9.563,8.557,9.072,9.072,0,0,0-9.563-8.557" fill="#121314"/>
            <path id="Pfad_1421" data-name="Pfad 1421" d="M794.462,927.973a9.11,9.11,0,1,0,9.563,8.558,9.072,9.072,0,0,0-9.563-8.558" fill="#121314"/>
            <path id="Pfad_1422" data-name="Pfad 1422" d="M538,788.613c.322-1.634.947-3.341-.471-4.814a.933.933,0,0,0-1.336-.081c-1.326,1.251-1.162,2.908-1.307,4.347.095,1.125-.2,2.465,1.23,2.653s1.687-1.109,1.884-2.105" fill="#121314"/>
            <path id="Pfad_1423" data-name="Pfad 1423" d="M535.3,804.266c-2.207.6-1.969,2.806-2.25,4.4.1,1.093.115,2.494,1.394,2.22,2.382-.509,2.157-2.659,2.273-4.386.061-.964.066-2.637-1.417-2.234" fill="#121314"/>
            <path id="Pfad_1424" data-name="Pfad 1424" d="M539.832,800.2c.174,1.1.292,2.472,1.636,2.137,1.825-.455,1.821-2.178,1.934-3.563.081-1-.293-2.159-1.68-1.921-2.257.389-1.333,2.288-1.89,3.347" fill="#121314"/>
          </g>
        </g>
        <g id="Gruppe_302" data-name="Gruppe 302">
          <path id="Pfad_1426" data-name="Pfad 1426" d="M604.09,1337.581l-3.073-58.538,42.126-2.2.808,15.388-24.035,1.258.439,8.363,20.937-1.1.746,14.216-20.937,1.1,1.08,20.571Z" fill="#d1de5f"/>
          <path id="Pfad_1427" data-name="Pfad 1427" d="M656.851,1334.82l-3.072-58.538,18.091-.946,2.265,43.153,25.123-1.315.808,15.385Z" fill="#d1de5f"/>
          <path id="Pfad_1428" data-name="Pfad 1428" d="M735.036,1331.569a34.517,34.517,0,0,1-12.766-1.6,30.25,30.25,0,0,1-10.383-5.83,28.075,28.075,0,0,1-7.084-9.357,33.672,33.672,0,0,1-1.284-24.461,28.21,28.21,0,0,1,6.068-10,30.306,30.306,0,0,1,9.715-6.881,36.729,36.729,0,0,1,25.336-1.326,30.419,30.419,0,0,1,10.344,5.831,28.281,28.281,0,0,1,7.079,9.315,33.647,33.647,0,0,1,1.284,24.46,28.112,28.112,0,0,1-6.063,10.045,30.373,30.373,0,0,1-9.675,6.88A34.423,34.423,0,0,1,735.036,1331.569Zm-.879-16.727a13,13,0,0,0,6.65-2.107,12.6,12.6,0,0,0,4.435-5.139,15.785,15.785,0,0,0-.75-14.3,12.611,12.611,0,0,0-4.949-4.646,13.827,13.827,0,0,0-13.483.7,12.589,12.589,0,0,0-4.434,5.136,15.772,15.772,0,0,0,.751,14.3,12.584,12.584,0,0,0,4.947,4.648A13,13,0,0,0,734.157,1314.842Z" fill="#d1de5f"/>
          <path id="Pfad_1429" data-name="Pfad 1429" d="M776.617,1328.553l-3.072-58.538,27.47-1.438a23.757,23.757,0,0,1,11.014,1.856,18.743,18.743,0,0,1,7.8,6.216,17.472,17.472,0,0,1,3.185,9.477,20.805,20.805,0,0,1-2.2,10.975,18.234,18.234,0,0,1-7.167,7.46l13.885,21.328-20.183,1.056-11.995-18.912-2.849.15,1.023,19.485Zm15.234-32.913,7.705-.4a6.1,6.1,0,0,0,4.6-1.96,6.683,6.683,0,0,0,1.344-4.806,5.662,5.662,0,0,0-1.862-4.223,7.022,7.022,0,0,0-5.06-1.286l-7.373.385Z" fill="#d1de5f"/>
          <path id="Pfad_1430" data-name="Pfad 1430" d="M832.9,1325.608l20.462-59.769,14.238-.745,26.438,57.315-17.923.938-3.637-8.529-19.264,1.009-2.725,8.861Zm25.624-27-1.434,4.688,10.22-.535-1.917-4.512q-1.434-3.276-2.3-5.37c-.58-1.4-1.1-2.839-1.571-4.323q-.552,2.292-1.236,4.47T858.52,1298.607Z" fill="#d1de5f"/>
        </g>
        <g id="Gruppe_303" data-name="Gruppe 303">
          <path id="Pfad_1431" data-name="Pfad 1431" d="M593.653,1421.984l-3.073-58.54,26.383-1.38a21.814,21.814,0,0,1,10.856,2.033,19.257,19.257,0,0,1,7.743,6.72,19.959,19.959,0,0,1,3.225,10.233,21.805,21.805,0,0,1-2.11,11.01,19.62,19.62,0,0,1-6.977,7.872,21.04,21.04,0,0,1-10.578,3.278l-8.29.433.912,17.394Zm16.035-33.711,5.277-.276a5.754,5.754,0,0,0,3.9-1.587,5.044,5.044,0,0,0,1.344-4.053,4.547,4.547,0,0,0-1.751-3.725,6.288,6.288,0,0,0-4.042-1l-5.275.277Z" fill="#d1de5f"/>
          <path id="Pfad_1432" data-name="Pfad 1432" d="M679.124,1418.352a34.514,34.514,0,0,1-12.765-1.6,30.308,30.308,0,0,1-10.384-5.831,28.063,28.063,0,0,1-7.083-9.357,33.67,33.67,0,0,1-1.284-24.46,28.174,28.174,0,0,1,6.067-10,30.291,30.291,0,0,1,9.717-6.88,36.693,36.693,0,0,1,25.334-1.326,30.424,30.424,0,0,1,10.342,5.83,28.23,28.23,0,0,1,7.081,9.315,33.676,33.676,0,0,1,1.284,24.461,28.031,28.031,0,0,1-6.065,10.044,30.378,30.378,0,0,1-9.673,6.881A34.452,34.452,0,0,1,679.124,1418.352Zm-.877-16.727a13.037,13.037,0,0,0,6.65-2.108,12.6,12.6,0,0,0,4.431-5.138,15.769,15.769,0,0,0-.75-14.3,12.593,12.593,0,0,0-4.945-4.646,13.834,13.834,0,0,0-13.485.706,12.564,12.564,0,0,0-4.434,5.136,15.771,15.771,0,0,0,.751,14.3,12.577,12.577,0,0,0,4.947,4.648A13.038,13.038,0,0,0,678.247,1401.625Z" fill="#d1de5f"/>
          <path id="Pfad_1433" data-name="Pfad 1433" d="M729.5,1414.876l-19.741-57.668,18.092-.947,8.252,26.068q.61,1.98,1.082,3.8t.9,3.473q.17-1.6.489-3.461a33.916,33.916,0,0,1,.967-3.994l6.2-21.036,13.822-.722,8.369,20.273a50.353,50.353,0,0,1,2.477,7.249c.058-1.121.157-2.3.319-3.537s.374-2.537.64-3.892l5.478-26.787,17.5-.916-13.76,59.421-14.239.746-13.058-28-8.717,29.135Z" fill="#d1de5f"/>
          <path id="Pfad_1434" data-name="Pfad 1434" d="M803.281,1411.015l-3.072-58.54,43.8-2.292.768,14.636-26.465,1.385.391,7.444,23.369-1.224.719,13.713-23.368,1.223.425,8.114,27.972-1.465.768,14.634Z" fill="#d1de5f"/>
          <path id="Pfad_1435" data-name="Pfad 1435" d="M859.226,1408.088l-3.072-58.541,27.47-1.437a23.766,23.766,0,0,1,11.019,1.856,18.761,18.761,0,0,1,7.8,6.216,17.433,17.433,0,0,1,3.183,9.477,20.79,20.79,0,0,1-2.193,10.975,18.225,18.225,0,0,1-7.165,7.46l13.883,21.328-20.185,1.057-11.993-18.911-2.849.149,1.022,19.485Zm15.238-32.914,7.706-.4a6.1,6.1,0,0,0,4.6-1.96,6.676,6.676,0,0,0,1.344-4.807,5.646,5.646,0,0,0-1.859-4.222,7.026,7.026,0,0,0-5.065-1.287l-7.371.387Z" fill="#d1de5f"/>
        </g>
      </g>
    </g>
  </g>
</svg>
