<svg xmlns="http://www.w3.org/2000/svg" xmlns:xlink="http://www.w3.org/1999/xlink" width="768" height="1128" viewBox="0 0 768 1128">
  <defs>
    <filter id="card_shadow" x="35" y="35" width="698" height="1050" filterUnits="userSpaceOnUse">
      <feOffset input="SourceAlpha"/>
      <feGaussianBlur stdDeviation="15" result="blur"/>
      <feFlood flood-opacity="0.6"/>
      <feComposite operator="in" in2="blur"/>
      <feComposite in="SourceGraphic"/>
    </filter>
    <clipPath id="clip-path">
      <path id="Pfad_1091" data-name="Pfad 1091" d="M2827.276,564A19.26,19.26,0,0,0,2808,583.247v889.506A19.262,19.262,0,0,0,2827.276,1492h537.448A19.262,19.262,0,0,0,3384,1472.753V583.247A19.26,19.26,0,0,0,3364.724,564Z" fill="none"/>
    </clipPath>
    <clipPath id="clip-path-2">
      <rect id="Rechteck_31" data-name="Rechteck 31" width="616.818" height="968.755" transform="translate(2787.591 543.623)" fill="none"/>
    </clipPath>
    <clipPath id="clip-path-3">
      <path id="Pfad_1080" data-name="Pfad 1080" d="M3401.027,562.8l-613.436,36.389v508.8l8.069,135.634,608.749-36.113V619.61Z" fill="none"/>
    </clipPath>
  </defs>
  <g id="_01_D_mobilitaet_freya_fahrt" data-name="01_D_mobilitaet_freya_fahrt" transform="translate(-2712 -464)">
    <g id="heroes_card_bg">
      <rect id="bounding_box" width="768" height="1128" transform="translate(2712 464)" fill="none"/>
      <g transform="matrix(1, 0, 0, 1, 2712, 464)" filter="url(#card_shadow)">
        <rect id="card_shadow-2" data-name="card_shadow" width="608" height="960" rx="24" transform="translate(80 80)" fill="#191a1c"/>
      </g>
    </g>
    <g id="_01_D_mobilitaet_freya_fahrt-2" data-name="01_D_mobilitaet_freya_fahrt">
      <g id="Gruppe_285" data-name="Gruppe 285" clip-path="url(#clip-path)">
        <rect id="Rechteck_28" data-name="Rechteck 28" width="616.818" height="968.757" transform="translate(2787.591 543.62)" fill="#76bbe3"/>
        <rect id="Rechteck_29" data-name="Rechteck 29" width="616.818" height="968.757" transform="translate(2787.591 543.62)" fill="#f5a845"/>
        <g id="Gruppe_280" data-name="Gruppe 280">
          <g id="Gruppe_279" data-name="Gruppe 279" clip-path="url(#clip-path-2)">
            <rect id="Rechteck_30" data-name="Rechteck 30" width="704.862" height="340.739" transform="translate(2730.635 1226.641) rotate(-3.004)" fill="#121314"/>
          </g>
        </g>
        <path id="Pfad_1004" data-name="Pfad 1004" d="M2787.591,1207.575v170.074l7.072,134.729h330.26l279.487-14.625V1175.3Z" fill="#121314"/>
        <g id="Gruppe_282" data-name="Gruppe 282">
          <g id="Gruppe_281" data-name="Gruppe 281" clip-path="url(#clip-path-3)">
            <path id="Pfad_1005" data-name="Pfad 1005" d="M3261.82,939.206q2.481-5.109,4.966-10.218l-.911-.417q-2.4,5.184-4.8,10.368c.244.091.494.177.741.267m3.9,5.247q2.506-4.719,5.014-9.441c-.3-.151-.6-.305-.893-.455q-2.414,4.754-4.825,9.5c.235.131.469.26.7.392m-9.547-7.777q2.8-6.07,5.6-12.143c-.272-.117-.544-.237-.816-.355q-2.747,6.09-5.5,12.186c.238.106.473.21.711.312m-10.6-7.1q3.291-6.434,6.587-12.862l-.73-.36q-3.227,6.461-6.463,12.921c.2.1.4.2.606.3m-21.153-11.984q3.258-5.533,6.514-11.072l-.847-.473q-3.2,5.622-6.4,11.239l.728.306m12.342,3.827q3.186-5.964,6.376-11.927c-.3-.15-.591-.3-.888-.453q-3.084,5.955-6.163,11.909c.224.157.451.313.675.471M3010.4,1048.566q1.32,6.88,2.637,13.756l.818-.156q-1.224-6.842-2.444-13.686c-.337.029-.673.059-1.011.086m219.182-127.113q3.781-6.936,7.562-13.867c-.292-.152-.587-.3-.882-.453q-3.672,7.014-7.342,14.033l.662.287m9.851,5.986q3.938-7.356,7.872-14.713l-.9-.455q-3.828,7.411-7.666,14.818c.232.115.465.235.7.35m16.937-8.141q-3.788,7.785-7.566,15.574l.659.319q3.967-7.662,7.936-15.32c-.345-.19-.687-.38-1.029-.573m-52.342,10.984c5.952,4.223,7.45,9.483,5.655,16.14,4-5.378,1.138-13.763-5.655-16.14M2984.3,1014.6c3.16-1.471,5.635-7.222,4.507-10.355q-2.251,5.178-4.507,10.355m161.888-8.922c.675,5.511,1.321,10.785,1.963,16.008,2.035-1.856.852-12.9-1.963-16.008m-50.828-68.747q-1.081-9.873-2.167-19.745c-1.321,6.711,0,13.218,1.351,19.72l.816.025m-72.155,201.59q1.514,10.5,3.026,20.995l.8-.116q-1.176-10.53-2.348-21.064l-1.476.185m-29.92-397.348,4.518,8.7c1.179-3.126,2.242-5.95,3.457-9.173Zm-.224,314.34q.5-14.235.979-28.1c-2.681,9.168-3.787,18.507-.979,28.1m75.575,82.363-.793.039c-.29,7.783-1.444,15.6,1.061,23.262.369-.025.743-.048,1.115-.07Zm93.3,46.443c.324-8.911.625-17.28.918-25.333-2.877,2.037-3.98,19.347-.918,25.333m17.4-330.3c-2.049-.883-3.547-1.577-5.084-2.179-2.811-1.1-5.646-2.151-8.579-3.264.056,5.552,7.194,8.51,13.663,5.443m-27.152-87.63c-5.379,7.442-19.451,5.9-20.292-2-1.108.543-2.089,1.025-3.078,1.512,3.094,6.025,7.367,8.1,14.874,7.4,4.91-.461,7.072-2.064,8.5-6.912m-23.451,190.021c-3.618,11.027-1.236,21.449,3.132,31.645.336-.054.673-.106,1.011-.158-1.065-5.179-2.425-10.321-3.112-15.547-.691-5.269-.716-10.624-1.031-15.94M2965.467,876.7c-5.759,2.762-11.168,5.353-16.642,7.981,3.183,2.109,7.587,1.971,11.7-.437,2.781-1.627,5.173-3.61,4.946-7.544m116.969,108.975q-2.969-20.061-5.939-40.121c-1.262,13.795,1.952,27,5.032,40.221l.907-.1m25.119-268.633c3.069,1.374,4.565-.5,6.086-2.307,5.168,1.614,5.635,1.442,6.383-2.779a36.6,36.6,0,0,0,3.761,1.369,2.72,2.72,0,0,0,2.128-.194,2.2,2.2,0,0,0,.29-2.064c-.834-1.666-.925-4.04-3.98-4.577.272,1.365.471,2.359.691,3.456-1.48-.2-3.151-.909-4.368-.448-1.061.405-1.616,2.123-2.554,3.492a6.133,6.133,0,0,1-1.408-.615c-1.9-1.322-3.037-1.292-3.833,1.263-.369,1.186-1.856,2.037-3.2,3.4m-24.267,401.73c1.471,12.195,2.94,24.391,4.472,37.082,2.281-3.8-.877-32.005-4.472-37.082m137.328,3.47c5.123,11.812,6.061,23.866,4.142,36.792,6.435-6.817,3-34.439-4.142-36.792M3012.46,981.921c-4.951,6.2-.272,26.974,5.868,41.373a13.369,13.369,0,0,0,.029-3.058c-1.686-7.761-3.7-15.462-5.095-23.273-.75-4.2-.481-8.571-.673-12.867-.027-.6-.073-1.211-.129-2.175m-44.094,133.253c-10.086,15.486-11.68,33.085-11.859,51.071a18.254,18.254,0,0,0,.764-3.019,155.292,155.292,0,0,1,6.6-34.923c1.188-3.709,3.16-7.172,4.771-10.748.3-.656.59-1.315.887-1.971-.388-.136-.775-.274-1.161-.41m7.788-64.992a11.332,11.332,0,0,0-2.686,2.129c-4.614,6.919-6.4,14.734-7.031,22.851-.283,3.7-.279,7.419-.414,11.447,1.951.075,2.039-1.423,2.205-2.82.58-4.873.925-9.786,1.772-14.612,1.122-6.4,2.958-12.617,6.891-18.038q-.371-.479-.737-.957m163.4,101.252c-2.067-13.247-4.093-26.222-6.145-39.365-3.318,5.722,1.247,35.214,6.145,39.365m62.6-93.455c-4.016,6.043,4.187,31.8,14.693,38.817-7.149-12.418-13.188-24.448-14.693-38.817m-4.395-373.1c6.846,1.166,12.757,3.144,17.036,9.273-.061-1.021.291-2.433-.256-2.987a40.461,40.461,0,0,0-6.648-5.715,21.909,21.909,0,0,0-6.084-2.3c-5.478-1.539-6.827-.554-7.2,5.357-1.569-.738-2.988-1.527-4.491-2.08s-3.121-.871-4.633-1.281c-.562,2.286-1.008,4.09-1.543,6.256,2.822,1.335,2.711-1.46,3.685-3.452a35.833,35.833,0,0,1,4.094,1.872c5.925,3.637,5.6,2.053,5.75-2.947.014-.473.134-.946.288-1.994M3067.9,1049.365q-5.544-21.409-11.095-42.819c-.267.065-.532.133-.8.2.161,15.141,4.642,29.221,10.832,42.882l1.063-.262m10.715-338.786c-4.075,1.292-7.818,2.229-11.329,3.705-1.6.672-2.733,2.41-3.8,3.406-2.094-1.451-4.3-4.187-6.453-4.142-2.312.05-4.57,2.716-6.9,4.273-1.587-1.163-1.113-4.477-5.109-4.852,1.516,2.93,2.62,5.246,3.95,7.425.182.3,1.662.184,2.244-.192a33.836,33.836,0,0,0,3.926-3.151c1.623-1.428,2.951-1.19,4.257.446,1.147,1.44,2.419,2.784,4.182,4.792,2.346-6.122,8.06-6.41,12.861-8.558q.888,2.091,1.768,4.174l.83-.222-.422-7.1m-133.484,170.28,16.558-9.044c-3.629-3.637-10.234-4.513-14-1.983-3.378,2.272-4.531,6.761-2.555,11.027m178.344,156.965c-2.786-17.108-8.768-33.7-8.544-51.295l-.725-.19a7.6,7.6,0,0,0-.875,2.576c.354,6.928.177,13.971,1.433,20.747,1.634,8.829,4.424,17.45,6.754,26.15a13.58,13.58,0,0,0,1.068,2.254c.3-.081.592-.163.889-.242m37.121-58.1c.3,2.021.244,3.68.8,5.1,5.78,14.761,12.435,29.113,21.094,42.473a23.17,23.17,0,0,0,4.544,4.87c-8.715-17.284-17.428-34.569-26.44-52.447m23.031-130.073a7.937,7.937,0,0,0-2.523-11.3c-4.336-2.67-10.528-.4-13.763,5.057l16.286,6.246m-24.115,256.788c-4.651-19.34-7.713-38.137-7.416-57.325,0-.172-.429-.353-.662-.534-4.6,9.046.868,51.469,8.078,57.859m-109.35,21.451c-4.8-24.57-9.1-49.2-9.582-74.313l-1.056-.054a24.425,24.425,0,0,0-.576,3.409c-.535,18.488,2.108,36.647,5.966,54.662,1.183,5.523,2.691,10.977,4.053,16.464.4-.059.8-.114,1.2-.168m77.8-365.067c7.289-2.809,14.422-5.165,22.251-3.59-2.04-6.912-9.558-11.47-15.952-9.872-5.039,1.262-7.834,7.029-6.3,13.462m-32.507,265.96a205.582,205.582,0,0,0,10.88,72.586c.324-.048.651-.1.975-.147-2.115-12.043-4.495-24.05-6.274-36.14-1.775-12.075-2.945-24.236-4.382-36.358-.4.018-.8.039-1.2.059m112.291-87.532c-.109-.639-.215-1.517-.408-2.374a8.277,8.277,0,0,0-7.331-6.641c-3.223-.154-5.6,1.6-6.811,5.02a7.957,7.957,0,0,0,2.729,9.427,11.473,11.473,0,0,0,2.6,1.371c6.021,2.272,9.561-.26,9.219-6.8m-178.348,18.1c-5.547-3.522-10.851-6.756-16.014-10.194-7.353-4.9-14.167-10.429-19.734-17.334a4.008,4.008,0,0,0-1.011-1.071c-1.044-.579-2.155-1.046-3.236-1.557-.114,1.258-.735,2.77-.247,3.734,2.606,5.145,4.945,10.561,8.411,15.115,4.812,6.316,10.556,11.936,15.869,17.886,1.537,1.72,2.838,2.1,4.957.516,3.389-2.539,7.12-4.626,11.005-7.1m14.862-15.809c-19.223-4.316-35.987-13.283-52.695-23.86.456,1.951.485,4.156,1.469,5.8a42.88,42.88,0,0,0,6.224,8.211c9.361,9.413,20.851,16.015,32.019,23.018a2.717,2.717,0,0,0,2.317-.165,28.207,28.207,0,0,0,10.666-13.005m120.861,96.192c.383,6.445.148,13.088,1.294,19.489,2.2,12.265,5.357,24.357,7.78,36.586,2.826,14.263,5.487,28.565,7.847,42.912,1.995,12.1,3.459,24.294,5.175,36.581,1.088-1.537,2.316-3.227,3.5-4.948a158.225,158.225,0,0,0,15.785-28.053c2.568-6.066,2.264-11.124-2.033-16.569q-15.029-19.042-29.048-38.861c-2.291-3.221-3.461-7.514-4.164-11.486-1.634-9.268-2.656-18.641-3.955-27.965-.394-2.814-.05-5.9-2.183-7.686m6.376-63.472c10.654-13.523,16.352-28.662,18.78-45.435a177.555,177.555,0,0,1-43.062-18.509c-1.4,2.028-2.478,4.189-4.119,5.791-1.351,1.322-3.357,2.746-5.084,2.764-2.573.027-3.167-2.546-3.55-4.751a2.639,2.639,0,0,0-.743-1.611c-1.065,2.1-2.079,4.219-3.217,6.276-.992,1.792-1.9,3.979-4.567,3.431-2.625-.539-3.463-2.818-3.336-4.984.294-4.977.986-9.933,1.593-14.888.184-1.514.617-3,.936-4.492l-.766-.376a12.959,12.959,0,0,0-1.4,2.087c-1.614,3.8-3.083,7.666-4.744,11.45-.8,1.806-1.342,4.576-3.987,3.9-1.539-.391-2.636-2.464-3.645-3.487.809,8.385,1.176,17.667,8.756,24.678,7.07,6.537,14.366,12.716,23.349,16.629,9.7,4.228,17.821,10.653,25.248,18.009,1.111,1.1,2.226,2.2,3.561,3.519M2989.591,834.8c.871,1.793,1.492,3.081,2.3,4.753-1.521.254-2.645.53-3.783.611-21.962,1.591-38.948,11.882-52.076,29a10.748,10.748,0,0,0-2.528,7.852,97.178,97.178,0,0,1-.122,10.03c3.864.046,7.507.093,10.964.134-1.156-2.148-2.75-4.284-3.516-6.679-2.8-8.761,4.243-16.925,13.478-15.9a17.963,17.963,0,0,1,12.954,6.994c3.565,4.678,3.075,9.712-1.236,13.749-3.595,3.37-8.085,4.359-12.9,4.638,5.454,3.146,10.771,6.215,15.778,9.1,1.367-.468,3.149-1.548,3.616-1.143,1.029.888,1.389,2.531,2.038,3.857a8.356,8.356,0,0,0,1.387,2.619c4.121,3.686,8.221,7.414,12.584,10.807,1.927,1.5,4.477,2.2,6.7,3.354a32.736,32.736,0,0,1,5.123,3c3.406,2.664,6.627,2.644,9.531-.514,2.645-2.885,5.63-5.7,7.412-9.084,6.848-12.994,8.126-26.517,2.958-40.475-5.338-14.412-17.6-29.33-30.666-36.706m-52.459,114.55a23.928,23.928,0,0,0-7.916,14.281c-1.747,9.777,3.881,15.444,13.857,13.964,5.716-.848,7.2-1.607,13.987-7.17a4.692,4.692,0,0,1,.78.346c7.453,5.084,7.543,5.276,15.672,1.5,4.83-2.24,9.32-5.2,13.974-7.824,1.57-.885,1.858-1.933,1.115-3.646-1.564-3.6-3.047-7.261-4.25-11-1.317-4.083-2.283-8.282-3.2-11.7-1.82-1.091-3.767-1.734-4.941-3.051-6-6.731-5.848-6.17.535-11.167,1.137-.89,2.137-1.949,3.916-3.59-8.835,1.6-16.524,1.535-22.845-4.368a14.514,14.514,0,0,1-1.891-2.829l.612-.518a5.31,5.31,0,0,1,1.508.586c6.423,5.249,13.681,5.774,21.381,3.66,1.641-.451,2.983-.747,4.139,1.007a3.208,3.208,0,0,1-.431,4.5c-2.266,2.306-4.606,4.544-7.122,7.014,1.646,2.062,3.346,4.194,4.794,6.006l4.944-2.754c-.005-1.1-.49-2.926.122-4.268.578-1.259,2.315-2,3.7-3.094-.02-5.568-4.449-8.848-8.516-12.349-2.169-1.867-4.4-3.664-6.761-5.629-1.859,2.021-3.3,5.951-6.734,3.916-4.144-2.451-.075-5.464.46-8.526-2.412-1.584-4.941-3.243-7.893-5.178-1.672,3.422-3.128,6.611-4.812,9.675a3.059,3.059,0,0,1-2.377,1.385c-1.46-.192-2.136-1.168-1.308-2.793,1.65-3.243,3.164-6.556,4.9-10.187-2.4-1.023-4.608-2.068-6.9-2.863a2.448,2.448,0,0,0-2.158.659c-8.069,10.977-16.018,22.04-24.106,33.005-1.672,2.266-1.237,3.825.445,5.84,3.98,4.771,7.72,9.741,11.546,14.641.6.763,1.124,1.577,1.782,2.508m252.975-2.51c-3.2,10.474-7.482,20.181-13.808,28.895-1.732,2.39-2,3.863.244,6.382,7.383,8.3,13.136,17.724,18.127,27.617a6.252,6.252,0,0,0,3.33,2.718c8.717,2.929,17.129.86,24.815-3.026,23.025-11.647,37.416-30.233,43.7-55.011.668-2.646-.041-3.943-2.632-5.151a169.389,169.389,0,0,1-34.152-20.913c-.437-.346-1.092-.93-1.439-.813-3.76,1.27-4.318-1.568-5.263-3.908-7.879,1.672-9.667-.559-10.343-13.164-5.766,4.131-12.365,3.947-19.144,3.821l.809,13.591c9.658-2.906,16.062-.446,19.468,7.457,2.94,6.822.975,13.453-5.023,16.968-6.743,3.954-12.858,2.218-18.686-5.463M3026.325,677.234c-2.736,2.439-5.012,4.318-7.723,2.27a4.953,4.953,0,0,1-1.575-4.027c.578-3.306,3.5-3.535,6.882-3.549-2.673-5.207-5.166-10.062-7.827-15.247-4.611,2.487-8.89,4.716-13.086,7.079-10.07,5.67-20.5,10.427-31.923,12.781-.585.12-1.165.274-1.755.349-2.91.368-3.425-.166-2.724-2.986,1.251-5.017,1.867-10.015-.73-15.019-.014.865-.03,1.732-.039,2.6-.061,6.322-1.831,11.978-6.353,16.676a4.119,4.119,0,0,0-.794,2.879c.266,3.606.735,7.195,1.152,11.029-6.61.539-12.041,2.845-15.479,8.415a12.059,12.059,0,0,0-1.637,9.343c1.993,8.575,9.425,12.215,21.581,10.257,1.578,4.855,3.174,9.768,4.608,14.191,2.04.253,3.924.115,5.486.744,9.071,3.656,18.369,3.873,27.821,2.037a4.758,4.758,0,0,0,2.135-1.688c2.817-3.162,5.3-6.672,8.434-9.488,3.314-2.985,7.353-4.741,12.5-2.372-.392-.966-.444-1.656-.8-1.876-2.74-1.72-2.384-4.119-1.33-6.462,2.092-4.651,4.383-9.209,6.573-13.817.408-.855,1.167-1.833,1.018-2.614-1.338-7-2.845-13.969-4.42-21.5m100.424,242.458c.624-1.03,1.317-2.03,1.861-3.1,4.74-9.309,9.436-18.638,14.187-27.938a12.235,12.235,0,0,1,2.16-3.164c.463-.457,1.5-.353,2.272-.5.113.7.535,1.532.288,2.066a49.272,49.272,0,0,1-2.748,4.9,44.875,44.875,0,0,0-6.68,21.166,8.062,8.062,0,0,0,.871,4.052,22.011,22.011,0,0,0,2.536-2.92c2.954-4.9,5.481-10.085,8.779-14.741a91.189,91.189,0,0,1,11.279-13.2c1.859-1.781,5.107-2.368,7.843-2.915a4.391,4.391,0,0,1,3.74,1.733c1.128,2.2,3.017,2.762,4.966,3.687,5.374,2.553,8.629,7.141,11.134,12.27a34.021,34.021,0,0,1,2.563,6.887c.524,2.166,1.7,2.673,3.74,2.806q14.583.957,21.91-11.459a155.764,155.764,0,0,0,18.693-48.869c.909-4.526,1.7-9.075,2.625-13.6a5.77,5.77,0,0,0-2.165-6.3c-9.946-7.44-13.4-17.638-12.924-29.538a7.27,7.27,0,0,0-.329-2.662c-5.265,10.429-12.906,17.961-24.559,20.693-11.449,2.68-22.037.029-32.051-5.491q-.126,12.354-.252,24.457c1.184-.749,2.716-1.874,4.384-2.747a11.957,11.957,0,0,1,14.722,2.292,12.349,12.349,0,0,1,1.274,14.786,14.284,14.284,0,0,1-24.181.616c-.215-.312-.453-.609-1.006-1.356-8.89,21.065-27.041,24.783-47.056,24.9.433,3.619.82,6.876,1.265,10.611a52.908,52.908,0,0,1,3.447-4.656,9.411,9.411,0,0,1,2.618-1.453,10.7,10.7,0,0,1-.31,2.831,13.347,13.347,0,0,1-1.759,2.732c-4.932,6.889-6.39,14.7-6.24,22.932a4.547,4.547,0,0,0,.192,1.161,10.781,10.781,0,0,0,.723,1.351c.7-1.573,1.261-2.739,1.737-3.938,3.286-8.3,7.063-16.3,13.9-22.443a15.547,15.547,0,0,1,2.722-2.279,7.11,7.11,0,0,1,2.575-.312c-.025.833.275,1.887-.124,2.467-6.143,8.883-8.419,18.977-9.561,29.42a27.163,27.163,0,0,0,.233,4.54l.705.224m-117.377,278.9c-.188-1.695-.4-3.141-.5-4.6-2.335-35.253-3.076-70.269-5.365-105.524-.059-.9.015-5.017,0-6.031-.149-8.166-.414-16.33-.7-24.489a11.422,11.422,0,0,0-.649-2.463l-.8.111a21.378,21.378,0,0,0-.519,3.345c0,7.379-.163,14.768.2,22.131a35.042,35.042,0,0,1-3.037,15.741c-5.146,12.147-10.858,24.145-14.818,36.672-6.435,20.333-11.666,41.038-17.376,61.6-1.745,6.288-1.7,6.3-8.167,6.682l-17.528,1.038c.927-9.191,1.809-17.913,2.688-26.636a52.379,52.379,0,0,0-3.422,12.821c-.546,4.522-.376,9.126-.524,13.748l-10.873.645c2.981-19.435,5.488-38.635,8.969-57.662,3.357-18.355,7.652-36.545,11.662-54.781,1.922-8.729,4.393-17.345,6.159-26.1a182.737,182.737,0,0,1,14.688-43.213c8-16.635,17.931-31.8,32.6-43.532,3.524-2.815,7.119-5.552,10.766-8.39-1.106-1.03-2.135-1.939-3.114-2.9-7.863-7.727-14.915-16.067-20.185-25.793-.8-1.482-1.358-3.587-3.991-3.413-.692,4.808.945,9.022,2.484,13.25,2.89,7.935,5.837,15.852,8.652,23.812a7.911,7.911,0,0,1-1.034,7.489l-5.021-16.812c-1.407.951-2.4,1.566-3.327,2.254a52.369,52.369,0,0,1-17.458,8.062q-10.182,2.819-20.311,5.83c-9.659,2.872-19.428,5.12-29.56,5.376-10.767.271-19.969-3.219-26.937-11.509-15.88-18.9-19.906-48.643,2.752-70.461a64.835,64.835,0,0,1,22.018-14.4c-.231-3.888-.548-7.5-.637-11.126s-1.956-6.8-1.426-10.7c1.845-13.582,6.839-25.543,17.506-34.535,14.151-11.932,30.672-13.381,48.087-9.436,1.283.29,2.3,1.838,3.377,2.859.687.647,1.134,1.686,1.925,2.071,15.479,7.5,26.212,19.6,33.93,34.474,9.227,17.773,8.282,35.472-1.664,52.664-2.2,3.8-5.608,6.926-8.421,10.316,11.1,5.606,22.44,11.5,35.687,12.507a30.623,30.623,0,0,0,1.106-4.062c.829-6.523,1.756-13.046,2.244-19.6.2-2.655,1.133-3.248,3.59-3.246,5.265,0,10.542-.156,15.8-.486,9.141-.573,18.267-1.34,27.4-2,2.965-.217,5.934-.36,8.849-.532-2.654-11.291-4.948-22.375-5.335-34.087l-4.214-1.245c2.228,10.241,4.606,20.071,4.239,30.265a5.988,5.988,0,0,1-1.154-2.888c-1.333-8.451-2.695-16.9-3.91-25.36a3.545,3.545,0,0,0-2.845-3.212,53.736,53.736,0,0,1-20.973-13.147c-.771-.768-1.016-2.051-1.5-3.094a14.41,14.41,0,0,1,3.216,1.038,25.577,25.577,0,0,1,3.2,2.642,52.708,52.708,0,0,0,26.157,12.05c10.642,1.69,21.223.925,31.738-1.218,11.123-2.27,18.913-8.678,23.886-18.672,5.438-10.932,7.038-22.52,5.739-34.47-1.006-9.284-2.42-18.532-3.948-27.748-1.113-6.717-2.709-13.356-4.1-20.055-1.7,1.532-2.963,3.124-4.6,4.076-10.612,6.166-23.763,0-25.366-11.966-1.217-9.107,4.79-17.352,14.711-15.261,3.611.761,6.961,2.727,10.227,4.063-1.918-8.067-4.488-16.615-9.529-24.446-9.534,4.886-19.512,6.717-29.857,7.159-2.348.1-3.325-.652-3.9-2.827-2.208-8.327-6.626-15.517-12.032-22.16a14.008,14.008,0,0,0-1.806-1.489c.136,2.283.267,4.024.338,5.769.256,6.389.632,12.781.686,19.17.039,4.56-.136,4.963-4.7,5.226-8.82.505-17.664.606-26.5.677-3.62.029-7.242-.46-11-.725-.117,3.515-.253,6.648-.321,9.78-.2,9.148-.356,18.3-.592,27.442a10.816,10.816,0,0,1-.75,2.635,17.527,17.527,0,0,1-2.725-1.4c-.943-.706-1.661-1.693-2.561-2.467-9.547-8.225-20.251-5.817-24.9,5.778A45.849,45.849,0,0,0,3017.362,790c-2.042,14.255,2.358,26.091,14.469,34.479,7.668,5.312,15.3,3.257,19.815-4.807.449-.8.959-1.566,1.448-2.363,2.5,1.179,2.74,2.678,1.462,4.457-1.092,1.516-2.427,2.867-3.447,4.427a5.45,5.45,0,0,0-1.045,3.1c.512,5.977,1.242,11.939,1.847,17.911,1.612,15.954,3.3,31.9,4.73,47.873.481,5.337.286,10.735.393,15.787-8.985,1-17.572,1.971-26.169,2.872a13.852,13.852,0,0,1-3.1-.446c.557-1.96,1.027-3.538,1.451-5.126.432-1.614.893-3.226,1.217-4.862,4.03-20.34.324-39.485-9.144-57.714-5.583-10.743-11.739-21.227-16.728-32.231-7.557-16.671-11.082-34.277-8.792-52.608.609-4.882.371-9.114-1.966-13.536-2.191-4.145-4.608-6.686-9.794-6.94-4.789-.233-9.511-1.874-14.033-2.847,1.412,4.769,3.09,10.1,4.563,15.488,3.051,11.137,5.445,22.384,4.674,34.039-.283,4.3-.868,8.549-3.185,12.367-1.265-.464-2.3-.84-3.286-1.2,1.287-6.468,1.008-11.445-1.224-14.886.238,4,.43,7.223.621,10.445.14,2.418-.757,3.7-3.457,3.377a22.516,22.516,0,0,0-3.819.19c2.119,6.677,4.179,13.019,6.092,19.406.216.724-.4,1.693-.63,2.55-.646-.531-1.632-.943-1.886-1.618-2.416-6.441-4.515-13.005-7.083-19.383-3.9-9.7-9.427-18.409-17.449-25.355-.872-.756-2.55-1.51-3.447-1.177a96.569,96.569,0,0,0-13.677,5.8c-15.153,8.437-30.147,17.157-45.191,25.792a27.277,27.277,0,0,0-2.455,1.763c2.634,5.719,5.128,11.131,7.725,16.762-6.353,1.46-9.706,5.325-10.066,11.264a11.732,11.732,0,0,0,6.34,11.554c5.558,3.063,10.526,1.462,14.98-2.485,3.8,4.712,7.5,9.318,11.295,14.028a19.519,19.519,0,0,1-2.063.249c-19.185.3-43.291-9.743-47.9-37.67-3.8-23.024,6.083-44.037,26.334-54.731,10.377-5.481,21.524-8.691,33.3-7.331,13.094,1.512,23.269,8.868,31.713,18.394,4.458,5.034,8.035,10.835,11.94,16.192a3.992,3.992,0,0,0-.029-1.25c-1.408-5-2.221-10.284-4.407-14.931-7.371-15.67-15.182-31.14-22.927-46.639-6.374-12.756-10.9-25.962-10.526-40.418.417-16.307,6.668-29.6,20.86-38.629,11.224-7.146,23.673-10.624,36.9-11.425,13-.79,23.741,3.945,32.27,13.57a67.921,67.921,0,0,1,13.29,23.541c2.375,7.023,4.086,14.267,6.04,21.227a87.142,87.142,0,0,1,9.024-4.957,48.84,48.84,0,0,1,10.533-3.123c13.679-2.311,26.982-1.768,39.157,5.909a3.2,3.2,0,0,0,2.389.286c9.681-3.153,18.7-1.338,27.175,3.662,9.347,5.513,16.116,13.6,22.152,22.372,1.491,2.166,2.727,4.11-.85,5.158,10.481,21.791,14.264,45.295,19.681,68.374a65.943,65.943,0,0,1,6.036-3.547c19.643-8.917,38.42-7.217,56.345,4.568a5.128,5.128,0,0,0,2.561,1.192c9.915-.488,17.438-4.474,21.611-13.95a71.053,71.053,0,0,0,5.818-28.688,81.985,81.985,0,0,0-15.9-50.027,4.855,4.855,0,0,0-5.494-2.216c-14.609,2.494-29.258,4.764-43.889,7.125-5.078.822-10.146,1.686-15.371,2.557,1.335,8.051,2.612,15.751,3.924,23.67-2.33-.693-4.182-1.419-6.1-1.779-6.492-1.215-11.678,2.191-13.2,8.474-2.622,10.814,7.7,28.479,23.234,22.445,1.215,5.957,2.42,11.87,3.685,18.061-1.244-.057-2.069-.1-3.026-.141a22.749,22.749,0,0,0,.313-2.272,17.59,17.59,0,0,0-.231-2.146c-1.612,4.62-1.612,4.62-4.221,3.637q.429-1.775.859-3.555c-.163-.036-.326-.075-.489-.111-.542,1.222-1.084,2.442-1.607,3.626-3.7-.745-3.7-.74-2.306-3.913.431-.983.792-2,1.184-2.995a6.1,6.1,0,0,0-1.888,2.388c-.44.815-.878,1.627-1.413,2.616-.573-.575-.927-.9-1.244-1.258-11.707-13.213-18.571-28.7-21.878-45.829-1.877-9.71-2.11-19.381,1.591-28.778,12.546-31.842,54.779-40.137,78.522-25.813a48.056,48.056,0,0,1,17.419,18.215c1.6,2.872,1.224,3.558-1.969,3.981-1.841.245-3.677.532-5.9.856,8.921,11.669,14.69,24.308,16.932,38.392a5.041,5.041,0,0,0,.9-.168,9.273,9.273,0,0,0,1.043-.572A73.83,73.83,0,0,1,3297.191,726a5.039,5.039,0,0,1,4.4,1.664,53.068,53.068,0,0,1,14.657,32.84c2.092,26.729-9.208,48.085-28.336,66.063-1.684,1.579-2.77.588-4.25-1,18.87-14.694,28.753-33.907,30.348-56.9-4.844-1.971-9.225-3.537-13.418-5.5-13.118-6.134-26.348-12.073-38.348-20.284a25.833,25.833,0,0,0-3.839-1.8,24.428,24.428,0,0,0-.329,4.181c1.208,12.943-.1,25.477-5.5,37.507-3.629,8.089-9.321,13.577-18.2,15.544-1.009.224-2.011.475-3.434.815,13.684,11.57,21.028,26.22,24.845,42.8,3,13.037,3.475,26.309,3.445,39.612-.009,3.592-.091,7.184-.138,10.864-1.283,0-2.07,0-2.854-.005-9.545-.036-19.087-.1-28.63-.068-.852,0-2.158.365-2.469.958a54.354,54.354,0,0,0-2.33,6c25.169,1.906,39.787,17.971,51.968,37.13a14.652,14.652,0,0,1,2.659-1.926c8.779-3.617,16.184-9.257,22.986-15.644,6.141-5.767,11.646-11.991,15-19.981,2.208-5.248,1.059-9.1-2.436-13.022-2.915-3.282-5.547-6.808-8.315-10.24,10.586-6.855,16.889-19.724,12.589-24.572-.43,9.017-4.213,16.4-12.19,21.59-1.611,1.047-2.611.742-4.071-.539-6.684-5.873-13.439-11.681-20.379-17.253-5.789-4.649-11.907-8.895-17.807-13.408-3.312-2.532-6.143-5.475-7.022-10.019a24.527,24.527,0,0,1,2.915-1.112c9.173-2.182,18.459-3.3,27.825-1.736,23.7,3.945,42.357,20.988,38.794,49.98-2.09,17.027-10.533,30.756-22.743,42.417a94.285,94.285,0,0,1-26.244,18.153c2.312,4.491,4.787,9.076,7,13.781a4.8,4.8,0,0,1-.12,3.683q-3.4,6.9-7.212,13.586c-8.693,15.207-17.98,30.021-31.029,42.063a63.593,63.593,0,0,1-10.95,8.11,25.773,25.773,0,0,1-24.591,1.353c-3.622-1.607-7.287-3.119-11.632-4.972,2.139,5.228,3.758,9.657,5.727,13.928a627.187,627.187,0,0,1,32.049,86.808c2.55,8.714,4.3,17.615,2.7,26.777-2.688,15.445-10.984,28.323-19.452,41.108a2.5,2.5,0,0,1-1.653,1c-4.751.351-9.508.6-14.513.9.952-9.614,4.422-18.111,9.03-26.254-6.945,7.444-11,15.965-10.216,26.1l-90.419,5.364-1.464-24.606c-1.963,3.786-1.453,14.5.625,24.728l-59.187,3.513-2.169-36.466-1.278.07c-1.675,12.211.371,24.317,1.976,36.532l-40.195,2.385" fill="#121314"/>
            <path id="Pfad_1006" data-name="Pfad 1006" d="M3060.509,685.654c-.379-6.353-1.015-12.7-1.07-19.05-.079-8.827,3.164-16.732,7.965-24.043a3.7,3.7,0,0,1,2.312-1.523c16.107-1.867,32.207-3.845,48.35-5.355,7.811-.729,15.711-.473,23.565-.826,2.668-.12,4.161.946,5.39,3.175,5.673,10.294,7.085,21.407,6.437,32.861a65.747,65.747,0,0,1-10.517,31.91c-.667,1.046-1.546,2.236.122,2.831a3.045,3.045,0,0,0,2.722-1.177c3.092-7.1,6.78-14.086,8.77-21.5,4.132-15.393,3.237-30.772-4.313-45.064-7.911-14.981-21.107-23.054-37.885-24.914-29.027-3.221-58.163,16.823-65.666,44.747-1.8,6.693-2.212,13.4.309,20.016,2.294,6.014,7.09,8.75,13.509,7.915" fill="#121314"/>
            <path id="Pfad_1007" data-name="Pfad 1007" d="M3080.778,774.468c-.687-1.485-1.374-2.972-2.174-4.7l-3.085.876c1.925,1.765,3.357,3.078,4.79,4.39l.469-.57m-7.038-3.356c-1.322.393-2.512.751-3.681,1.1,1.142,5.45,3.987,8.338,9.2,8.01a108.913,108.913,0,0,0,17.918-2.7c4.559-1.07,6.741-4.053,7.383-8.238l-2.951-.475c-.651,5.325-4.271,6.966-8.954,7.36-2.874.24-5.73.7-8.6.912-4.685.351-8.418-1.125-10.313-5.97m31.13-4.912c-2.663-7.9-11.7-12.1-22.478-10.807a15.05,15.05,0,0,0-12.936,13.98c11.451-4.6,23.235-4.583,35.414-3.173m-20.592,16.968c-.032-.154.031.154,0,0-.7.041-1.392.061-2.086.127-5.56.534-10.492-.724-13.246-5.889a14.8,14.8,0,0,1,.995-16.2c6.6-9.63,22.644-11.342,32.458-3.5,3.96,3.162,6.361,7.07,5.493,12.283a12.559,12.559,0,0,1-9.314,10.488c-4.633,1.378-9.559,1.665-14.3,2.686" fill="#121314"/>
            <path id="Pfad_1008" data-name="Pfad 1008" d="M2925.646,1008.311c2.67,1.043,5.337,2.089,8.132,3.182-.1,2.41-2.962,4.73-.711,7.81,3.71-1.765,3.524-6.154,6.169-8.858,2.059,1.432,4.139,2.883,6.295,4.386.648-.8,1.3-1.609,2.146-2.662l-4.528-5.33c2.386-1.831,6.283-2.469,6.333-7.007-2.509.7-4.64,1.3-6.984,1.954.472-2.651.9-5.034,1.319-7.417-.281-.079-.557-.161-.836-.242-1.426,2.915-2.849,5.83-4.388,8.976-4.366-3.085-8.455-5.973-12.866-9.087-1.244,3.225.073,4.931,1.673,6.373,1.494,1.344,3.228,2.426,5.252,3.918-2.976,1.109-4.93,1.84-6.886,2.569-.039.479-.08.957-.12,1.435" fill="#121314"/>
            <path id="Pfad_1009" data-name="Pfad 1009" d="M3212.122,738.68c-.241-5.276-3.647-8.424-8.661-8.24-6.2.23-9.962,3.526-9.674,8.421.122,2.094.739,3.307,3.266,2.795,4.288-.864,8.622-1.505,12.929-2.274a16.6,16.6,0,0,0,2.14-.7m-8.285,9.562c-8.437.67-13.829-4.816-12.229-12.391.957-4.531,5.638-7.625,11.905-7.865a10.88,10.88,0,0,1,11.689,10.432c.4,4.956-3.754,9.05-9.878,9.734-.492.052-.991.061-1.487.09" fill="#121314"/>
            <path id="Pfad_1010" data-name="Pfad 1010" d="M3042.015,798.865q-2.988-1.14-5.995-2.288c-.222.365-.449.729-.673,1.1,1.051.819,2.049,1.72,3.166,2.444,4.051,2.621,4.261,3.675,1.383,7.67-.454.627-.905,1.254-1.41,1.958,1.412,1.7,2.575,1.091,3.724-.122,4.962-5.235,3.7-16.042-2.36-19.987-2.631-1.714-5.428-1.492-8.3-.641-3.323.982-4.4-.07-3.674-3.483.813-3.832,3.678-5.461,7.081-4.038q-2.38,2.534-4.781,5.086c.252.285.508.57.762.853,3.486.068,5.7-2.277,8.2-4.99,1.635,1.335,3.149,2.686,4.8,3.856a6.96,6.96,0,0,0,2.294.614c-.019-.863.328-2.031-.111-2.54a16.944,16.944,0,0,0-13.5-6.357,6.327,6.327,0,0,0-5.973,4.182c-1.186,2.859-1.433,5.76.134,8.5.983,1.725,2.6,1.6,4.442,1.064,6.512-1.91,9.842.355,10.794,7.122" fill="#121314"/>
            <path id="Pfad_1011" data-name="Pfad 1011" d="M3233.548,662.092c.028,2.273.053,4.2.077,6.277l3.645-.215.347,5.821c4.835-1.92,3.606-6.088,4.461-9.513,2.106-.846,5.292.4,6.73-3.221-1.419-.774-2.829-1.93-4.427-2.322-2.428-.593-2.892-1.905-2.9-4.141-.018-3.979-.412-7.956-.648-11.933l-1.167-.343a10.38,10.38,0,0,0-1.639,2.469c-1.1,3.553-1.929,7.19-3.1,10.719-.263.794-1.413,1.423-2.288,1.86a28.034,28.034,0,0,1-3.6,1.267c.966.852,1.9,1.739,2.913,2.531a7.631,7.631,0,0,0,1.6.744" fill="#121314"/>
            <path id="Pfad_1012" data-name="Pfad 1012" d="M3114.252,681.109a22.852,22.852,0,0,0,11.451-3.336c4.581-2.616,7.305-6.213,6.482-9.318-.689-2.6-6.931,5.05-13.654,7.089-5.4,1.383-5.8.344-16.286.3-1.8,1.118-1.668,2.811.714,3.617a27.9,27.9,0,0,0,11.293,1.643" fill="#121314"/>
            <path id="Pfad_1013" data-name="Pfad 1013" d="M2883.822,871.645c1.859.125,3.72.234,5.576.374,1.759.133,3.514.3,6.032.516-3.858-2.49-7.131-4.6-10.617-6.842-.725,1.953,2.174,4.551-.991,5.952m-1.929-10.23c1.238.636,2,.978,2.711,1.4,6.612,3.927,13.147,7.985,19.868,11.726,2.022,1.127,2.192,1.874.369,2.954a4.675,4.675,0,0,1-3.16.622c-7.5-1.89-14.969-3.861-22.845-3.159-.687.061-1.412-.32-3.078-.731,1.811-1.191,2.892-1.9,3.853-2.531-2.818-.873-5.769-1.6-8.548-2.747-.97-.4-1.509-1.827-2.246-2.784,1.145-.247,2.332-.824,3.425-.681,3.47.454,6.907,1.179,10.76,1.871-.372-1.989-.667-3.569-1.109-5.939" fill="#121314"/>
            <path id="Pfad_1014" data-name="Pfad 1014" d="M3295.832,791.485l-12.5-9.042c-.46,6.317,5.714,10.793,12.5,9.042m-12.484-11.842c4.476,2.96,8.865,5.787,13.167,8.734,2.275,1.559,3.454.928,4.372-1.487,1.8-4.735-.841-10.486-5.918-12.572-4.8-1.974-9.282.015-11.621,5.325m7.641-8.225a12.816,12.816,0,0,1,13.205,11.731c.386,6.321-3.853,11.328-9.916,11.71a12.739,12.739,0,0,1-13.73-11.794,10.863,10.863,0,0,1,10.441-11.647" fill="#121314"/>
            <path id="Pfad_1015" data-name="Pfad 1015" d="M3265.077,802.268c-2.756,1.973-5.054,3.458-7.9,1.369-.973,2.456.12,4.4,2.611,3.956a23.02,23.02,0,0,0,7.464-3.141c.492-.3.349-2.927-.367-3.687a100.372,100.372,0,0,0-7.707-6.923c-1.335-1.157-2.72-2.252-4.443-3.674,5.42-5.844,10.685-11.524,15.955-17.207l.814.6q-4.182,7.035-8.366,14.069c.252.188.5.378.752.566a36.271,36.271,0,0,0,2.424-2.854c3.207-4.624,6.392-9.262,9.5-13.953a8.025,8.025,0,0,0,.644-2.524c-.993-.063-2.317-.566-2.929-.115a118.743,118.743,0,0,0-10.646,8.478c-3.4,3.157-6.329,6.808-9.595,10.117-1.886,1.912-1.825,3.578.115,5.244,2.251,1.93,4.568,3.788,6.852,5.678,1.512,1.25,3.02,2.5,4.828,4" fill="#121314"/>
            <path id="Pfad_1016" data-name="Pfad 1016" d="M3214.251,761.926c8.28.382,16.025,1.829,23.655-1.474-3.8-5.248-17.73-4.537-23.655,1.474m16.569,3.995c-5.349-.311-9.921-.394-14.434-.933-1.539-.183-4.193-1.589-4.148-2.3.113-1.666,1.156-4.092,2.514-4.7a46.576,46.576,0,0,1,12.027-3.8c4.4-.654,8.976-.138,12.677,2.918,2.811,2.317,2.722,4.879-.573,6.434-2.7,1.277-5.789,1.736-8.063,2.377" fill="#121314"/>
            <path id="Pfad_1017" data-name="Pfad 1017" d="M3245.778,735.345c.213.975.431,1.982.648,2.989q.456.323.914.646l2.439-3c-.182-.283-.363-.562-.544-.842Zm-13.072-10.613a12.785,12.785,0,0,1,11.265-1.58,10.309,10.309,0,0,1,7.916,9.293c.387,3.454-.617,6.4-3.8,7.988-4.438,2.206-9.083,3.048-13.988.473l1.788-2.424c-1.081-.691-2.008-1.279-3.356-2.139,5.394-3.307,11.38-3,16.669-4.821-1.864-6.133-5.576-7.7-16.495-6.79" fill="#121314"/>
            <path id="Pfad_1018" data-name="Pfad 1018" d="M3118.455,750.355a10.17,10.17,0,0,0-.53,2.4c.358,17.436,6.471,32.734,17.657,46.107a16.893,16.893,0,0,0,3.332,2.9c.383.267,1.188-.052,1.8-.1-.091-.516-.025-1.152-.306-1.53-.938-1.26-2.042-2.4-3.015-3.641-9.574-12.227-15.823-25.741-16.5-41.455a26.036,26.036,0,0,0-1.129-4.825c-.437.05-.87.1-1.308.149" fill="#121314"/>
            <path id="Pfad_1019" data-name="Pfad 1019" d="M2917.284,727.166c-1.061.9-1.925,1.629-2.847,2.413q-4.063-2.767-8.04-5.471c-2.439,2.712-2.328,2.911,4.771,9.1-1.947,1.24-3.919,2.494-5.886,3.75.154.362.306.727.462,1.091,1.233.109,2.464.283,3.7.308,1.177.02,2.355-.122,3.749-.206-.043,2.5-.079,4.708-.124,7.326,3.307-1.491,3.25-4.624,4.272-6.932,2.553-.706,5.665,3.023,7.682-1.338-.832-.484-1.562-.957-2.337-1.351-2.756-1.408-5.947-2.5-4.456-6.7.107-.3-.143-.754-.295-1.1a5.592,5.592,0,0,0-.65-.892" fill="#121314"/>
            <path id="Pfad_1020" data-name="Pfad 1020" d="M3198.363,652.1c1.294,3.37,2.715,7.066,4.291,11.162,1.639-2.569,1.632-3.5.294-11.445l6.5-3.32c-.082-.476-.166-.951-.249-1.426l-7.038-.869c-1.515-4.416-3.076-8.97-4.64-13.524-.386.1-.771.2-1.156.3-2.251,4.731.6,9.284.893,13.947l-4.98,2.055c-.02.425-.043.851-.066,1.279,2.009.6,4.015,1.2,6.152,1.84" fill="#121314"/>
            <path id="Pfad_1021" data-name="Pfad 1021" d="M3311.259,938.331c-1.058,2.342-2.117,4.682-3.236,7.165-1.487-.921-2.872-1.86-4.337-2.648a7.973,7.973,0,0,0-2.076-.484c-.1.8-.519,1.754-.22,2.367a33.19,33.19,0,0,0,2.7,4.054l-8.47.5c-.064.322-.125.641-.188.96l10.746,2.892c-.458,2.888-.893,5.645-1.383,8.761,3.675-1.756,3.752-5.226,5.1-8.021l7.122-.423c.072-.353.145-.7.217-1.059-1.466-.892-2.883-1.879-4.413-2.646-1.634-.824-2.3-1.779-1.838-3.723a73.332,73.332,0,0,0,1.022-7.446c-.251-.084-.5-.165-.755-.251" fill="#121314"/>
            <path id="Pfad_1022" data-name="Pfad 1022" d="M3179.156,668.3c-.013-2.881-.027-5.763-.041-8.463l6.515-3.148c-.084-.473-.17-.946-.254-1.419-2.332-.371-4.663-.745-7.335-1.172-1.872-4.108-1.788-9.452-5.669-13.7-2.119,5.337.376,9.907.855,14.741a15.9,15.9,0,0,0-3.085.788,7.675,7.675,0,0,0-1.773,1.679c.653.516,1.229,1.274,1.97,1.491a23.348,23.348,0,0,0,3.824.532q1.887,4.488,3.79,9.01.6-.172,1.2-.341" fill="#121314"/>
            <path id="Pfad_1023" data-name="Pfad 1023" d="M2884.049,739.625c.229-.928.462-1.872.739-3l-4.8-3.358c-.505,1.288-.993,2.526-1.512,3.847l5.572,2.513m-7.161-14.413c4.1,3.97,7.723,7.482,11.347,10.995-1.06.706-.6,2.551.429,4.832,1.469,3.255.369,4.737-4.185,6.229-1.067-5.247-5.816-6.8-10.413-9.13,3.555-1.675,4.006-4.21,3.541-7.148-.288-1.817-.458-3.651-.719-5.778" fill="#121314"/>
            <path id="Pfad_1024" data-name="Pfad 1024" d="M2878.074,893.442c-3.6-.973-6.93-1.871-10.416-2.815-.149.742-.312,1.561-.365,1.828,3.024,1,5.8,1.922,9.053,3,.227-.264.952-1.111,1.728-2.012m-13.832,1.666c.359-1.811,1.283-3.614.819-4.941-.522-1.487-2.3-2.546-3.534-3.788.184-.256.367-.512.551-.765,7.362,2.023,14.726,4.046,22.537,6.194-3.431,2.653-8.384,3.4-9.089,8-4.01-1.67-7.84-3.263-11.284-4.7" fill="#121314"/>
            <path id="Pfad_1025" data-name="Pfad 1025" d="M3075.7,645.078c0,1.607,0,2.729.006,3.965,7.9.389,15.538.763,23.17,1.134,1.986.1,1.868-1.295,1.9-2.608.032-1.378-.05-2.582-1.961-2.571-7.554.05-15.109.057-23.117.08" fill="#121314"/>
            <path id="Pfad_1026" data-name="Pfad 1026" d="M3037.8,634.037c-1.011-1.53-2.029-3.069-3.183-4.812-1.3,1.161-2.652,2.356-4.143,3.68.8,1.9,1.627,3.845,2.441,5.765,1.591-1.51,3.257-3.09,4.885-4.633m3.121.572c-3.033,3.314-6.349,6.94-9.652,10.547-1.668-4.875-3.159-9.234-4.644-13.579,5.367-1.032,5.433-1.159,6.376-6.749.141-.842.981-1.571,1.4-2.209,2.333,4.293,4.484,8.247,6.517,11.99" fill="#121314"/>
            <path id="Pfad_1027" data-name="Pfad 1027" d="M3237.185,753.486c-2.548-6.362-5.168-12.7-7.609-19.1-.975-2.558-1.483-5.287-2.369-7.883-.243-.7-1.1-1.2-1.675-1.793-.5.745-1.5,1.555-1.41,2.225.8,6.025,1.777,12.027,2.738,18.029.048.3.408.555,1.211.722l-.526-8.854c3.08,6.184,3.923,12.86,8.842,17.247Z" fill="#121314"/>
            <path id="Pfad_1028" data-name="Pfad 1028" d="M3134.213,862.121c2.89,1.458,3.972.14,4.373-1.953.535-2.777-.852-4.963-2.7-6.862-1.787-1.843-3.736-3.536-5.493-5.4a14.557,14.557,0,0,1-2.6-3.551c-1.786-3.712.059-6.656,4.184-7.095a7.392,7.392,0,0,0,2.2-1.084c-.745-.516-1.435-1.358-2.248-1.494-4.617-.776-8.731,3.1-7.7,7.6a20.441,20.441,0,0,0,3.524,6.973,42.517,42.517,0,0,0,5.182,5.269c2.2,2.139,3.812,4.384,1.271,7.6" fill="#121314"/>
            <path id="Pfad_1029" data-name="Pfad 1029" d="M3031.443,811.093a8.7,8.7,0,0,0,.9,2.7c2.28,2.961,4.642,5.869,7.112,8.678,1.378,1.564,3.094,2.069,4.307-.208,1.99-3.723,3.847-7.521,5.7-11.312a4.156,4.156,0,0,0,.521-2.261,6.769,6.769,0,0,0-1.149-2.076,7.358,7.358,0,0,0-1.444,1.505c-1.92,3.744-3.765,7.526-5.961,11.953-3.328-3.5-6.2-6.534-9.08-9.563-.3.2-.6.39-.907.584" fill="#121314"/>
            <path id="Pfad_1030" data-name="Pfad 1030" d="M3117.4,647.506c7.258-1.154,13.331-2.07,19.371-3.157.612-.111,1.58-1.419,1.433-1.876-.315-1-1.353-2.644-1.9-2.571-5.8.769-11.585,1.691-17.285,2.962-.721.163-.936,2.567-1.619,4.642" fill="#121314"/>
            <path id="Pfad_1031" data-name="Pfad 1031" d="M2941.141,819.668c5.127-1.521,9.545-3.467,12.213-7.912.5-.847.269-2.13.376-3.212-1.02.009-2.294-.371-3.015.093-3.724,2.4-7.351,4.95-10.9,7.6-.639.478-.727,1.673-1.069,2.537.865.324,1.731.645,2.391.892" fill="#121314"/>
            <path id="Pfad_1032" data-name="Pfad 1032" d="M3087.386,745.807a48.436,48.436,0,0,0-6.51.487c-.791.156-2,1.571-1.874,2.168.2.912,1.4,2.3,2.16,2.291,4.157-.07,8.314-.453,12.46-.838,1.756-.163,3.051-.991,2.7-3.069-.329-1.939-1.677-2.17-3.339-1.91-1.861.29-3.729.525-5.592.785,0,.028,0,.057,0,.086" fill="#121314"/>
            <path id="Pfad_1033" data-name="Pfad 1033" d="M3169.912,737.357c3.2,1.974,6.549,3.816,7.46,7.791-1.643,1.016-3.21,1.985-4.781,2.953.114.3.227.593.34.89l5.651-.335c-1.861,2-3.221,3.46-5.059,5.434,1.424.081,2.808.554,3.765.115a6.4,6.4,0,0,0,2.815-2.833c2.575-5.274-2-13.833-7.838-14.859a8.717,8.717,0,0,0-1.992.1l-.361.746" fill="#121314"/>
            <path id="Pfad_1034" data-name="Pfad 1034" d="M3326.056,806.079c-.6.416-1.193.828-1.841,1.281-.746-.833-1.432-1.6-2.391-2.666-.483,1.159-.821,1.978-1.136,2.732-1.5-.154-2.94-.3-4.379-.451-.175.272-.351.543-.524.815l5.69,4.705c-.818,1.813-1.759,3.907-2.7,6,.206.161.414.321.621.484,1.36-1.72,2.72-3.438,4.152-5.244a10.565,10.565,0,0,0,2.736,1.854,4.071,4.071,0,0,0,2.586-.6c.161-.079-.235-1.276-.387-1.955-.021-.084-.118-.156-.193-.222-2.1-1.756-3.969-3.589-2.23-6.733" fill="#121314"/>
            <path id="Pfad_1035" data-name="Pfad 1035" d="M2986.474,810.717c-1.312,1.143-2.532,2.2-3.751,3.264.252.292.5.588.753.883l3.014.255.259,4.31c2.57-1.116,2.611-1.193,3.037-5.215.728.034,1.965.265,2.04.068.342-.9.773-2.128.41-2.872-.845-1.725-2.493-3.112-3.132-4.878-.6-1.656-.322-3.625-.431-5.459-.254-.015-.505-.031-.759-.049-.27,1.353-.54,2.709-.844,4.218-.77.163-1.6.342-2.987.634.9,1.833,1.684,3.411,2.391,4.841" fill="#121314"/>
            <path id="Pfad_1036" data-name="Pfad 1036" d="M3241.7,775.908c-.431-2.94-1.981-3.929-5.132-3.651-2.985.267-4.975,2.04-4.823,4.552a6.848,6.848,0,0,0,1.029,3.309c2.366,3.478,4.9,6.842,7.444,10.345,1.931-1.358,1-3.076.251-4.379-1.221-2.114-3.021-3.9-4.229-6.025-.744-1.306-.837-2.974-1.224-4.477,1.659-.034,3.316-.095,4.975-.081a8.992,8.992,0,0,1,1.709.407" fill="#121314"/>
            <path id="Pfad_1037" data-name="Pfad 1037" d="M3142.8,745.857c1.1-.7,2.675-1.161,3.214-2.162,1.07-1.985.048-3.4-2.248-3.4-3.269,0-6.535.247-9.8.31-2.008.039-2.38,1.444-2.055,2.786a3.085,3.085,0,0,0,2.244,1.766c2.754.231,5.537.108,8.311.12.111.194.225.389.338.584" fill="#121314"/>
            <path id="Pfad_1038" data-name="Pfad 1038" d="M3113.613,755.744c1.324,11.745,2.933,23.425,8.829,34.126q-3.843-17.2-7.682-34.409c-.381.1-.766.188-1.147.283" fill="#121314"/>
            <path id="Pfad_1039" data-name="Pfad 1039" d="M3273.684,912.4c-3.007-6.967-7.994-12.261-14.325-16.416,2.858,7.091,7.317,12.833,14.325,16.416" fill="#121314"/>
            <path id="Pfad_1040" data-name="Pfad 1040" d="M3263.523,874.567c.066,2.154,2.033,3.73,4.536,3.628,2.733-.113,4.483-1.929,4.32-4.511-.157-2.512-1.689-3.676-4.062-3.757a4.8,4.8,0,0,0-4.794,4.64" fill="#121314"/>
            <path id="Pfad_1041" data-name="Pfad 1041" d="M2938.874,789.44a3.84,3.84,0,0,0,4.346,3.44,4.415,4.415,0,0,0,4.311-4.646,3.921,3.921,0,0,0-4.434-3.685,4.9,4.9,0,0,0-4.223,4.891" fill="#121314"/>
            <path id="Pfad_1042" data-name="Pfad 1042" d="M3294.484,901.353a4.155,4.155,0,0,0,3.833-4.663,3.839,3.839,0,0,0-4.556-3.487,4.453,4.453,0,0,0-4.032,4.873c.295,2.218,2.269,3.58,4.755,3.277" fill="#121314"/>
            <path id="Pfad_1043" data-name="Pfad 1043" d="M2915.657,796.509a4.8,4.8,0,0,0-4.429,4.968,3.686,3.686,0,0,0,4.3,3.424,4.612,4.612,0,0,0,4.246-4.78,3.634,3.634,0,0,0-4.119-3.612" fill="#121314"/>
            <path id="Pfad_1044" data-name="Pfad 1044" d="M3272.042,899.487c1.272-.541,2.87-.77,3.752-1.678,3-3.091,5.8-6.382,8.545-9.7.392-.477.07-1.53.077-2.318-.7.123-1.677-.006-2.051.4-3.69,4.04-7.281,8.171-10.9,12.274.19.339.383.679.573,1.021" fill="#121314"/>
            <path id="Pfad_1045" data-name="Pfad 1045" d="M3116.247,660.237c-.5-2.44-.741-4.115-1.19-5.735-.995-3.59-2.038-7.17-3.2-10.71-.188-.575-1.084-.924-1.655-1.376-.283.559-.931,1.226-.8,1.665,1.5,4.955,3.094,9.88,4.74,14.789.131.387.855.579,2.1,1.367" fill="#121314"/>
            <path id="Pfad_1046" data-name="Pfad 1046" d="M2937.686,806.207c1.716-3.741-3.076-11.717-9.128-16.438-.111.914-.485,1.738-.218,2.159,2.931,4.605,5.964,9.146,9.346,14.279" fill="#121314"/>
            <path id="Pfad_1047" data-name="Pfad 1047" d="M3281.26,882.6c-3.47,1.073-11.884,12.108-11.345,15.465,4.182-5.459,8.326-10.045,11.345-15.465" fill="#121314"/>
            <path id="Pfad_1048" data-name="Pfad 1048" d="M3098.7,652.944l-17.129-.158c4.01,3.254,13.532,3.662,17.118,1.127,0-.322.007-.648.011-.969" fill="#121314"/>
            <path id="Pfad_1049" data-name="Pfad 1049" d="M3136.122,648.074c-5.166-1.263-9.31,1.9-13.972,2.028,2.092,2.7,9.785,1.643,13.972-2.028" fill="#121314"/>
            <path id="Pfad_1050" data-name="Pfad 1050" d="M3247.633,720.205c-.752-3.252-3.574-4.49-6.369-5.592a7,7,0,0,0-6.405.391l12.774,5.2" fill="#121314"/>
            <path id="Pfad_1051" data-name="Pfad 1051" d="M2925.055,796.329c2.572,3.572,5.147,7.146,7.949,11.036.945-3.415-3.083-9.458-7.156-11.561-.265.174-.528.351-.793.525" fill="#121314"/>
            <path id="Pfad_1052" data-name="Pfad 1052" d="M3205.43,720.769c-2.142-4.052-6.773-3.588-10.146.991,3.629-1.086,6.684-3.25,10.146-.991" fill="#121314"/>
            <path id="Pfad_1053" data-name="Pfad 1053" d="M3057.3,845.057c1.691.907,2.645,1.817,3.559,1.779.671-.028,1.935-1.485,1.793-1.978-.257-.879-1.349-2.046-2.149-2.087s-1.682,1.131-3.2,2.286" fill="#121314"/>
            <path id="Pfad_1054" data-name="Pfad 1054" d="M3126.306,861.558c.9.587,1.685,1.338,1.884,1.2a9.406,9.406,0,0,0,2.049-2.224c.045-.066-1.083-1.3-1.226-1.213a22.706,22.706,0,0,0-2.707,2.242" fill="#121314"/>
            <path id="Pfad_1055" data-name="Pfad 1055" d="M2945.135,880.859c5.649-3.085,11.08-6.049,16.56-9.044" fill="#121314"/>
            <path id="Pfad_1056" data-name="Pfad 1056" d="M3224.109,863.726c-6.437-2.15-12.421-4.148-18.4-6.147a5.163,5.163,0,0,0,1.836,6.014c3.566,2.892,12.039,3.15,16.563.133m2.443-4.886c1.233-6.763-2.328-12.824-8.015-14.1-5.587-1.247-10.7,1.863-12.33,7.686,6.707,2.112,13.423,4.228,20.345,6.41m-8.259,11c-9.937.5-16.264-3.864-16.681-11.5-.492-9.035,5.721-16.75,13.881-17.232,7.993-.471,14.618,5.959,15.04,14.6.419,8.612-4,13.716-12.24,14.128" fill="#121314"/>
            <path id="Pfad_1057" data-name="Pfad 1057" d="M3170.394,872.212c12.664,3.707,25.291,7.437,37.565,12.222-5.467,3.5-35.167-6.147-37.565-12.222m39.444,8.8c-2.74-1.012-4.751-1.847-6.818-2.508-8.3-2.65-16.594-5.292-24.924-7.838a26.14,26.14,0,0,0-6.936-1.408,4.866,4.866,0,0,0-3.783,2.019c-.537,1.073-.1,3.117.662,4.226a10.629,10.629,0,0,0,4.084,3.286c9.065,5.509,18.014,9.08,29.492,9.843a15,15,0,0,0,6.435-.3c1.507-.425,3.593-1.817,3.783-3.042.218-1.4-1.376-3.082-2-4.277" fill="#121314"/>
            <path id="Pfad_1058" data-name="Pfad 1058" d="M3190.625,863.866c1.238-2.379,2.475-4.758,4.037-7.759-.515,4.31-.945,7.922-1.374,11.534l.961.31a10.547,10.547,0,0,0,1.338-2.437c1.473-6.089,2.892-12.2,4.2-18.319.168-.793-.383-1.736-.6-2.61-.741.294-1.917.392-2.155.912-2.584,5.6-5.03,11.255-7.471,16.916-.12.276.142.711.226,1.075.279.127.56.251.839.378" fill="#121314"/>
            <path id="Pfad_1059" data-name="Pfad 1059" d="M3231.693,841.889c-.3-5.351-8.844-9.416-14.348-6.473,2.714.581,5.579.744,8,1.851s4.381,3.142,6.344,4.622" fill="#121314"/>
            <path id="Pfad_1060" data-name="Pfad 1060" d="M3187.718,833.874c.739-3.005-.148-4.8-2.439-6.3-3.124-2.048-6.886-1.867-10.334.908,5.08-.415,10.365-1.356,12.773,5.388" fill="#121314"/>
            <path id="Pfad_1061" data-name="Pfad 1061" d="M2987,686.143a3.977,3.977,0,0,0,4.382,3.465,4.743,4.743,0,0,0,4.424-4.959,3.944,3.944,0,0,0-4.322-3.512,5,5,0,0,0-4.484,5.006" fill="#121314"/>
            <path id="Pfad_1062" data-name="Pfad 1062" d="M3006.712,677.119c-1.149,2.248,3.776,17.916,6.412,20.395,1.721-2.854-3.078-18.116-6.412-20.395" fill="#121314"/>
            <path id="Pfad_1063" data-name="Pfad 1063" d="M3008.021,699.042c1.661-3.569-2.153-13.545-6.138-15.786,2.1,5.391,4.048,10.409,6.138,15.786" fill="#121314"/>
            <path id="Pfad_1064" data-name="Pfad 1064" d="M3242.147,957.938c4.146,4.649,4.753,6.785,4.032,14.621,3.364-4.733,1.542-11.572-4.032-14.621m1.816,9.4a20.88,20.88,0,0,0-.39-2.141,8.2,8.2,0,0,0-6.725-6.247c-3.151-.3-5.282,1.245-6.778,3.834a7.74,7.74,0,0,0,.6,9.076,9.859,9.859,0,0,0,9.3,3.452c2.9-.349,4.22-3.042,3.987-7.974m-18.7.584c-.617-7.668,4.436-14.175,11.41-14.691,7.369-.546,13.97,5.613,14.645,13.666.6,7.12-4.909,13.33-12.392,13.971-7.224.618-13.015-4.866-13.663-12.946" fill="#121314"/>
            <path id="Pfad_1065" data-name="Pfad 1065" d="M3208.429,974.295l-10.764-8.008c-2.371,3.6-1.342,9.82,2.033,12.837,3.441,3.081,8.786,2.782,13.714-.869-1.376-1.582-2.505-2.446-4.91-1.224-4.329,2.2-10.114-1.566-10.506-6.883,2.888,2.752,5.6,5.466,10.433,4.147m-15.549-4.427c.29-1.25.739-3.735,1.462-6.138.565-1.886,1.777-2.443,3.575-1.1,6.081,4.547,12.244,8.992,18.285,13.593,2.545,1.94,2.505,2.7-.116,4.608-4.517,3.293-9.463,5.151-15,2.8-5.449-2.309-7.435-6.989-8.2-13.765" fill="#121314"/>
            <path id="Pfad_1066" data-name="Pfad 1066" d="M3205.576,965.033c1.381.908,2.095,1.377,2.587,1.7,3.991-4.479,7.854-8.813,11.714-13.147.249.156.5.31.743.466-1.659,4.979-4.3,9.725-4.574,15.039.293.1.585.211.877.315.336-.7.674-1.4,1-2.11,2.806-6.036,5.648-12.056,8.366-18.128.356-.8.075-1.877.091-2.823-.861.211-2,.145-2.546.675-6.018,5.83-11.943,11.755-18.258,18.015" fill="#121314"/>
            <path id="Pfad_1067" data-name="Pfad 1067" d="M2945.984,936.346c5.451-.519,9.275-5.6,7.845-10.617a4.335,4.335,0,0,0-1.983-2.63c-.594-.256-1.947.645-2.657,1.333-2.269,2.193-4.477,4.458-6.539,6.837a15.74,15.74,0,0,0-1.757,3.379c1.4.584,2.793,1.184,4.207,1.732a2.427,2.427,0,0,0,.884-.034" fill="#121314"/>
            <path id="Pfad_1068" data-name="Pfad 1068" d="M2944.473,915.587c-1.394-2.463-2.892-2.325-4.42-.749-3.151,3.245-6.317,6.486-9.291,9.886-.508.579-.091,1.946-.1,2.949.931-.152,2.2.029,2.738-.507,3.749-3.748,7.35-7.646,11.077-11.579" fill="#121314"/>
            <path id="Pfad_1069" data-name="Pfad 1069" d="M2987.37,864.19c5.762,2.2,10.749-.231,11.966-5.658-3.944,1.865-7.7,3.641-11.966,5.658m-3.572-4.334,13.868-7.234c-2.575-3.917-7.92-6.307-10.629-4.875-3.534,1.872-5.1,7.247-3.239,12.109m6.17,9.39-.014.518a9.344,9.344,0,0,1,1.331.63c1.326.885,4.477.674,3.536,2.892-.95,2.234-3.427.568-4.93-.24-4.4-2.365-8.666-4.99-13.133-7.6,2.867,3.786,5.7,7.53,8.534,11.273-.179.2-.356.4-.535.6a4.946,4.946,0,0,1-1.677-.627c-6.034-5.588-10.357-12.376-13.875-19.7-.233-.486.089-1.238.152-1.867.712.168,1.614.122,2.1.541,1.2,1.023,2.11,2.368,3.3,3.388,2.385,2.042,4.883,3.957,6.5,5.253-.6-1.892-1.882-4.6-2.269-7.421a11.4,11.4,0,0,1,5.24-11.742c4.006-2.632,8.04-1.783,11.744.607a19.768,19.768,0,0,1,5.238,4.7,11.551,11.551,0,0,1-6.927,18.3c-1.416.28-2.878.335-4.32.493" fill="#121314"/>
            <path id="Pfad_1070" data-name="Pfad 1070" d="M2997.576,879.032c-3.842.14-10.821,5.332-11.977,9.139a2.46,2.46,0,0,0,1.31,2.05,4.069,4.069,0,0,0,3.108-.466,93.325,93.325,0,0,0,9.141-8.111c1.433-1.5.544-2.692-1.582-2.612m-9.422,15.1c-4.413.233-6.979-2.386-6.011-6.131,1.452-5.618,9.889-12.376,15.64-12.525,4.177-.111,6.756,3.166,5.526,7.02-1.51,4.74-10.153,11.373-15.155,11.636" fill="#121314"/>
            <path id="Pfad_1071" data-name="Pfad 1071" d="M3008.113,916.787c1.308-4.694-2.31-13.917-5.973-15.9,1.986,5.29,3.847,10.246,5.973,15.9" fill="#121314"/>
            <path id="Pfad_1072" data-name="Pfad 1072" d="M3020.366,893.531c.438-4.329-4.361-11.483-8.316-12.891,2.937,4.556,5.628,8.725,8.316,12.891" fill="#121314"/>
            <path id="Pfad_1073" data-name="Pfad 1073" d="M3008.641,893.35c2.246,4.284,4.49,8.571,6.9,13.168.932-3.606-2.93-11.45-6.9-13.168" fill="#121314"/>
            <path id="Pfad_1074" data-name="Pfad 1074" d="M2992.839,899.082q1.615,4.605,3.228,9.208l.875-.254q-1.377-4.679-2.756-9.354l-1.347.4" fill="#121314"/>
            <path id="Pfad_1075" data-name="Pfad 1075" d="M3147.024,930.574a3.94,3.94,0,0,0-4.508-3.616c-2.736.178-4.581,2.132-4.327,4.581a4.292,4.292,0,0,0,4.894,3.652,4.234,4.234,0,0,0,3.941-4.617" fill="#121314"/>
            <path id="Pfad_1076" data-name="Pfad 1076" d="M3149.545,953.271c1.029-.061,2.559.287,3.006-.247,3.116-3.743,6.045-7.641,8.921-11.57.3-.4-.161-1.342-.267-2.03-.646.19-1.542.176-1.9.6-3.384,4.049-6.677,8.173-10,12.276.08.324.157.643.234.967" fill="#121314"/>
            <path id="Pfad_1077" data-name="Pfad 1077" d="M3166.036,949.422a4.152,4.152,0,0,0,4.59,3.616,4.32,4.32,0,0,0,4.221-4.431,3.862,3.862,0,0,0-4.35-3.787,4.642,4.642,0,0,0-4.461,4.6" fill="#121314"/>
            <path id="Pfad_1078" data-name="Pfad 1078" d="M3156.349,936.061a8.432,8.432,0,0,0-2.115,1.567q-3.631,5.2-7.029,10.558c-.351.557-.088,1.489-.111,2.25.71-.313,1.714-.431,2.081-.971,2.788-4.117,5.454-8.318,8.158-12.494l-.984-.91" fill="#121314"/>
            <path id="Pfad_1079" data-name="Pfad 1079" d="M3135.3,827.183c-13.054.625-21.252-2.508-25.831-5.246a2.56,2.56,0,0,1-1.371-2.237c0-.934.421-2.424,4.066-4.6a4.623,4.623,0,0,1,3.318-.536c2.92.636,12.735,2.641,17.211,2.358,2.734-.2,6.537-2.139,9.894-3.847,3.208-1.634,5.76-2.927,7.573-2.936,3.541-.029,5.286,3.089,5.76,4.939l.145.556-.252.521c-.2.416-5.07,10.114-20.1,11.006-.136.007-.274.014-.412.023m14.885-13.89c-1.056,0-3.783,1.381-6.161,2.592-3.624,1.844-7.727,3.935-11.1,4.184-4.683.392-14.242-1.579-18.12-2.424a1.434,1.434,0,0,0-1.02.163,10.9,10.9,0,0,0-2.262,1.673c4.284,2.449,11.766,5.117,23.623,4.549l.376-.02c11.306-.67,15.964-6.808,17.139-8.7a2.9,2.9,0,0,0-2.478-2.019" fill="#121314"/>
          </g>
        </g>
        <g id="Gruppe_283" data-name="Gruppe 283">
          <path id="Pfad_1081" data-name="Pfad 1081" d="M2963.5,1341.195l-3.072-58.54,42.126-2.205.808,15.388-24.037,1.257.438,8.364,20.938-1.1.746,14.217-20.938,1.1,1.08,20.573Z" fill="#f5a845"/>
          <path id="Pfad_1082" data-name="Pfad 1082" d="M3016.264,1338.434l-3.072-58.54,27.47-1.438a23.763,23.763,0,0,1,11.015,1.855,18.761,18.761,0,0,1,7.8,6.216,17.5,17.5,0,0,1,3.183,9.476,20.783,20.783,0,0,1-2.2,10.977,18.217,18.217,0,0,1-7.165,7.459l13.884,21.33L3047,1336.825l-12-18.911-2.846.149,1.022,19.485Zm15.236-32.917,7.705-.4a6.1,6.1,0,0,0,4.6-1.958,6.687,6.687,0,0,0,1.344-4.81,5.659,5.659,0,0,0-1.86-4.221,7.03,7.03,0,0,0-5.064-1.287l-7.369.385Z" fill="#f5a845"/>
          <path id="Pfad_1083" data-name="Pfad 1083" d="M3075.476,1335.336,3072.4,1276.8l43.8-2.292.768,14.636-26.462,1.385.391,7.442,23.369-1.223.719,13.714-23.368,1.223.425,8.114,27.97-1.464.768,14.634Z" fill="#f5a845"/>
          <path id="Pfad_1084" data-name="Pfad 1084" d="M3147.837,1331.549l-1.361-25.923-24.827-31.408,20.1-1.052,12.967,16.68,10.147-17.889,19.6-1.026-19.738,33.571,1.37,26.091Z" fill="#f5a845"/>
          <path id="Pfad_1085" data-name="Pfad 1085" d="M3177.567,1329.993l20.464-59.772,14.238-.745,26.436,57.318-17.923.937-3.639-8.53-19.264,1.008-2.723,8.864Zm25.626-27-1.434,4.687,10.218-.535-1.917-4.511q-1.431-3.281-2.3-5.372t-1.572-4.322q-.55,2.292-1.235,4.469T3203.193,1302.992Z" fill="#f5a845"/>
        </g>
        <g id="Gruppe_284" data-name="Gruppe 284">
          <path id="Pfad_1086" data-name="Pfad 1086" d="M2963.283,1425.065l-3.072-58.542,42.128-2.2.808,15.388-24.037,1.258.441,8.363,20.937-1.1.746,14.216-20.937,1.1,1.078,20.572Z" fill="#f5a845"/>
          <path id="Pfad_1087" data-name="Pfad 1087" d="M3002.729,1423l20.464-59.771,14.235-.745,26.441,57.317-17.923.938-3.639-8.53-19.263,1.007-2.727,8.865Zm25.626-27-1.432,4.689,10.217-.535-1.917-4.515q-1.434-3.274-2.3-5.369t-1.572-4.321q-.55,2.292-1.235,4.468T3028.355,1396Z" fill="#f5a845"/>
          <path id="Pfad_1088" data-name="Pfad 1088" d="M3068.893,1419.538,3065.821,1361l18.091-.947,1.129,21.495,16.832-.881-1.129-21.494,18.091-.947,3.073,58.54-18.092.947-1.117-21.324-16.834.88,1.12,21.325Z" fill="#f5a845"/>
          <path id="Pfad_1089" data-name="Pfad 1089" d="M3135.306,1416.062l-3.072-58.54,27.47-1.438a23.772,23.772,0,0,1,11.019,1.855,18.766,18.766,0,0,1,7.8,6.216,17.478,17.478,0,0,1,3.183,9.477,20.808,20.808,0,0,1-2.2,10.976,18.2,18.2,0,0,1-7.166,7.459l13.884,21.331-20.186,1.055-11.993-18.911-2.848.15,1.022,19.485Zm15.238-32.916,7.706-.4a6.1,6.1,0,0,0,4.6-1.958,6.687,6.687,0,0,0,1.344-4.81,5.652,5.652,0,0,0-1.859-4.221,7.026,7.026,0,0,0-5.063-1.287l-7.371.386Z" fill="#f5a845"/>
          <path id="Pfad_1090" data-name="Pfad 1090" d="M3206.828,1412.319l-2.265-43.152-18.089.947-.808-15.388,54.772-2.867.808,15.388-18.591.972,2.264,43.153Z" fill="#f5a845"/>
        </g>
      </g>
    </g>
  </g>
</svg>
