<svg xmlns="http://www.w3.org/2000/svg" xmlns:xlink="http://www.w3.org/1999/xlink" width="768" height="1128" viewBox="0 0 768 1128">
  <defs>
    <filter id="card_shadow" x="35" y="35" width="698" height="1050" filterUnits="userSpaceOnUse">
      <feOffset input="SourceAlpha"/>
      <feGaussianBlur stdDeviation="15" result="blur"/>
      <feFlood flood-opacity="0.6"/>
      <feComposite operator="in" in2="blur"/>
      <feComposite in="SourceGraphic"/>
    </filter>
    <clipPath id="clip-path">
      <path id="Pfad_900" data-name="Pfad 900" d="M1259.276,564A19.26,19.26,0,0,0,1240,583.247v889.506A19.262,19.262,0,0,0,1259.276,1492h537.448A19.262,19.262,0,0,0,1816,1472.753V583.247A19.26,19.26,0,0,0,1796.724,564Z" fill="none"/>
    </clipPath>
    <clipPath id="clip-path-2">
      <rect id="Rechteck_23" data-name="Rechteck 23" width="616.818" height="968.755" transform="translate(1219.591 543.623)" fill="none"/>
    </clipPath>
    <clipPath id="clip-path-3">
      <path id="Pfad_890" data-name="Pfad 890" d="M1644.178,543.62l-424.587,25.188v742.409l616.818-36.588V543.62Z" fill="none"/>
    </clipPath>
  </defs>
  <g id="_02_B_artenvielfalt_tom_techno" data-name="02_B_artenvielfalt_tom_techno" transform="translate(-1144 -464)">
    <g id="heroes_card_bg">
      <rect id="bounding_box" width="768" height="1128" transform="translate(1144 464)" fill="none"/>
      <g transform="matrix(1, 0, 0, 1, 1144, 464)" filter="url(#card_shadow)">
        <rect id="card_shadow-2" data-name="card_shadow" width="608" height="960" rx="24" transform="translate(80 80)" fill="#191a1c"/>
      </g>
    </g>
    <g id="_02_B_artenvielfalt_tom_techno-2" data-name="02_B_artenvielfalt_tom_techno">
      <g id="Gruppe_271" data-name="Gruppe 271" clip-path="url(#clip-path)">
        <rect id="Rechteck_20" data-name="Rechteck 20" width="616.818" height="968.757" transform="translate(1219.591 543.62)" fill="#76bbe3"/>
        <rect id="Rechteck_21" data-name="Rechteck 21" width="616.818" height="968.757" transform="translate(1219.591 543.62)" fill="#aa8cbc"/>
        <g id="Gruppe_266" data-name="Gruppe 266">
          <g id="Gruppe_265" data-name="Gruppe 265" clip-path="url(#clip-path-2)">
            <rect id="Rechteck_22" data-name="Rechteck 22" width="704.862" height="340.739" transform="translate(1162.635 1226.641) rotate(-3.004)" fill="#121314"/>
          </g>
        </g>
        <g id="Gruppe_268" data-name="Gruppe 268">
          <g id="Gruppe_267" data-name="Gruppe 267" clip-path="url(#clip-path-3)">
            <path id="Pfad_840" data-name="Pfad 840" d="M1576.274,590.24c-18.027-3.1-34.784.363-49.647,11.641-1.448,1.1-4.93,2.145-1.981,5.133,2.079,2.105,3.307,5.2,7.6,1.991,25.226-18.839,61.182-12.185,79.1,14.311,2.792,4.124,5.005,4.371,9.069,1.369,2.074-1.534.517-2.709-.134-3.854-7.129-12.591-17.739-21.211-30.983-26.8a70.575,70.575,0,0,0-13.022-3.792" fill="#121314"/>
            <path id="Pfad_841" data-name="Pfad 841" d="M1541.187,623.372c-.183,2.053,5.715,6.057,7.412,5.256,15.754-7.46,29.245-3.972,41.161,8.147,3.132,3.192,5.467-.837,7.842-1.88s-.278-2.54-.949-3.465c-11.368-15.642-36.834-20.481-52.752-10.106-1,.656-1.92,1.446-2.714,2.048" fill="#121314"/>
            <path id="Pfad_842" data-name="Pfad 842" d="M1559.892,641.872c-.571,1.747,5.435,8.01,6.841,7.478a55.559,55.559,0,0,0,6.983-3.465c.762-.419.7-1.1.086-1.874-1.9-2.4-10.175-4.027-13.051-2.49a5.624,5.624,0,0,1-.859.351" fill="#121314"/>
            <path id="Pfad_843" data-name="Pfad 843" d="M1688.305,694.324q-1.326-16.231-2.838-32.449c-.54-5.7-1.285-11.384-1.981-17.072-.3-2.43-1.3-4.171-4.191-4.126-14.124.227-28.225.937-42.317,1.872-3.835.254-5.063,1.894-4.739,5.812q1.884,22.7,3.883,45.377a9.383,9.383,0,0,0,7.407,8.845c1.77.473,1.968.98,1.53,2.566a131.542,131.542,0,0,1-6.26,17.575,46.073,46.073,0,0,1-14.779,19.059q1.666.151,3.3.4c9.794-8.435,14.87-20.295,18.687-33.087,1.783-5.973,1.727-5.987,7.951-6.335,2.181-.12,4.359-.258,7.129-.421-6.141,15.458-10.624,31.2-22.472,43.163q1.267.588,2.507,1.281c6.909-7.023,11.209-15.746,15-24.819a149.84,149.84,0,0,0,6.328-16.914c.685-2.419,1.875-3.028,4.21-3.087,5.24-.138,10.474-.566,15.708-.912,5.283-.351,6.362-1.5,5.934-6.733m-8.244-1.523a2.4,2.4,0,0,1,2.208-2.379c1.5.294,2.457,1.111,2.441,2.625a2.045,2.045,0,0,1-2.237,2.261,2.313,2.313,0,0,1-2.412-2.507m-8.18,1.048c-.182-1.548.9-2.384,2.325-2.517a2.545,2.545,0,0,1,2.79,2.019c-.133,1.512-.643,2.659-2.219,2.8a2.45,2.45,0,0,1-2.9-2.306m-8.8.7a2.457,2.457,0,0,1,2.5-2.779c1.449-.111,2.072.953,2.569,2.017-.338,1.6-.959,2.765-2.682,2.91a2.107,2.107,0,0,1-2.391-2.148m-8.813.265a2.212,2.212,0,0,1,2.246-2.614,2.131,2.131,0,0,1,2.5,2.044c.15,1.493-.816,2.387-2.339,2.693-1.312-.095-2.3-.647-2.407-2.123m-7.958,4.441c-2.532,1.17-3.772.355-4.892-.6a9.318,9.318,0,0,1-3.112-6.631q-1.74-20.873-3.479-41.744c-.066-.806-.664-2.182.564-2.295,1.453-.134,1.086,1.41,1.161,2.295,1.033,12.414,1.967,24.837,3.062,37.244.408,4.633.2,9.7,6.7,11.736m33.825-46.751c.012,1.134-1.024,1.084-1.793,1.116-4.433.17-8.867.283-13.3.444-4.738.167-9.475.294-14.2.57-4.144.242-5.6,1.892-5.268,5.989.227,2.743-.56,6.1,3.606,7.136-2.25,1.34-3.86,1.095-4.6-1.29a23.079,23.079,0,0,1-.835-8.949,4.967,4.967,0,0,1,4.878-4.577c9.944-.928,19.931-1.018,29.907-1.36.7-.023,1.591-.027,1.6.921m3.092,6.516c-2.747.437-2.428,2.175-2.149,4.031.463,3.08.907,6.174,1.1,9.277.227,3.6-1.213,5.43-4.744,5.654-8.153.518-16.316.937-24.482,1.109-4.375.093-6.952-2.134-7.668-5.839-.189-.978-.5-2.257.87-2.463,1.224-.179.746,1.118.913,1.777.835,3.275,2.326,4.717,6.077,4.637,7.965-.16,15.926-.554,23.875-1.029,2.815-.168,3.926-1.806,3.5-4.871a63.366,63.366,0,0,1-1.075-10.176c.05-2.127-1.55-1.421-2.584-1.4-8.57.159-17.149.208-25.677,1.245-.811.1-2,.652-2.171-.745-.136-1.1.927-1.14,1.716-1.215,10.05-.96,20.132-1.139,30.219-1.093a2.41,2.41,0,0,1,2.278,1.1m-21,7.94c.78,6-.315,4.83,5.329,4.676,1.609-.043,3.214-.229,4.823-.281.612-.018,1.6-.434,1.623.677.021.871-.827,1.021-1.552,1.066q-4.826.3-9.652.575l0-.075c-3.214.192-6.431.421-9.649.543-.73.027-1.936.086-1.984-.878-.057-1.2,1.174-.76,1.872-.822,2.006-.178,4.019-.291,6.032-.373,1.226-.05,1.827-.473,1.7-1.831-.145-1.512-1.168-1.046-1.99-1.012-1.809.077-3.618.206-5.427.3-.657.036-1.221-.109-1.244-.924s.508-.973,1.174-1c1.711-.073,3.42-.152,5.129-.247.825-.045,1.651-.093,1.573-1.29-.079-1.236-.951-1.059-1.745-1.028-1.41.055-2.817.143-4.225.2-.66.027-1.242-.147-1.219-.944.015-.618.514-.8,1.049-.835,5.626-.328,11.243-.9,16.891-.652.664.032,1.535.12,1.319,1.177-.165.811-.868.659-1.459.661-2.113.009-4.23.1-6.34.012-1.752-.071-2.242.6-2.022,2.306" fill="#121314"/>
            <path id="Pfad_844" data-name="Pfad 844" d="M1648.253,641c3.341-3.076,6.628-6.109,9.921-9.132q4.563-4.2,9.139-8.365c.424-.385.941-.978,1.517-.347.512.564.079,1.116-.374,1.551-.723.7-1.451,1.4-2.2,2.073q-7.959,7.194-15.932,14.372" fill="#121314"/>
            <path id="Pfad_845" data-name="Pfad 845" d="M1688.305,694.324q-1.326-16.231-2.838-32.449c-.54-5.7-1.285-11.384-1.981-17.072-.3-2.43-1.3-4.171-4.191-4.126-14.124.227-28.225.937-42.317,1.872-3.835.254-5.063,1.894-4.739,5.812q1.884,22.7,3.883,45.377a9.383,9.383,0,0,0,7.407,8.845c1.77.473,1.968.98,1.53,2.566a131.542,131.542,0,0,1-6.26,17.575,46.073,46.073,0,0,1-14.779,19.059q1.666.151,3.3.4c9.794-8.435,14.87-20.295,18.687-33.087,1.783-5.973,1.727-5.987,7.951-6.335,2.181-.12,4.359-.258,7.129-.421-6.141,15.458-12.836,33.381-24.684,45.34a5.066,5.066,0,0,0,1.929,1.985c6.908-7.025,14-18.627,17.793-27.7a149.84,149.84,0,0,0,6.328-16.914c.685-2.419,1.875-3.028,4.21-3.087,5.24-.138,10.474-.566,15.708-.912,5.283-.351,6.362-1.5,5.934-6.733m-8.244-1.523a2.4,2.4,0,0,1,2.208-2.379c1.5.294,2.457,1.111,2.441,2.625a2.045,2.045,0,0,1-2.237,2.261,2.313,2.313,0,0,1-2.412-2.507m-8.18,1.048c-.182-1.548.9-2.384,2.325-2.517a2.545,2.545,0,0,1,2.79,2.019c-.133,1.512-.643,2.659-2.219,2.8a2.45,2.45,0,0,1-2.9-2.306m-8.8.7a2.457,2.457,0,0,1,2.5-2.779c1.449-.111,2.072.953,2.569,2.017-.338,1.6-.959,2.765-2.682,2.91a2.107,2.107,0,0,1-2.391-2.148m-8.813.265a2.212,2.212,0,0,1,2.246-2.614,2.131,2.131,0,0,1,2.5,2.044c.15,1.493-.816,2.387-2.339,2.693-1.312-.095-2.3-.647-2.407-2.123m-7.958,4.441c-2.532,1.17-3.772.355-4.892-.6a9.318,9.318,0,0,1-3.112-6.631q-1.74-20.873-3.479-41.744c-.066-.806-.664-2.182.564-2.295,1.453-.134,1.086,1.41,1.161,2.295,1.033,12.414,1.967,24.837,3.062,37.244.408,4.633.2,9.7,6.7,11.736m33.825-46.751c.012,1.134-1.024,1.084-1.793,1.116-4.433.17-8.867.283-13.3.444-4.738.167-9.475.294-14.2.57-4.144.242-5.6,1.892-5.268,5.989.227,2.743-.56,6.1,3.606,7.136-2.25,1.34-3.86,1.095-4.6-1.29a23.079,23.079,0,0,1-.835-8.949,4.967,4.967,0,0,1,4.878-4.577c9.944-.928,19.931-1.018,29.907-1.36.7-.023,1.591-.027,1.6.921m3.092,6.516c-2.747.437-2.428,2.175-2.149,4.031.463,3.08.907,6.174,1.1,9.277.227,3.6-1.213,5.43-4.744,5.654-8.153.518-16.316.937-24.482,1.109-4.375.093-6.952-2.134-7.668-5.839-.189-.978-.5-2.257.87-2.463,1.224-.179.746,1.118.913,1.777.835,3.275,2.326,4.717,6.077,4.637,7.965-.16,15.926-.554,23.875-1.029,2.815-.168,3.926-1.806,3.5-4.871a63.366,63.366,0,0,1-1.075-10.176c.05-2.127-1.55-1.421-2.584-1.4-8.57.159-17.149.208-25.677,1.245-.811.1-2,.652-2.171-.745-.136-1.1.927-1.14,1.716-1.215,10.05-.96,20.132-1.139,30.219-1.093a2.41,2.41,0,0,1,2.278,1.1m-21,7.94c.78,6-.315,4.83,5.329,4.676,1.609-.043,3.214-.229,4.823-.281.612-.018,1.6-.434,1.623.677.021.871-.827,1.021-1.552,1.066q-4.826.3-9.652.575l0-.075c-3.214.192-6.431.421-9.649.543-.73.027-1.936.086-1.984-.878-.057-1.2,1.174-.76,1.872-.822,2.006-.178,4.019-.291,6.032-.373,1.226-.05,1.827-.473,1.7-1.831-.145-1.512-1.168-1.046-1.99-1.012-1.809.077-3.618.206-5.427.3-.657.036-1.221-.109-1.244-.924s.508-.973,1.174-1c1.711-.073,3.42-.152,5.129-.247.825-.045,1.651-.093,1.573-1.29-.079-1.236-.951-1.059-1.745-1.028-1.41.055-2.817.143-4.225.2-.66.027-1.242-.147-1.219-.944.015-.618.514-.8,1.049-.835,5.626-.328,11.243-.9,16.891-.652.664.032,1.535.12,1.319,1.177-.165.811-.868.659-1.459.661-2.113.009-4.23.1-6.34.012-1.752-.071-2.242.6-2.022,2.306" fill="#121314"/>
            <path id="Pfad_846" data-name="Pfad 846" d="M1648.253,641c3.341-3.076,6.628-6.109,9.921-9.132q4.563-4.2,9.139-8.365c.424-.385.941-.978,1.517-.347.512.564.079,1.116-.374,1.551-.723.7-1.451,1.4-2.2,2.073q-7.959,7.194-15.932,14.372" fill="#121314"/>
            <path id="Pfad_847" data-name="Pfad 847" d="M1367.049,654.66a46.367,46.367,0,0,0,10.589,1.179c1.2.048,2.31-.185,3.214,1.152,7.24,10.681,18.054,16.9,29.034,22.891,3.368,1.836,15.867,10.058,19.534,11.984,1.428-.165,1.505-2.553,2.938-2.781-.4-.2-8.545-4.674-8.951-4.9-11.49-6.312-23.492-11.769-33.474-20.505-2.53-2.214-4.957-4.536-6.4-7.756,2.852-.17,5.433-.286,8.006-.492a3.356,3.356,0,0,1,3.1,1.487c5.107,6.193,11.5,10.875,18.354,14.931,6.5,3.852,15.109,9.73,21.746,13.5,1.226-.29,1.773-1.494,2.994-1.806-.523-.238-2.387-1.786-2.928-2.128-8.333-5.246-17.39-9.282-25.541-14.858a55.626,55.626,0,0,1-12.22-10.794c.936-1.473,2.33-.937,3.414-.944,7.965-.061,15.749-1.763,23.637-2.532,8.518-.833,13.9-12.07,10.58-21.01-2.76-7.431-8.4-11.249-16.14-12a4.667,4.667,0,0,1-3.688-1.983c-9.319-12.018-28.549-11.463-36.972,1.143-1.024,1.537-1.643,1.86-3.411,1.559-8.3-1.416-17.161,5.19-18.956,13.917-1.986,9.667,2.813,18.324,11.533,20.741m45.85-34.542a4.48,4.48,0,0,0,4.365,2.675c9.5.555,16.359,10.737,13.537,19.781-1.424,4.558-5.252,7.526-9.364,7.238.172-1.353,1.478-1.5,2.31-2.093a11.054,11.054,0,0,0,4.354-12.926c-1.9-6.231-6.052-9.934-11.483-9.768-2.273.065-3.4-.8-4.578-2.562-4.559-6.815-10.971-9.972-19.249-9.278-1.015.086-2.215.881-3.2-.269,7.369-3.977,19.248-.158,23.313,7.2m-38.874,1.559c1.106-.036,2.859-.676,3.092,1.019.279,2.023-1.664,1.242-2.656,1.389-5.975.885-9.788,4.375-10.808,10.074a15.577,15.577,0,0,0,.549,8.447c.324.86.933,1.919-.284,2.474-1.38.631-1.847-.537-2.387-1.519-.893-1.621-.872-3.4-1.042-5.156-.506-9.268,5.281-16.458,13.536-16.728" fill="#121314"/>
            <path id="Pfad_848" data-name="Pfad 848" d="M1709.518,1145.38c-6.029,9.191-15.424,12.564-19.622,7.143a8.83,8.83,0,0,1,.981.039c9.527,1.554,17.177-5.948,15.622-15.312-.281-1.7-.571-3.4-.716-5.108-.216-2.548-1.224-4.547-4.012-4.465-4.334.127-8.672.509-12.981,1.023-1.456.174-2.131,1.2-1.836,3.053.807,5.086,1.267,10.225,1.838,15.1-2.269,1.4-4.411,2.116-5.626,3.589-3.468,4.21-6.546,8.739-9.808,13.118a7.939,7.939,0,0,1-2.074,2.255c-4.191,2.419-6.034,5.9-5.431,10.73a4.75,4.75,0,0,1-.424,2.682c-1.931,3.587-4.213,7-5.95,10.673a51.638,51.638,0,0,0-3.551,9.961c-.925,3.855.888,7.822,3.37,8.637,2.552.842,5.327-1.084,7.4-4.966q3.556-6.671,7.285-13.251a23.179,23.179,0,0,1,2.43-2.886c.1,1.627.156,2.354.2,3.08.372,6.539,0,13.241,1.39,19.555a18.024,18.024,0,0,1-.29,10.119c-.88,2.639-1.9,5.235-2.761,7.879a55.367,55.367,0,0,0-2.253,7.686c-.512,2.944,2.117,4.879,4.619,3.438a13.629,13.629,0,0,0,6.517-7.193l-2.74-.575c4.084-.566,5.247-2.1,5.594-6.595-2.505-.521-4.98-1.034-7.458-1.546.089-.31.175-.622.261-.932,1.063.359,2.115.762,3.194,1.07,4.093,1.166,4.762.795,5.929-3.15.483-1.634.907-3.3,1.53-4.875.218-.559.946-.919,1.44-1.37q.352.268.707.532c-1.646,5.133-3.291,10.266-5.078,15.841l9.792.631c-1.382,2.691-2.72,5.294-4.336,8.438.932-.308,1.2-.367,1.44-.48,9.075-4.253,14.339-11.694,17.421-20.9.66-1.969,1.646-3.433,3.781-3.877,2.41-.5,2.693-2.032,2.65-4.291-.161-8.8-.041-17.61-.043-26.419,0-7.949.288-15.913-.141-23.842-.319-5.9-2.511-11.189-8.253-14.238m-9.207-13.557c.37,5.226.691,10.456,1.027,15.687a2.316,2.316,0,0,1-.327-.74c-.364-5.43-.707-10.862-1.022-15.789a1.6,1.6,0,0,1,.322.842m-7.423-.826c.4,6.229.8,12.457,1.074,16.769-.51-4.366-1.226-10.527-1.942-16.692l.868-.077m-25.593,65.23c.013.211.025.423.038.636-1.081-.027-2.162-.075-3.243-.075-1.381,0-2.358.068-1.163,1.892,1.281,1.958-.252,2.354-1.972,2.993.193.846.481,2.125.771,3.406-2.2-.27-3.346-1.616-2.446-4.149,1.664-4.685,3.824-9.205,5.948-13.713a8.132,8.132,0,0,1,3.259-3.2l-4.844,10.586c1.378.611,2.516,1.115,3.652,1.62m11.635-16.624c-.726,1.109-2.677,2.273-3.815,2.055a7.356,7.356,0,0,1-4.425-2.946c-1.575-2.5-.827-5.776,1.709-8.888a44.01,44.01,0,0,0-.759,5.25c-.079,2.784,1.743,5.014,3.733,4.661,2.67-.476,2.881-2.628,2.632-4.719a49.775,49.775,0,0,0-1.276-5.523c2.527,2.3,3.88,7.553,2.2,10.11m15.5-3.014c-.163-5.978-.2-11.96-.288-17.98,2.6,3.146,7.883,4.407,7.3,10.382l.927-.306a39.086,39.086,0,0,1,.093-3.981c.166-1.387.558-2.748.925-4.454,5.019,3.5,5.225,14.426,3.312,18.391a2.169,2.169,0,0,1-1.381,1.15,79.025,79.025,0,0,1-9.007.525c-2.469-.056-1.839-2.268-1.877-3.727m5.746,47.825c-2.972-.4-5.674-.767-8.373-1.132.007-.172.013-.341.02-.511,1,.088,2.013.115,3,.274,3.063.491,4.93-.591,5.5-3.782a31.448,31.448,0,0,1,1.287-4.058l1.387.5c-.929,2.863-1.861,5.728-2.826,8.707m13.251-31.2c-8.251.215-16.511.706-24.748.439-4.946-.161-7.051-2.777-7.147-7.476,3.877,6.143,9.629,6.858,15.681,6.607,4.5-.188,8.985-.6,13.48-.908,1.115-.079,2.231-.145,3.348-.215.084.276.168.555.252.833-.288.249-.572.713-.866.72m-.587-9.959c-.222-9.924-.445-19.847-.685-30.574.716,1.267,1.367,1.948,1.5,2.72a76.07,76.07,0,0,1-.813,27.854" fill="#121314"/>
            <path id="Pfad_849" data-name="Pfad 849" d="M1590.292,735.085c-.607-1.888-1.228-5.235-2.713-8.143-3.615-7.089-9.345-11.722-17.61-11.507-8.225.213-13.339,5.294-16.447,12.525a25.98,25.98,0,0,0,5.561,28.293c6.412,6.256,14.767,6.892,21.92,1.519,7.091-5.323,9.23-12.876,9.289-22.687m-3.59.62a4.776,4.776,0,0,1-4.7,5.074,5.427,5.427,0,0,1-5.56-5.45,5.147,5.147,0,0,1,4.706-5.493c2.908-.156,5.519,2.6,5.551,5.869m-20.722,17.821c-4.925-3.528-7.1-8.51-7.509-14.3a19.538,19.538,0,0,1,3.848-13.3c5.8-7.9,17.236-7.08,21.123.577a63.95,63.95,0,0,0-8.01-4.04c-4.422-1.593-8.017.421-10.773,3.8-5.248,6.441-4.94,17.287.514,23.567,3.849,4.432,9.139,5.165,15.393,2.135-2.149,4.592-10.547,4.454-14.586,1.561" fill="#121314"/>
            <path id="Pfad_850" data-name="Pfad 850" d="M1551.7,771.478c5.664,2.055,6.8,1.654,10.268-3.088a1.741,1.741,0,0,0-.469-.364,14.619,14.619,0,0,0-1.843-.568c-7.462-1.562-12.252-6.373-14.613-13.224-4.418-12.82-2.591-25.039,5.272-36.111,3.581-5.043,8.57-8.27,15.062-7.9,3.153.181,6.263,1.1,9.393,1.677-5.771-3.757-12.016-6.864-19.344-5.767-10.043,1.505-15.848,8.255-19.35,17.047a43.771,43.771,0,0,0-.742,30.009c2.664,8.422,7.659,15.128,16.366,18.288" fill="#121314"/>
            <path id="Pfad_851" data-name="Pfad 851" d="M1698.331,797.772c.379-2.437-.682-3.051-2.908-2.836-3.849.369-7.718.526-11.58.772-.012-.192-.023-.387-.034-.579,4.669-.3,9.336-.6,14.207-.908-.215-1.24-.385-2.231-.6-3.5l5.256-.934c-.152-2.366-.29-4.55-.437-6.822-3.91.249-7.559.459-11.2.722-5.116.369-5.052.389-5.358,5.511a9.891,9.891,0,0,1-1.245,2.967c-.385-.113-.77-.228-1.154-.342-.183-2.849-.364-5.7-.571-8.91-2.117.136-3.912.251-5.707.364-4.382.274-4.382.272-4.33-4.4.474,1.374.853,2.481,1.462,4.251,13.46-1.453,26.987-2.911,40.5-4.368-.141-2.223-.241-3.771-.336-5.263-3.1.2-5.977.356-8.853.571-10.42.778-20.842,1.528-31.253,2.433-1.1.095-3.062,1.172-3.042,1.738.283,7.7.845,15.386,1.349,23.26,8.214-1.186,17-2.451,25.844-3.726" fill="#121314"/>
            <path id="Pfad_852" data-name="Pfad 852" d="M1517.986,744.4l11.934-1.689q1.833-11.516,3.43-21.569c-6.324.4-13.238.847-20.317,1.3,1.719,7.611,3.305,14.655,4.953,21.961" fill="#121314"/>
            <path id="Pfad_853" data-name="Pfad 853" d="M1439.4,888.3l-12.616.806c.383,5.977.741,11.568,1.077,16.8l12.616-.8c-.376-5.866-.723-11.293-1.077-16.807" fill="#121314"/>
            <path id="Pfad_854" data-name="Pfad 854" d="M1345.8,853.741c-7.523,3.1-7.489,3.194-5.34,11.1.054.2.367.338.668.6l27.493-8.322c-1.61-7.023-3.153-13.745-4.876-21.266-9.457,3.587-18.349,6.944-27.227,10.336-5.966,2.28-5.957,2.3-3.3,8.66,9.522-2.569,18.557-7.164,28.666-7.843a8.531,8.531,0,0,1-3.64,2.259c-4.144,1.508-8.373,2.8-12.444,4.481" fill="#121314"/>
            <path id="Pfad_855" data-name="Pfad 855" d="M1362.219,830.326c-.308-1.044-.866-2.922-1.532-5.167-4.185,1.426-8.144,2.693-12.048,4.123-10.705,3.918-21.388,7.9-32.08,11.865-7.831,2.9-6.689,1.867-4.461,8.356l50.121-19.177" fill="#121314"/>
            <path id="Pfad_856" data-name="Pfad 856" d="M1348.206,909.674c-.721-5.769-1.39-11.121-2.072-16.587l-11.954,2.055c.664,5.726,1.289,11.112,1.938,16.691,4.195-.751,8.053-1.439,12.088-2.159" fill="#121314"/>
            <path id="Pfad_857" data-name="Pfad 857" d="M1650.563,820.38c-11.313-4.945-22.352-9.773-33.569-14.678-.68,1.426-1.224,2.569-2.045,4.292,2.566.975,4.835,1.842,7.111,2.7a8.8,8.8,0,0,0,2.164.724,11.138,11.138,0,0,0,2.383-.274c-.1.8-.2,1.6-.315,2.544,2.189.9,4.39,1.8,6.684,2.741.125-1.354.215-2.343.333-3.613l3.495,1.621c-.807,1.166-1.468,2.121-2.194,3.173,4.175,1.858,8.326,3.705,12.716,5.661.76-1.146,1.859-2.807,3.237-4.889" fill="#121314"/>
            <path id="Pfad_858" data-name="Pfad 858" d="M1421.758,939.368c3.964-.432,7.444-.813,11.168-1.22-.587-4.954-1.124-9.5-1.691-14.293-3.826.555-7.19,1.046-10.375,1.508.309,4.8.6,9.3.9,14.005" fill="#121314"/>
            <path id="Pfad_859" data-name="Pfad 859" d="M1645.188,827.373l-7.3-2c-5.186-4.174-11.258-5.57-16.852-8.118-.642.946-1.294,1.91-2.1,3.1,7.618,4.166,15.112,8.268,22.73,12.434,1.142-1.756,2.167-3.331,3.52-5.414" fill="#121314"/>
            <path id="Pfad_860" data-name="Pfad 860" d="M1620.455,827.268l18.775,9.533c.621-.912,1.127-1.652,1.684-2.471-1.623-.967-2.906-2.085-4.39-2.508-1.251-.36-2.736.084-4.291.183.215-.5.5-1.172.784-1.824-6.924-4.413-10.066-5.271-12.562-2.913" fill="#121314"/>
            <path id="Pfad_861" data-name="Pfad 861" d="M1596.9,744.8c1.693-.539,3.071-2.067,4.59-3.158-.571-2.865-2.777-5.031-4.941-5.056a4.607,4.607,0,0,0-4.527,4.481c.12,1.868,2.931,4.353,4.878,3.733" fill="#121314"/>
            <path id="Pfad_862" data-name="Pfad 862" d="M1330.659,903.537c-1.193-.658-2-1.159-2.859-1.571-1.8-.871-3.631-1.7-6.068-2.829,1.258,4.16,2.31,7.637,3.518,11.629l5.409-7.229" fill="#121314"/>
            <path id="Pfad_863" data-name="Pfad 863" d="M1694.573,1232.474c-8.906-1.46-8.16-2.34-10.03,4.07,7.915,1.014,7.915,1.014,10.03-4.07" fill="#121314"/>
            <path id="Pfad_864" data-name="Pfad 864" d="M1349.352,935.6c-.838,1.5-2.158,2.917-2.4,4.5-.324,2.114,1.335,3.422,3.4,3.374,2.233-.049,3.838-1.6,3.441-3.748-.283-1.525-1.863-2.808-2.863-4.2-.528.022-1.056.047-1.582.07" fill="#121314"/>
            <path id="Pfad_865" data-name="Pfad 865" d="M1579.276,761.907c-5.327,4.248-12.741,4.988-17.465,10.25,6.845-1.7,12.929-4.667,17.465-10.25" fill="#121314"/>
            <path id="Pfad_866" data-name="Pfad 866" d="M1685,1238.038c-.886.011-1.938,1.485-2.514,2.517-.186.332.753,1.7,1.449,2.039,3.2,1.557,4.925-.892,7-2.35-.066-.334-.132-.669-.2-1-1.913-.451-3.829-1.231-5.735-1.2" fill="#121314"/>
            <path id="Pfad_867" data-name="Pfad 867" d="M1417.751,937.347c.218-7.944-.487-9.736-3.61-9.089.165,2.569.417,4.9.435,7.224.02,2.565,1.126,2.929,3.175,1.865" fill="#121314"/>
            <path id="Pfad_868" data-name="Pfad 868" d="M1438.486,933.837a3.583,3.583,0,0,0,2.19-2.462c.109-.666-1.263-1.571-2.48-2.94-1.013,1.577-2.151,2.578-2.1,3.517.038.722,1.723,2.041,2.391,1.885" fill="#121314"/>
            <path id="Pfad_869" data-name="Pfad 869" d="M1500.634,1019.736a23.956,23.956,0,0,0-1.941-2.53,18.277,18.277,0,0,0-2.167,2.691,5.185,5.185,0,0,0-.743,2.94,12.258,12.258,0,0,0,1.571,5.1c.3.448,2.659-.489,4.592-.9.084.114.22.3.36.494l.572-.482a17.885,17.885,0,0,0-.422-3.472,19.617,19.617,0,0,0-1.822-3.841" fill="#121314"/>
            <path id="Pfad_870" data-name="Pfad 870" d="M1536.517,1024.932a18.578,18.578,0,0,0-2.2-.333c-9.053-.331-18.054.324-27.08.548q.024.825.048,1.654l28.176-.238q.528-.814,1.052-1.631" fill="#121314"/>
            <path id="Pfad_871" data-name="Pfad 871" d="M1513.044,1030.278c3.357,1.939,12.942,1.566,14.844-.476a34.894,34.894,0,0,0-14.844.476" fill="#121314"/>
            <path id="Pfad_872" data-name="Pfad 872" d="M1539.99,1019.383l-10.923.7c3.833,1.808,8.824,1.283,10.923-.7" fill="#121314"/>
            <path id="Pfad_873" data-name="Pfad 873" d="M1540.571,1013.616a1.809,1.809,0,0,0,0-.278c-3-.435-5.759-.865-8.529-1.206a1.429,1.429,0,0,0-1.195.55,1.982,1.982,0,0,0,.2,1.287c3.178-.061,6.354-.2,9.527-.353" fill="#121314"/>
            <path id="Pfad_874" data-name="Pfad 874" d="M1517.433,1070.912c4.059.262,6.478-1.838,9.665-4.314-2.879-.17-5.019-.333-7.163-.414q-18.516-.714-37.04-1.4c-4.773-.181-9.656-.744-13.117,3.952,3.808.188,7.553.394,11.3.552,12.122.516,24.254.84,36.358,1.619" fill="#121314"/>
            <path id="Pfad_875" data-name="Pfad 875" d="M1533.836,1059.026c.014-.254.029-.507.043-.761l-38.805-.841a185.539,185.539,0,0,0,19.328,1.224c6.478.163,12.956.256,19.434.378" fill="#121314"/>
            <path id="Pfad_876" data-name="Pfad 876" d="M1524,1060.87l-11.871-.347c-.013.288-.027.575-.04.865l11.911.179v-.7" fill="#121314"/>
            <path id="Pfad_877" data-name="Pfad 877" d="M1520.468,1064.278q4.987.333,9.975.67c0-.351,0-.7.005-1.055l-9.951-.278c-.011.222-.02.441-.029.663" fill="#121314"/>
            <path id="Pfad_878" data-name="Pfad 878" d="M1490.968,907.192c-3.176,7.964-.356,17.676,6.3,21.136-5.9-6.386-7.274-14.184-3.606-21.3,2.745-5.328,8.307-8.238,13.514-7.125a10.636,10.636,0,0,1,8.452,7.98c1.432,5.224.8,10.271-3.216,14.4-3.307,3.4-8.167,3.68-11.263.722a8.844,8.844,0,0,1-.5-12.461c1.625-1.659,3.581-2.712,5.707-1.062,2.145,1.661,1.494,3.78.338,5.781-.46.8-.968,1.563-1.763,2.84,4.073-.978,5.952-4.226,4.989-7.421-1.1-3.656-4.346-5.346-7.8-4.063-5.263,1.956-7.747,8.272-5.508,14a10.456,10.456,0,0,0,13.41,6.272c5.49-2.157,9.1-8.832,8.618-15.941-.465-6.9-4.454-12.036-10.472-13.5-7.013-1.7-14.282,2.413-17.2,9.737" fill="#121314"/>
            <path id="Pfad_879" data-name="Pfad 879" d="M1607.146,1059.882c-.572,2.7-1.025,4.832-1.478,6.969,3.03-3.169,3.316-4.427,1.478-6.969" fill="#121314"/>
            <path id="Pfad_880" data-name="Pfad 880" d="M1710.206,866.968q.162.736.326,1.473,11.305-2.365,22.6-4.734c-.129-.6-.26-1.209-.392-1.813q-11.271,2.539-22.539,5.074" fill="#121314"/>
            <path id="Pfad_881" data-name="Pfad 881" d="M1582.969,1013.223a30.964,30.964,0,0,0-1.686,12.469,11.692,11.692,0,0,0,12.659,10.284c6.149-.8,9.461-5.3,9.035-12.24-.474-6.552-3.779-11.253-9.6-14.138-4.338-2.15-8.865-.885-10.406,3.625m18,10.172c.376,5.88-2.119,9.415-6.843,9.687s-8.951-3.694-9.307-8.71c-.4-5.585,2.709-10.273,7.04-10.623,5.291-.43,8.695,3.175,9.11,9.646" fill="#121314"/>
            <path id="Pfad_882" data-name="Pfad 882" d="M1455.761,750.452c-2.824-.154-4.765-1.405-5.6-4.087-.958-3.078.247-5.473,3.153-7.7-3.88,1.281-5.5,4.083-4.739,7.312.816,3.468,3.4,5.145,7.185,4.47" fill="#121314"/>
            <path id="Pfad_883" data-name="Pfad 883" d="M1588.458,1029.226c2.24,1.809,4.767,3.112,7.664,1.587a5.243,5.243,0,0,0,2.953-5.923c-3.858,3.313-5.739,3.678-7.84,1.595a5.442,5.442,0,0,1-.107-7.057c1.483-1.763,4.148-1.382,7.687,1.236-.692-3.852-2.856-5.728-6.107-5.73a5.841,5.841,0,0,0-5.861,4.155c-1.5,3.877-.893,8.116,1.611,10.137" fill="#121314"/>
            <path id="Pfad_884" data-name="Pfad 884" d="M1591.948,1020.394c-1.437.966-1.025,4.488.623,5.411,2.983,1.673,4.059-.912,5.664-2.9-2.006-1.6-3.359-4.474-6.287-2.507" fill="#121314"/>
            <path id="Pfad_885" data-name="Pfad 885" d="M1742.641,873.127l-17.6,3.248c.453,2.623.83,4.8,1.263,7.3-1.945.267-3.57.492-5.551.765-.313-4.857-.6-9.306-.889-13.851,5.259-1.05,10.4-2.166,15.572-3.069,2.054-.357,2.745-1.238,2.421-3.257-1.92-11.877-3.788-23.766-5.676-35.651-.347-2.175-1.276-3.128-3.756-2.535q-29.145,6.973-58.35,13.693c-2.589.591-2.979,1.607-2.634,3.974,1.586,10.957,3.035,21.932,4.47,32.908.519,3.973.8,4.169,4.644,3.282,5.49-1.267,11.009-2.4,16.692-3.63.625,4.649,1.176,8.754,1.7,12.656-3.622,1.381-6.866,2.614-10.11,3.85l.474,1.378,10.282-2.759c2.257,4.964,2.974,9.927,1.425,14.927-5.05,16.329-15.884,26.854-32.431,31.726a19.841,19.841,0,0,1-1.036-1.745c-4.579-9.935-9.06-19.916-13.731-29.807a130.806,130.806,0,0,0-23.961-34.153,11.771,11.771,0,0,0-2.831-1.652c3.948,5.989,8.414,11.1,12.074,16.723a141.785,141.785,0,0,1,9.674,17.772c2.457,5.307.655,9.3-4.492,11.567-4.03,1.77-8.1,3.465-12.224,5-2.5.93-5.143,1.494-7.988,2.3,6.442-2.965,12.637-5.635,18.661-8.65,4.588-2.3,5.66-4.936,4.119-9.827-3.772-11.941-10.962-21.784-19.466-30.765-2.707-2.858-3.235-2.82-6.5-.181,9.851,9.515,13.8,21.549,9.474,29.522.08-.665.116-1.082.182-1.491,1.613-10.448-1.245-19.351-9.339-26.324-1-.865-2.6-1.048-4.153-1.639-.016.941-.065,1.1-.011,1.147.551.505,1.118.992,1.68,1.483,7.57,6.634,10.837,14.935,8.824,24.819-2.523,12.382-15.871,18.656-25.679,12.269a4.907,4.907,0,0,1-2.106-3.2c-1.283-19.139,1.666-36.625,19.965-48.525-4.713-1.646-9.2-3.214-13.058-4.558-.794-2.524-.916-5.12-2.242-6.718-3.693-4.454-7.829-8.551-11.934-12.643a4.405,4.405,0,0,0-3.366-1.251c-16.361,3.657-32.688,7.475-49.026,11.237a12.084,12.084,0,0,1-1.9.134c-.081-.4-.165-.795-.249-1.191l26.849-6.878c-.154-2.4-.354-4.644-.429-6.892-.1-3-.478-5.794-3.461-7.5-.358-.2-.292-1.184-.383-1.811-.582-3.988-.442-8.265-1.924-11.882-1.542-3.755-1.272-6.4,2.72-7.575a97.417,97.417,0,0,0,26.977-12.783c13.548-9.092,23.168-21.1,26.951-37.186.988-4.208,1.1-8.619,1.634-13.1,9.652,1.358,19.054,3.725,27.672,8.65,12.34,7.05,18.89,17.721,20.207,31.8a85.892,85.892,0,0,1-3.817,34.013c-6.106,19.462-16.424,36.115-33.213,48.282-1.592,1.15-3.029,2.626-5.463,1.8-.678-.228-1.852,1.016-3.405,1.949-1.641-.657-3.889.6-6.16,4.913,1.584.209,3.157.917,4.261.469,3.937-1.6,8.146-3.012,11.481-5.52,29.2-21.954,41.736-51.608,39.224-87.635-.9-12.846-7.174-23.237-18.038-30.595-9.295-6.294-19.742-9.383-30.731-10.761-2.38-.3-3.149-1.263-3.89-3.307-3.092-8.517-8.733-14.485-17.882-16.432-2.269-.482-4.678-.3-7.276-.441.968,3.372,3,3.888,5.413,4.074,8.033.62,15.686,9.68,15.246,14.933-1.682.4-3.334.8-4.989,1.2q.081.591.163,1.184a9.837,9.837,0,0,0,2.7.537c2.754-.236,3.84,1.043,3.341,3.585-.967,4.922-1.384,10.1-3.273,14.666-7.729,18.685-22.451,29.956-40.963,36.776-3.842,1.414-7.944,2.125-12.176,3.225-.356-2.508-.592-4.167-.859-6.066-3.867.946-3.695-2.17-4.443-4.5a16.807,16.807,0,0,0-1.655.584c-16.537,7.942-33.048,15.949-49.637,23.787-2.335,1.1-1.764,2.42-1.363,4.144a46.451,46.451,0,0,1,.674,4.814c.142,1.155.188,2.322.392,3.463.918,5.09,2.749,10.2,2.581,15.248-.183,5.486,2.059,9.929,3.523,15.042,9.495-2.39,18.82-4.737,28.143-7.087.127.36.251.718.378,1.078a20.428,20.428,0,0,1-2.636,1.093c-13.831,3.58-27.633,7.278-41.53,10.585-3.808.905-5.85,2.693-7.047,6.31a101.347,101.347,0,0,1-4.352,9.773c-.888-.412-1.14-.453-1.269-.6-7.185-8.123-28.152-17.185-28.456-17.3-.217-.079-5.306-2.713-7.432-3.956q-.993-.543-1.965-1.147c-.043-.028-.086-.053-.132-.08a24.075,24.075,0,0,1-2.958-2.043c-.714-.535-2.334-1.843-2.405-1.908-9.3-8.567-15.844-18.46-14.506-31.811.528-5.28,2.3-10.963,7.1-13.048,5.538-2.405,12.068-6.393,18.072-.065a5.027,5.027,0,0,0,1.591.744l.34-.416c-1.4-1.609-2.806-3.216-4.522-5.185l4.5-.887c6.394-2.047,12.768-4.169,19.215-6.043.825-.24,2.108.7,3.044,1.3,8.452,5.43,16.875,10.907,24.949,16.137-3.563,2.141-11.451,3.481-18.634,2.18a140.413,140.413,0,0,1-15.2-3.954c-4.089-1.227-13.135-5.925-15.771-9.4-.737-.967-2.612.156-2.94.923.918,5.38,8.844,8.051,14.572,10.2,16.25,6.1,31.588,7.412,47.734-1.362,17.7-9.619,36.334-17.514,54.586-26.1,3.255-1.535,5.748-3.495,5.41-7.482a8.06,8.06,0,0,0-1.024-2.336c-.481.688-1.272,1.331-1.383,2.075-.424,2.811-1.668,4.81-4.554,5.618-1.394-3.266,1.641-4.937,2.779-7.44-7.289-1.534-13.23-5.1-16.746-11.359-2.632-4.685-4-10.074-6.047-15.1-.447-1.1-1.469-2.859-2.133-2.818-3.725.233-7.419.923-10.957,1.435-.005,6.083.013,11.762-.021,17.438-.032,4.968-2.473,8.311-7.06,10.124-4.289,1.7-8.51,3.623-12.9,4.993q-35.809,11.156-71.7,22.046c-15.756,4.753-31.675,8.757-48.242,9.683-4.551.253-7.62-1.1-9.814-5.066-11.3-20.4-18.2-42.04-19.192-65.483-.27-6.353,2.294-10.164,8.013-12.315,13.749-5.167,27.268-11.081,41.28-15.385,21.221-6.519,42.743-12.075,64.219-17.731,7.879-2.075,15.953-3.5,24.006-4.791,5.839-.935,10.559,1.394,13.607,6.6,2.167,3.7,4.429,7.365,6.317,11.21,2.111,4.3,3.845,8.779,5.527,12.677,6.976-.686,13.6-1.406,20.234-1.942a4.529,4.529,0,0,0,4.107-2.3c7.834-12.355,20.253-15.922,33.585-9.863,1.263.572,2.505,1.186,3.754,1.778l.671-.405c-1.653-3.417-3.119-6.941-4.994-10.234-8.11-14.243-18.423-26.146-34.367-32.1-19.128-7.143-38.748-7.722-58.475-3.768-23.58,4.725-41.351,17.827-53.253,38.795a6.309,6.309,0,0,1-3.3,2.623c-5.827,1.851-11.759,3.372-17.61,5.158-16.845,5.144-33.4,11.049-49.3,18.7-4.354,2.1-6.589,5.319-6.673,10.092-.043,2.363-.177,4.728-.084,7.086.474,11.917,3.516,23.321,7.068,34.615a128.452,128.452,0,0,0,12.945,29.364c2.114,3.42,5,5.8,9.207,5.416,7.6-.693,15.193-1.467,22.732-2.582,5.164-.763,10.232-2.162,15.574-3.325-10,17.6-3.338,31.894,8.43,45.415-.077.022,2.416,1.908,2.92,2.24,4.56,3,16.281,9.57,17.437,10.092a41.046,41.046,0,0,1,11.123,4.645l.038.029c5.844,3.074,11.547,7.731,13.045,10.85-3.1,4.742-6.336,9.049-8.9,13.723-8.944,16.282-13.153,33.951-14.393,52.345-.34,5.017-1.838,8.625-6.9,10.264-1.824.59-3.481,1.681-5.281,2.374a55.171,55.171,0,0,1-17.877,3.931c-.179-4.621-.324-9.13-5.488-10.472-6.131-1.593-9.808,2.354-13.3,6.776-5.417-2.806-9.225-6.826-10.984-12.7,2.6-.827,4.973-1.58,7.348-2.334q-.159-.564-.319-1.125c-2.455.324-4.91.65-7.879,1.041.272-3.983.521-7.641.768-11.284,8-1.164,15.55-2.341,23.125-3.314,2.595-.333,3.307-1.419,3.209-3.988-.4-10.422-.616-20.856-.741-31.287a5.013,5.013,0,0,1,1.58-3.42c2.153-1.872,3.124-4.282,1.97-6.586a8.943,8.943,0,0,0-4.837-4.052c-2.469-.8-4.747.485-6.281,2.857a4.58,4.58,0,0,1-2.577,1.971c-9.514,1.792-19.052,3.436-28.585,5.113-5.894,1.036-11.787,2.062-17.857,3.123.231,13.836.487,27.261.655,40.687.032,2.481,1.129,3.252,3.425,2.874,2.516-.414,5.043-.774,7.2-1.1.447,6.96.868,13.541,1.292,20.157l-10.583-.378c.766,5.606,1.46,10.651,2.142,15.7.308,2.27,1.7,2.786,3.7,2.282,2.9-.729,5.787-1.478,8.972-2.3,5.378,13.7,15.01,21.641,30.52,21.385a46.311,46.311,0,0,0,7.342,26.879c-5.4,4.316-10.692,8.216-15.576,12.573-2.748,2.451-4.788,5.683-7.215,8.5a15.312,15.312,0,0,1-3.45,3.37c-3.679,2.175-7.8,3.694-11.22,6.194a12.2,12.2,0,0,0-4.5,13.809c2.557-5.527,4.472-7.1,8.3-5.462,12.256,5.256,16.272,14.2,10.495,25.772-1.428,2.861-2.974,3.11-6.15,1.435.714-1.869,1.453-3.757,2.154-5.658.21-.577.6-1.6.428-1.729-2.7-1.9-.7-3.68.059-5.21-1.244-.435-2.779-.489-3.441-1.277-4.438-5.278-4.964-5.239-11.342-4.424-3.582.455-7.578,1.143-10.783-1.954-1.129-1.093-2.808-1.593-4.1-2.553-7.561-5.633-15.839-4.648-24.208-2.643-1.432.344-3.243.781-4.016,1.815a11.779,11.779,0,0,0-2.195,5.609c-.138,1.346,1.027,2.826,1.61,4.245.263-.108.528-.217.793-.323-1.33-5.663-1.33-5.663,2.892-8.11,5.6-3.245,5.966-3.109,8.231,3.042.256.695.521,1.383.65,1.725l-13.307,5.826a2.613,2.613,0,0,1-1.437,1.344,9.3,9.3,0,0,1-1.229.4,14.084,14.084,0,0,0-1.442.613q.6,5.171,1.15,10.343a38.677,38.677,0,0,0,3.005,3.592c2.348,1.476,4.674,3.006,7.17,4.31a20.249,20.249,0,0,0,4.343,1.645c3.644,0,7.3-.226,10.932-.163a3.937,3.937,0,0,1,2.758-.785c4.837-.267,9.7-.408,14.5-1.039,5.925-.781,12.122-1.2,15.327-5.758,3.994.122,7.33.96,10.184.129a34.752,34.752,0,0,0,10.8-5.45c6.293-4.683,8.414-11.411,5.642-18.627-2.276-5.923-5.961-11.307-9.071-16.9-.755-1.358-1.709-2.61-2.571-3.913.37-.231.742-.464,1.111-.7,3.269,5.1,6.662,10.131,9.774,15.327,3.563,5.951,5.163,12.249,2.278,19.03-.041.1.19.31.648,1.01,21.833-9.873,41.949-23.063,63.272-34.651.288,4.5.385,8.781.882,13.014.505,4.3.448,8.107-4.531,9.772a.834.834,0,0,0-.5.39c-.537,1.643-1.385,3.3-1.369,4.947,0,.589,2.069,1.272,3.271,1.707a23.872,23.872,0,0,0,3.6.663c-.465,5.744-.925,11.409-1.41,17.386,2.741.114,5.451.224,7.723.317-3.212,70.361-4.237,140.292,1.863,210.356,14.307-.912,27.941-1.889,41.507-2.614l-.014.172,16.846-.7-.007.195.168-.2,2.271-.093.232-12.675c.5-10.809,1.011-21.619,1.405-32.432.626-17.181,1.145-34.364,1.659-51.547.245-8.166.308-16.334.633-24.495a5.205,5.205,0,0,1,1.7-3.64c1.682-1.186,3.813-1.736,6.027-2.668.585,1.693,1.258,3.264,1.666,4.9,1.118,4.472,2.056,8.992,3.185,13.462,3.853,15.291,7.534,30.629,11.7,45.834,5.215,19.018,10.891,37.912,16.249,56.892.678,2.4,1.841,2.829,4.126,2.673,17.63-1.213,35.269-2.3,52.9-3.431,1.015-.066,2.028-.222,4.039-.448-1.516-1.669-2.471-2.719-3.076-3.384.177-.862.639-1.722.449-2.4-3.547-12.561-7.607-25-10.667-37.672-3.52-14.58-6.793-29.278-9.008-44.1-1.954-13.052-2.366-26.338-3.314-39.528a11.351,11.351,0,0,0-.51-2.786l-.219-3.515c.045.016.088.031.131.05-.073-.471-.143-.933-.215-1.4l-.03-.455-.041,0c-2.026-13.027-3.98-25.6-5.941-38.206l.059-.016-.167-.681q-.211-1.371-.426-2.743c-.082.016-.157.031-.238.05l-.168-.682c.022,0,.043-.006.063-.009a17.878,17.878,0,0,0-.437-2.077c-.091-.227-.195-.449-.306-.677l-.911-3.7a1.987,1.987,0,0,0-.322-1.3l-.148-.593-.21.052-.039-.056c-43.094,10.757-86.745,13.89-131.285,11.758q1.329-13.4,2.461-24.8c41.7-2.211,82.75-4.388,124.012-6.579,6.009,14.49,14.665,50.259,17.752,71.06,2.38,16.036,5.4,31.985,8.419,47.919q5.314,28,11.17,55.9c1.976,9.441,4.458,18.777,6.823,28.131.235.932,1.246,1.666,1.9,2.492-3.192-16.726-6.843-32.918-10.15-49.182-3.017-14.838-5.742-29.737-8.448-44.636-2.516-13.847-4.7-27.755-7.288-41.588-2.547-13.609-5.14-27.22-8.25-40.707-2.38-10.321-5.6-20.451-8.521-30.951,4.411-.511,8.77-1.158,13.154-1.473,2.8-.2,3.747-1.245,3.246-4.051-.633-3.565-.939-7.188-1.4-10.918,4.334-1.2,8.353-2.37,12.408-3.409,2.124-.543,3.2-1.514,3.277-3.929.352-10.413.873-20.82,1.4-31.224.245-4.81.653-9.61.986-14.415a6.55,6.55,0,0,1,1.444,3.024c5.912,23.4,12.041,46.741,21.354,69.084,2.288,5.486,5.08,10.762,7.691,16.239l3.21-2.245c-.794,1.646-2.711,2.847-2.813,4.185-.385,5.024-.118,10.092-.225,15.141-.036,1.743.814,2.311,2.3,2.363,1.811.061,3.624.052,5.447.075a70.317,70.317,0,0,0,2.316,8.589c.556,1.383,2.165,2.342,3.3,3.495.32-1.392.651-2.784.943-4.181.037-.172-.136-.385-.231-.631-3.144-.208-2.9-2.784-3.425-4.893-.471-1.888-1.11-3.733-1.736-5.8,6.338-3.689,27-5.165,31.078,0-2.192-.418-4.148-.794-6.766-1.294,2.772,2.526,4.053,6.885,3.223,8.831-.75,1.752-1.253,3.61-1.863,5.421l1.426.421c5.218-2.368,1.167-7.349,2.675-10.891,4.3-1.822,4.322-1.825,3.667-7.1-.716-5.76-1.53-11.508-2.183-17.277a9.191,9.191,0,0,1,.549-3.235c.39-1.464,1.355-2.922,1.271-4.338a46.912,46.912,0,0,0-1.382-8.248c-4.234-17.522-8.453-35.049-12.836-52.535-3.575-14.252-7.476-28.4-15.6-40.164-2.777.609-5.306,1.2-7.852,1.708-1.908.383-4.012.279-5.728,1.057-8.887,4.038-17.668,8.316-26.517,12.439a23.151,23.151,0,0,1-3.849,1.051c-.084-.279-.17-.555-.254-.831a10.08,10.08,0,0,1,1.433-1.018c8.982-4.33,18.033-8.531,26.934-13.021,2.784-1.406,5.327-2.282,8.539-1.82,4.726.679,6.974-2.426,5.351-6.869q-.551-1.51-1.131-3.01c-1.874-4.864-3.756-9.725-5.22-13.514,3.153-3.879,5.692-7.125,8.378-10.246a14.278,14.278,0,0,1,4.064-3.687c11.311-5.57,21.939-12.167,29.661-22.286,9.677-12.679,11.953-26.574,4.949-41.412a9.876,9.876,0,0,1-.449-1.788l4.9-.312,2.23,8.693c5.909-1.172,11.435-2.27,17.088-3.39-1.165-6.274-2.255-12.145-3.413-18.378m-234.573-94.5c-5.589,4.307-30.477,13-35.28,11.964,11.61-3.936,23.219-7.874,35.28-11.964m14.253-114.309c-20.343-1.584-34.936,9.4-48.613,22.123a20.015,20.015,0,0,1-9.237,5.231c-12.688,3.1-25.312,6.459-37.98,9.727,8.938-27.616,61.558-48.04,95.83-37.081m-193.4,427.31c-1.122-1.956-2.244-3.911-3.448-6.007,3.638-.758,4.848,1.154,3.448,6.007m-7.6-11.192c3.753-3.074,8.479-2.012,12.99-2.927.011.779.02,1.483.029,2.094l-13.019.833m11.879,10.015c-.011-1.636-1.181-4.106,2.482-3.673.109,1.706.216,3.365.333,5.219-1.346.455-2.8.916-2.815-1.546m2.668-18.326c.259-.654.329-1.557.809-1.917,1.916-1.433,1.8-3,.819-4.9a6.289,6.289,0,0,1-.213-2.291c.693.5,1.738.847,2.019,1.517,1.3,3.109.313,5.855-3.434,7.595m10.048,20c-4.281,1.586-5.084,1.093-5.136-3-.018-1.566.011-3.135.02-4.844l5.6-.357c-.17,2.867-.329,5.572-.483,8.2m10.656.135-6.329.406c-.657-6.833-.4-7.116,6.386-7.338-.019,2.309-.037,4.606-.057,6.932m4.4-1.068c.136-2.922.256-5.529.381-8.2,1.947,1.688,1.847,4.832-.381,8.2m8.257-3.675c1.079-1.625,2.031-3.205,3.126-4.683,2.262-3.056,2.065-4.991-.977-7.093a22.885,22.885,0,0,0-3.1-1.528q-4.128,2.4-8.25,4.805c-.141-.253-.279-.507-.418-.76,2.442-2.2,5.132-3.925,8.673-4.056.412-.451.8-1.263,1.24-1.29,2.822-.184,6.811,4.325,6.759,7.489a7.172,7.172,0,0,1-7.052,7.116m19.541-28.271c-1.65-.355-3.513-.346-4.9-1.152a4.55,4.55,0,0,1-2.045-5.617l7.126,5.812c-.061.319-.12.638-.181.957m2.292-2.922c-2.505-1.887-4.819-3.635-7.174-5.411,4.429-2.022,7.378.183,7.174,5.411m6.482,13.317c1.283.07,2.489,1.542,3.729,2.383-.753,2.8-1.2,4.742-3.779,4.731a2.933,2.933,0,0,1-3.232-3.212c-.013-2.229,1.007-4.029,3.282-3.9m292.366,42.3a4.671,4.671,0,0,1-4.289-4.776l8.931,3.035c-.741,1.761-2.618,2.069-4.642,1.741m5.789-4.407-8.244-2.865c-.066-.356-.129-.711-.2-1.066,1.965-.127,4.1-.767,5.846-.211,1.337.428,2.19,2.372,3.257,3.642l-.664.5m-8.464-77.737,1.17-.065c.63.93,1.777,1.876,1.75,2.786-.03.932-1.206,1.831-1.879,2.745-.846-.835-2.151-1.559-2.392-2.542-.2-.817.853-1.937,1.351-2.924m20.736,52.662c-.329.1-.66.2-.991.3-1.582-5.317-3.257-10.608-4.721-15.959-1.5-5.475-2.784-11.011-4.18-16.515-1.419-5.606-2.881-11.2-4.286-16.812-1.383-5.511-2.8-11.017-4.046-16.56-1.2-5.307-3.706-10.316-4.565-15.7.659-.125,1.321-.249,1.981-.376,9.6,26.521,13.792,54.439,20.808,81.625M1683.7,994.923c.467.075.936.15,1.4.222-.254,1.095-.209,2.413-.823,3.241a6.617,6.617,0,0,0-.918,6.894,121.146,121.146,0,0,1,3.754,11.59c1.521,5.758-.1,10.239-4.967,12.163-11.013,4.348-22.7,4.986-34.317,5.787l-.265-1a23.807,23.807,0,0,1,2.9-.774c7.771-1.079,15.588-1.885,23.311-3.223,11.131-1.926,13.661-6.457,10.071-17.207-.744-2.232-1.539-4.452-2.462-6.614-1.852-4.336-.338-7.824,2.31-11.081m-40.639,14.7q14.235-6.773,28.494-13.505c3.123-1.466,5.358-.946,6.387,1.313a4.79,4.79,0,0,1-3.007,6.26c-10.182,3.993-20.434,7.8-30.682,11.627-.521.194-1.231-.116-1.852-.188-.047-.294-.1-.591-.147-.885,4.406-1.743,8.794-3.542,13.223-5.219,5.62-2.13,11.277-4.147,16.905-6.249.9-.333,2.083-.645,2.491-1.342a16.316,16.316,0,0,0,1.177-3.918c-1.05.043-2.235-.224-3.124.172-9.5,4.228-18.956,8.567-28.433,12.855-.911.412-1.881.691-2.824,1.03-.12-.289-.24-.581-.36-.871a18.729,18.729,0,0,1,1.752-1.08m75.561-167.994c1.233-4.235,1.233-4.235,5.223-.224-3.394-1.781-4.126-.023-4.962,2.014a12.461,12.461,0,0,1-2.629,3.97c-2.7,2.714-6.216,1.756-7.519-1.84,4.737,3.379,8.158,2.032,9.887-3.92m-10.071,3.7c-2.078.378-4.166.661-6.2,1.17a3.428,3.428,0,0,0-2.067,1.446c-1.2,2.381-2.174,4.875-3.221,7.331-1.387,3.257-2.366,3.393-5.7-.118,3.2,1.972,4.72,1.2,5.4-1.385a32.814,32.814,0,0,0,1.193-6c1.278-.777,3.545-.958,2.55-4.061,4.077,2.728,5.27,2.562,8.565-.633q-.258,1.127-.517,2.254m-21.216-8.315q8.715-2.265,17.49-4.287c.546-.127,1.233.342,1.854.534-.372.611-.632,1.639-1.129,1.77-5.913,1.557-11.863,2.983-18.314,4.567l-1.5-1.057c.531-.525.977-1.364,1.6-1.527m-5.362,16.666c.34-.891-.05-2.059-.132-3.345,2.484-1.129,2.308,5.09,5.807,2.01-.641-.665-1.235-1.283-2.2-2.284,1.82.3,3.18.528,4.749.79.036.573.1,1.48.145,2.259l-10.134,2.813a7.714,7.714,0,0,0,1.768-2.243m-7.422,24.442c-.346-1.675-.682-3.294-1.09-5.26l61.459-13.075c.131,2.037.238,3.711.355,5.549-20.143,4.239-40.249,8.474-60.724,12.786m42.145,6.857-17.438,3.284c-.752-4.282-1.48-8.424-2.248-12.792,6.435-1.349,12.577-2.634,18.824-3.945.288,4.473.558,8.705.862,13.453m-143.97-24.848,23.539-1.505c-2.71,2.648-4.923,4.481-6.743,6.645-6.084,7.231-8.407,16.087-10.266,25.045-3.028,14.6-3.443,29.246.984,43.643,3.8,12.342,10.583,22.692,22.687,30.16-1.475-.373-2.189-.362-2.647-.7-3.008-2.227-6.558-4.051-8.822-6.89-8.457-10.592-16.352-21.63-19.407-35.2-3.656-16.235-3.208-32.259,3.889-47.572,2.174-4.69,5.452-8.868,8.444-13.63l-11.649.743c0-.247-.007-.494-.009-.74m-5.333.7c.047.357.095.713.143,1.07-7.646,4.258-16.184,1.8-24.222,3.121-.05-.384-.1-.767-.152-1.152q12.114-1.516,24.231-3.039m-5.363,63.406c-1.623,1.405-2.475,2.677-3.525,2.874-.766.14-1.795-1.138-2.709-1.783.789-1.062,1.385-2.51,2.439-3.036.592-.294,1.945.942,3.8,1.945M1533.061,835c1.178-2.238,11.85-4.859,21.039-5.069-6.911,1.665-13.822,3.329-21.039,5.069m19.212-20.381c-4.787.944-8.9,1.754-13.269,2.617,1.62-2.9,9.758-4.6,13.269-2.617m-7.614-20.353c.354,1.754-1,3.356-2.94,4.291-4.5,2.161-9.11,4.087-13.672,6.106-.066-.156-.132-.312-.2-.471,5.62-3.317,11.241-6.635,16.81-9.926m-49.54,21.039,25.035-7.736c.043.127.089.252.132.378-7.188,2.965-14.4,5.869-21.545,8.933-2.167.931-2.847-.289-3.622-1.575m3.282,6.07c1.861-.984,3.654-2.127,5.592-2.924,11.492-4.732,23.034-9.343,34.521-14.089,3.019-1.249,5.9-2.836,8.84-4.268.22.332.44.663.657,1-2.6,1.505-5.075,3.34-7.838,4.458-11.12,4.5-22.338,8.755-33.5,13.148-2.661,1.045-5.254,2.263-7.879,3.4-.132-.24-.261-.482-.39-.722m2.987,22.153c-.09-.3-.181-.6-.269-.9l25.559-7.68q.258.846.516,1.695l-25.806,6.885m-1.994-14.27c2.752-2.578,28.431-11.355,33.177-11.293l.324.9c-11.2,3.472-22.392,6.949-33.5,10.393m38.649,35.249c.05.308.1.618.152.925-5.556,3.807-12.351,1.191-18.145,3.769-.061-.31-.125-.623-.188-.935l18.181-3.759m-16.771,47.341c.233,6.475-2.759,13.172-9.776,17.694-8.48,5.464-18.27,2.268-21.93-7.109-3.215-8.231-1.716-15.847,3.876-22.563a15.186,15.186,0,0,1,17.133-4.9c6.317,2.157,10.125,7.582,10.7,16.873m-8.348-42.6.3.948c-5.088,1.521-10.095,3.495-15.288,4.439-5.08.921-10.352.789-15.438,1.115,9.4-4.9,20.517-2.951,30.43-6.5m-58.3,54.38q11.767-.75,23.535-1.5c.027.118.057.233.084.351q-11.832.753-23.664,1.51c.016-.118.03-.238.045-.358m-.639,75.569c.626.183,1.047,1.052,1.564,1.6-.8.215-1.7.779-2.389.588-4.635-1.278-9.2-2.8-13.84-4.06a31.107,31.107,0,0,0-5.148-.541c-.041-.4-.081-.8-.122-1.206,1.294-.276,2.7-1.025,3.862-.749,5.4,1.283,10.744,2.813,16.073,4.366m-46.095-43.528c2.426.881,3.2,3.237,2.324,8.055-4.228-.83-8.233-1.616-12.4-2.435,2.335-4.477,6.812-6.808,10.073-5.62m-14.978-57.116c-.78.625-1.559,1.247-2.495,2-2.172-2.05-4.23-4-6.288-5.943,3.178.819,4.363,5.3,8.783,3.947m-5.161,1.727c-.539,2.1-2.836,2.919-7.9,2.944-.553,2.911-1.1,5.767-1.714,9.006-.312-4.909-.6-9.334-.859-13.41,2.883,3.481,4.869,4.5,10.47,1.46m-21.468,3.211c3.845,2.237,5.592,5.149,7.27,8.614.934-1.559,1.747-2.917,2.559-4.275-.8,2.775-1.027,5.735-4.763,6.555-1.922.421-3.474,2.415-5.251,3.614-1.014.686-2.145,1.2-3.221,1.79-.105-.176-.211-.353-.318-.529l9.7-7.451c-1.725-2.4-3.582-4.981-5.978-8.318M1356.245,935.3c-.143-2.241-.274-4.3-.41-6.405,17.061-2.544,33.959-5.068,51.179-7.637-.086-9.456-.173-18.839-.256-28.223l.734-.011c.267,11.455.535,22.907.814,34.784-17.513,2.519-34.653,4.986-52.061,7.492m43.629,54.907c-11.558,1.421-21.715-5.427-27.549-19.19,2.638-.813,5.227-1.72,7.876-2.379,1.709-.425,2.378-1.231,1.945-2.94a10.091,10.091,0,0,1-.147-1.281c-.574-4.814-.574-4.812-5.454-5.7-.317-.057-.621-.181-.938-.233-7.868-1.329-7.965-1.32-8.609-9.37a98.021,98.021,0,0,1-.1-11.242,2.881,2.881,0,0,1,1.68-2.161c3.79-.688,7.629-1.091,11.526-1.6-.313,3.918-.608,7.605-.92,11.507l-6.6,1.369c.005.38.014.761.018,1.141,1.07.023,2.147.118,3.21.05,1.276-.084,2.541-.3,3.98-.485,4.345,14.347,15.756,18.634,28.7,20.406-2.876,7.372-5.7,14.63-8.622,22.11m12.154-20.863c.251-.6,1.491-1.034,2.314-1.109,3.611-.335,7.24-.507,11.1-.754.254,1.793.614,4.378,3.844,3.509,3.056-.82,2.231-3.112,1.328-5.3,3.505-1.453,6.887-2.859,10.574-4.391-.933,3.223-1.7,6.176-2.674,9.06a6.638,6.638,0,0,1-1.863,2.906c-8.686,7.136-18.136,12.93-29.089,15.961-.9.249-1.851.3-3.783.6,2.893-7.256,5.49-13.9,8.247-20.474m-7.734,23.572c12.194-2.376,22.544-8.322,32.544-15.84-1.246,6.124-2.223,11.9-3.644,17.56-.912,3.626-.325,4.719,3.309,6.009,6.886,2.445,13.652,5.222,20.47,7.861-.143.45-.283.9-.424,1.349a11.758,11.758,0,0,1-1.978-.426c-6.365-2.542-12.658-5.276-19.111-7.566a6.559,6.559,0,0,0-5.224.779c-5.574,4.019-10.883,8.405-16.293,12.651-.923.725-1.868,1.417-2.967,2.246-4.749-7.594-7.213-15.6-6.682-24.623m36.568,51.7-25.439-11.178a55.816,55.816,0,0,1,25.439,11.178m-18.308-29.762c.077-.3.156-.607.233-.91l6.744,1.586-.483,1.675-6.494-2.351m8.328-11.258c8.93.994,16,4.54,23.233,8.945-7.775-2.995-15.121-5.822-23.233-8.945M1408.877,1076q-.7-.774-1.408-1.546c.925-1.222,1.61-2.8,2.813-3.61,8.115-5.429,16.341-10.7,24.537-16.01.888-.577,1.824-1.08,3.413-2.012l-22.46-14c8.731,2.927,16.485,7.661,23.956,13.292,9.044-5.807,18.05-11.59,27.352-17.565.939,2.318,1.8,4.45,2.847,7.048q-30.638,17.266-61.05,34.4m56.71-94.021c.049-5.249,3.026-8.248,8.191-9.112,1.494-.251,2.911-1.272,4.377-1.3a7.144,7.144,0,0,1,4.15,1.781c-6.43,1.573-13.953.132-16.718,8.635m2.552,90.051c-.726-.047-1.82-.518-2.008-1.052a2.345,2.345,0,0,1,.9-2.064q11.9-7,23.907-13.815c1.129-.645,2.257-1.465,3.6.165.541.656,2.232.448,3.406.484,14.292.448,28.581.937,42.874,1.211,1.771.034,3.573-1.08,5.322-1.756.161-.061.048-.826.075-1.661l5.365.287c.014.2.03.41.041.616.1,1.586-1.446,3.954-2.91,4.845-8.611,5.247-17.385,10.233-26.219,15.1-1,.552-2.72-.267-4.111-.326q-20.77-.9-41.546-1.745c-2.9-.118-5.8-.1-8.7-.288m17.575-66.072q1.548,13.893,3.1,27.787c-1.591-9.284-3.733-18.519-3.1-27.787m21.826,27.635c-3.846.247-7.725.263-11.526.819-2.466.362-3.139-.255-3.407-2.657-.7-6.283-1.715-12.527-2.679-19.3l25.965-1.659,25.273-1.613.014-.446-51.322,2.9c-.016-.41-.03-.819-.045-1.229,17.446-1.116,34.893-2.229,52.559-3.356,1.206,10.843,2.366,21.272,3.577,32.175-5,.092-9.785.269-14.566.244q-11.441-.054-22.877-.378c-1.256-.036-2.491-.79-3.736-1.213q-5.994.379-11.988.765c-.011-.113-.02-.224-.032-.337q5.975-.381,11.946-.763a74.772,74.772,0,0,0-7.446-.935c-2.544-.084-5.1.272-7.655.435l-.1-1.021,18.147-1.159q-.048-.638-.1-1.274m89.2-29.74c8.942,5.661,11.342,14.23,10.522,24.2.183-9.71-2.4-18.174-10.522-24.2m7.634,19.935c.521,7.132-3.915,12.74-10.536,13.322-6.446.566-12.684-4.644-13.448-11.23-.514-4.418-.51-8.78,1.508-12.9,2.2-4.5,6.224-6.156,11.006-4.556,6.1,2.044,10.971,8.564,11.47,15.365m-9.541,28.758c.556.045,1.447.79,1.469,1.251a2.248,2.248,0,0,1-1.178,1.616c-2.4,1.179-4.273.041-4.357-2.673a27.909,27.909,0,0,1,4.066-.194m-4.392-3.916c.267-1.079,1.6-2.725,2.355-2.655,1.119.1,2.117,1.5,3.166,2.343l-2.62,3.058c-1.351-1.225-3.035-2.209-2.9-2.746m-4.008-6.561c5.245,1.691,10.035.736,14.826-2.732-3.112,4.167-9.218,5.24-14.826,2.732m6.7,31.566c4.71.683,8.151-1.417,9.83-5.957.78-2.1,1.163-4.35,1.9-6.471.576-1.652,1-3.922,3.6-3.026,2.213.765,3,2.567,2.578,4.907a15.389,15.389,0,0,1-13.143,12.419c-10.433,1.31-24.108-6.684-27.6-17.256-2.435-7.369-3.681-15.209-4.735-22.938-2.521-18.525-4.6-37.109-6.9-55.663a25.148,25.148,0,0,0-1.1-4.69c-1.31-3.988-4.035-5.925-8.276-5.728-5.675.265-11.342.7-17.013,1.061l-.368-.995a8.024,8.024,0,0,1,2.145-.842c5.152-.437,10.3-.89,15.465-1.13,5.3-.246,8.734,2.035,9.994,7.22a148.341,148.341,0,0,1,2.885,16.47c1.719,13.648,3.137,27.331,4.858,40.977.764,6.065,1.967,12.074,2.971,18.111a2.677,2.677,0,0,0,.182.943c3.391,5.516,6.464,11.267,10.318,16.441,2.908,3.9,7.629,5.454,12.419,6.147m-41.578-20.216c-1.777-16.526-3.536-32.9-5.295-49.278l.2-.034c.762,4.9,1.761,9.768,2.24,14.691,1.119,11.527,2.126,23.067,2.853,34.621m-7.579-53.173c-16.731,1.659-34.22,3.395-52.329,5.189,3.069-2.084,50.758-6.038,52.329-5.189m-34.787,39.6c11.288.054,22.574.181,33.859.265,1.555.011,3.478-.6,3.153,2.483-2.307.147-4.42.28-6.53.416,0,.168,0,.335.005.5l6.414-.41c-.011.269-.02.536-.031.806-3.022-.521-5.982,1.19-9.23-1.032-1.458-1-4.352.092-6.58.676l5.965-.38c0,.229.007.455.01.684q-8.171.084-16.343.169c-7.2.075-14.4.082-21.6.263-2.385.059-3.171-.559-2.072-3.074-1.813-.1-3.763-.208-6.133-.341.3,2.5.553,4.56.8,6.622l-.6.077-1.038-7.645c6.961-.032,13.457-.111,19.951-.082m-35.893,49.865-.07-.81c4.042-1.361,16.15-1.458,18.716.5l-18.646.306m145.058-8.365c-23.932,1.98-47.843,4.216-71.785,5.995-11.7.869-23.454.937-35.186,1.338-1.788.061-3.583-.034-5.376-.057.022-.129.047-.26.07-.389,18.376-1.175,36.77-2.13,55.123-3.592,14.373-1.145,28.712-2.788,43.03-4.5,3.733-.448,7.337-1.98,11.062-3.032-.565-28.522-3.573-56.241-7.045-83.921-.333-2.664-.877-5.312-1.041-7.985-.063-1.029.664-2.107,1.032-3.164l1.249.224q1.125,8.733,2.25,17.466c2.4,18.437,4.86,36.867,7.172,55.315.948,7.568,1.544,15.18,2.355,22.766.24,2.257-.5,3.339-2.91,3.538m30.944-86.34c-3.828,1.754-7.879,3.024-11.829,4.511-.132-.324-.261-.645-.393-.969,1.12-.475,2.229-.971,3.357-1.419,2.29-.91,4.658-1.652,6.871-2.718,6.208-2.99,7.656-5.593,5.419-12.07-4.2-12.152-8.8-24.168-13.384-36.181-2.682-7.023-7.805-10.524-15.525-9.929-6,.462-12.006.781-18.507,1.2,9.216,23.588,20.849,45.723,31.908,68.118l-1.07.55c-4.7-9.221-9.4-18.441-14.189-27.85-9.987,3.918-19.181.919-28.157-3.37-4.363-2.084-8.67-4.313-12.884-6.685-15.186-8.549-31.257-13.476-48.9-12.919-19.527.618-38.9,2.354-57.811,7.423-5.649,1.515-10.88,4.1-16.44-.23a21.7,21.7,0,0,1-8.654-17.9c-.007-5.814.924-11.629,1.439-17.443.313.025.626.047.938.072a15.529,15.529,0,0,1,.118,2.049c-.233,3.342-1.435,6.753,1.26,9.795.517.584.2,1.872.334,2.827a47.8,47.8,0,0,0,1.149,7.27c2.8,9.125,9.57,13.206,18.818,11.264,16.8-3.524,33.8-5.231,50.891-6.469,20.676-1.5,39.916,2.655,57.9,13.028,7.888,4.549,15.806,9.214,24.92,11.088a25.432,25.432,0,0,0,14.62-.765c-8.935-19.641-19.04-38.456-24.4-59.411,2.854-.016,3.566,1.018,3.915,3.3a95.01,95.01,0,0,0,3.139,13.059c.247.817,2.042,1.677,3.108,1.657,6.561-.138,13.117-.6,19.679-.8a11.552,11.552,0,0,1,11.3,6.667c2.946,5.942,5.589,12.055,7.953,18.249,2.94,7.7,5.567,15.533,8.126,23.375,1.8,5.514.207,9.246-5.023,11.636m29.46-8.021c-.308.256-.614.514-.92.769a22.472,22.472,0,0,1-2.138-3.376c-6.462-15.635-12.729-31.354-19.35-46.923-2.763-6.5-6.281-12.679-9.382-19.041a43.11,43.11,0,0,1-1.63-4.818c5.7,2.967,28.232,53.429,33.42,73.389m-4.515-24.577c-.784-2.064-1.331-3.5-1.977-5.194l8.267-2.288c.156.21.31.418.467.626l-6.757,6.856m38.728-34.88c-10.4,12.512-24.36,19.786-39.628,24.756-.811.265-1.636.476-2.761.8-1.487-3.451-2.958-6.862-4.436-10.289,26.087-7.942,42.163-33.972,33.9-52.352,5.392-1.005,10.438-2.05,15.531-2.783.812-.118,2.256.946,2.677,1.815,6.7,13.824,4.194,26.657-5.279,38.054" fill="#121314"/>
            <path id="Pfad_886" data-name="Pfad 886" d="M1381,771.987c-2.439-.729-4.291-1.872-4.475-4.744-.2-3.175,1.49-4.934,4.119-6.19-3.9.414-5.873,3.035-5.277,6.742a4.7,4.7,0,0,0,5.633,4.192" fill="#121314"/>
            <path id="Pfad_887" data-name="Pfad 887" d="M1356.535,764.143c1.933,6.43,3.84,11.081,5.651,17.371l.079-.177c.367,1.415.809,2.813,1.312,4.18,2.537,6.9,5.082,13.806,7.845,20.621a4.459,4.459,0,0,0,3.078,2.286,49.735,49.735,0,0,0,9.765.179c14.078-1.308,27.676-4.952,41.129-9.076,15.282-4.685,30.412-9.875,45.7-14.539,12.839-3.918,25.743-7.56,37.883-13.442,3.314-1.607,4.724-3.933,4.867-7.557a106.852,106.852,0,0,0-5.658-38.693c-3.074-9.089-7.21-17.841-11.2-26.6-2.024-4.445-5.88-6.369-10.882-5.69-3.412.462-6.914.5-10.241,1.29-16.1,3.821-32.175,7.705-48.2,11.8-23.525,6.013-46.679,13.177-68.6,23.789-2.044.989-3.694,2.927-5.209,4.819a3.306,3.306,0,0,0-1.244,1.706l-.233-.077s-.173,9.975,1.4,17.131c.916,4.189,1.836,7.623,2.749,10.658a.181.181,0,0,0-.009.02l.014,0m138.4-64.9c3.783,8.367,7.858,16.662,10.844,25.321a115.986,115.986,0,0,1,5.934,38.008,26.088,26.088,0,0,1-.408,5.115,8.949,8.949,0,0,1-1.51,2.539c-.063-26.768-5.8-51.573-19.428-74.539,2.584-.251,3.77,1.788,4.568,3.556m-40.224,35.959c5.859-.4,10.2,3.211,10.587,8.8a9.469,9.469,0,0,1-9.032,10.472,9.933,9.933,0,0,1-10.74-9.27,9.479,9.479,0,0,1,9.185-10m-74.091,22.415c4.626-.217,8.659,3.685,8.922,8.635.283,5.325-3.378,9.759-8.246,9.995-4.493.215-8.931-3.973-9.119-8.6-.2-4.995,3.853-9.814,8.443-10.029m-9.094,3.8.22-.014c-.063.157-.129.313-.193.467Z" fill="#121314"/>
            <path id="Pfad_888" data-name="Pfad 888" d="M1356.517,679.252c-.721-5.77-1.39-11.122-2.072-16.588l-11.954,2.055c.664,5.726,1.289,11.113,1.938,16.692,4.2-.752,8.053-1.44,12.088-2.159" fill="#121314"/>
            <path id="Pfad_889" data-name="Pfad 889" d="M1338.969,673.114c-1.192-.658-2-1.159-2.858-1.57-1.8-.872-3.631-1.7-6.068-2.83,1.258,4.16,2.31,7.637,3.518,11.629,2-2.675,3.663-4.9,5.408-7.229" fill="#121314"/>
          </g>
        </g>
        <g id="Gruppe_269" data-name="Gruppe 269">
          <path id="Pfad_891" data-name="Pfad 891" d="M1448.3,1338.431l-2.265-43.15-18.089.946-.808-15.39,54.774-2.867.808,15.39-18.594.975,2.265,43.15Z" fill="#aa8cbc"/>
          <path id="Pfad_892" data-name="Pfad 892" d="M1520.879,1335.472a34.546,34.546,0,0,1-12.768-1.6,30.287,30.287,0,0,1-10.383-5.831,28.138,28.138,0,0,1-7.084-9.356,33.67,33.67,0,0,1-1.284-24.46,28.215,28.215,0,0,1,6.068-10,30.309,30.309,0,0,1,9.717-6.88,36.709,36.709,0,0,1,25.334-1.326,30.467,30.467,0,0,1,10.342,5.83,28.22,28.22,0,0,1,7.081,9.316,33.674,33.674,0,0,1,1.284,24.461,28.057,28.057,0,0,1-6.065,10.043,30.338,30.338,0,0,1-9.676,6.881A34.394,34.394,0,0,1,1520.879,1335.472Zm-.879-16.725a13.051,13.051,0,0,0,6.65-2.109,12.571,12.571,0,0,0,4.431-5.139,15.751,15.751,0,0,0-.75-14.3,12.566,12.566,0,0,0-4.945-4.646,13.845,13.845,0,0,0-13.485.705,12.552,12.552,0,0,0-4.434,5.137,15.774,15.774,0,0,0,.75,14.3,12.6,12.6,0,0,0,4.95,4.648A13.039,13.039,0,0,0,1520,1318.747Z" fill="#aa8cbc"/>
          <path id="Pfad_893" data-name="Pfad 893" d="M1562.456,1332.457l-3.073-58.54,15.579-.816,16.356,23.632,13.963-25.217,15.077-.789,3.072,58.541-17.423.91-.732-13.964q-.224-4.267-.3-8.037t-.007-7.3l-10.078,17.552-5.529.289-11.426-16.088q.425,3.246.7,6.923t.505,8.025l.733,13.964Z" fill="#aa8cbc"/>
        </g>
        <g id="Gruppe_270" data-name="Gruppe 270">
          <path id="Pfad_894" data-name="Pfad 894" d="M1364.169,1426.69l-2.264-43.15-18.091.946-.808-15.39,54.774-2.867.808,15.39-18.592.973,2.264,43.15Z" fill="#aa8cbc"/>
          <path id="Pfad_895" data-name="Pfad 895" d="M1410.065,1424.288l-3.073-58.541,43.8-2.292.768,14.637-26.465,1.383.389,7.444,23.367-1.222.719,13.712-23.366,1.223.427,8.113,27.973-1.463.768,14.634Z" fill="#aa8cbc"/>
          <path id="Pfad_896" data-name="Pfad 896" d="M1494.865,1420.69a36.023,36.023,0,0,1-13.057-1.581,30.821,30.821,0,0,1-10.55-5.78,27.821,27.821,0,0,1-7.165-9.311,31.565,31.565,0,0,1-2.991-12.168,31.158,31.158,0,0,1,1.742-12.421,28.123,28.123,0,0,1,6.236-10.01,31.054,31.054,0,0,1,10.012-6.854,37.15,37.15,0,0,1,13.073-2.949,33.917,33.917,0,0,1,12.048,1.55,27.291,27.291,0,0,1,10.528,6.157l-10.143,13.193a14.7,14.7,0,0,0-4.757-3.441,14.514,14.514,0,0,0-6.99-1.145,14.664,14.664,0,0,0-6.9,2.04,12.6,12.6,0,0,0-4.768,5.2,15.525,15.525,0,0,0-1.472,7.957,13.216,13.216,0,0,0,4.724,9.986q4.389,3.63,11.424,3.262a15.133,15.133,0,0,0,6.829-1.951,17.265,17.265,0,0,0,4.947-4.118l9.339,13.1a20.6,20.6,0,0,1-5.561,4.482,35.648,35.648,0,0,1-7.805,3.3A37.5,37.5,0,0,1,1494.865,1420.69Z" fill="#aa8cbc"/>
          <path id="Pfad_897" data-name="Pfad 897" d="M1525.054,1418.269l-3.073-58.54,18.092-.946,1.126,21.495,16.836-.88-1.129-21.495,18.092-.948,3.072,58.54-18.091.949-1.118-21.325-16.836.88,1.12,21.324Z" fill="#aa8cbc"/>
          <path id="Pfad_898" data-name="Pfad 898" d="M1591.466,1414.8l-3.072-58.54,16.163-.847,24.163,29.933q-.613-3.739-1.013-6.529t-.687-5.877q-.288-3.087-.449-7.773l-.571-10.875,17.418-.912,3.073,58.54-16.332.855-23.437-28.96q.5,3.162.786,6.164t.542,7.937l.839,15.973Z" fill="#aa8cbc"/>
          <path id="Pfad_899" data-name="Pfad 899" d="M1688.158,1410.576a34.546,34.546,0,0,1-12.765-1.6,30.252,30.252,0,0,1-10.38-5.831,28,28,0,0,1-7.085-9.356,33.672,33.672,0,0,1-1.284-24.461,28.185,28.185,0,0,1,6.07-10,30.326,30.326,0,0,1,9.713-6.881,36.758,36.758,0,0,1,25.336-1.326,30.419,30.419,0,0,1,10.341,5.833,28.184,28.184,0,0,1,7.082,9.314,33.67,33.67,0,0,1,1.283,24.461,28.09,28.09,0,0,1-6.065,10.045,30.345,30.345,0,0,1-9.675,6.878A34.4,34.4,0,0,1,1688.158,1410.576Zm-.879-16.728a13.035,13.035,0,0,0,6.652-2.108,12.586,12.586,0,0,0,4.434-5.139,15.773,15.773,0,0,0-.751-14.3,12.557,12.557,0,0,0-4.947-4.646,13.824,13.824,0,0,0-13.482.707,12.492,12.492,0,0,0-4.432,5.137,15.75,15.75,0,0,0,.75,14.3,12.587,12.587,0,0,0,4.945,4.648A13.042,13.042,0,0,0,1687.279,1393.848Z" fill="#aa8cbc"/>
        </g>
      </g>
    </g>
  </g>
</svg>
