<svg id="final_scene_bg" xmlns="http://www.w3.org/2000/svg" width="2000" height="1200" viewBox="0 0 2000 1200">
  <rect id="bg" width="2000" height="1200" fill="#1d1e20"/>
  <g id="data_transfer">
    <rect id="Rechteck_1" data-name="Rechteck 1" width="640" height="368" rx="32" transform="translate(864 472)" fill="rgba(191,212,255,0.1)" stroke="#bfd4ff" stroke-width="2"/>
    <g id="handy">
      <path id="Pfad_1" data-name="Pfad 1" d="M704,472H512a16,16,0,0,0-16,16V824a16,16,0,0,0,16,16H704a16,16,0,0,0,16-16V488A16,16,0,0,0,704,472Zm-8,320a16,16,0,0,1-16,16H536a16,16,0,0,1-16-16V536a16,16,0,0,1,16-16H680a16,16,0,0,1,16,16Z" fill="#bfd4ff" opacity="0.1"/>
      <rect id="Rechteck_2" data-name="Rechteck 2" width="224" height="368" rx="16" transform="translate(496 472)" fill="none" stroke="#bfd4ff" stroke-width="2"/>
      <circle id="Ellipse_1" data-name="Ellipse 1" cx="12" cy="12" r="12" transform="translate(596 484)" fill="#bfd4ff"/>
      <rect id="Rechteck_3" data-name="Rechteck 3" width="176" height="288" rx="16" transform="translate(520 520)" fill="none" stroke="#bfd4ff" stroke-width="2"/>
      <line id="Linie_1" data-name="Linie 1" x2="48" transform="translate(584 824)" fill="none" stroke="#bfd4ff" stroke-linecap="round" stroke-width="3"/>
    </g>
    <line id="Linie_1-2" data-name="Linie 1" x1="64" y2="64" transform="translate(928 520)" fill="none" stroke="#bfd4ff" stroke-linecap="round" stroke-width="3"/>
    <line id="Linie_6" data-name="Linie 6" x1="491.998" transform="translate(608 656)" fill="none" stroke="#bfd4ff" stroke-linecap="round" stroke-width="3"/>
    <path id="Pfad_3" data-name="Pfad 3" d="M1067.74,626.858,1104,656.342s-27.622,20.928-36.26,28.8" fill="none" stroke="#bfd4ff" stroke-linecap="round" stroke-width="3"/>
  </g>
</svg>
