<svg id="game_info_bg" xmlns="http://www.w3.org/2000/svg" xmlns:xlink="http://www.w3.org/1999/xlink" width="2000" height="1200" viewBox="0 0 2000 1200">
  <defs>
    <filter id="Rechteck_3" x="264" y="488" width="60.5" height="76.5" filterUnits="userSpaceOnUse">
      <feOffset dx="8" dy="8" input="SourceAlpha"/>
      <feGaussianBlur stdDeviation="1.5" result="blur"/>
      <feFlood flood-opacity="0.6"/>
      <feComposite operator="in" in2="blur"/>
      <feComposite in="SourceGraphic"/>
    </filter>
  </defs>
  <rect id="bg" width="2000" height="1200" fill="#1d1e20"/>
  <path id="number" d="M22.854,34.34A8.9,8.9,0,0,1,18.349,33.2a10.718,10.718,0,0,1-3.655-3.893l1.53-.952a9.385,9.385,0,0,0,3.2,3.366,7.282,7.282,0,0,0,3.57.918,5.863,5.863,0,0,0,3.026-.8A6.017,6.017,0,0,0,28.175,29.7a5.773,5.773,0,0,0,.8-3.009,6.018,6.018,0,0,0-.8-3.077,5.934,5.934,0,0,0-2.159-2.176,5.863,5.863,0,0,0-3.026-.8,5.481,5.481,0,0,0-1.819.357,7.01,7.01,0,0,0-2.3,1.581l-.612-1.564,8.568-9.18H16.7V10.2H28.77l.68,1.36-7.174,7.446a4.366,4.366,0,0,1,.782-.068,7.56,7.56,0,0,1,3.927,1.037,7.689,7.689,0,0,1,2.771,2.788,7.592,7.592,0,0,1,1.02,3.893,7.5,7.5,0,0,1-1.037,3.893A7.574,7.574,0,0,1,26.9,33.32,8.068,8.068,0,0,1,22.854,34.34Z" transform="translate(1344 737.989)" fill="#bfd4ff"/>
  <path id="number-2" data-name="number" d="M16.53,34l-.51-1.224,8.67-9.758a19.745,19.745,0,0,0,1.615-2.04,15.624,15.624,0,0,0,1.428-2.5,6.04,6.04,0,0,0,.595-2.5,3.933,3.933,0,0,0-1.462-3.247,5.9,5.9,0,0,0-3.808-1.173,7.069,7.069,0,0,0-2.567.493,6.023,6.023,0,0,0-2.329,1.683A8.163,8.163,0,0,0,16.53,17L15.1,16.184a8.588,8.588,0,0,1,3.128-4.777,8.408,8.408,0,0,1,5-1.547,7.751,7.751,0,0,1,3.485.782,6.358,6.358,0,0,1,2.516,2.176,5.662,5.662,0,0,1,.935,3.23,7.5,7.5,0,0,1-1.156,4.012,30.421,30.421,0,0,1-2.822,3.808L18.638,32.4H30.912V34Z" transform="translate(708 737.989)" fill="#bfd4ff"/>
  <path id="number-3" data-name="number" d="M21.256,34V32.3h3.23V12.682l-3.468,2.346-.544-1.666,5.44-3.5h.272V32.3h3.332V34Z" transform="translate(72 737.989)" fill="#bfd4ff"/>
  <g id="playing_ground">
    <rect id="Rechteck_1" data-name="Rechteck 1" width="288" height="256" rx="24" transform="translate(216 344)" fill="rgba(191,212,255,0.1)" stroke="#bfd4ff" stroke-width="2"/>
    <rect id="Rechteck_2" data-name="Rechteck 2" width="48" height="64" rx="8" transform="translate(240 368)" fill="#bfd4ff"/>
    <g transform="matrix(1, 0, 0, 1, 0, 0)" filter="url(#Rechteck_3)">
      <rect id="Rechteck_3-2" data-name="Rechteck 3" width="48" height="64" rx="8" transform="translate(264 488)" fill="#bfd4ff"/>
    </g>
    <rect id="Rechteck_4" data-name="Rechteck 4" width="48" height="64" rx="8" transform="translate(304 368)" fill="#bfd4ff"/>
    <rect id="Rechteck_5" data-name="Rechteck 5" width="48" height="64" rx="8" transform="translate(368 368)" fill="#bfd4ff"/>
    <rect id="Rechteck_20" data-name="Rechteck 20" width="48" height="64" rx="8" transform="translate(432 368)" fill="#bfd4ff"/>
    <g id="Rechteck_6" data-name="Rechteck 6" transform="translate(240 440)" fill="none" stroke="#bfd4ff" stroke-width="2">
      <rect width="48" height="64" rx="8" stroke="none"/>
      <rect x="1" y="1" width="46" height="62" rx="7" fill="none"/>
    </g>
    <g id="Rechteck_7" data-name="Rechteck 7" transform="translate(304 440)" fill="none" stroke="#bfd4ff" stroke-width="2">
      <rect width="48" height="64" rx="8" stroke="none"/>
      <rect x="1" y="1" width="46" height="62" rx="7" fill="none"/>
    </g>
    <g id="Rechteck_8" data-name="Rechteck 8" transform="translate(368 440)" fill="none" stroke="#bfd4ff" stroke-width="2">
      <rect width="48" height="64" rx="8" stroke="none"/>
      <rect x="1" y="1" width="46" height="62" rx="7" fill="none"/>
    </g>
    <g id="Rechteck_9" data-name="Rechteck 9" transform="translate(432 440)" fill="none" stroke="#bfd4ff" stroke-width="2">
      <rect width="48" height="64" rx="8" stroke="none"/>
      <rect x="1" y="1" width="46" height="62" rx="7" fill="none"/>
    </g>
    <g id="Rechteck_10" data-name="Rechteck 10" transform="translate(240 512)" fill="none" stroke="#bfd4ff" stroke-width="2">
      <rect width="48" height="64" rx="8" stroke="none"/>
      <rect x="1" y="1" width="46" height="62" rx="7" fill="none"/>
    </g>
    <g id="Rechteck_11" data-name="Rechteck 11" transform="translate(304 512)" fill="none" stroke="#bfd4ff" stroke-width="2">
      <rect width="48" height="64" rx="8" stroke="none"/>
      <rect x="1" y="1" width="46" height="62" rx="7" fill="none"/>
    </g>
    <g id="Rechteck_12" data-name="Rechteck 12" transform="translate(368 512)" fill="none" stroke="#bfd4ff" stroke-width="2">
      <rect width="48" height="64" rx="8" stroke="none"/>
      <rect x="1" y="1" width="46" height="62" rx="7" fill="none"/>
    </g>
    <g id="Rechteck_13" data-name="Rechteck 13" transform="translate(432 512)" fill="none" stroke="#bfd4ff" stroke-width="2">
      <rect width="48" height="64" rx="8" stroke="none"/>
      <rect x="1" y="1" width="46" height="62" rx="7" fill="none"/>
    </g>
  </g>
  <g id="scan">
    <rect id="Rechteck_14" data-name="Rechteck 14" width="76" height="101.333" rx="8" transform="translate(1036 400)" fill="#bfd4ff"/>
    <path id="Pfad_1" data-name="Pfad 1" d="M1044,501.333l-6.021-2.733L940,387.792,1044,400Z" fill="#bfd4ff" opacity="0.3"/>
    <path id="Pfad_2" data-name="Pfad 2" d="M938.834,391.36" fill="#bfd4ff" opacity="0.3"/>
    <line id="Linie_7" data-name="Linie 7" x1="4.855" y1="1.651" transform="translate(1037.979 499.042)" fill="#bfd4ff" opacity="0.3"/>
    <g id="handy">
      <path id="Pfad_3" data-name="Pfad 3" d="M988,376H892a8,8,0,0,0-8,8V552a8,8,0,0,0,8,8h96a8,8,0,0,0,8-8V384A8,8,0,0,0,988,376Zm-4,160a8,8,0,0,1-8,8H904a8,8,0,0,1-8-8V408a8,8,0,0,1,8-8h72a8,8,0,0,1,8,8Z" fill="#bfd4ff" opacity="0.1"/>
      <rect id="Rechteck_15" data-name="Rechteck 15" width="112" height="184" rx="8" transform="translate(884 376)" fill="none" stroke="#bfd4ff" stroke-width="2"/>
      <circle id="Ellipse_1" data-name="Ellipse 1" cx="6" cy="6" r="6" transform="translate(934 382)" fill="#bfd4ff"/>
      <rect id="Rechteck_16" data-name="Rechteck 16" width="88" height="144" rx="8" transform="translate(896 400)" fill="none" stroke="#bfd4ff" stroke-width="2"/>
      <line id="Linie_8" data-name="Linie 8" x2="24" transform="translate(928 552)" fill="none" stroke="#bfd4ff" stroke-linecap="round" stroke-width="3"/>
    </g>
  </g>
  <g id="data_transfer">
    <rect id="Rechteck_17" data-name="Rechteck 17" width="320" height="184" rx="16" transform="translate(1568 376)" fill="rgba(191,212,255,0.1)" stroke="#bfd4ff" stroke-width="2"/>
    <g id="handy-2" data-name="handy">
      <path id="Pfad_4" data-name="Pfad 4" d="M1488,376h-96a8,8,0,0,0-8,8V552a8,8,0,0,0,8,8h96a8,8,0,0,0,8-8V384A8,8,0,0,0,1488,376Zm-4,160a8,8,0,0,1-8,8h-72a8,8,0,0,1-8-8V408a8,8,0,0,1,8-8h72a8,8,0,0,1,8,8Z" fill="#bfd4ff" opacity="0.1"/>
      <rect id="Rechteck_18" data-name="Rechteck 18" width="112" height="184" rx="8" transform="translate(1384 376)" fill="none" stroke="#bfd4ff" stroke-width="2"/>
      <circle id="Ellipse_2" data-name="Ellipse 2" cx="6" cy="6" r="6" transform="translate(1434 382)" fill="#bfd4ff"/>
      <rect id="Rechteck_19" data-name="Rechteck 19" width="88" height="144" rx="8" transform="translate(1396 400)" fill="none" stroke="#bfd4ff" stroke-width="2"/>
      <line id="Linie_9" data-name="Linie 9" x2="24" transform="translate(1428 552)" fill="none" stroke="#bfd4ff" stroke-linecap="round" stroke-width="3"/>
    </g>
    <line id="Linie_1" data-name="Linie 1" x1="32" y2="32" transform="translate(1600 400)" fill="none" stroke="#bfd4ff" stroke-linecap="round" stroke-width="3"/>
    <line id="Linie_6" data-name="Linie 6" x1="245.999" transform="translate(1440 468)" fill="none" stroke="#bfd4ff" stroke-linecap="round" stroke-width="3"/>
    <path id="Pfad_3-2" data-name="Pfad 3" d="M1669.87,453.429,1688,468.171s-13.811,10.464-18.13,14.4" fill="none" stroke="#bfd4ff" stroke-linecap="round" stroke-width="3"/>
  </g>
</svg>
