<svg xmlns="http://www.w3.org/2000/svg" xmlns:xlink="http://www.w3.org/1999/xlink" width="112" height="104" viewBox="0 0 112 104">
  <defs>
    <filter id="card_number_btn_up" x="12.25" y="8.25" width="87.5" height="87.5" filterUnits="userSpaceOnUse">
      <feOffset input="SourceAlpha"/>
      <feGaussianBlur stdDeviation="1.25" result="blur"/>
      <feFlood flood-opacity="0.149"/>
      <feComposite operator="in" in2="blur"/>
      <feComposite in="SourceGraphic"/>
    </filter>
  </defs>
  <g id="send_data_btn_down" transform="translate(-1720 -992)">
    <rect id="bounding_box" width="112" height="104" transform="translate(1720 992)" fill="none"/>
    <g transform="matrix(1, 0, 0, 1, 1720, 992)" filter="url(#card_number_btn_up)">
      <circle id="card_number_btn_up-2" data-name="card_number_btn_up" cx="40" cy="40" r="40" transform="translate(16 12)" fill="#bfd4ff"/>
    </g>
    <g id="icon_download">
      <path id="Pfad_1" data-name="Pfad 1" d="M1783,1035h5.267a3.513,3.513,0,0,1,3.733,3.241v18.518a3.513,3.513,0,0,1-3.733,3.241h-24.534a3.513,3.513,0,0,1-3.733-3.241v-18.518a3.513,3.513,0,0,1,3.733-3.241H1769" fill="none" stroke="#1d1e20" stroke-width="2"/>
      <g id="Gruppe_25" data-name="Gruppe 25">
        <line id="Linie_1" data-name="Linie 1" y1="24" transform="translate(1776 1023)" fill="none" stroke="#1d1e20" stroke-linecap="round" stroke-width="2"/>
        <line id="Linie_2" data-name="Linie 2" x2="7.08" y2="7.08" transform="translate(1776 1022.675)" fill="none" stroke="#1d1e20" stroke-linecap="round" stroke-width="2"/>
        <line id="Linie_3" data-name="Linie 3" x1="7.08" y2="7.08" transform="translate(1768.92 1022.675)" fill="none" stroke="#1d1e20" stroke-linecap="round" stroke-width="2"/>
      </g>
    </g>
  </g>
</svg>
